<?xml version="1.0" encoding="iso-8859-1"?>
<!-- Generator: Adobe Illustrator 19.0.0, SVG Export Plug-In . SVG Version: 6.00 Build 0)  -->
<svg version="1.1" id="Capa_1" xmlns="http://www.w3.org/2000/svg" xmlns:xlink="http://www.w3.org/1999/xlink" x="0px" y="0px"
	 viewBox="0 0 512 512" style="enable-background:new 0 0 512 512;" xml:space="preserve">
<circle style="fill:#FFD93B;" cx="256" cy="256" r="256"/>
<path style="fill:#F4C534;" d="M512,256c0,141.44-114.64,256-256,256c-80.48,0-152.32-37.12-199.28-95.28
	c43.92,35.52,99.84,56.72,160.72,56.72c141.36,0,256-114.56,256-256c0-60.88-21.2-116.8-56.72-160.72
	C474.8,103.68,512,175.52,512,256z"/>
<g>
	<path style="fill:#3E4347;" d="M214.608,218.688c0,4.064-0.496,8.048-1.424,11.824c-10.112-17.088-28.688-28.544-49.984-28.544
		c-21.28,0-39.872,11.456-49.984,28.544c-0.928-3.776-1.424-7.76-1.424-11.824c0-28.336,22.992-51.408,51.408-51.408
		C191.616,167.296,214.608,190.368,214.608,218.688z"/>
	<path style="fill:#3E4347;" d="M400.192,218.688c0,4.064-0.496,8.048-1.424,11.824c-10.112-17.088-28.688-28.544-49.984-28.544
		c-21.28,0-39.872,11.456-49.984,28.544c-0.928-3.776-1.424-7.76-1.424-11.824c0-28.336,22.992-51.408,51.408-51.408
		C377.2,167.296,400.192,190.368,400.192,218.688z"/>
	<path style="fill:#3E4347;" d="M139.392,355.296c-4.576-4.8-4.384-12.4,0.416-16.976c4.8-4.56,12.4-4.384,16.976,0.416
		c47.696,50.096,150.752,50.096,198.448,0c4.576-4.8,12.16-4.976,16.976-0.416c4.8,4.576,4.992,12.16,0.416,16.976
		C315.472,415.28,196.544,415.296,139.392,355.296z"/>
</g>
<g>
	
		<ellipse transform="matrix(-0.7443 -0.6678 0.6678 -0.7443 491.2491 801.4727)" style="fill:#E24B4B;" cx="399.048" cy="306.698" rx="23.807" ry="32.319"/>
	
		<ellipse transform="matrix(-0.6985 -0.7156 0.7156 -0.6985 -27.5814 601.8721)" style="fill:#E24B4B;" cx="112.998" cy="306.746" rx="32.32" ry="23.808"/>
</g>
<g>
	<path style="fill:#E9B02C;" d="M302.784,120.816L302.784,120.816c0.992,7.984,7.728,13.056,15.312,11.888
		c28.8-4.4,71.008-2.48,95.84,33.68c-0.704-3.008-17.84-54.528-93.536-64.32C310.448,100.768,301.472,110.32,302.784,120.816z"/>
	<path style="fill:#E9B02C;" d="M209.232,120.816L209.232,120.816c-0.992,7.984-7.728,13.056-15.312,11.888
		c-28.8-4.4-71.008-2.48-95.84,33.68c0.704-3.008,17.84-54.528,93.536-64.32C201.552,100.768,210.528,110.32,209.232,120.816z"/>
</g>
<g>
</g>
<g>
</g>
<g>
</g>
<g>
</g>
<g>
</g>
<g>
</g>
<g>
</g>
<g>
</g>
<g>
</g>
<g>
</g>
<g>
</g>
<g>
</g>
<g>
</g>
<g>
</g>
<g>
</g>
</svg>
