<?xml version="1.0" encoding="iso-8859-1"?>
<!-- Generator: Adobe Illustrator 19.0.0, SVG Export Plug-In . SVG Version: 6.00 Build 0)  -->
<svg version="1.1" id="Capa_1" xmlns="http://www.w3.org/2000/svg" xmlns:xlink="http://www.w3.org/1999/xlink" x="0px" y="0px"
	 viewBox="0 0 512.026 512.026" style="enable-background:new 0 0 512.026 512.026;" xml:space="preserve">
<circle style="fill:#FFD93B;" cx="256.013" cy="256.013" r="256"/>
<path style="fill:#3E4347;" d="M155.037,387.581c-5.328-3.936-6.48-11.44-2.544-16.784c3.936-5.344,11.456-6.464,16.784-2.544
	c49.456,36.432,124.032,36.432,173.472,0c5.328-3.92,12.848-2.8,16.784,2.544c3.936,5.328,2.8,12.848-2.544,16.784
	C298.477,430.701,213.549,430.701,155.037,387.581z"/>
<path style="fill:#F4C534;" d="M512.013,256.013c0,141.44-114.64,256-256,256c-80.48,0-152.32-37.12-199.28-95.28
	c43.92,35.52,99.84,56.72,160.72,56.72c141.36,0,256-114.56,256-256c0-60.88-21.2-116.8-56.72-160.72
	C474.813,103.693,512.013,175.533,512.013,256.013z"/>
<g>
	<path style="fill:#38C0DC;" d="M131.773,318.589c44.112,4.656,86.8-24.512,87.424-60.272c0.352-19.376-12.704-34.688-30.88-45.408
		l-93.296,93.296C105.437,312.717,117.917,317.165,131.773,318.589z"/>
	<path style="fill:#38C0DC;" d="M67.709,275.277l77.824-77.824c-3.04-0.56-6.08-1.056-9.072-1.408
		c-1.424-0.16-2.8-0.224-4.192-0.336l-68.144,68.144C64.893,267.757,66.109,271.581,67.709,275.277z"/>
	<path style="fill:#38C0DC;" d="M169.085,203.901c-5.52-2.032-11.2-3.744-16.928-5.072l-81.808,81.808
		c2.496,4.528,5.584,8.816,9.216,12.784L169.085,203.901z"/>
</g>
<path style="fill:#3E4347;" d="M506.669,177.597c1.712,7.12,3.424,14.24,5.136,21.36c1.024,4.272-1.6,8.56-6.032,10.352
	c-16.816,6.832-28.992,21.52-31.584,38.688c-4.448,29.856-24.672,57.616-57.888,71.872c-77.552,32.88-154.016-16.976-152.48-81.232
	c-0.016-1.296,0.016-2.576,0.048-3.824c0.128-4.112-3.44-7.44-7.856-7.44l0,0c-4.416,0-7.984,3.328-7.856,7.44
	c0.048,1.248,0.064,2.528,0.048,3.824c1.536,64.256-74.928,114.096-152.48,81.232c-33.216-14.272-53.44-42.016-57.888-71.872
	c-2.592-17.168-14.752-31.856-31.584-38.688c-4.432-1.792-7.056-6.08-6.032-10.336c1.536-6.384,3.056-12.768,4.592-19.136
	c1.696-7.024,6.688-9.904,11.728-8.736c5.2,1.2,10.4,2.352,15.616,3.488c12.736,2.752,25.552-0.896,35.6-8.448
	c11.344-8.528,25.28-13.264,41.52-14.624c15.84-1.328,31.728,1.6,46.688,7.008c24.48,8.848,44.304,15.408,59.152,23.504
	c12.4,6.752,26.56,10.08,40.896,10.08l0,0c14.32,0,28.496-3.328,40.896-10.08c14.848-8.08,34.672-14.64,59.152-23.504
	c14.96-5.408,30.848-8.32,46.688-7.008c16.256,1.36,30.176,6.096,41.52,14.608c10.048,7.552,22.848,11.2,35.6,8.448
	c4.496-0.96,8.992-1.968,13.488-2.992C500.573,169.917,505.501,172.813,506.669,177.597z"/>
<path id="SVGCleanerId_0" style="fill:#45CBEA;" d="M220.413,243.805c-0.592,34.576-41.872,62.768-84.528,58.272
	c-42.528-4.352-71.808-38.16-65.616-72.128c6.048-34.128,32.576-50.544,70.128-46.352
	C177.933,188.013,221.021,209.341,220.413,243.805z"/>
<g>
	<path id="SVGCleanerId_0_1_" style="fill:#45CBEA;" d="M220.413,243.805c-0.592,34.576-41.872,62.768-84.528,58.272
		c-42.528-4.352-71.808-38.16-65.616-72.128c6.048-34.128,32.576-50.544,70.128-46.352
		C177.933,188.013,221.021,209.341,220.413,243.805z"/>
</g>
<path style="fill:#45CBEA;" d="M291.645,243.805c0.592,34.576,41.872,62.768,84.528,58.272c42.528-4.352,71.808-38.16,65.6-72.128
	c-6.064-34.128-32.576-50.544-70.128-46.352C334.125,188.013,291.037,209.341,291.645,243.805z"/>
<g>
	<path style="fill:#38C0DC;" d="M70.029,246.173l85.712-59.856c-5.136-1.2-10.288-2.128-15.328-2.72
		c-0.64-0.08-1.264-0.096-1.904-0.144l-68.384,47.76C69.325,236.253,69.341,241.261,70.029,246.173z"/>
	<path style="fill:#38C0DC;" d="M166.557,189.325l-94.496,66c3.024,9.296,8.592,17.92,16.096,25.216l109.136-76.224
		C188.445,197.949,177.773,192.909,166.557,189.325z"/>
	<path style="fill:#38C0DC;" d="M291.645,243.805c0.08,4.304,0.784,8.496,2.032,12.544l103.312-72.16
		c-6.144-1.104-12.8-1.44-19.872-1.024l-85.424,59.664C291.709,243.165,291.645,243.469,291.645,243.805z"/>
	<path style="fill:#38C0DC;" d="M407.901,187.149l-110.752,77.36c4.464,8.592,11.424,16.272,20.112,22.416l115.344-80.56
		C426.605,197.437,418.237,190.973,407.901,187.149z"/>
</g>
<g>
</g>
<g>
</g>
<g>
</g>
<g>
</g>
<g>
</g>
<g>
</g>
<g>
</g>
<g>
</g>
<g>
</g>
<g>
</g>
<g>
</g>
<g>
</g>
<g>
</g>
<g>
</g>
<g>
</g>
</svg>
