<?xml version="1.0" encoding="iso-8859-1"?>
<!-- Generator: Adobe Illustrator 19.0.0, SVG Export Plug-In . SVG Version: 6.00 Build 0)  -->
<svg version="1.1" id="Capa_1" xmlns="http://www.w3.org/2000/svg" xmlns:xlink="http://www.w3.org/1999/xlink" x="0px" y="0px"
	 viewBox="0 0 512 512" style="enable-background:new 0 0 512 512;" xml:space="preserve">
<circle style="fill:#FFD93B;" cx="256" cy="256" r="256"/>
<path style="fill:#F4C534;" d="M512,256c0,141.44-114.64,256-256,256c-80.48,0-152.32-37.12-199.28-95.28
	c43.92,35.52,99.84,56.72,160.72,56.72c141.36,0,256-114.56,256-256c0-60.88-21.2-116.8-56.72-160.72
	C474.8,103.68,512,175.52,512,256z"/>
<circle style="fill:#3E4347;" cx="256" cy="398.784" r="44.816"/>
<path style="fill:#FFFFFF;" d="M400.032,250.144c0,31.936-26.08,57.888-58.016,57.888S284,282.08,284,250.144
	C284,218.08,310.08,192,342.016,192C373.952,192,400.032,218.08,400.032,250.144z"/>
<circle style="fill:#3E4347;" cx="341.968" cy="250.096" r="26.832"/>
<path style="fill:#5A5F63;" d="M356.48,247.536c-2.4,1.584-6.208,0.32-8.4-2.848c-2.192-3.168-1.936-7.024,0.464-8.608
	s6.208-0.32,8.4,2.848C359.04,242.096,358.896,245.952,356.48,247.536z"/>
<path style="fill:#E9B02C;" d="M414.576,176.512c1.888,9.424,1.424,18.576-1.024,27.104c-11.36-31.648-44.112-51.296-78.192-45.152
	l-0.416,0.08c-12.208,2.256-18.752-13.712-8.128-20.224c8.448-5.184,18.512-8.368,29.456-8.672
	C384.176,128.912,409.152,149.216,414.576,176.512z"/>
<path style="fill:#FFFFFF;" d="M111.968,250.144c0,31.936,26.08,57.888,58.016,57.888S228,282.08,228,250.144
	C228,218.08,201.92,192,169.984,192C138.048,192,111.968,218.08,111.968,250.144z"/>
<circle style="fill:#3E4347;" cx="170.032" cy="250.096" r="26.832"/>
<path style="fill:#5A5F63;" d="M155.52,247.536c2.4,1.584,6.208,0.32,8.4-2.848c2.192-3.168,1.936-7.024-0.464-8.608
	c-2.4-1.584-6.208-0.32-8.4,2.848C152.96,242.096,153.104,245.952,155.52,247.536z"/>
<path style="fill:#E9B02C;" d="M97.424,176.512c-1.888,9.424-1.424,18.592,1.024,27.104c11.36-31.648,44.112-51.296,78.192-45.152
	l0.416,0.08c12.208,2.256,18.752-13.712,8.128-20.224c-8.448-5.184-18.512-8.368-29.456-8.672
	C127.824,128.912,102.848,149.216,97.424,176.512z"/>
<g>
</g>
<g>
</g>
<g>
</g>
<g>
</g>
<g>
</g>
<g>
</g>
<g>
</g>
<g>
</g>
<g>
</g>
<g>
</g>
<g>
</g>
<g>
</g>
<g>
</g>
<g>
</g>
<g>
</g>
</svg>
