<?xml version="1.0" encoding="iso-8859-1"?>
<!-- Generator: Adobe Illustrator 19.0.0, SVG Export Plug-In . SVG Version: 6.00 Build 0)  -->
<svg version="1.1" id="Capa_1" xmlns="http://www.w3.org/2000/svg" xmlns:xlink="http://www.w3.org/1999/xlink" x="0px" y="0px"
	 viewBox="0 0 512 512" style="enable-background:new 0 0 512 512;" xml:space="preserve">
<circle style="fill:#FFD93B;" cx="256" cy="256" r="256"/>
<g>
	<path style="fill:#F4C534;" d="M122.064,297.344c-5.2,16.8,4.304,34.8,21.104,40c16.912,5.232,34.8-4.304,40-21.104
		c5.232-16.912-1.904-42.192-18.816-47.424C147.568,263.632,127.296,280.432,122.064,297.344z"/>
	<path style="fill:#F4C534;" d="M389.936,297.344c5.2,16.8-4.304,34.8-21.104,40c-16.912,5.232-34.8-4.304-40-21.104
		c-5.232-16.912,1.904-42.192,18.816-47.424C364.432,263.632,384.704,280.432,389.936,297.344z"/>
	<path style="fill:#F4C534;" d="M512,256c0,141.44-114.64,256-256,256c-80.48,0-152.32-37.12-199.28-95.28
		c43.92,35.52,99.84,56.72,160.72,56.72c141.36,0,256-114.56,256-256c0-60.88-21.2-116.8-56.72-160.72
		C474.8,103.68,512,175.52,512,256z"/>
</g>
<path style="fill:#3E4347;" d="M336.176,383.088c0,8.16-6.56,14.72-14.72,14.72h-130.88c-8.16,0-14.72-6.56-14.72-14.72
	s6.56-14.72,14.72-14.72h130.88C329.616,368.368,336.176,374.928,336.176,383.088z"/>
<circle style="fill:#FFFFFF;" cx="337.6" cy="244.912" r="53.712"/>
<circle style="fill:#3E4347;" cx="337.6" cy="244.944" r="28.976"/>
<path style="fill:#5A5F63;" d="M353.264,242.176c-2.592,1.712-6.704,0.336-9.072-3.088c-2.368-3.424-2.096-7.584,0.512-9.312
	c2.592-1.712,6.704-0.336,9.072,3.088C356.032,236.304,355.872,240.464,353.264,242.176z"/>
<path style="fill:#E9B02C;" d="M406.24,223.584c-10.448-33.6-43.328-55.504-79.616-49.936c-5.808,0.848-11.408-3.152-12.304-9.04
	c-0.912-5.904,3.136-11.408,9.04-12.32c47.472-7.2,90,21.52,103.488,64.896c1.76,5.696-1.408,11.744-7.104,13.52
	C414.208,232.448,408.048,229.376,406.24,223.584z"/>
<circle style="fill:#FFFFFF;" cx="174.384" cy="244.912" r="53.712"/>
<circle style="fill:#3E4347;" cx="174.416" cy="244.944" r="28.976"/>
<path style="fill:#5A5F63;" d="M158.736,242.176c2.592,1.712,6.704,0.336,9.072-3.088c2.368-3.424,2.096-7.584-0.512-9.312
	c-2.592-1.712-6.704-0.336-9.072,3.088C155.968,236.304,156.128,240.464,158.736,242.176z"/>
<path style="fill:#E9B02C;" d="M92.224,230.688c-5.696-1.776-8.88-7.824-7.104-13.52c13.568-43.616,56.256-72.016,103.504-64.88
	c5.888,0.896,9.952,6.4,9.04,12.304s-6.544,9.904-12.304,9.056c-36.544-5.584-69.232,16.544-79.632,49.952
	C103.968,229.312,97.856,232.464,92.224,230.688z"/>
<g>
</g>
<g>
</g>
<g>
</g>
<g>
</g>
<g>
</g>
<g>
</g>
<g>
</g>
<g>
</g>
<g>
</g>
<g>
</g>
<g>
</g>
<g>
</g>
<g>
</g>
<g>
</g>
<g>
</g>
</svg>
