<?xml version="1.0" encoding="iso-8859-1"?>
<!-- Generator: Adobe Illustrator 19.0.0, SVG Export Plug-In . SVG Version: 6.00 Build 0)  -->
<svg version="1.1" id="Capa_1" xmlns="http://www.w3.org/2000/svg" xmlns:xlink="http://www.w3.org/1999/xlink" x="0px" y="0px"
	 viewBox="0 0 512.02 512.02" style="enable-background:new 0 0 512.02 512.02;" xml:space="preserve">
<circle style="fill:#FFD93B;" cx="256.01" cy="227.504" r="227.504"/>
<path style="fill:#E9B02C;" d="M483.514,227.504c0,125.696-101.888,227.504-227.504,227.504c-71.52,0-135.376-32.992-177.104-84.672
	c39.04,31.568,88.736,50.416,142.832,50.416c125.632,0,227.504-101.808,227.504-227.504c0-54.112-18.848-103.808-50.416-142.832
	C450.458,92.144,483.514,155.984,483.514,227.504z"/>
<path style="fill:#FFFFFF;" d="M221.866,202.096c0,31.44-25.488,56.912-56.912,56.912s-56.912-25.488-56.912-56.912
	s50.928-69.472,82.32-67.792C221.738,135.968,221.866,170.656,221.866,202.096z"/>
<circle style="fill:#3E4347;" cx="171.066" cy="211.28" r="28.4"/>
<path style="fill:#5A5F63;" d="M188.474,206.432c-2.256,1.68-6.272,0.512-8.704-2.736s-2.512-7.392-0.096-9.104
	c2.384-1.856,6.256-0.656,8.672,2.576C190.778,200.416,190.858,204.576,188.474,206.432z"/>
<path style="fill:#FFFFFF;" d="M281.21,202.096c0,31.44,25.488,56.912,56.912,56.912s56.912-25.488,56.912-56.912
	s-50.928-69.472-82.32-67.792C281.338,135.968,281.21,170.656,281.21,202.096z"/>
<circle style="fill:#3E4347;" cx="332.01" cy="211.28" r="28.4"/>
<path style="fill:#5A5F63;" d="M349.434,206.432c-2.256,1.68-6.272,0.512-8.704-2.736c-2.432-3.232-2.512-7.392-0.096-9.104
	c2.384-1.856,6.256-0.656,8.672,2.576C351.738,200.416,351.818,204.576,349.434,206.432z"/>
<path style="fill:#3E4347;" d="M302.218,337.808c0,30.88-20.64,56-46.24,56c-25.6,0-46.24-25.12-46.24-56c0-31.04,20.64-56,46.24-56
	C281.578,281.808,302.218,306.768,302.218,337.808z"/>
<path style="fill:#FFD93B;" d="M511.546,343.424c-4.752,12.48-56.416,51.856-70.8,97.936c-6.48,22.288-10.528,39.152-14.416,52.72
	c-3.008,10.768-13.04,18.096-24.128,17.904c-23.456-0.432-46.256-6.624-68.768-18.816c-9.888-5.232-14.992-16.56-12.528-27.472
	c2.72-13.008,7.472-27.664,14.416-44.048c11.152-26.256,28.48-50.16,51.904-66.512C448.922,311.776,518.33,331.488,511.546,343.424z
	"/>
<path style="fill:#F4C534;" d="M431.29,419.392c-31.872,49.376-21.712,91.616-104.736,68.24c1.936,2.208,4.176,4.144,6.88,5.568
	c22.512,12.192,45.312,18.368,68.768,18.816c11.088,0.192,21.12-7.12,24.128-17.904c3.888-13.584,7.92-30.448,14.416-52.736
	c12.816-41.072,55.184-76.784,67.616-92.896C508.106,348.592,463.066,370.176,431.29,419.392z"/>
<path style="fill:#FFD93B;" d="M0.474,343.424c4.752,12.48,56.416,51.856,70.8,97.936c6.48,22.288,10.528,39.152,14.416,52.72
	c2.992,10.784,13.024,18.112,24.112,17.92c23.456-0.432,46.256-6.624,68.768-18.816c9.888-5.232,14.992-16.56,12.528-27.472
	c-2.72-13.008-7.472-27.664-14.416-44.048c-11.152-26.256-28.48-50.16-51.904-66.512C63.098,311.776-6.31,331.488,0.474,343.424z"/>
<path style="fill:#F4C534;" d="M80.73,419.392c31.872,49.376,21.712,91.616,104.736,68.24c-1.936,2.208-4.176,4.144-6.88,5.568
	c-22.528,12.176-45.328,18.368-68.784,18.8c-11.088,0.192-21.12-7.12-24.128-17.904c-3.888-13.584-7.92-30.448-14.416-52.736
	c-12.816-41.072-55.184-76.784-67.616-92.896C3.914,348.592,48.954,370.176,80.73,419.392z"/>
<path style="fill:#E24B4B;" d="M255.978,393.808c15.52,0,29.136-9.312,37.52-23.472c-3.232-8.656-9.216-15.936-17.168-20.352
	c-4.528-2.544-11.76-1.648-16.288,0.848c-3.056,1.696-6.784,2.72-11.136,2.72c-0.912,0-1.76-0.064-2.608-0.112
	c-7.856-0.784-15.888,1.808-20.416,8.256c-2.432,3.44-4.24,7.36-5.424,11.552C228.922,385.696,241.578,393.808,255.978,393.808z"/>
<g>
</g>
<g>
</g>
<g>
</g>
<g>
</g>
<g>
</g>
<g>
</g>
<g>
</g>
<g>
</g>
<g>
</g>
<g>
</g>
<g>
</g>
<g>
</g>
<g>
</g>
<g>
</g>
<g>
</g>
</svg>
