<?xml version="1.0" encoding="iso-8859-1"?>
<!-- Generator: Adobe Illustrator 19.0.0, SVG Export Plug-In . SVG Version: 6.00 Build 0)  -->
<svg version="1.1" id="Capa_1" xmlns="http://www.w3.org/2000/svg" xmlns:xlink="http://www.w3.org/1999/xlink" x="0px" y="0px"
	 viewBox="0 0 512 512" style="enable-background:new 0 0 512 512;" xml:space="preserve">
<circle style="fill:#FFD93B;" cx="256" cy="256" r="256"/>
<path style="fill:#F4C534;" d="M512,256c0,141.44-114.64,256-256,256c-80.48,0-152.32-37.12-199.28-95.28
	c43.92,35.52,99.84,56.72,160.72,56.72c141.36,0,256-114.56,256-256c0-60.88-21.2-116.8-56.72-160.72
	C474.8,103.68,512,175.52,512,256z"/>
<path style="fill:#3E4347;" d="M363.616,412.208c-71.744-19.888-143.472-19.904-215.2,0c-10.4,0-18.4-9.92-15.52-20
	c15.68-53.28,64.8-92.16,123.04-92.16c58.4,0,107.52,38.88,123.2,92.16C382.016,402.288,374.016,412.208,363.616,412.208z"/>
<path style="fill:#E24B4B;" d="M307.84,400.816c1.056-14.72-3.728-28.88-13.216-39.52c-6.176-6.624-15.36-9.12-23.984-5.664
	c-10.336,3.984-21.696,6.224-34.352,6.224c0,0,0,0-0.16,0c-14.16,0-26.8,7.664-30.496,21.36c-1.536,5.616-1.776,11.568-1.312,17.584
	C238.816,396.208,273.328,396.208,307.84,400.816z"/>
<ellipse style="fill:#3E4347;" cx="179.472" cy="237.072" rx="30.496" ry="43.184"/>
<ellipse transform="matrix(-0.6776 -0.7354 0.7354 -0.6776 156.7318 501.5977)" style="fill:#5A5F63;" cx="188.309" cy="216.446" rx="7.04" ry="5.36"/>
<ellipse style="fill:#3E4347;" cx="332.56" cy="237.072" rx="30.496" ry="43.184"/>
<ellipse transform="matrix(-0.6776 -0.7354 0.7354 -0.6776 413.5175 613.9961)" style="fill:#5A5F63;" cx="341.338" cy="216.361" rx="7.04" ry="5.36"/>
<g>
	<path style="fill:#E9B02C;" d="M401.696,184.048c-0.368,0-0.768-0.016-1.152-0.064c-62.848-6.64-83.312-64.704-84.16-67.168
		c-1.92-5.648,1.088-11.776,6.736-13.712c5.632-1.92,11.744,1.088,13.696,6.72c0.72,2.08,17.168,47.52,66,52.672
		c5.92,0.624,10.224,5.952,9.6,11.872C411.84,179.936,407.152,184.048,401.696,184.048z"/>
	<path style="fill:#E9B02C;" d="M110.288,184.048c-5.456,0-10.144-4.128-10.72-9.664c-0.624-5.936,3.664-11.248,9.6-11.872
		c48.928-5.168,65.344-50.752,66.032-52.688c1.952-5.632,8.064-8.592,13.712-6.672c5.632,1.936,8.624,8.048,6.704,13.68
		c-0.848,2.464-21.312,60.528-84.176,67.168C111.056,184.032,110.672,184.048,110.288,184.048z"/>
</g>
<path style="fill:#FFFFFF;" d="M188.656,319.216c13.792,10.272,38.656,17.216,67.36,17.216c28.688,0,53.552-6.944,67.344-17.2
	c-19.584-12.128-42.656-19.168-67.424-19.168C231.248,300.048,208.224,307.104,188.656,319.216z"/>
<path style="fill:#45CBEA;" d="M129.92,320.672c0-14.48-26.208-53.136-26.208-53.136s-26.208,38.656-26.208,53.136
	s11.728,26.208,26.208,26.208S129.92,335.136,129.92,320.672z"/>
<g style="opacity:0.2;">
	<path style="fill:#FFFFFF;" d="M118.72,331.84c-3.088,4.16-8.016,6.016-10.784,4c-2.768-2-2.464-7.088,0.624-11.408
		c3.088-4.32,7.872-6.16,10.64-4.16C122.112,322.272,121.808,327.52,118.72,331.84z"/>
</g>
<path style="fill:#45CBEA;" d="M127.472,470.608c0-22.864-41.392-83.92-41.392-83.92s-41.392,61.056-41.392,83.92
	S63.216,512,86.08,512S127.472,493.472,127.472,470.608z"/>
<g style="opacity:0.2;">
	<path style="fill:#FFFFFF;" d="M109.792,488.24c-4.864,6.576-12.672,9.504-17.056,6.336s-3.904-11.2,0.976-18.016
		c4.864-6.816,12.416-9.744,16.8-6.576C115.136,473.152,114.656,481.424,109.792,488.24z"/>
</g>
<g>
</g>
<g>
</g>
<g>
</g>
<g>
</g>
<g>
</g>
<g>
</g>
<g>
</g>
<g>
</g>
<g>
</g>
<g>
</g>
<g>
</g>
<g>
</g>
<g>
</g>
<g>
</g>
<g>
</g>
</svg>
