<?xml version="1.0" encoding="iso-8859-1"?>
<!-- Generator: Adobe Illustrator 19.0.0, SVG Export Plug-In . SVG Version: 6.00 Build 0)  -->
<svg version="1.1" id="Capa_1" xmlns="http://www.w3.org/2000/svg" xmlns:xlink="http://www.w3.org/1999/xlink" x="0px" y="0px"
	 viewBox="0 0 512 512" style="enable-background:new 0 0 512 512;" xml:space="preserve">
<circle style="fill:#FFD93B;" cx="256" cy="256" r="256"/>
<path style="fill:#F4C534;" d="M512,256c0,141.44-114.672,256-256,256c-80.528,0-152.32-37.12-199.248-95.248
	c43.84,35.52,99.84,56.752,160.64,56.752c141.44,0,256-114.56,256-256c0-60.912-21.12-116.8-56.64-160.752
	C474.768,103.68,512,175.568,512,256z"/>
<g>
	<path style="fill:#3E4347;" d="M359.568,398.416c-10.784,6.272-47.984-22.928-100.704-21.344
		c-52.736-1.6-89.92,27.6-100.704,21.344c-13.2-4.944,17.008-66.672,100.704-66.816C342.56,331.744,372.784,393.488,359.568,398.416
		z"/>
	<path style="fill:#3E4347;" d="M105.984,253.056c9.552-13.936,35.328-23.552,58.064-23.552c22.656,0,48.4,9.616,57.968,23.552l0,0
		c-1.776-35.216-27.008-54.176-57.968-54.176C133.008,198.88,107.776,217.84,105.984,253.056L105.984,253.056z"/>
	<path style="fill:#3E4347;" d="M289.984,253.056c9.552-13.936,35.328-23.552,58.064-23.552c22.656,0,48.4,9.616,57.968,23.552l0,0
		c-1.776-35.216-27.008-54.176-57.968-54.176C317.008,198.88,291.776,217.84,289.984,253.056L289.984,253.056z"/>
</g>
<path style="fill:#45CBEA;" d="M476.528,167.584c0-22.176-40.16-77.504-40.16-77.504s-40.16,55.328-40.16,77.504
	s17.984,40.16,40.16,40.16S476.528,189.776,476.528,167.584z"/>
<g style="opacity:0.2;">
	<path style="fill:#FFFFFF;" d="M458.176,184.608c-3.888,5.472-10.096,7.904-13.616,5.472c-3.648-2.432-3.408-9.008,0.608-14.48
		c3.888-5.472,10.096-8.032,13.744-5.472C462.432,172.56,462.192,179.008,458.176,184.608z"/>
</g>
<path style="fill:#45CBEA;" d="M392.32,69.232c0-15.696-28.4-54.816-28.4-54.816s-28.4,39.12-28.4,54.816s12.72,28.4,28.4,28.4
	S392.32,84.928,392.32,69.232z"/>
<g style="opacity:0.2;">
	<path style="fill:#FFFFFF;" d="M379.344,81.264c-2.752,3.872-7.136,5.584-9.632,3.872c-2.576-1.728-2.416-6.368,0.432-10.24
		c2.752-3.872,7.136-5.68,9.728-3.872C382.352,72.752,382.176,77.312,379.344,81.264z"/>
</g>
<g>
</g>
<g>
</g>
<g>
</g>
<g>
</g>
<g>
</g>
<g>
</g>
<g>
</g>
<g>
</g>
<g>
</g>
<g>
</g>
<g>
</g>
<g>
</g>
<g>
</g>
<g>
</g>
<g>
</g>
</svg>
