<?xml version="1.0" encoding="iso-8859-1"?>
<!-- Generator: Adobe Illustrator 19.0.0, SVG Export Plug-In . SVG Version: 6.00 Build 0)  -->
<svg version="1.1" id="Capa_1" xmlns="http://www.w3.org/2000/svg" xmlns:xlink="http://www.w3.org/1999/xlink" x="0px" y="0px"
	 viewBox="0 0 512 512" style="enable-background:new 0 0 512 512;" xml:space="preserve">
<circle style="fill:#FFD93B;" cx="256" cy="256" r="256"/>
<path style="fill:#F4C534;" d="M512,256c0,141.44-114.64,256-256,256c-80.48,0-152.32-37.12-199.28-95.28
	c43.92,35.52,99.84,56.72,160.72,56.72c141.36,0,256-114.56,256-256c0-60.88-21.2-116.8-56.72-160.72
	C474.8,103.68,512,175.52,512,256z"/>
<path style="fill:#3E4347;" d="M160.416,385.28c17.504-31.616,52.24-55.632,95.232-55.504c42.448-0.112,76.528,23.408,93.792,54.56
	c6.848,12.368-5.104,27.216-17.12,21.744c-51.04-22.816-102.784-21.744-155.2,1.072C165.024,412.496,153.6,397.648,160.416,385.28z"
	/>
<g>
	<path style="fill:#FFFFFF;" d="M343.072,402.352v77.76c0,4.96-4,8.96-8.96,8.96s-8.8-4-8.8-8.96v-45.12c0,4.96-4.16,8.96-9.12,8.96
		c-4.8,0-8.96-4-8.96-8.96v13.44c0,5.12-4,8.96-8.96,8.96s-8.96-3.84-8.96-8.96v31.68c0,4.96-4,8.96-8.96,8.96s-8.96-4-8.96-8.96
		v-62.88c0,4.96-4,8.96-8.96,8.96s-8.96-4-8.96-8.96v38.56c0,4.96-4,8.96-8.96,8.96s-8.96-4-8.96-8.96V390.8l27.488-5.536
		c23.92-4.816,48.832-3.136,71.712,5.328c0.064,0.016,0.112,0.048,0.16,0.064C339.712,392.272,343.072,397.232,343.072,402.352z"/>
	<circle style="fill:#FFFFFF;" cx="316.208" cy="495.872" r="8.928"/>
</g>
<g>
	<path style="fill:#3E4347;" d="M216.08,235.632c-0.336,5.312-1.808,10.368-4.288,14.976c-6.4-15.376-24.32-18.928-45.504-18.928
		c-21.056,0-39.104,3.552-45.392,18.928c-2.48-4.608-4.064-9.664-4.4-14.976c-1.504-23.888,20.896-40.256,49.792-40.256
		C195.296,195.36,217.568,211.744,216.08,235.632z"/>
	<path style="fill:#3E4347;" d="M399.04,235.632c-0.336,5.312-1.808,10.368-4.288,14.976c-6.4-15.376-24.32-18.928-45.504-18.928
		c-21.056,0-39.104,3.552-45.392,18.928c-2.48-4.608-4.064-9.664-4.4-14.976c-1.504-23.888,20.896-40.256,49.792-40.256
		C378.256,195.36,400.528,211.744,399.04,235.632z"/>
</g>
<g>
	<path style="fill:#E9B02C;" d="M328.448,145.92c-0.608-5.84,3.6-11.088,9.44-11.712c2.16-0.24,53.024-5.216,83.28,37.2
		c3.424,4.8,2.304,11.456-2.496,14.88c-4.8,3.44-11.456,2.32-14.88-2.496c-22.896-32.08-61.984-28.544-63.648-28.368
		C334.288,156,329.04,151.76,328.448,145.92z"/>
	<path style="fill:#E9B02C;" d="M197.968,175.104L197.968,175.104c-1.248-1.088-31.088-26.576-68.336-13.664
		c-5.584,1.936-11.648-0.992-13.584-6.576c-1.936-5.568,1.008-11.648,6.56-13.568c49.232-17.088,87.84,16.368,89.456,17.808
		c4.416,3.904,4.832,10.64,0.912,15.056C209.088,178.56,202.368,178.976,197.968,175.104z"/>
</g>
<g>
</g>
<g>
</g>
<g>
</g>
<g>
</g>
<g>
</g>
<g>
</g>
<g>
</g>
<g>
</g>
<g>
</g>
<g>
</g>
<g>
</g>
<g>
</g>
<g>
</g>
<g>
</g>
<g>
</g>
</svg>
