<?xml version="1.0" encoding="iso-8859-1"?>
<!-- Generator: Adobe Illustrator 19.0.0, SVG Export Plug-In . SVG Version: 6.00 Build 0)  -->
<svg version="1.1" id="Capa_1" xmlns="http://www.w3.org/2000/svg" xmlns:xlink="http://www.w3.org/1999/xlink" x="0px" y="0px"
	 viewBox="0 0 512.001 512.001" style="enable-background:new 0 0 512.001 512.001;" xml:space="preserve">
<circle style="fill:#FFD93B;" cx="256.001" cy="237.648" r="237.648"/>
<path style="fill:#F4C534;" d="M493.649,237.648c0,131.296-106.416,237.648-237.648,237.648
	c-74.704,0-141.408-34.464-184.992-88.448c40.768,32.976,92.688,52.656,149.2,52.656c131.232,0,237.648-106.352,237.648-237.648
	c0-56.512-19.68-108.432-52.656-149.2C459.121,96.24,493.649,162.944,493.649,237.648z"/>
<g>
	<path style="fill:#3E4347;" d="M325.313,363.68c0,38.224-31.04,69.168-69.216,69.168c-38.368,0-69.408-30.944-69.408-69.168
		s31.04-69.168,69.408-69.168C294.273,294.512,325.313,325.456,325.313,363.68z"/>
	<path style="fill:#3E4347;" d="M98.609,246.048c-6.752-2.448-10.24-9.904-7.792-16.64c10.592-29.248,38.48-48.896,69.424-48.896
		c30.912,0,58.816,19.648,69.424,48.896c2.448,6.752-1.024,14.208-7.776,16.656c-6.704,2.432-14.208-1.024-16.656-7.792
		c-6.912-19.008-24.976-31.76-44.992-31.76c-20.032,0-38.112,12.768-44.992,31.76C112.785,245.024,105.313,248.48,98.609,246.048z"
		/>
	<path style="fill:#3E4347;" d="M290.145,246.048c-6.752-2.448-10.24-9.904-7.792-16.64c10.592-29.248,38.48-48.896,69.424-48.896
		c30.912,0,58.816,19.648,69.424,48.896c2.448,6.752-1.024,14.208-7.776,16.656c-6.704,2.432-14.208-1.024-16.656-7.792
		c-6.912-19.008-24.976-31.76-44.992-31.76c-20.032,0-38.112,12.768-44.992,31.76C304.321,245.024,296.849,248.48,290.145,246.048z"
		/>
</g>
<g>
	<path style="fill:#65B1EF;" d="M493.649,169.232c0-19.072-34.512-73.968-34.512-73.968s-34.512,54.912-34.512,73.968
		s15.456,34.512,34.512,34.512S493.649,188.288,493.649,169.232z"/>
	<path style="fill:#65B1EF;" d="M427.297,51.408c0-13.248-24-51.408-24-51.408s-24,38.16-24,51.408s10.736,24,24,24
		S427.297,64.672,427.297,51.408z"/>
</g>
<path style="fill:#E24B4B;" d="M214.769,391.68c-7.024-2.192-14.88,1.504-16.128,8.832c-3.024,82.224,33.728,111.712,57.36,111.488
	c23.664,0.224,60.352-29.28,57.36-111.488c-1.248-7.328-9.12-11.008-16.128-8.832C270.401,399.44,241.601,399.44,214.769,391.68z"/>
<path style="fill:#FFFFFF;" d="M197.585,326.72c16.192,3.872,36.4,6.192,58.416,6.192s42.224-2.32,58.416-6.192
	c-12.288-19.312-33.76-32.208-58.32-32.208C231.409,294.512,209.889,307.408,197.585,326.72z"/>
<g>
</g>
<g>
</g>
<g>
</g>
<g>
</g>
<g>
</g>
<g>
</g>
<g>
</g>
<g>
</g>
<g>
</g>
<g>
</g>
<g>
</g>
<g>
</g>
<g>
</g>
<g>
</g>
<g>
</g>
</svg>
