<?xml version="1.0" encoding="iso-8859-1"?>
<!-- Generator: Adobe Illustrator 19.0.0, SVG Export Plug-In . SVG Version: 6.00 Build 0)  -->
<svg version="1.1" id="Capa_1" xmlns="http://www.w3.org/2000/svg" xmlns:xlink="http://www.w3.org/1999/xlink" x="0px" y="0px"
	 viewBox="0 0 511.994 511.994" style="enable-background:new 0 0 511.994 511.994;" xml:space="preserve">
<circle style="fill:#FFD93B;" cx="255.965" cy="240.16" r="240.16"/>
<path style="fill:#F4C534;" d="M496.189,240.224c0,132.72-107.584,240.224-240.224,240.224c-75.52,0-142.944-34.832-187.008-89.408
	c41.216,33.328,93.696,53.232,150.816,53.232c132.656,0,240.224-107.504,240.224-240.224c0-57.136-19.888-109.6-53.232-150.816
	C461.293,97.296,496.189,164.704,496.189,240.224z"/>
<path style="fill:#3E4347;" d="M370.461,297.28c20.8,9.648-10.688,106.848-113.984,107.664
	c-103.296-0.8-134.784-98.016-113.984-107.664c17.776-11.44,60.832,18.384,113.984,18.768
	C310.093,316.464,352.701,285.84,370.461,297.28z"/>
<path style="fill:#E24B4B;" d="M304.317,363.632c-11.52-2.576-24.144,3.312-35.744,7.344c-7.808,3.024-17.808,4.176-28.656,1.872
	c-0.208-0.032-0.4-0.08-0.592-0.128c-18.704-4.656-43.024-10.064-48.016,7.248c-0.032,0.112-0.048,0.24-0.064,0.368
	c-4.192,22.672,2.16,49.904,8.096,76.96c7.968,29.152,27.296,52.208,52.336,54.464c29.248,2.784,52.656-19.552,61.472-52.128
	c6.064-27.824,12.928-55.968,8.608-79.296C320.093,371.28,312.717,365.744,304.317,363.632z"/>
<g style="opacity:0.2;">
	<path style="fill:#FFFFFF;" d="M306.349,383.296c-3.584,2.72-9.952,2.464-13.872-0.08c-4.064-2.544-4.544-5.92-1.312-8.032
		c3.104-2.128,8.944-2.752,13.376-0.752C309.117,376.368,310.109,380.624,306.349,383.296z"/>
</g>
<g>
	<path style="fill:#3E4347;" d="M106.173,233.488c-3.008-5.056-1.36-11.616,3.712-14.624c23.424-13.92,48.928-23.904,76.096-29.776
		c-14.16-10.08-29.472-18.864-45.776-26.24c-5.36-2.416-7.76-8.736-5.328-14.112s8.736-7.744,14.112-5.328
		c25.584,11.584,48.976,26.4,69.52,44.064c3.2,2.752,4.464,7.136,3.248,11.184s-4.704,6.976-8.912,7.504
		c-32.912,4.064-64.736,14.784-92.08,31.04C115.677,240.24,109.133,238.496,106.173,233.488z"/>
	<path style="fill:#3E4347;" d="M391.133,237.2c-27.712-16.48-58.704-26.928-92.064-31.04c-4.192-0.528-7.68-3.456-8.912-7.504
		s0.048-8.416,3.248-11.184c20.544-17.664,43.936-32.496,69.504-44.064c5.392-2.416,11.68-0.048,14.112,5.328
		c2.432,5.36,0.048,11.68-5.328,14.112c-16.288,7.376-31.616,16.16-45.776,26.24c27.168,5.872,52.672,15.856,76.08,29.776
		c5.072,3.008,6.736,9.552,3.712,14.624C402.781,238.496,396.253,240.24,391.133,237.2z"/>
</g>
<g>
</g>
<g>
</g>
<g>
</g>
<g>
</g>
<g>
</g>
<g>
</g>
<g>
</g>
<g>
</g>
<g>
</g>
<g>
</g>
<g>
</g>
<g>
</g>
<g>
</g>
<g>
</g>
<g>
</g>
</svg>
