<?xml version="1.0" encoding="iso-8859-1"?>
<!-- Generator: Adobe Illustrator 19.0.0, SVG Export Plug-In . SVG Version: 6.00 Build 0)  -->
<svg version="1.1" id="Capa_1" xmlns="http://www.w3.org/2000/svg" xmlns:xlink="http://www.w3.org/1999/xlink" x="0px" y="0px"
	 viewBox="0 0 512.01 512.01" style="enable-background:new 0 0 512.01 512.01;" xml:space="preserve">
<circle style="fill:#FFD93B;" cx="255.973" cy="240.16" r="240.16"/>
<path style="fill:#F4C534;" d="M496.197,240.224c0,132.72-107.584,240.224-240.224,240.224c-75.52,0-142.944-34.832-187.008-89.408
	c41.216,33.328,93.696,53.232,150.816,53.232c132.656,0,240.224-107.504,240.224-240.224c0-57.136-19.888-109.6-53.232-150.816
	C461.301,97.296,496.197,164.704,496.197,240.224z"/>
<circle style="fill:#FFFFFF;" cx="179.573" cy="190.88" r="57.584"/>
<circle style="fill:#3E4347;" cx="179.573" cy="190.896" r="31.424"/>
<ellipse transform="matrix(-0.6079 -0.794 0.794 -0.6079 168.8885 440.0392)" style="fill:#5A5F63;" cx="193.093" cy="178.32" rx="7.248" ry="5.2"/>
<g>
	<path style="fill:#3E4347;" d="M380.933,192.336c0,6.512-5.232,11.728-11.728,11.728h-71.472c-6.512,0-11.728-5.232-11.728-11.728
		c0-6.4,5.232-11.728,11.728-11.728h71.472C375.717,180.608,380.933,185.936,380.933,192.336z"/>
	<path style="fill:#3E4347;" d="M370.469,297.28c20.8,9.648-10.688,106.848-113.984,107.664
		c-103.296-0.8-134.784-98.016-113.984-107.664c17.776-11.44,60.832,18.384,113.984,18.768
		C310.101,316.464,352.709,285.84,370.469,297.28z"/>
</g>
<path style="fill:#E24B4B;" d="M304.325,363.632c-11.52-2.576-24.128,3.312-35.744,7.36c-7.808,3.024-17.808,4.176-28.656,1.872
	c-0.192-0.048-0.4-0.08-0.592-0.128c-18.704-4.656-43.024-10.064-48.016,7.248c-0.016,0.128-0.048,0.24-0.064,0.368
	c-4.192,22.672,2.16,49.904,8.096,76.96c7.968,29.152,27.296,52.208,52.336,54.464c29.232,2.784,52.656-19.552,61.472-52.128
	c6.064-27.824,12.928-55.968,8.608-79.296C320.117,371.28,312.725,365.744,304.325,363.632z"/>
<g style="opacity:0.2;">
	
		<ellipse transform="matrix(-0.8439 -0.5365 0.5365 -0.8439 355.185 864.2554)" style="fill:#FFFFFF;" cx="303.324" cy="380.456" rx="9.536" ry="5.44"/>
</g>
<g>
</g>
<g>
</g>
<g>
</g>
<g>
</g>
<g>
</g>
<g>
</g>
<g>
</g>
<g>
</g>
<g>
</g>
<g>
</g>
<g>
</g>
<g>
</g>
<g>
</g>
<g>
</g>
<g>
</g>
</svg>
