<?xml version="1.0" encoding="iso-8859-1"?>
<!-- Generator: Adobe Illustrator 19.0.0, SVG Export Plug-In . SVG Version: 6.00 Build 0)  -->
<svg version="1.1" id="Capa_1" xmlns="http://www.w3.org/2000/svg" xmlns:xlink="http://www.w3.org/1999/xlink" x="0px" y="0px"
	 viewBox="0 0 512.001 512.001" style="enable-background:new 0 0 512.001 512.001;" xml:space="preserve">
<circle style="fill:#FFD93B;" cx="256.001" cy="240.32" r="240.32"/>
<path style="fill:#F4C534;" d="M496.225,240.24c0,132.736-107.584,240.24-240.224,240.24c-75.52,0-142.944-34.832-187.008-89.408
	c41.216,33.328,93.696,53.232,150.816,53.232c132.656,0,240.224-107.504,240.224-240.24c0-57.136-19.888-109.6-53.232-150.816
	C461.329,97.296,496.225,164.704,496.225,240.24z"/>
<circle style="fill:#3E4347;" cx="171.249" cy="206.496" r="35.392"/>
<ellipse transform="matrix(-0.5869 -0.8097 0.8097 -0.5869 137.9652 459.1691)" style="fill:#5A5F63;" cx="186.123" cy="194.388" rx="7.808" ry="6.4"/>
<circle style="fill:#3E4347;" cx="340.753" cy="206.496" r="35.392"/>
<ellipse transform="matrix(-0.8097 -0.5869 0.5869 -0.8097 475.6792 543.0086)" style="fill:#5A5F63;" cx="325.889" cy="194.372" rx="6.4" ry="7.808"/>
<path style="fill:#3E4347;" d="M374.993,298.4c-8.96,48.608-56.912,90.144-118.992,90c-62.08,0.144-110.016-41.408-118.992-90
	c-1.312-6.576,4.8-12.24,11.344-10.992c71.088,13.488,144.096,13.504,215.184,0.016C370.177,286.16,376.305,291.824,374.993,298.4z"
	/>
<path style="fill:#E24B4B;" d="M324.849,369.408c2.48,27.04-7.504,58.672-14.448,89.44c-9.024,32.832-32.704,55.776-62.816,52.912
	c-25.76-2.368-45.184-25.872-53.456-55.312c-6.88-30-16.32-60.688-13.888-87.04c0.544-5.664,3.232-10.16,7.312-13.248
	c9.728-7.216,26.24-2,41.488,2.112c0.048,0.016,0.08,0.016,0.128,0.032c11.088,2.976,21.232,2.592,29.488,0.368
	c13.632-3.056,27.424-9.072,40.16-8.736C311.521,350.464,323.681,356.608,324.849,369.408z"/>
<g style="opacity:0.2;">
	
		<ellipse transform="matrix(-0.7853 -0.6191 0.6191 -0.7853 311.0287 849.2579)" style="fill:#FFFFFF;" cx="302.766" cy="370.7" rx="10.592" ry="6.864"/>
</g>
<g>
</g>
<g>
</g>
<g>
</g>
<g>
</g>
<g>
</g>
<g>
</g>
<g>
</g>
<g>
</g>
<g>
</g>
<g>
</g>
<g>
</g>
<g>
</g>
<g>
</g>
<g>
</g>
<g>
</g>
</svg>
