<?xml version="1.0" encoding="iso-8859-1"?>
<!-- Generator: Adobe Illustrator 19.0.0, SVG Export Plug-In . SVG Version: 6.00 Build 0)  -->
<svg version="1.1" id="Capa_1" xmlns="http://www.w3.org/2000/svg" xmlns:xlink="http://www.w3.org/1999/xlink" x="0px" y="0px"
	 viewBox="0 0 512 512" style="enable-background:new 0 0 512 512;" xml:space="preserve">
<circle style="fill:#FFD93B;" cx="256" cy="256" r="256"/>
<path style="fill:#F4C534;" d="M512,256c0,141.44-114.64,256-256,256c-80.48,0-152.32-37.12-199.28-95.28
	c43.92,35.52,99.84,56.72,160.72,56.72c141.36,0,256-114.56,256-256c0-60.88-21.2-116.8-56.72-160.72
	C474.8,103.68,512,175.52,512,256z"/>
<path style="fill:#3E4347;" d="M153.376,345.072c9.664-3.024,43.776,31.952,100.16,29.952c56.368,2.016,92.992-32.96,102.656-29.936
	c14.112,1.2-14.96,65.616-101.456,65.84C168.256,410.704,139.264,346.288,153.376,345.072z"/>
<path style="fill:#E9B02C;" d="M395.392,192.304c-31.088-40.848-73.104-34.672-81.2-33.008c-5.808,1.168-11.408-2.56-12.576-8.32
	c-1.184-5.776,2.56-11.408,8.32-12.576c29.792-6.064,72.368,1.504,102.448,40.992c3.568,4.688,2.656,11.376-2.032,14.96
	C405.648,197.904,398.944,196.976,395.392,192.304z"/>
<path style="fill:#3E4347;" d="M338.544,268.368c-22.944,0-43.28-14.768-50.624-36.752c-1.872-5.584,1.152-11.632,6.752-13.488
	c5.584-1.856,11.632,1.152,13.488,6.752c4.416,13.248,16.624,22.16,30.384,22.16s25.952-8.912,30.384-22.16
	c1.872-5.584,7.92-8.576,13.488-6.752c5.584,1.872,8.608,7.904,6.752,13.488C381.824,253.6,361.488,268.368,338.544,268.368z"/>
<path style="fill:#E9B02C;" d="M101.664,194.336c-4.688-3.568-5.6-10.256-2.032-14.944c30.064-39.504,72.608-47.056,102.432-41.008
	c5.776,1.184,9.504,6.816,8.32,12.576c-1.184,5.776-6.816,9.488-12.576,8.32c-8.112-1.648-50.128-7.824-81.2,33.008
	C113.04,197.008,106.336,197.888,101.664,194.336z"/>
<path style="fill:#3E4347;" d="M173.456,268.368c-22.944,0-43.28-14.768-50.608-36.752c-1.872-5.584,1.152-11.632,6.752-13.488
	c5.6-1.888,11.632,1.168,13.488,6.752c4.416,13.248,16.624,22.16,30.368,22.16s25.952-8.912,30.384-22.16
	c1.872-5.584,7.92-8.576,13.488-6.752c5.584,1.872,8.608,7.904,6.752,13.488C216.752,253.6,196.4,268.368,173.456,268.368z"/>
<g>
</g>
<g>
</g>
<g>
</g>
<g>
</g>
<g>
</g>
<g>
</g>
<g>
</g>
<g>
</g>
<g>
</g>
<g>
</g>
<g>
</g>
<g>
</g>
<g>
</g>
<g>
</g>
<g>
</g>
</svg>
