<?xml version="1.0" encoding="iso-8859-1"?>
<!-- Generator: Adobe Illustrator 19.0.0, SVG Export Plug-In . SVG Version: 6.00 Build 0)  -->
<svg version="1.1" id="Capa_1" xmlns="http://www.w3.org/2000/svg" xmlns:xlink="http://www.w3.org/1999/xlink" x="0px" y="0px"
	 viewBox="0 0 512 512" style="enable-background:new 0 0 512 512;" xml:space="preserve">
<circle style="fill:#FFD93B;" cx="256" cy="256" r="256"/>
<path style="fill:#F4C534;" d="M512,256c0,141.44-114.64,256-256,256c-80.48,0-152.32-37.12-199.28-95.28
	c43.92,35.52,99.84,56.72,160.72,56.72c141.36,0,256-114.56,256-256c0-60.88-21.2-116.8-56.72-160.72
	C474.8,103.68,512,175.52,512,256z"/>
<path style="fill:#3E4347;" d="M330.464,436.432c-25.104,4.384-45.696-13.312-53.328-37.712
	c-12.224-39.04-67.184-45.984-71.392-67.456c2.48-25.968,162.528-9.808,162.528,51.84
	C372.56,408.208,355.664,432.144,330.464,436.432z"/>
<path style="fill:#45CBEA;" d="M434.944,113.088c0-14.88-26.96-56.368-26.96-56.368s-26.96,41.472-26.96,56.368
	s12.064,26.96,26.96,26.96C422.88,140.032,434.944,127.968,434.944,113.088z"/>
<g style="opacity:0.2;">
	<path style="fill:#FFFFFF;" d="M423.408,126.448c-2.784,3.248-6.624,4.384-8.752,2.608c-2.144-1.776-1.632-5.856,0.992-9.104
		c2.704-3.168,6.624-4.384,8.752-2.608C426.544,119.2,426.032,123.2,423.408,126.448z"/>
</g>
<path style="fill:#45CBEA;" d="M498.752,219.376c0-21.312-38.592-80.704-38.592-80.704s-38.592,59.392-38.592,80.704
	s17.28,38.592,38.592,38.592S498.752,240.704,498.752,219.376z"/>
<g style="opacity:0.2;">
	<path style="fill:#FFFFFF;" d="M482.224,238.512c-3.984,4.656-9.472,6.288-12.528,3.728c-3.056-2.544-2.336-8.4,1.424-13.04
		c3.872-4.528,9.472-6.288,12.528-3.728C486.72,228.128,486,233.872,482.224,238.512z"/>
</g>
<g>
	<path style="fill:#3E4347;" d="M117.408,269.376c-3.728-4.56-3.04-11.28,1.52-15.008c18.416-15.024,40.88-25.504,65.12-30.592
		c-16.304-9.408-34.528-16.128-53.824-19.76c-5.792-1.088-9.6-6.672-8.512-12.464c1.104-5.792,6.64-9.568,12.464-8.512
		c32.144,6.064,61.76,19.808,85.648,39.76c3.392,2.832,4.688,7.472,3.248,11.664c-1.44,4.176-5.312,7.04-9.728,7.2
		c-30.304,1.008-59.04,11.392-80.928,29.248C127.872,274.608,121.136,273.952,117.408,269.376z"/>
	<path style="fill:#3E4347;" d="M131.616,165.984c-5.152,0-9.328-4.176-9.328-9.328c0-5.152,4.176-9.344,9.328-9.344
		c21.056-0.016,58.592-5.264,73.296-40.304c2-4.752,7.44-6.992,12.224-4.992c4.752,2,6.992,7.456,4.992,12.224
		C202.528,160.896,152.304,165.968,131.616,165.984L131.616,165.984z"/>
	<path style="fill:#3E4347;" d="M394.592,269.376c3.728-4.56,3.04-11.28-1.52-15.008c-18.416-15.024-40.88-25.504-65.12-30.592
		c16.304-9.408,34.528-16.128,53.824-19.76c5.792-1.088,9.6-6.672,8.512-12.464c-1.104-5.792-6.64-9.568-12.464-8.512
		c-32.144,6.064-61.76,19.808-85.648,39.76c-3.392,2.832-4.688,7.472-3.248,11.664c1.44,4.176,5.312,7.04,9.728,7.2
		c30.304,1.008,59.04,11.392,80.928,29.248C384.128,274.608,390.864,273.952,394.592,269.376z"/>
	<path style="fill:#3E4347;" d="M380.384,165.984c5.152,0,9.328-4.176,9.328-9.328c0-5.152-4.176-9.344-9.328-9.344
		c-21.056-0.016-58.592-5.264-73.296-40.304c-2-4.752-7.44-6.992-12.224-4.992c-4.752,2-6.992,7.456-4.992,12.224
		C309.472,160.896,359.696,165.968,380.384,165.984L380.384,165.984z"/>
</g>
<g>
</g>
<g>
</g>
<g>
</g>
<g>
</g>
<g>
</g>
<g>
</g>
<g>
</g>
<g>
</g>
<g>
</g>
<g>
</g>
<g>
</g>
<g>
</g>
<g>
</g>
<g>
</g>
<g>
</g>
</svg>
