<?xml version="1.0" encoding="iso-8859-1"?>
<!-- Generator: Adobe Illustrator 19.0.0, SVG Export Plug-In . SVG Version: 6.00 Build 0)  -->
<svg version="1.1" id="Capa_1" xmlns="http://www.w3.org/2000/svg" xmlns:xlink="http://www.w3.org/1999/xlink" x="0px" y="0px"
	 viewBox="0 0 512 512" style="enable-background:new 0 0 512 512;" xml:space="preserve">
<circle style="fill:#FFD93B;" cx="256" cy="256" r="256"/>
<path style="fill:#F4C534;" d="M512,256c0,141.44-114.64,256-256,256c-80.48,0-152.32-37.12-199.28-95.28
	c43.92,35.52,99.84,56.72,160.72,56.72c141.36,0,256-114.56,256-256c0-60.88-21.2-116.8-56.72-160.72
	C474.8,103.68,512,175.52,512,256z"/>
<g>
	<ellipse style="fill:#3E4347;" cx="249.648" cy="370.72" rx="53.776" ry="58.768"/>
	<circle style="fill:#3E4347;" cx="338.24" cy="220.624" r="38.144"/>
</g>
<ellipse transform="matrix(-0.597 -0.8022 0.8022 -0.597 401.4816 611.7437)" style="fill:#5A5F63;" cx="354.389" cy="205.034" rx="10.016" ry="6.48"/>
<g>
	<path style="fill:#3E4347;" d="M399.952,209.824c-6-34.528-39.792-59.088-76.896-49.792c-5.024,1.28-10.08-1.776-11.328-6.784
		c-1.248-5.008,1.776-10.08,6.784-11.328c47.792-12,92,19.616,99.84,64.688c0.88,5.072-2.528,9.904-7.6,10.8
		C405.712,218.288,400.848,214.928,399.952,209.824z"/>
	<circle style="fill:#3E4347;" cx="173.76" cy="220.624" r="38.144"/>
</g>
<ellipse transform="matrix(-0.8022 -0.597 0.597 -0.8022 161.5706 463.7274)" style="fill:#5A5F63;" cx="157.594" cy="205.102" rx="6.48" ry="10.016"/>
<path style="fill:#3E4347;" d="M101.248,217.408c-5.072-0.88-8.48-5.712-7.6-10.8c7.84-45.12,52.08-76.688,99.84-64.688
	c4.992,1.248,8.032,6.336,6.784,11.328s-6.288,8.064-11.328,6.784c-37.04-9.296-70.88,15.2-76.896,49.792
	C111.152,214.928,106.288,218.288,101.248,217.408z"/>
<g>
</g>
<g>
</g>
<g>
</g>
<g>
</g>
<g>
</g>
<g>
</g>
<g>
</g>
<g>
</g>
<g>
</g>
<g>
</g>
<g>
</g>
<g>
</g>
<g>
</g>
<g>
</g>
<g>
</g>
</svg>
