<?xml version="1.0" encoding="iso-8859-1"?>
<!-- Generator: Adobe Illustrator 19.0.0, SVG Export Plug-In . SVG Version: 6.00 Build 0)  -->
<svg version="1.1" id="Capa_1" xmlns="http://www.w3.org/2000/svg" xmlns:xlink="http://www.w3.org/1999/xlink" x="0px" y="0px"
	 viewBox="0 0 512 512" style="enable-background:new 0 0 512 512;" xml:space="preserve">
<circle style="fill:#FFD93B;" cx="256" cy="256" r="256"/>
<path style="fill:#F4C534;" d="M512,256c0,141.44-114.64,256-256,256c-80.48,0-152.32-37.12-199.28-95.28
	c43.92,35.52,99.84,56.72,160.72,56.72c141.36,0,256-114.56,256-256c0-60.88-21.2-116.8-56.72-160.72
	C474.8,103.68,512,175.52,512,256z"/>
<path style="fill:#E24B4B;" d="M332.176,344.432c-27.408,17.536-62.16,27.92-93.776,28.112c3.168,9.76,5.552,19.776,7.008,29.984
	c4.128,26.32,19.344,54.976,46.144,60.032c26.432,5.232,61.968-22.24,50.976-73.872C339.36,373.808,336.8,358.864,332.176,344.432z"
	/>
<path style="fill:#3E4347;" d="M359.104,312.976c-3.232,0-6.256,1.36-8.544,3.632c-24.512,24.512-58.128,39.168-94.544,39.168
	c-36.432,0-70.032-14.656-94.56-39.168c-2.288-2.288-5.312-3.632-8.544-3.632l0,0c-10.8,0-16.048,13.04-8.416,20.688
	c28.896,28.896,68.56,46.128,111.52,46.128c42.944,0,82.608-17.216,111.52-46.128C375.152,326.016,369.888,312.976,359.104,312.976
	L359.104,312.976z"/>
<g style="opacity:0.2;">
	
		<ellipse transform="matrix(-0.8913 -0.4534 0.4534 -0.8913 405.3369 960.4473)" style="fill:#FFFFFF;" cx="317.792" cy="431.638" rx="9.392" ry="14.784"/>
</g>
<g>
	<path style="fill:#3E4347;" d="M216.976,218.848c-12.032-16.416-33.728-27.328-58.464-27.328
		c-24.848,0.112-46.544,11.024-58.576,27.44c0.56-31.824,26.544-57.456,58.576-57.456
		C190.32,161.504,216.416,187.024,216.976,218.848z"/>
	<path style="fill:#3E4347;" d="M412.08,218.848c-12.032-16.416-33.728-27.328-58.464-27.328
		c-24.848,0.112-46.544,11.024-58.576,27.44c0.56-31.824,26.544-57.456,58.576-57.456
		C385.424,161.504,411.52,187.024,412.08,218.848z"/>
</g>
<g>
</g>
<g>
</g>
<g>
</g>
<g>
</g>
<g>
</g>
<g>
</g>
<g>
</g>
<g>
</g>
<g>
</g>
<g>
</g>
<g>
</g>
<g>
</g>
<g>
</g>
<g>
</g>
<g>
</g>
</svg>
