<?xml version="1.0" encoding="iso-8859-1"?>
<!-- Generator: Adobe Illustrator 19.0.0, SVG Export Plug-In . SVG Version: 6.00 Build 0)  -->
<svg version="1.1" id="Capa_1" xmlns="http://www.w3.org/2000/svg" xmlns:xlink="http://www.w3.org/1999/xlink" x="0px" y="0px"
	 viewBox="0 0 512 512" style="enable-background:new 0 0 512 512;" xml:space="preserve">
<circle style="fill:#FFD93B;" cx="256" cy="256" r="256"/>
<path style="fill:#F4C534;" d="M512,256c0,141.44-114.64,256-256,256c-80.48,0-152.32-37.12-199.28-95.28
	c43.92,35.52,99.84,56.72,160.72,56.72c141.36,0,256-114.56,256-256c0-60.88-21.2-116.8-56.72-160.72
	C474.8,103.68,512,175.52,512,256z"/>
<g>
	<path style="fill:#3E4347;" d="M288.592,238.528c-0.336,0-0.688-0.016-1.024-0.048c-6.048-0.56-10.496-5.92-9.936-11.968
		c1.904-20.48,21.888-35.92,46.48-35.92s44.576,15.44,46.48,35.904c0.56,6.048-3.888,11.408-9.936,11.968
		c-6.08,0.512-11.408-3.888-11.984-9.936c-0.816-8.8-11.84-15.952-24.576-15.952s-23.76,7.152-24.576,15.952
		C298.992,234.24,294.208,238.528,288.592,238.528z"/>
	<circle style="fill:#3E4347;" cx="183.168" cy="215.104" r="41.696"/>
</g>
<ellipse transform="matrix(-0.7071 -0.7071 0.7071 -0.7071 201.095 479.9549)" style="fill:#5A5F63;" cx="199.949" cy="198.329" rx="12.496" ry="6.928"/>
<path style="fill:#3E4347;" d="M395.424,308.64c26.304-14.256-6.128,98.336-139.424,103.6
	c-133.296-5.248-165.712-117.84-139.424-103.6c18.768,6.208,73.456,50.736,139.424,47.888
	C321.968,359.36,376.64,314.848,395.424,308.64z"/>
<g>
</g>
<g>
</g>
<g>
</g>
<g>
</g>
<g>
</g>
<g>
</g>
<g>
</g>
<g>
</g>
<g>
</g>
<g>
</g>
<g>
</g>
<g>
</g>
<g>
</g>
<g>
</g>
<g>
</g>
</svg>
