<?xml version="1.0" encoding="iso-8859-1"?>
<!-- Generator: Adobe Illustrator 19.0.0, SVG Export Plug-In . SVG Version: 6.00 Build 0)  -->
<svg version="1.1" id="Capa_1" xmlns="http://www.w3.org/2000/svg" xmlns:xlink="http://www.w3.org/1999/xlink" x="0px" y="0px"
	 viewBox="0 0 512 512" style="enable-background:new 0 0 512 512;" xml:space="preserve">
<circle style="fill:#FFD93B;" cx="256" cy="256" r="256"/>
<path style="fill:#F4C534;" d="M512,256c0,141.44-114.64,256-256,256c-80.48,0-152.32-37.12-199.28-95.28
	c43.92,35.52,99.84,56.72,160.72,56.72c141.36,0,256-114.56,256-256c0-60.88-21.2-116.8-56.72-160.72
	C474.8,103.68,512,175.52,512,256z"/>
<path style="fill:#3E4347;" d="M395.424,362.784c-23.984,69.168-77.328,106.8-139.408,106.8s-115.424-37.632-139.408-106.8
	c-4.256-12.336,3.872-25.984,13.984-22.736c83.568,25.984,167.136,25.984,250.704,0
	C391.424,336.816,399.664,350.448,395.424,362.784z"/>
<path style="fill:#FFFFFF;" d="M381.312,340.064c-83.568,25.984-167.136,25.984-250.704,0c-2.416-0.768-4.704-0.544-6.752,0.368
	c23.92,46.624,66.784,60.08,132.144,60.08s108.224-13.44,132.16-60.064C386.08,339.52,383.744,339.28,381.312,340.064z"/>
<path style="fill:#E24B4B;" d="M256.016,469.584c23.296,0,45.36-5.296,65.104-15.584c-5.088-15.296-15.264-28.24-28.72-36.688
	c-9.952-6.224-22.384-5.536-32.672,0.112c-7.696,4.176-16.4,5.648-24.768,4.64c-16.4-1.808-32.448,7.456-40.032,22.048
	c-1.632,3.136-2.976,6.448-4.112,9.84C210.592,464.272,232.688,469.584,256.016,469.584z"/>
<g>
	<path style="fill:#3E4347;" d="M218.272,226.224c-6.144,0-11.776-4.08-13.488-10.304c-5.536-20.208-23.92-34.336-44.736-34.336
		c-20.704,0-39.024,14.112-44.56,34.336c-2.048,7.472-9.792,11.872-17.184,9.808c-7.472-2.032-11.856-9.728-9.808-17.2
		c8.848-32.336,38.288-54.944,71.568-54.944c33.392,0,62.896,22.592,71.728,54.944c2.048,7.456-2.336,15.152-9.808,17.2
		C220.736,226.064,219.504,226.224,218.272,226.224z"/>
	<path style="fill:#3E4347;" d="M410,226.224c-6.144,0-11.776-4.08-13.488-10.304c-5.536-20.208-23.92-34.336-44.736-34.336
		c-20.704,0-39.024,14.112-44.56,34.336c-2.048,7.472-9.776,11.872-17.184,9.808c-7.472-2.032-11.856-9.728-9.808-17.2
		c8.848-32.336,38.288-54.944,71.568-54.944c33.392,0,62.896,22.592,71.728,54.944c2.048,7.456-2.336,15.152-9.808,17.2
		C412.464,226.064,411.232,226.224,410,226.224z"/>
</g>
<g>
	<path style="fill:#65B1EF;" d="M470.784,315.76c0.528,12.944-9.52,23.84-22.4,24.368c-12.944,0.528-24.192-9.504-24.352-22.464
		c-0.32-25.904-5.136-84.912-5.136-84.912S469.744,290.208,470.784,315.76z"/>
	<path style="fill:#65B1EF;" d="M41.216,315.76c-0.528,12.944,9.52,23.84,22.4,24.368c12.944,0.528,24.192-9.504,24.352-22.464
		c0.32-25.904,5.136-84.912,5.136-84.912S42.256,290.208,41.216,315.76z"/>
</g>
<g>
</g>
<g>
</g>
<g>
</g>
<g>
</g>
<g>
</g>
<g>
</g>
<g>
</g>
<g>
</g>
<g>
</g>
<g>
</g>
<g>
</g>
<g>
</g>
<g>
</g>
<g>
</g>
<g>
</g>
</svg>
