<?xml version="1.0" encoding="iso-8859-1"?>
<!-- Generator: Adobe Illustrator 19.0.0, SVG Export Plug-In . SVG Version: 6.00 Build 0)  -->
<svg version="1.1" id="Capa_1" xmlns="http://www.w3.org/2000/svg" xmlns:xlink="http://www.w3.org/1999/xlink" x="0px" y="0px"
	 viewBox="0 0 512 512" style="enable-background:new 0 0 512 512;" xml:space="preserve">
<circle style="fill:#FFD93B;" cx="256" cy="256" r="256"/>
<path style="fill:#3E4347;" d="M421.584,332.448c-24.96,67.2-89.68,115.04-165.6,115.04s-140.56-47.84-165.6-115.04
	c-3.04-8.32,2.88-17.12,11.76-17.12c102.56,14.8,205.2,14.8,307.68,0C418.704,315.328,424.704,324.128,421.584,332.448z"/>
<path style="fill:#F4C534;" d="M512,256c0,141.44-114.64,256-256,256c-80.48,0-152.32-37.12-199.28-95.28
	c43.92,35.52,99.84,56.72,160.72,56.72c141.36,0,256-114.56,256-256c0-60.88-21.2-116.8-56.72-160.72
	C474.8,103.68,512,175.52,512,256z"/>
<path style="fill:#FFFFFF;" d="M369.68,320.336c-75.728,8.08-151.536,8.08-227.312,0c3.504,32.592,52.992,43.872,113.6,43.872
	C316.688,364.208,366.176,352.944,369.68,320.336z"/>
<path style="fill:#E24B4B;" d="M255.984,447.488c21.712,0,42.464-4.032,61.664-11.184c-3.104-11.808-9.84-22.144-19.024-29.616
	c-8.56-6.96-20.48-8.96-30.32-4.08c-6,2.96-13.12,4.72-21.28,4.72c-1.6,0-3.2-0.08-4.72-0.24c-10.16-0.88-20.4,2.64-26.32,10.96
	c-4.592,6.576-7.792,14.16-9.296,22.336C222.336,444.944,238.848,447.488,255.984,447.488z"/>
<g>
	<path style="fill:#3E4347;" d="M214.336,233.36c-6.624,0-12-5.376-12-12c0-16.8-13.664-30.464-30.448-30.464
		S141.44,204.56,141.44,221.36c0,6.624-5.376,12-12,12c-6.624,0-12-5.376-12-12c0-30.032,24.432-54.464,54.448-54.464
		s54.448,24.432,54.448,54.464C226.336,227.984,220.96,233.36,214.336,233.36z"/>
	<path style="fill:#3E4347;" d="M382.576,233.36c-6.624,0-12-5.376-12-12c0-16.8-13.664-30.464-30.448-30.464
		c-16.8,0-30.464,13.664-30.464,30.464c0,6.624-5.376,12-12,12s-12-5.376-12-12c0-30.032,24.432-54.464,54.464-54.464
		c30.016,0,54.448,24.432,54.448,54.464C394.576,227.984,389.2,233.36,382.576,233.36z"/>
</g>
<path style="fill:#38C0DC;" d="M363.568,101.024c0-10.656-19.28-42.112-19.28-42.112s-19.28,31.472-19.28,42.112
	s8.64,19.28,19.28,19.28C354.944,120.304,363.568,111.68,363.568,101.024z"/>
<ellipse transform="matrix(-0.7791 -0.6269 0.6269 -0.7791 559.9312 412.5197)" style="fill:#45CBEA;" cx="352.645" cy="107.609" rx="4.016" ry="6.464"/>
<path style="fill:#38C0DC;" d="M451.008,168.384c0-17.52-31.744-69.328-31.744-69.328s-31.744,51.808-31.744,69.328
	s14.208,31.744,31.744,31.744S451.008,185.92,451.008,168.384z"/>
<path style="fill:#45CBEA;" d="M438.112,183.344c-3.664,4.608-8.864,6.384-11.712,4.144c-2.96-2.24-2.24-7.92,1.424-12.416
	c3.792-4.608,8.992-6.512,11.952-4.144C442.608,173.168,441.888,178.848,438.112,183.344z"/>
<g>
</g>
<g>
</g>
<g>
</g>
<g>
</g>
<g>
</g>
<g>
</g>
<g>
</g>
<g>
</g>
<g>
</g>
<g>
</g>
<g>
</g>
<g>
</g>
<g>
</g>
<g>
</g>
<g>
</g>
</svg>
