<?xml version="1.0" encoding="iso-8859-1"?>
<!-- Generator: Adobe Illustrator 19.0.0, SVG Export Plug-In . SVG Version: 6.00 Build 0)  -->
<svg version="1.1" id="Capa_1" xmlns="http://www.w3.org/2000/svg" xmlns:xlink="http://www.w3.org/1999/xlink" x="0px" y="0px"
	 viewBox="0 0 512 512" style="enable-background:new 0 0 512 512;" xml:space="preserve">
<circle style="fill:#FFD93B;" cx="256" cy="256" r="256"/>
<path style="fill:#F4C534;" d="M512,256c0,141.44-114.64,256-256,256c-80.48,0-152.32-37.12-199.28-95.28
	c43.92,35.52,99.84,56.72,160.72,56.72c141.36,0,256-114.56,256-256c0-60.88-21.2-116.8-56.72-160.72
	C474.8,103.68,512,175.52,512,256z"/>
<path style="fill:#3E4347;" d="M419.52,319.968c-25.6,65.36-89.12,111.6-163.52,111.6s-137.92-46.24-163.52-111.6
	c-3.44-8.72,3.36-18.16,12.8-18.16h301.44C416.16,301.808,422.96,311.248,419.52,319.968z"/>
<path style="fill:#FFFFFF;" d="M384.16,323.808c-0.88,7.04-5.44,13.84-12.48,15.84c-71.68,20.464-150.32,20.64-222,0
	c-7.024-2.016-11.6-8.8-12.48-15.84H384.16z"/>
<path style="fill:#E24B4B;" d="M319.2,419.808c-19.6,7.6-40.88,11.76-63.2,11.76c-18.96,0-37.12-3.04-54.24-8.56
	c1.04-5.92,2.96-11.52,5.6-16.64c7.68-15.04,24.4-22.32,41.2-20.88c1.6,0.16,3.2,0.24,4.8,0.24c4.88,0,9.28-0.64,13.36-1.68
	c17.2-4.72,35.92,3.12,45.28,18.32C315.28,407.728,317.76,413.568,319.2,419.808z"/>
<ellipse style="fill:#3E4347;" cx="332.337" cy="199.54" rx="37.599" ry="37.599"/>
<ellipse transform="matrix(-0.7071 -0.7071 0.7071 -0.7071 459.6445 560.6836)" style="fill:#5A5F63;" cx="345.944" cy="185.146" rx="9.6" ry="6.368"/>
<g>
	<path style="fill:#3E4347;" d="M399.488,191.36c-27.28-55.2-40.24-43.92-98.32-63.28c8.64-4.64,18.88-7.12,29.52-7.12
		C361.328,120.96,394.768,141.6,399.488,191.36z"/>
	<ellipse style="fill:#3E4347;" cx="179.63" cy="199.54" rx="37.599" ry="37.599"/>
</g>
<ellipse transform="matrix(-0.7071 -0.7071 0.7071 -0.7071 152.532 433.4937)" style="fill:#5A5F63;" cx="166.046" cy="185.156" rx="6.368" ry="9.6"/>
<path style="fill:#3E4347;" d="M112.512,191.36c27.28-55.2,40.24-43.92,98.32-63.28c-8.64-4.64-18.88-7.12-29.52-7.12
	C150.672,120.96,117.232,141.6,112.512,191.36z"/>
<g>
</g>
<g>
</g>
<g>
</g>
<g>
</g>
<g>
</g>
<g>
</g>
<g>
</g>
<g>
</g>
<g>
</g>
<g>
</g>
<g>
</g>
<g>
</g>
<g>
</g>
<g>
</g>
<g>
</g>
</svg>
