<?xml version="1.0" encoding="iso-8859-1"?>
<!-- Generator: Adobe Illustrator 19.0.0, SVG Export Plug-In . SVG Version: 6.00 Build 0)  -->
<svg version="1.1" id="Capa_1" xmlns="http://www.w3.org/2000/svg" xmlns:xlink="http://www.w3.org/1999/xlink" x="0px" y="0px"
	 viewBox="0 0 512 512" style="enable-background:new 0 0 512 512;" xml:space="preserve">
<g style="opacity:0.1;">
	
		<ellipse transform="matrix(-0.915 -0.4035 0.4035 -0.915 391.017 1007.6169)" style="fill:#FFFFFF;" cx="301.662" cy="462.614" rx="13.344" ry="8.208"/>
</g>
<circle style="fill:#FFD93B;" cx="256" cy="256" r="256"/>
<path style="fill:#F4C534;" d="M512,256c0,141.44-114.64,256-256,256c-80.48,0-152.32-37.12-199.28-95.28
	c43.92,35.52,99.84,56.72,160.72,56.72c141.36,0,256-114.56,256-256c0-60.88-21.2-116.8-56.72-160.72
	C474.8,103.68,512,175.52,512,256z"/>
<g>
	<path style="fill:#3E4347;" d="M399.424,209.168c-28.544,0-62.064-12.96-97.6-23.856c-3.968-1.216-7.024-4.384-8.08-8.384
		s0.016-8.272,2.848-11.296c15.008-16,30.016-30.848,44.256-48.464c4.144-5.168,11.712-5.968,16.864-1.792s5.968,11.728,1.792,16.88
		c-10.192,12.624-22,25.216-32.208,35.936c0.736,0.24,1.456,0.464,2.192,0.704c26.672,8.576,51.808,16.56,71.36,16.272
		c6.48-0.32,12.112,5.12,12.24,11.744C413.232,203.52,408.608,209.168,399.424,209.168z"/>
	<path style="fill:#3E4347;" d="M112.576,209.168c-9.184,0-13.808-5.632-13.664-12.272c0.144-6.624,5.584-12.016,12.24-11.744
		c19.616,0.304,44.688-7.696,71.36-16.272c0.72-0.24,1.456-0.464,2.192-0.704c-10.224-10.72-22.032-23.328-32.224-35.936
		c-4.16-5.152-3.36-12.704,1.792-16.88c5.152-4.16,12.72-3.36,16.88,1.792c14.192,17.568,29.248,32.464,44.256,48.464
		c2.832,3.024,3.904,7.296,2.848,11.296c-1.072,4-4.128,7.168-8.08,8.384C174.656,196.208,141.12,209.168,112.576,209.168z"/>
</g>
<path id="SVGCleanerId_0" style="fill:#3E4347;" d="M444.896,293.072C427.536,381.6,349.584,448.32,256.032,448.32
	c-93.696,0-171.792-66.944-188.928-155.6c-2.048-10.496,7.36-19.76,17.792-17.36c116.88,26.832,230.928,27.424,341.984,0.368
	C437.312,273.168,446.928,282.496,444.896,293.072z"/>
<g>
	<path id="SVGCleanerId_0_1_" style="fill:#3E4347;" d="M444.896,293.072C427.536,381.6,349.584,448.32,256.032,448.32
		c-93.696,0-171.792-66.944-188.928-155.6c-2.048-10.496,7.36-19.76,17.792-17.36c116.88,26.832,230.928,27.424,341.984,0.368
		C437.312,273.168,446.928,282.496,444.896,293.072z"/>
</g>
<path style="fill:#FFFFFF;" d="M389.712,308.08c-15.6,60.24-64.48,63.2-134,63.2c-69.68,0-116-5.04-133.76-64
	c46.4,8.32,92.56,12.48,137.6,12.48C303.312,319.76,346.912,315.84,389.712,308.08z"/>
<path style="fill:#E24B4B;" d="M256.032,448.32c29.104,0,56.704-6.48,81.44-18.048c-4.544-10.768-11.232-20.4-19.568-28.288
	c-12.624-11.936-30.912-14.08-46.96-7.632c-6.464,2.64-13.792,4.112-22.208,4.112c-4.112,0-8.016-0.384-11.648-0.976
	c-16.928-3.136-34.736,1.856-44.912,15.648c-4.48,6.08-8.096,12.816-10.832,19.952C204.352,442.8,229.52,448.32,256.032,448.32z"/>
<g>
</g>
<g>
</g>
<g>
</g>
<g>
</g>
<g>
</g>
<g>
</g>
<g>
</g>
<g>
</g>
<g>
</g>
<g>
</g>
<g>
</g>
<g>
</g>
<g>
</g>
<g>
</g>
<g>
</g>
</svg>
