<?xml version="1.0" encoding="iso-8859-1"?>
<!-- Generator: Adobe Illustrator 19.0.0, SVG Export Plug-In . SVG Version: 6.00 Build 0)  -->
<svg version="1.1" id="Capa_1" xmlns="http://www.w3.org/2000/svg" xmlns:xlink="http://www.w3.org/1999/xlink" x="0px" y="0px"
	 viewBox="0 0 512 512" style="enable-background:new 0 0 512 512;" xml:space="preserve">
<circle style="fill:#FFD93B;" cx="256" cy="256" r="256"/>
<path style="fill:#F4C534;" d="M512,256c0,141.44-114.64,256-256,256c-80.48,0-152.32-37.12-199.28-95.28
	c43.92,35.52,99.84,56.72,160.72,56.72c141.36,0,256-114.56,256-256c0-60.88-21.2-116.8-56.72-160.72
	C474.8,103.68,512,175.52,512,256z"/>
<path style="fill:#5A5F63;" d="M378.128,343.712c-14.704,58.736-62.64,106.144-122.144,105.952
	c-59.44,0.208-107.456-47.216-122.08-105.952c-2.576-9.968,4.432-19.52,12.336-17.408c72.448,19.152,147.12,19.152,219.568,0
	C373.632,324.208,380.704,333.744,378.128,343.712z"/>
<path style="fill:#3E4347;" d="M255.984,429.088c-44.832,0.208-84.976-32.896-101.136-79.696
	c66.896,15.776,135.424,15.776,202.304,0C340.944,396.208,300.768,429.312,255.984,429.088z"/>
<path style="fill:#E24B4B;" d="M255.984,429.088c21.024,0.112,40.976-7.2,57.968-19.744c-0.752-2.592-1.584-5.136-2.592-7.568
	c-8.352-19.92-28.608-25.408-45.488-16.416c-2.864,1.584-6.064,2.496-9.344,2.656c-3.536,0.208-6.96-0.496-10.096-1.872
	c-18-8.144-38.224,4.288-44.544,26.016C217.984,422.992,236.544,429.184,255.984,429.088z"/>
<g>
	<path style="fill:#3E4347;" d="M216.288,258.656c-5.536,0-10.4-4.048-11.248-9.68c-1.84-12.096-12.672-21.216-25.168-21.216
		c-12.512,0-23.328,9.12-25.168,21.216c-0.944,6.224-6.784,10.496-12.992,9.552c-6.224-0.944-10.496-6.768-9.552-12.992
		c3.52-23.136,24.032-40.592,47.712-40.592s44.192,17.44,47.712,40.592c0.944,6.224-3.328,12.032-9.552,12.992
		C217.44,258.608,216.864,258.656,216.288,258.656z"/>
	<path style="fill:#3E4347;" d="M368.576,258.656c-5.536,0-10.4-4.048-11.248-9.68c-1.84-12.096-12.672-21.216-25.168-21.216
		c-12.512,0-23.328,9.12-25.168,21.216c-0.944,6.224-6.768,10.496-12.992,9.552s-10.496-6.768-9.552-12.992
		c3.52-23.136,24.032-40.592,47.712-40.592s44.192,17.44,47.712,40.576c0.944,6.224-3.328,12.032-9.552,12.992
		C369.728,258.608,369.152,258.656,368.576,258.656z"/>
	<path style="fill:#3E4347;" d="M110.352,199.904c-0.24,0-0.496,0-0.736,0c-6.304-0.032-11.36-5.168-11.328-11.472
		c0.032-6.272,5.136-11.328,11.392-11.328c0.224,0,0.448,0,0.672,0c35.296,0,67.696-19.168,84.688-50.144
		c3.024-5.52,9.952-7.552,15.472-4.512c5.52,3.024,7.536,9.952,4.512,15.472C194.032,176.192,153.968,199.904,110.352,199.904z"/>
	<path style="fill:#3E4347;" d="M401.648,199.904c-43.632,0-83.68-23.696-104.672-61.984c-3.024-5.52-1.008-12.448,4.512-15.472
		s12.448-1.008,15.472,4.512c17.072,31.152,49.648,50.272,85.28,50.144c0.016,0,0.048,0,0.064,0c6.272,0,11.36,5.056,11.392,11.328
		c0.032,6.304-5.024,11.44-11.328,11.472C402.144,199.904,401.904,199.904,401.648,199.904z"/>
</g>
<path style="fill:#45CBEA;" d="M120.224,325.504c-5.776,14.768-22.432,22.048-37.2,16.272s-22.048-22.432-16.272-37.2
	s47.424-42.4,47.424-42.4S126,310.736,120.224,325.504z"/>
<g style="opacity:0.3;">
	<path style="fill:#FFFFFF;" d="M73.664,320.112c-1.168-6.4,1.2-12.112,5.072-12.784c3.792-0.576,7.904,4.048,8.896,10.448
		c1.088,6.304-1.28,12.032-5.152,12.688C78.704,331.056,74.672,326.512,73.664,320.112z"/>
</g>
<path style="fill:#45CBEA;" d="M391.776,325.504c5.776,14.768,22.432,22.048,37.2,16.272s22.048-22.432,16.272-37.2
	s-47.424-42.4-47.424-42.4S386,310.736,391.776,325.504z"/>
<g style="opacity:0.3;">
	<path style="fill:#FFFFFF;" d="M438.336,320.112c1.168-6.4-1.2-12.112-5.072-12.784c-3.792-0.576-7.904,4.048-8.896,10.448
		c-1.088,6.304,1.28,12.032,5.152,12.688C433.296,331.056,437.328,326.512,438.336,320.112z"/>
</g>
<g style="opacity:0.2;">
	
		<ellipse transform="matrix(-0.8909 -0.4541 0.4541 -0.8909 366.5502 877.0852)" style="fill:#FFFFFF;" cx="288.594" cy="394.528" rx="8.912" ry="4.832"/>
</g>
<g>
</g>
<g>
</g>
<g>
</g>
<g>
</g>
<g>
</g>
<g>
</g>
<g>
</g>
<g>
</g>
<g>
</g>
<g>
</g>
<g>
</g>
<g>
</g>
<g>
</g>
<g>
</g>
<g>
</g>
</svg>
