<?xml version="1.0" encoding="iso-8859-1"?>
<!-- Generator: Adobe Illustrator 19.0.0, SVG Export Plug-In . SVG Version: 6.00 Build 0)  -->
<svg version="1.1" id="Capa_1" xmlns="http://www.w3.org/2000/svg" xmlns:xlink="http://www.w3.org/1999/xlink" x="0px" y="0px"
	 viewBox="0 0 512 512" style="enable-background:new 0 0 512 512;" xml:space="preserve">
<circle style="fill:#FFD93B;" cx="256" cy="256" r="256"/>
<path style="fill:#F4C534;" d="M512,256c0,141.44-114.64,256-256,256c-80.48,0-152.32-37.12-199.28-95.28
	c43.92,35.52,99.84,56.72,160.72,56.72c141.36,0,256-114.56,256-256c0-60.88-21.2-116.8-56.72-160.72
	C474.8,103.68,512,175.52,512,256z"/>
<g>
	<path style="fill:#3E4347;" d="M194.144,239.744c-2.944-13.088-13.088-24.56-21.728-24.56s-18.784,11.472-21.728,24.56
		c-1.696,7.552-9.152,12.272-16.736,10.592c-7.536-1.712-12.288-9.2-10.592-16.736c5.056-22.496,23.968-46.416,49.056-46.416
		s44,23.92,49.056,46.416c1.696,7.536-3.04,15.024-10.592,16.736C203.264,252.032,195.84,247.248,194.144,239.744z"/>
	<path style="fill:#3E4347;" d="M361.312,239.744c-2.944-13.088-13.104-24.56-21.728-24.56s-18.784,11.472-21.728,24.56
		c-1.696,7.536-9.168,12.272-16.736,10.592c-7.536-1.696-12.288-9.184-10.592-16.736c5.072-22.496,23.984-46.416,49.056-46.416
		s43.984,23.904,49.056,46.416c1.696,7.536-3.04,15.04-10.592,16.736C370.4,252.032,362.992,247.2,361.312,239.744z"/>
	<path style="fill:#3E4347;" d="M406.208,327.696c-9.296,62.464-67.728,116.816-147.312,116.656
		c-79.712,0.16-138.144-54.208-147.424-116.656c-1.104-6.944,5.472-13.376,12.416-12.336c89.104,13.296,180.816,13.296,269.92,0
		C400.736,314.304,407.312,320.752,406.208,327.696z"/>
</g>
<path style="fill:#FFFFFF;" d="M258.896,421.584c-59.008,0.16-108.032-35.696-123.648-84.208c81.76,10.88,165.424,10.88,247.184,0
	C366.832,385.888,317.84,421.728,258.896,421.584z"/>
<g>
	<path style="fill:#3E4347;" d="M333.76,407.584l-9.072-75.312l1.92-0.208c2.032-0.112,4.16-0.32,6.288-0.528l1.712-0.112
		l9.808,75.2l-1.808,0.112c-2.448,0.208-4.8,0.432-7.152,0.64L333.76,407.584z"/>
	<path style="fill:#3E4347;" d="M227.84,425.184h-1.808l4.272-90.768l9.92,0.208l-3.312,90.88l-1.808-0.112
		C232.64,425.392,230.304,425.28,227.84,425.184z"/>
	<path style="fill:#3E4347;" d="M173.024,409.184l10.128-77.76l1.808,0.112c2.032,0.208,4.16,0.432,6.192,0.528l1.92,0.208
		l-9.392,77.872l-1.712-0.112c-2.352-0.208-4.688-0.432-7.152-0.64L173.024,409.184z"/>
	<path style="fill:#3E4347;" d="M280.864,425.504l-3.312-90.88l9.92-0.208l4.368,90.768h-1.92c-2.448,0.112-4.8,0.208-7.248,0.208
		L280.864,425.504z"/>
	<path style="fill:#3E4347;" d="M145.712,380.912l1.92-10.448l1.712,0.112c73.392,8.96,147.728,8.848,221.12-0.208l1.712-0.208
		l1.92,10.448l-1.92,0.32c-74.448,9.168-149.968,9.28-224.432,0.208L145.712,380.912z"/>
</g>
<g>
</g>
<g>
</g>
<g>
</g>
<g>
</g>
<g>
</g>
<g>
</g>
<g>
</g>
<g>
</g>
<g>
</g>
<g>
</g>
<g>
</g>
<g>
</g>
<g>
</g>
<g>
</g>
<g>
</g>
</svg>
