<?xml version="1.0" encoding="iso-8859-1"?>
<!-- Generator: Adobe Illustrator 19.0.0, SVG Export Plug-In . SVG Version: 6.00 Build 0)  -->
<svg version="1.1" id="Capa_1" xmlns="http://www.w3.org/2000/svg" xmlns:xlink="http://www.w3.org/1999/xlink" x="0px" y="0px"
	 viewBox="0 0 512 512" style="enable-background:new 0 0 512 512;" xml:space="preserve">
<circle style="fill:#FFD93B;" cx="256" cy="256" r="256"/>
<path style="fill:#F4C534;" d="M512,256c0,141.44-114.64,256-256,256c-80.48,0-152.32-37.12-199.28-95.28
	c43.92,35.52,99.84,56.72,160.72,56.72c141.36,0,256-114.56,256-256c0-60.88-21.2-116.8-56.72-160.72
	C474.8,103.68,512,175.52,512,256z"/>
<circle style="fill:#3E4347;" cx="161.824" cy="194.88" r="40.176"/>
<ellipse transform="matrix(-0.4054 -0.9141 0.9141 -0.4054 49.5185 386.4331)" style="fill:#5A5F63;" cx="150.434" cy="177.112" rx="7.872" ry="12.16"/>
<circle style="fill:#3E4347;" cx="350.176" cy="194.88" r="40.176"/>
<ellipse transform="matrix(-0.4054 -0.9141 0.9141 -0.4054 314.1033 558.5688)" style="fill:#5A5F63;" cx="338.708" cy="177.132" rx="7.872" ry="12.16"/>
<path style="fill:#3E4347;" d="M403.376,327.696c-9.296,62.464-67.728,116.816-147.312,116.656
	c-79.712,0.16-138.144-54.208-147.424-116.656c-1.104-6.944,5.472-13.376,12.416-12.336c89.104,13.296,180.816,13.296,269.92,0
	C397.888,314.304,404.48,320.752,403.376,327.696z"/>
<path style="fill:#FFFFFF;" d="M256.048,421.584c-59.008,0.16-108.032-35.696-123.648-84.208c81.76,10.88,165.424,10.88,247.184,0
	C364,385.888,315.008,421.728,256.048,421.584z"/>
<g>
	<path style="fill:#3E4347;" d="M330.928,407.584l-9.072-75.312l1.92-0.208c2.032-0.112,4.16-0.32,6.288-0.528l1.712-0.112
		l9.808,75.2l-1.808,0.112c-2.448,0.208-4.8,0.432-7.152,0.64L330.928,407.584z"/>
	<path style="fill:#3E4347;" d="M225.008,425.184H223.2l4.272-90.768l9.92,0.208l-3.312,90.88l-1.808-0.112
		C229.808,425.392,227.456,425.28,225.008,425.184z"/>
	<path style="fill:#3E4347;" d="M170.176,409.184l10.128-77.76l1.808,0.112c2.032,0.208,4.16,0.432,6.192,0.528l1.92,0.208
		l-9.392,77.872l-1.712-0.112c-2.352-0.208-4.688-0.432-7.152-0.64L170.176,409.184z"/>
	<path style="fill:#3E4347;" d="M278.016,425.504l-3.312-90.88l9.92-0.208l4.368,90.768h-1.92c-2.448,0.112-4.8,0.208-7.248,0.208
		L278.016,425.504z"/>
	<path style="fill:#3E4347;" d="M142.864,380.912l1.92-10.448l1.712,0.112c73.392,8.96,147.728,8.848,221.12-0.208l1.712-0.208
		l1.92,10.448l-1.92,0.32c-74.448,9.168-149.968,9.28-224.432,0.208L142.864,380.912z"/>
</g>
<g>
</g>
<g>
</g>
<g>
</g>
<g>
</g>
<g>
</g>
<g>
</g>
<g>
</g>
<g>
</g>
<g>
</g>
<g>
</g>
<g>
</g>
<g>
</g>
<g>
</g>
<g>
</g>
<g>
</g>
</svg>
