<?xml version="1.0" encoding="iso-8859-1"?>
<!-- Generator: Adobe Illustrator 19.0.0, SVG Export Plug-In . SVG Version: 6.00 Build 0)  -->
<svg version="1.1" id="Capa_1" xmlns="http://www.w3.org/2000/svg" xmlns:xlink="http://www.w3.org/1999/xlink" x="0px" y="0px"
	 viewBox="0 0 512 512" style="enable-background:new 0 0 512 512;" xml:space="preserve">
<circle style="fill:#FFD93B;" cx="256" cy="256" r="256"/>
<path style="fill:#F4C534;" d="M512,256c0,141.44-114.64,256-256,256c-80.48,0-152.32-37.12-199.28-95.28
	c43.92,35.52,99.84,56.72,160.72,56.72c141.36,0,256-114.56,256-256c0-60.88-21.2-116.8-56.72-160.72
	C474.8,103.68,512,175.52,512,256z"/>
<path style="fill:#FFFFFF;" d="M271.296,214.688c8.464,44.24,54.32,77.28,102.4,73.664c48.256-3.632,80.32-42.544,71.84-86.784
	c-8.496-44.384-54.32-77.28-102.56-73.648C294.88,131.536,262.8,170.304,271.296,214.688z"/>
<circle style="fill:#3E4347;" cx="336.8" cy="202.416" r="39.728"/>
<g>
	
		<ellipse transform="matrix(-0.7071 -0.7071 0.7071 -0.7071 417.5537 549.3972)" style="fill:#FFFFFF;" cx="322.561" cy="188.22" rx="7.92" ry="12.832"/>
	<path style="fill:#FFFFFF;" d="M240.704,214.688c-8.464,44.24-54.32,77.28-102.4,73.664c-48.256-3.632-80.32-42.544-71.84-86.784
		c8.496-44.384,54.32-77.28,102.56-73.648C217.12,131.536,249.2,170.304,240.704,214.688z"/>
</g>
<circle style="fill:#3E4347;" cx="175.184" cy="202.416" r="39.728"/>
<ellipse transform="matrix(-0.7071 -0.7071 0.7071 -0.7071 141.6805 435.0854)" style="fill:#FFFFFF;" cx="160.949" cy="188.2" rx="7.92" ry="12.832"/>
<g>
	<path style="fill:#3E4347;" d="M76.784,127.472c0,0,85.856,17.632,150.384-34.928C214.448,144.96,164.32,156.608,76.784,127.472z"
		/>
	<path style="fill:#3E4347;" d="M435.216,127.472c0,0-85.856,17.632-150.384-34.928C297.552,144.96,347.68,156.608,435.216,127.472z
		"/>
	<path style="fill:#3E4347;" d="M173.104,409.776c17.12-31.68,47.84-52.8,83.04-52.8c35.04,0,65.76,20.96,82.72,52.48
		c5.76,10.72,21.92,4.48,18.88-7.36c-11.04-44.32-50.72-79.68-101.6-79.68c-51.04,0-90.88,35.52-101.92,79.84
		C151.344,414.096,167.344,420.336,173.104,409.776z"/>
</g>
<g>
	<path style="fill:#59A5E0;" d="M75.008,251.36c1.664-0.352,3.488-0.624,5.824-0.624c13.28,0,13.28,6.96,26.544,6.96
		c13.248,0,13.248-6.96,26.512-6.96c13.248,0,13.248,6.96,26.496,6.96s13.248-6.96,26.496-6.96c13.232,0,13.232,6.96,26.464,6.96
		c1.856,0,3.392-0.16,4.8-0.384c-19.728,20.768-49.296,33.328-79.84,31.024C109.92,286.208,87.232,271.824,75.008,251.36z"/>
	<path style="fill:#59A5E0;" d="M69.696,295.344c0.8,9.248,6.672,15.776,15.632,15.776c9.216,0,13.472-11.296,10.832-18.064
		C89.136,275.152,85.088,257.6,85.088,257.6S70.352,281.04,69.696,295.344z"/>
	<path style="fill:#59A5E0;" d="M73.952,352.656c0.448,5.2,3.808,9.68,8.848,9.68c5.168,0,8.208-5.872,6.016-10.96
		c-4.288-9.92-6.272-17.616-6.272-17.616S74.32,344.624,73.952,352.656z"/>
</g>
<g>
	<path style="fill:#FFFFFF;" d="M86.432,355.056c0.8,0.48,0.48,1.76-0.64,3.04s-2.56,1.76-3.36,1.28s-0.48-1.92,0.64-3.04
		C84.192,355.056,85.632,354.416,86.432,355.056z"/>
	<path style="fill:#FFFFFF;" d="M90.112,304.496c-2.08,2.24-4.64,3.36-5.92,2.4c-1.44-0.8-1.12-3.36,0.96-5.6
		c1.92-2.24,4.64-3.2,6.08-2.24C92.512,300.016,92.032,302.416,90.112,304.496z"/>
</g>
<g>
</g>
<g>
</g>
<g>
</g>
<g>
</g>
<g>
</g>
<g>
</g>
<g>
</g>
<g>
</g>
<g>
</g>
<g>
</g>
<g>
</g>
<g>
</g>
<g>
</g>
<g>
</g>
<g>
</g>
</svg>
