<?xml version="1.0" encoding="iso-8859-1"?>
<!-- Generator: Adobe Illustrator 19.0.0, SVG Export Plug-In . SVG Version: 6.00 Build 0)  -->
<svg version="1.1" id="Capa_1" xmlns="http://www.w3.org/2000/svg" xmlns:xlink="http://www.w3.org/1999/xlink" x="0px" y="0px"
	 viewBox="0 0 511.997 511.997" style="enable-background:new 0 0 511.997 511.997;" xml:space="preserve">
<ellipse style="fill:#FFD93B;" cx="255.828" cy="255.998" rx="247.824" ry="247.824"/>
<g>
	<path style="fill:#F4C534;" d="M503.664,255.553c0.24,136.928-110.544,248.016-247.392,248.256
		c-77.904,0.128-147.52-35.68-193.072-91.904c42.576,34.304,96.752,54.736,155.68,54.64
		c136.848-0.24,247.632-111.328,247.392-248.256c-0.096-58.928-20.72-113.04-55.184-155.488
		C467.392,108.161,503.52,177.649,503.664,255.553z"/>
	<path style="fill:#F4C534;" d="M409.008,223.569c-49.264,20.512-94.368,11.376-138.496-20.912
		c17.664-8.56,52.256-25.52,64.624-42.016c-5.072,15.472-28.128,34.176-41.088,42.56
		C338.128,227.521,391.568,222.977,409.008,223.569z"/>
</g>
<path style="fill:#3E4347;" d="M316.128,202.417c10.576-8.992,34.736-18.192,60.416-17.488c21.36,1.04,43.184,6.832,59.216,22.448
	c0,0-39.728-2.704-59.616-3.056C358.704,203.185,336.4,204.225,316.128,202.417z"/>
<path style="fill:#F4C534;" d="M102.56,224.113c49.328,20.336,94.4,11.056,138.432-21.392
	c-17.696-8.496-52.352-25.344-64.768-41.792c5.12,15.456,28.256,34.08,41.232,42.416C173.44,227.809,120,223.457,102.56,224.113z"/>
<path style="fill:#3E4347;" d="M195.36,202.625c-10.608-8.944-34.8-18.08-60.48-17.28c-21.36,1.12-43.168,6.976-59.136,22.656
	c0,0,39.712-2.832,59.6-3.264C152.784,203.553,175.104,204.513,195.36,202.625z"/>
<g>
	<path style="fill:#65B1EF;" d="M488.752,275.745c-9.296,0.832-18.688-5.2-21.648-14c-2.72-7.872-0.464-16.608-2.128-24.768
		c-1.888-9.344-8.816-17.728-19.872-20.736c27.76-5.616,48.512,5.392,58.4,23.888C514.336,260.593,501.328,274.673,488.752,275.745z
		"/>
	<path style="fill:#65B1EF;" d="M452.688,342.465c-13.136,11.04-31.264,2.624-30.608-17.456c0.24-15.264,26.064-57.696-1.2-73.536
		C464.144,272.785,472.256,326.849,452.688,342.465z"/>
</g>
<g>
	<path style="opacity:0.25;fill:#FFFFFF;enable-background:new    ;" d="M452.528,333.393c-2.16,3.408-5.568,4.96-7.424,3.728
		c-2.016-1.232-1.872-4.944,0.288-8.368c2.16-3.408,5.568-4.96,7.584-3.728C454.992,326.273,454.688,329.985,452.528,333.393z"/>
	<path style="opacity:0.25;fill:#FFFFFF;enable-background:new    ;" d="M500.016,261.905c-2.16,3.408-5.568,4.96-7.424,3.728
		c-2.016-1.232-1.872-4.944,0.288-8.368c2.16-3.408,5.568-4.96,7.584-3.728C502.48,254.769,502.176,258.497,500.016,261.905z"/>
</g>
<path style="fill:#65B1EF;" d="M480.72,357.265c-3.056-6.96-0.032-14.96,0.944-22.56c0.704-7.2-0.608-14.64-3.776-21.152
	C546.816,347.633,491.792,382.641,480.72,357.265z"/>
<path style="opacity:0.25;fill:#FFFFFF;enable-background:new    ;" d="M484.816,353.089c-0.496-3.6,3.232-5.488,4.8-0.64
	c0,0,0.096,0.032,0.176,0.16c2.208,1.68,6.336,0.912,7.536,3.408C501.376,363.137,485.824,362.817,484.816,353.089z"/>
<g>
	<path style="fill:#65B1EF;" d="M22.992,276.561c9.296,0.8,18.656-5.264,21.6-14.08c2.688-7.872,0.4-16.608,2.048-24.784
		c1.856-9.344,8.752-17.76,19.792-20.8c-27.792-5.52-48.496,5.552-58.32,24.08C-2.64,261.505,10.416,275.521,22.992,276.561z"/>
	<path style="fill:#65B1EF;" d="M59.296,343.153c13.184,10.992,31.28,2.512,30.544-17.568c-0.288-15.264-26.256-57.6,0.944-73.552
		C47.584,273.505,39.664,327.601,59.296,343.153z"/>
</g>
<g>
	<path style="opacity:0.25;fill:#FFFFFF;enable-background:new    ;" d="M59.424,334.081c2.176,3.392,5.584,4.944,7.44,3.696
		c2.016-1.248,1.856-4.96-0.32-8.368c-2.176-3.392-5.584-4.944-7.6-3.696C56.928,326.961,57.248,330.673,59.424,334.081z"/>
	<path style="opacity:0.25;fill:#FFFFFF;enable-background:new    ;" d="M11.68,262.753c2.176,3.392,5.584,4.944,7.44,3.696
		c2.016-1.248,1.856-4.96-0.32-8.368c-2.176-3.392-5.584-4.928-7.6-3.696C9.2,255.633,9.504,259.345,11.68,262.753z"/>
</g>
<path style="fill:#65B1EF;" d="M31.312,358.065c3.024-6.96-0.016-14.96-1.024-22.56c-0.736-7.2,0.56-14.64,3.712-21.152
	C-34.832,348.641,20.32,383.457,31.312,358.065z"/>
<path style="opacity:0.25;fill:#FFFFFF;enable-background:new    ;" d="M27.2,353.889c0.48-3.6-3.248-5.488-4.8-0.624
	c0,0-0.096,0.032-0.176,0.16c-2.208,1.696-6.32,0.928-7.52,3.44C10.688,364.001,26.24,363.617,27.2,353.889z"/>
<path style="fill:#3E4347;" d="M353.696,450.177c-62.688,26.288-118.528-17.6-150.928-40.784
	c-19.696-14.064-42.128-3.488-56.992,7.072c-8.192,5.904-19.664,1.12-21.696-8.64c-28.752-141.056,93.12-154.736,191.248-112.16
	C402.432,333.457,416.224,424.049,353.696,450.177z"/>
<path style="fill:#E24B4B;" d="M265.856,363.649c-10.384,2.416-21.808,2.384-34.352-0.448l-0.448-0.112
	c-29.312-6.624-60.416,6.672-70.944,34.944c-1.392,3.744-2.4,7.664-3.296,11.632c13.76-7.232,30.656-11.2,45.936-0.288
	c27.008,19.312,70.288,52.848,120.224,48.352c1.184-3.296,2.192-6.672,2.992-10.16c4.48-19.792,1.888-39.28-6.208-56.192
	C310.208,371.137,287.76,358.753,265.856,363.649z"/>
<g>
</g>
<g>
</g>
<g>
</g>
<g>
</g>
<g>
</g>
<g>
</g>
<g>
</g>
<g>
</g>
<g>
</g>
<g>
</g>
<g>
</g>
<g>
</g>
<g>
</g>
<g>
</g>
<g>
</g>
</svg>
