<?xml version="1.0" encoding="iso-8859-1"?>
<!-- Generator: Adobe Illustrator 19.0.0, SVG Export Plug-In . SVG Version: 6.00 Build 0)  -->
<svg version="1.1" id="Capa_1" xmlns="http://www.w3.org/2000/svg" xmlns:xlink="http://www.w3.org/1999/xlink" x="0px" y="0px"
	 viewBox="0 0 512 512" style="enable-background:new 0 0 512 512;" xml:space="preserve">
<circle style="fill:#FFD93B;" cx="256" cy="256" r="256"/>
<path style="fill:#F4C534;" d="M512,256c0,141.44-114.64,256-256,256c-80.48,0-152.32-37.12-199.28-95.28
	c43.92,35.52,99.84,56.72,160.72,56.72c141.36,0,256-114.56,256-256c0-60.88-21.2-116.8-56.72-160.72
	C474.8,103.68,512,175.52,512,256z"/>
<g>
	<path style="fill:#3E4347;" d="M233.072,201.856c0,0-4.688,98.24-103.04,107.392c-98.24,9.04-135.904-35.84-103.04-146.544
		C26.976,162.704,151.088,143.232,233.072,201.856z"/>
	<path style="fill:#3E4347;" d="M278.928,201.856c0,0,4.688,98.24,103.04,107.392c98.24,9.04,135.904-35.84,103.04-146.544
		C485.008,162.704,360.912,143.232,278.928,201.856z"/>
</g>
<g>
	<path style="fill:#5A5F63;" d="M426.688,159.728L310.48,275.936c8.672,9.36,19.76,17.696,33.84,23.808l137.568-137.472
		C474.576,161.328,453.936,159.088,426.688,159.728z"/>
	<path style="fill:#5A5F63;" d="M379.568,163.808l-86.736,86.736c3.12,6.176,6.992,12.384,11.664,18.416L413.2,160.256
		C402.544,160.896,391.232,162.016,379.568,163.808z"/>
	<path style="fill:#5A5F63;" d="M95.584,160.144l-79.68,79.68c0.688,9.264,2.4,17.568,5.136,24.944l102.16-102.16
		C113.616,161.392,104.352,160.576,95.584,160.144z"/>
	<path style="fill:#5A5F63;" d="M134.576,164.208L25.04,273.744c6.672,12.24,16.72,21.408,30.208,27.44l125.648-125.568
		C165.44,170.32,149.76,166.656,134.576,164.208z"/>
</g>
<path style="fill:#E9EFF4;" d="M503.376,156.96h-8.304c-1.408-2.784-4.064-4.736-7.088-5.376
	c-12.816-2.336-30.672-14.608-112.192-2.512c-39.52,6.912-66.464,19.136-89.584,34c-17.92,11.536-41.088,12.432-60.432,0
	c-23.104-14.848-50.064-27.088-89.568-34c-81.52-12.08-99.376,0.176-112.208,2.512c-3.04,0.64-5.664,2.592-7.088,5.376H8.608
	C3.84,156.96,0,160.8,0,165.568v23.936c0,4.752,3.84,8.608,8.608,8.608c-1.424,9.696-2.384,19.52-2.384,29.28
	c0,20.736,4.288,41.12,17.44,59.184c34.768,42.96,116.848,33.552,147.696,20.16c20.992-8.16,42.032-26.896,56.4-53.152
	c12.544-22.96,44.864-21.216,56.592,0.16c14.352,26.176,35.36,44.848,56.304,52.992c30.864,13.392,112.928,22.8,147.696-20.16
	c19.328-26.576,19.52-58.192,15.056-88.48c2.384,0,4.544-0.96,6.096-2.512c1.536-1.568,2.496-3.712,2.496-6.08v-23.936
	C512,160.8,508.144,156.96,503.376,156.96z M96.128,302.496c-74.384-7.664-83.888-55.52-60.912-127.888
	c32.112,2.32,43.488-2.064,96.176,4.336c55.376,9.856,69.136,17.584,89.632,29.296C214.608,277.472,165.648,303.488,96.128,302.496z
	 M415.872,302.496c-69.536,0.992-118.48-25.024-124.928-94.24c20.496-11.712,34.256-19.44,89.648-29.296
	c52.688-6.416,64.064-2.016,96.16-4.336C499.728,246.976,490.24,294.848,415.872,302.496z"/>
<g>
	<path style="fill:#F4C534;" d="M310.496,139.984l-21.472-16.8c-5.216-4.08-6.144-11.632-2.064-16.848
		c4.08-5.2,11.616-6.144,16.848-2.048l14.672,11.488c30.384-19.328,65.184-32.704,106.08-40.848
		c6.528-1.36,12.816,2.912,14.112,9.424c1.296,6.496-2.928,12.816-9.424,14.112c-41.008,8.176-75.216,21.904-104.576,42
		C320.368,143.376,314.608,143.216,310.496,139.984z"/>
	<path style="fill:#F4C534;" d="M187.344,140.432c-29.36-20.08-63.584-33.824-104.592-42c-6.496-1.296-10.72-7.616-9.424-14.112
		c1.328-6.496,7.68-10.72,14.112-9.408c40.896,8.144,75.68,21.536,106.08,40.848l14.672-11.488
		c5.216-4.096,12.752-3.152,16.848,2.048c4.08,5.216,3.152,12.768-2.064,16.848l-21.472,16.8
		C197.488,143.152,191.76,143.424,187.344,140.432z"/>
	<path style="fill:#F4C534;" d="M266.496,418.096c-2.736,0-5.488-1.008-7.648-3.008c-7.696-7.184-24.352-6.832-29.6-6.16
		c-5.888,0.896-11.744-3.504-12.56-9.648c-0.8-6.128,3.52-11.76,9.664-12.56c3.088-0.416,31.088-3.584,47.776,11.968
		c4.512,4.224,4.768,11.312,0.544,15.824C272.48,416.896,269.488,418.096,266.496,418.096z"/>
</g>
<path style="fill:#3E4347;" d="M373.296,430.736c-4.576,3.888-11.632,3.696-15.84-1.12c-74.88-85.92-177.76-62.72-201.28-55.84
	l1.92,8.96c1.44,5.92-2.4,12-8.48,13.28c-6.752,1.344-12.08-2.848-13.28-8.48l-8.64-37.76c-1.28-6.08,2.56-12,8.48-13.44
	c6.08-1.28,12.16,2.56,13.44,8.48l1.6,7.04c29.28-7.84,142.08-29.76,223.2,63.04C378.416,419.536,377.936,426.576,373.296,430.736z"
	/>
<g>
</g>
<g>
</g>
<g>
</g>
<g>
</g>
<g>
</g>
<g>
</g>
<g>
</g>
<g>
</g>
<g>
</g>
<g>
</g>
<g>
</g>
<g>
</g>
<g>
</g>
<g>
</g>
<g>
</g>
</svg>
