<?xml version="1.0" encoding="iso-8859-1"?>
<!-- Generator: Adobe Illustrator 19.0.0, SVG Export Plug-In . SVG Version: 6.00 Build 0)  -->
<svg version="1.1" id="Capa_1" xmlns="http://www.w3.org/2000/svg" xmlns:xlink="http://www.w3.org/1999/xlink" x="0px" y="0px"
	 viewBox="0 0 512 512" style="enable-background:new 0 0 512 512;" xml:space="preserve">
<circle style="fill:#FFD93B;" cx="256" cy="256" r="256"/>
<path style="fill:#F4C534;" d="M512,256c0,141.44-114.64,256-256,256c-80.48,0-152.32-37.12-199.28-95.28
	c43.92,35.52,99.84,56.72,160.72,56.72c141.36,0,256-114.56,256-256c0-60.88-21.2-116.8-56.72-160.72
	C474.8,103.68,512,175.52,512,256z"/>
<path style="fill:#FFFFFF;" d="M239.312,239.504c0,18.816-37.712,34-84.144,34c-46.56,0-84.272-15.2-84.272-34
	c0-18.72,37.712-33.904,84.272-33.904C201.6,205.6,239.312,220.784,239.312,239.504z"/>
<path style="fill:#3E4347;" d="M151.392,239.488c0,14.32,7.056,26.72,17.44,33.536c17.616-1.168,33.424-4.512,45.568-9.376
	c4.784-6.672,7.776-14.992,7.776-24.16c0-9.12-2.976-17.392-7.76-24.048c-12.144-4.864-27.952-8.192-45.584-9.36
	C158.448,212.88,151.392,225.248,151.392,239.488z"/>
<g>
	<path style="fill:#FFFFFF;" d="M210.192,243.504c-3.12,0.976-6.944-3.008-8.416-8.784c-1.472-5.792-0.032-11.28,3.088-12.256
		s6.944,3.008,8.416,8.8C214.656,237.056,213.328,242.528,210.192,243.504z"/>
	<path style="fill:#FFFFFF;" d="M272.688,239.504c0,18.816,37.712,34,84.144,34c46.56,0,84.272-15.2,84.272-34
		c0-18.72-37.712-33.904-84.272-33.904C310.4,205.6,272.688,220.784,272.688,239.504z"/>
</g>
<path style="fill:#3E4347;" d="M360.608,239.488c0,14.32-7.056,26.72-17.44,33.536c-17.616-1.168-33.424-4.512-45.568-9.376
	c-4.784-6.672-7.776-14.992-7.776-24.16c0-9.12,2.976-17.392,7.76-24.048c12.144-4.864,27.952-8.192,45.584-9.36
	C353.552,212.88,360.608,225.248,360.608,239.488z"/>
<path style="fill:#FFFFFF;" d="M348.016,243.504c-3.12,0.976-6.944-3.008-8.416-8.784c-1.472-5.792-0.032-11.28,3.088-12.256
	c3.12-0.976,6.944,3.008,8.416,8.8C352.48,237.056,351.136,242.528,348.016,243.504z"/>
<g>
	<path style="fill:#3E4347;" d="M236.272,181.936c4.64,3.68,5.44,10.56,1.6,15.2c-3.904,4.784-10.688,5.232-15.04,1.6
		c-34.56-27.664-69.6-44.16-107.2-50.24c-5.92-0.8-9.92-6.4-8.96-12.32s6.56-9.92,12.48-8.96
		C160.432,133.936,198.832,151.696,236.272,181.936z"/>
	<path style="fill:#3E4347;" d="M418.992,114.096c0.32,5.92-4.16,11.04-10.08,11.36c-44.32,2.56-81.28,13.76-113.28,34.4
		c-4.576,2.896-11.552,1.92-14.88-3.2c-3.2-5.12-1.76-11.84,3.2-15.04c35.2-22.72,75.68-35.04,123.68-37.6
		C413.392,103.536,418.672,108.176,418.992,114.096z"/>
	<path style="fill:#3E4347;" d="M339.008,391.04c0,12.544-10.08,22.832-22.624,22.832H195.6c-12.544,0-22.624-10.288-22.624-22.832
		s10.08-22.624,22.624-22.624h120.784C328.928,368.416,339.008,378.496,339.008,391.04z"/>
</g>
<g>
</g>
<g>
</g>
<g>
</g>
<g>
</g>
<g>
</g>
<g>
</g>
<g>
</g>
<g>
</g>
<g>
</g>
<g>
</g>
<g>
</g>
<g>
</g>
<g>
</g>
<g>
</g>
<g>
</g>
</svg>
