<?xml version="1.0" encoding="iso-8859-1"?>
<!-- Generator: Adobe Illustrator 19.0.0, SVG Export Plug-In . SVG Version: 6.00 Build 0)  -->
<svg version="1.1" id="Capa_1" xmlns="http://www.w3.org/2000/svg" xmlns:xlink="http://www.w3.org/1999/xlink" x="0px" y="0px"
	 viewBox="0 0 512 512" style="enable-background:new 0 0 512 512;" xml:space="preserve">
<circle style="fill:#FFD93B;" cx="256" cy="256" r="256"/>
<path style="fill:#F4C534;" d="M512,256c0,141.44-114.64,256-256,256c-80.48,0-152.32-37.12-199.28-95.28
	c43.92,35.52,99.84,56.72,160.72,56.72c141.36,0,256-114.56,256-256c0-60.88-21.2-116.8-56.72-160.72
	C474.8,103.68,512,175.52,512,256z"/>
<path style="fill:#3E4347;" d="M328.416,428.016c-17.12-21.28-43.2-34.88-72.48-34.88s-55.36,13.6-72.48,34.72
	c-4.64,5.76-13.44,1.6-12-5.76c7.52-36.8,40.64-68.96,84.48-68.96c44.16,0,77.44,32.64,84.64,69.76
	C341.856,429.792,332.896,433.472,328.416,428.016z"/>
<path style="fill:#F4C534;" d="M269.216,222.32c5.28,62.784,52.048,113.84,104.752,113.84c52.368,0,90.864-51.056,85.584-113.84
	c-1.984-24.944-10.736-47.904-23.632-66.752c-4.128-6.112-12.224-7.936-18.512-4.128c-16.192,10.08-36.176,16.192-60.128,16.192
	c-22.8,0-42.128-5.616-57.824-14.864c-6.768-3.968-15.36-1.488-18.832,5.456C271.68,176.384,267.392,198.528,269.216,222.32z"/>
<path style="fill:#FFFFFF;" d="M356.96,189.456c25.792,0,46.976-7.088,63.76-18.608c10,14.592,17.072,32.048,18.672,51.504
	c4.096,49.6-26.096,89.728-67.488,89.728c-41.568,0-78.368-40.128-82.464-89.728c-1.488-18.032,2-34.368,8.512-48.336
	C313.952,183.68,333.6,189.456,356.96,189.456z"/>
<path style="fill:#3E4347;" d="M396.208,246.144c0,21.392-17.184,38.576-38.752,38.576c-21.392,0-38.576-17.184-38.576-38.592
	c0-21.568,17.184-38.752,38.576-38.752C379.008,207.392,396.208,224.576,396.208,246.144z"/>
<path style="fill:#FFFFFF;" d="M380.416,241.104c-3.2,3.2-9.92,1.744-14.88-3.216c-4.816-4.816-6.272-11.52-3.056-14.736
	c3.36-3.36,10.064-1.904,14.88,2.912C382.304,231.04,383.76,237.76,380.416,241.104z"/>
<path style="fill:#F4C534;" d="M242.784,222.32c-5.28,62.784-52.048,113.84-104.752,113.84c-52.368,0-90.864-51.056-85.584-113.84
	c1.984-24.944,10.736-47.904,23.632-66.752c4.144-6.112,12.24-7.92,18.512-4.128c16.192,10.08,36.176,16.192,60.128,16.192
	c22.8,0,42.128-5.616,57.824-14.864c6.768-3.968,15.36-1.488,18.832,5.456C240.32,176.384,244.608,198.528,242.784,222.32z"/>
<path style="fill:#FFFFFF;" d="M155.04,189.456c-25.792,0-46.976-7.088-63.76-18.608c-10,14.592-17.072,32.048-18.672,51.504
	c-4.096,49.6,26.096,89.728,67.488,89.728c41.568,0,78.368-40.128,82.464-89.728c1.488-18.032-2-34.368-8.512-48.336
	C198.048,183.68,178.4,189.456,155.04,189.456z"/>
<path style="fill:#3E4347;" d="M115.792,246.144c0,21.392,17.184,38.576,38.752,38.576c21.392,0,38.576-17.184,38.576-38.592
	c0-21.568-17.184-38.752-38.576-38.752C132.992,207.392,115.792,224.576,115.792,246.144z"/>
<path style="fill:#FFFFFF;" d="M131.584,241.104c3.2,3.2,9.92,1.744,14.88-3.216c4.816-4.816,6.272-11.52,3.056-14.736
	c-3.36-3.36-10.064-1.904-14.88,2.912C129.696,231.04,128.24,237.76,131.584,241.104z"/>
<g>
</g>
<g>
</g>
<g>
</g>
<g>
</g>
<g>
</g>
<g>
</g>
<g>
</g>
<g>
</g>
<g>
</g>
<g>
</g>
<g>
</g>
<g>
</g>
<g>
</g>
<g>
</g>
<g>
</g>
</svg>
