<?xml version="1.0" encoding="iso-8859-1"?>
<!-- Generator: Adobe Illustrator 19.0.0, SVG Export Plug-In . SVG Version: 6.00 Build 0)  -->
<svg version="1.1" id="Capa_1" xmlns="http://www.w3.org/2000/svg" xmlns:xlink="http://www.w3.org/1999/xlink" x="0px" y="0px"
	 viewBox="0 0 512 512" style="enable-background:new 0 0 512 512;" xml:space="preserve">
<circle style="fill:#FFD93B;" cx="256" cy="256" r="256"/>
<g>
	<path style="fill:#F4C534;" d="M512,256c0,141.44-114.64,256-256,256c-80.48,0-152.32-37.12-199.28-95.28
		c43.92,35.52,99.84,56.72,160.72,56.72c141.36,0,256-114.56,256-256c0-60.88-21.2-116.8-56.72-160.72
		C474.8,103.68,512,175.52,512,256z"/>
	<ellipse style="fill:#F4C534;" cx="351.056" cy="223.776" rx="78.576" ry="57.648"/>
</g>
<path style="fill:#FFFFFF;" d="M429.632,223.776c0,31.84-32.784,54.592-73.232,50.832s-73.232-32.624-73.232-64.464
	s32.784-54.592,73.232-50.832C396.848,163.088,429.632,191.936,429.632,223.776z"/>
<g>
	<path style="fill:#3E4347;" d="M431.808,223.76c-5.04-18.304-36.8-56.048-55.856-55.296c-27.28,1.312-54.368,45.216-112.096,28.768
		l11.952-19.424c18.688-0.928,36.064-5.984,60.352-29.152C374.272,111.856,436.48,126.8,431.808,223.76z"/>
	<ellipse style="fill:#3E4347;" cx="340.96" cy="231.36" rx="22.976" ry="26.272"/>
</g>
<path style="fill:#5A5F63;" d="M354.464,224.704c-1.68,1.504-5.04,0.56-7.664-2.432c-2.432-2.8-2.992-6.352-1.12-7.856
	c1.68-1.488,5.232-0.56,7.664,2.432C355.776,219.648,356.336,223.2,354.464,224.704z"/>
<ellipse style="fill:#F4C534;" cx="160.96" cy="223.776" rx="78.576" ry="57.648"/>
<path style="fill:#FFFFFF;" d="M82.368,223.776c0,31.84,32.784,54.592,73.232,50.832s73.232-32.624,73.232-64.464
	s-32.784-54.592-73.232-50.832C115.152,163.088,82.368,191.936,82.368,223.776z"/>
<g>
	<path style="fill:#3E4347;" d="M80.192,223.76c5.04-18.304,36.8-56.048,55.856-55.296c27.28,1.312,54.368,45.216,112.096,28.768
		l-11.952-19.424c-18.688-0.928-36.064-5.984-60.352-29.152C137.728,111.856,75.52,126.8,80.192,223.76z"/>
	<ellipse style="fill:#3E4347;" cx="171.04" cy="231.36" rx="22.976" ry="26.272"/>
</g>
<path style="fill:#5A5F63;" d="M157.536,224.704c1.68,1.504,5.04,0.56,7.664-2.432c2.432-2.8,2.992-6.352,1.12-7.856
	c-1.68-1.488-5.232-0.56-7.664,2.432C156.224,219.648,155.664,223.2,157.536,224.704z"/>
<path style="fill:#F4C534;" d="M354.304,414.592c0.656-56.048-27.184-145.248-85.984-115.232
	c-59.232,36.544-114.96,88.256-113.632,111.68C226.4,432.304,298.048,354.064,354.304,414.592z"/>
<path style="fill:#3E4347;" d="M167.408,405.504c9.296-20.672,54.32-70.656,100.816-95.008c42.56-20,68.816,30.624,74.272,80.304
	c-22.768-14.624-48.064-13.76-76.256-5.792C236.208,392.752,203.376,409.936,167.408,405.504z"/>
<g>
	<path style="fill:#F4C534;" d="M369.52,418.896c0-0.016-1.984-0.704-4.624-1.504c-2.608-0.64-6-1.728-8.848-1.2
		c-5.84-0.176-10.752,5.52-11.072,5.424c0.08,0.144-0.208-2.672,1.04-5.808c0.624-1.536,1.52-3.392,3.008-4.512
		c1.424-1.248,3.248-2.016,5.168-2.384c4-0.24,8.112,1.92,10.928,4.592C367.984,416.176,369.536,418.928,369.52,418.896z"/>
	<path style="fill:#F4C534;" d="M163.76,424.96c0-0.016-1.36-1.84-3.2-4.336c-1.904-2.496-4.08-5.728-6.752-8.656
		c-4.656-5.712-12.048-12.128-12.24-12.544c0,0.064,1.6,0.4,4.624,2.176c1.456,0.928,3.376,2.032,5.248,3.664
		c1.92,1.568,3.824,3.408,5.568,5.248c3.296,3.808,5.36,7.6,6.144,10.288C164,423.472,163.76,424.928,163.76,424.96z"/>
</g>
<path style="fill:#E24B4B;" d="M187.632,406.096c28.112-2.496,54.32-14.592,78.592-21.072c11.792-3.264,22.96-5.264,33.776-5.52
	c-0.768-2.48-1.392-4.976-2.336-7.472c-16.928-43.36-46.432-4.704-46.112-5.776C243.072,354.72,198.608,381.392,187.632,406.096z"/>
<path style="fill:#FFFFFF;" d="M280.416,307.008l-0.192-0.4c-3.872,0.672-7.808,1.936-12,3.904
	c-20.96,10.992-41.568,27.12-58.8,43.488l0.272,0.224C232.256,349.888,287.776,327.328,280.416,307.008z"/>
<g>
</g>
<g>
</g>
<g>
</g>
<g>
</g>
<g>
</g>
<g>
</g>
<g>
</g>
<g>
</g>
<g>
</g>
<g>
</g>
<g>
</g>
<g>
</g>
<g>
</g>
<g>
</g>
<g>
</g>
</svg>
