<?xml version="1.0" encoding="iso-8859-1"?>
<!-- Generator: Adobe Illustrator 19.0.0, SVG Export Plug-In . SVG Version: 6.00 Build 0)  -->
<svg version="1.1" id="Capa_1" xmlns="http://www.w3.org/2000/svg" xmlns:xlink="http://www.w3.org/1999/xlink" x="0px" y="0px"
	 viewBox="0 0 512 512" style="enable-background:new 0 0 512 512;" xml:space="preserve">
<circle style="fill:#FFD93B;" cx="256" cy="256" r="256"/>
<ellipse transform="matrix(-0.986 -0.1665 0.1665 -0.986 265.4479 476.4553)" style="fill:#F4C534;" cx="152.697" cy="227.1" rx="93.5" ry="93.516"/>
<circle style="fill:#FFFFFF;" cx="152.72" cy="227.088" r="72.304"/>
<circle style="fill:#3E4347;" cx="152.72" cy="227.088" r="40.784"/>
<path style="fill:#FFFFFF;" d="M175.152,219.6c-2.672,2.672-8.368,1.6-12.464-2.496c-4.096-4.096-5.168-9.792-2.496-12.464
	c2.848-2.848,8.544-1.776,12.64,2.32C176.944,211.056,178,216.752,175.152,219.6z"/>
<path style="fill:#F4C534;" d="M155.216,212.272c35.936,6.064,68.544,1.168,87.12-10.848c-9.632-33.488-37.376-60.352-74.048-66.544
	s-71.696,10.064-91.792,38.544C90.096,190.88,119.28,206.192,155.216,212.272z"/>
<path style="fill:#FFD93B;" d="M265.568,172.992c-3.296,26.352-48.256,41.04-100.416,32.784
	c-52.16-8.256-91.76-36.304-88.464-62.656c3.296-26.352,48.256-41.024,100.416-32.784
	C229.28,118.576,268.864,146.624,265.568,172.992z"/>
<ellipse style="fill:#F4C534;" cx="359.276" cy="227.065" rx="100.94" ry="100.94"/>
<circle style="fill:#FFFFFF;" cx="359.28" cy="227.088" r="78.048"/>
<circle style="fill:#3E4347;" cx="359.28" cy="227.088" r="44.032"/>
<path style="fill:#FFFFFF;" d="M335.056,219.008c2.88,2.88,9.04,1.728,13.456-2.688s5.568-10.576,2.688-13.456
	c-3.072-3.072-9.232-1.92-13.648,2.496C333.136,209.776,331.984,215.936,335.056,219.008z"/>
<path style="fill:#F4C534;" d="M512,256c0,141.44-114.64,256-256,256c-80.48,0-152.32-37.12-199.28-95.28
	c43.92,35.52,99.84,56.72,160.72,56.72c141.36,0,256-114.56,256-256c0-60.88-21.2-116.8-56.72-160.72
	C474.8,103.68,512,175.52,512,256z"/>
<path style="fill:#3E4347;" d="M373.28,383.088c0,18.336-52.48,75.232-117.28,42.288c-64.816-32.848-117.28-13.856-117.28-42.288
	c0-28.544,52.48-9.456,117.28-42.304C320.8,307.92,373.28,364.704,373.28,383.088z"/>
<path style="fill:#FFFFFF;" d="M256,340.784c-37.472,18.992-70.752,20.64-92.208,24.16c23.36,13.824,55.984,9.536,92.208,4.88
	c35.04-4.544,78.192-9.456,104.176-10.128C340.688,338.752,301.408,317.76,256,340.784z"/>
<path style="fill:#E24B4B;" d="M256,425.392c30.112,15.312,57.488,11.12,78.24,0.512c0.768-21.744-13.6-42.032-34.96-47.616
	c-11.856-3.104-23.616-1.52-33.568,3.456c-7.568,3.872-16.288,4.528-24.464,2.192c-17.888-5.088-38.336,4.032-46.528,21.888
	C212.576,408.88,233.504,413.984,256,425.392z"/>
<g style="opacity:0.2;">
	
		<ellipse transform="matrix(-0.9656 -0.2601 0.2601 -0.9656 477.2438 854.1899)" style="fill:#FFFFFF;" cx="295.137" cy="395.519" rx="14.08" ry="7.36"/>
</g>
<g>
</g>
<g>
</g>
<g>
</g>
<g>
</g>
<g>
</g>
<g>
</g>
<g>
</g>
<g>
</g>
<g>
</g>
<g>
</g>
<g>
</g>
<g>
</g>
<g>
</g>
<g>
</g>
<g>
</g>
</svg>
