<?xml version="1.0" encoding="iso-8859-1"?>
<!-- Generator: Adobe Illustrator 19.0.0, SVG Export Plug-In . SVG Version: 6.00 Build 0)  -->
<svg version="1.1" id="Capa_1" xmlns="http://www.w3.org/2000/svg" xmlns:xlink="http://www.w3.org/1999/xlink" x="0px" y="0px"
	 viewBox="0 0 512 512" style="enable-background:new 0 0 512 512;" xml:space="preserve">
<circle style="fill:#FFD93B;" cx="256" cy="256" r="256"/>
<path style="fill:#F4C534;" d="M510.784,256c0,141.44-114.64,256-256,256c-80.48,0-152.32-37.12-199.28-95.28
	c43.92,35.52,99.84,56.72,160.72,56.72c141.36,0,256-114.56,256-256c0-60.88-21.2-116.8-56.72-160.72
	C473.584,103.68,510.784,175.52,510.784,256z"/>
<ellipse style="fill:#FFFFFF;" cx="256" cy="177.12" rx="114.112" ry="114.048"/>
<ellipse style="fill:#3E4347;" cx="256" cy="177.28" rx="67.072" ry="67.136"/>
<ellipse transform="matrix(-0.7071 -0.7072 0.7072 -0.7071 379.1925 459.2569)" style="fill:#FFFFFF;" cx="284.721" cy="151.087" rx="18.145" ry="12.241"/>
<path style="fill:#3E4347;" d="M404.816,354.768c-24.064,58.576-81.584,99.76-148.8,99.76s-124.736-41.168-148.944-99.76
	c-2.272-5.44,1.52-11.808,7.424-13.008c94.304-17.568,188.768-17.568,282.912,0C403.296,342.96,407.088,349.312,404.816,354.768z"/>
<path style="fill:#FFFFFF;" d="M117.92,341.184c17.856,29.072,73.76,32.192,140.464,32.192c65.824,0,121.84-3.12,140.464-30.992
	c-0.496-0.192-0.912-0.544-1.44-0.656C304.384,324.4,211.088,324.256,117.92,341.184z"/>
<g>
</g>
<g>
</g>
<g>
</g>
<g>
</g>
<g>
</g>
<g>
</g>
<g>
</g>
<g>
</g>
<g>
</g>
<g>
</g>
<g>
</g>
<g>
</g>
<g>
</g>
<g>
</g>
<g>
</g>
</svg>
