<?xml version="1.0" encoding="iso-8859-1"?>
<!-- Generator: Adobe Illustrator 19.0.0, SVG Export Plug-In . SVG Version: 6.00 Build 0)  -->
<svg version="1.1" id="Capa_1" xmlns="http://www.w3.org/2000/svg" xmlns:xlink="http://www.w3.org/1999/xlink" x="0px" y="0px"
	 viewBox="0 0 512.048 512.048" style="enable-background:new 0 0 512.048 512.048;" xml:space="preserve">
<circle style="fill:#FFD93B;" cx="238.152" cy="274.72" r="237.328"/>
<path style="fill:#F4C534;" d="M475.48,274.672C475.48,405.792,369.208,512,238.152,512c-74.608,0-141.216-34.416-184.752-88.336
	c40.72,32.928,92.56,52.576,148.992,52.576c131.056,0,237.328-106.208,237.328-237.328c0-56.432-19.648-108.288-52.576-148.992
	C441,133.456,475.48,200.064,475.48,274.672z"/>
<path style="fill:#E9EFF4;" d="M511.224,72.096c0,39.552-39.376,71.536-88.352,72.272l-53.968,22.928
	c-4.624,2.032-9.792-1.488-9.792-6.464v-36.624c-17.184-13.12-27.904-31.6-27.904-52.128C331.192,32.16,371.48,0,421.208,0
	S511.224,32.16,511.224,72.096z"/>
<g>
	<path style="fill:#D03F3F;" d="M375.32,54.256c22.864,0,22.864,35.92,0.096,35.92C352.296,90.176,352.84,54.256,375.32,54.256z
		 M375.4,84.176c12.704,0,13.312-23.936,0-23.936C362.12,60.256,362.504,84.176,375.4,84.176z"/>
	<path style="fill:#D03F3F;" d="M397.608,89.584V54.848h10.496l6.304,23.696l6.224-23.696h10.528v34.736h-6.512V62.24l-6.896,27.344
		H411l-6.88-27.344v27.344H397.608z"/>
	<path style="fill:#D03F3F;" d="M454.28,76.816V70.96h15.12V84.8c-10.976,10.608-32.496,6.656-32.496-12.704
		c0-22.416,28.752-22.672,32.032-7.632l-6.96,1.296c-2.448-8.56-17.84-8.32-17.84,6.048c0,12.928,10.432,15.408,18.176,9.408v-4.4
		H454.28z"/>
	<path style="fill:#D03F3F;" d="M478.424,80.624c-2.176-22.192-1.728-18.752-1.728-25.776h7.2c0,7.04,0.448,3.584-1.712,25.776
		H478.424z M476.984,89.584v-6.656h6.656v6.656H476.984z"/>
</g>
<path style="fill:#3E4347;" d="M319.656,446.928c-0.832,13.216-14.544,21.232-26.928,16.896c-37.456-13.536-74.912-13.536-112.368,0
	c-12.368,4.352-26.08-3.68-26.928-16.896c-2.848-46.656,34.608-87.616,83.104-87.616
	C285.048,359.312,322.504,400.272,319.656,446.928z"/>
<path style="fill:#FFFFFF;" d="M179.8,381.696c14.752,7.6,33.664,9.872,53.712,9.872c21.824,0,42.24-2.736,57.456-12.048
	c-14.48-12.512-33.408-20.224-54.432-20.224C214.376,359.312,194.568,367.936,179.8,381.696z"/>
<path style="fill:#E24B4B;" d="M237.528,416.576c-6.256,2.704-12.88,4.176-19.632,4.656c-22.352,1.728-33.248,20.176-28.656,39.76
	c30.736-9.36,61.488-9.648,92.224-0.752C287.48,432.688,267.96,403.792,237.528,416.576z"/>
<path style="fill:#FFFFFF;" d="M300.472,198.608c-4.368-1.696-8.4-3.76-12.16-6.112c-17.984,14.544-30.048,40.896-30.048,71.024
	c0,45.92,27.792,83.136,61.984,83.136s62-37.216,62-83.136c0-16.752-3.744-32.336-10.144-45.392
	C328.984,216.16,297.432,197.568,300.472,198.608z"/>
<g>
	<path style="fill:#3E4347;" d="M386.232,212.816c0.72,4.464-2.288,8.576-6.64,9.312c-39.04,6.752-87.648-11.152-114.672-33.104
		c-3.504-2.896-4.112-7.968-1.328-11.488c2.784-3.504,7.968-4.112,11.488-1.328c0.48,0.368,49.184,38.304,101.872,29.856
		C381.4,205.328,385.624,208.336,386.232,212.816z"/>
	<circle style="fill:#3E4347;" cx="316.056" cy="288.64" r="29.712"/>
</g>
<g>
	
		<ellipse transform="matrix(-0.7071 -0.7071 0.7071 -0.7071 362.8246 704.0297)" style="fill:#FFFFFF;" cx="327.222" cy="276.871" rx="9.248" ry="5.536"/>
	<path style="fill:#FFFFFF;" d="M175.832,198.608c4.368-1.696,8.4-3.76,12.16-6.112c17.984,14.544,30.048,40.896,30.048,71.024
		c0,45.92-27.792,83.136-61.984,83.136s-62-37.216-62-83.136c0-16.752,3.744-32.336,10.144-45.392
		C147.32,216.16,178.872,197.568,175.832,198.608z"/>
</g>
<g>
	<path style="fill:#3E4347;" d="M90.072,212.816c-0.72,4.464,2.288,8.576,6.64,9.312c39.04,6.752,87.648-11.152,114.672-33.104
		c3.504-2.896,4.112-7.968,1.328-11.488c-2.784-3.504-7.968-4.112-11.488-1.328c-0.48,0.368-49.184,38.304-101.872,29.856
		C94.904,205.328,90.68,208.336,90.072,212.816z"/>
	<circle style="fill:#3E4347;" cx="160.184" cy="288.64" r="29.712"/>
</g>
<ellipse transform="matrix(-0.7071 -0.7071 0.7071 -0.7071 58.7195 578.0605)" style="fill:#FFFFFF;" cx="149.08" cy="276.869" rx="5.536" ry="9.248"/>
<g>
</g>
<g>
</g>
<g>
</g>
<g>
</g>
<g>
</g>
<g>
</g>
<g>
</g>
<g>
</g>
<g>
</g>
<g>
</g>
<g>
</g>
<g>
</g>
<g>
</g>
<g>
</g>
<g>
</g>
</svg>
