<?xml version="1.0" encoding="iso-8859-1"?>
<!-- Generator: Adobe Illustrator 19.0.0, SVG Export Plug-In . SVG Version: 6.00 Build 0)  -->
<svg version="1.1" id="Capa_1" xmlns="http://www.w3.org/2000/svg" xmlns:xlink="http://www.w3.org/1999/xlink" x="0px" y="0px"
	 viewBox="0 0 512 512" style="enable-background:new 0 0 512 512;" xml:space="preserve">
<circle style="fill:#FFD93B;" cx="256" cy="256" r="256"/>
<path style="fill:#F4C534;" d="M256,512c-80.48,0-152.32-37.12-199.28-95.28c43.92,35.52,99.84,56.72,160.72,56.72
	c215.904,0,333.392-250.896,199.28-416.72C603.168,207.472,497.744,512,256,512z"/>
<path style="fill:#FFFFFF;" d="M241.408,235.392c0,47.536-38.608,86.128-86.256,86.128c-47.536,0-86.128-38.608-86.128-86.128
	c0-47.664,38.608-86.128,86.128-86.128C202.816,149.264,241.408,187.728,241.408,235.392z"/>
<g>
	<path style="fill:#3E4347;" d="M216.016,130.592c-11.296,28.528-34.176-17.792-93.824,0.272
		c-23.056,6.544-44.592,22.192-60.032,47.888c-1.952,3.888-6.576,4.88-9.92,2.8c-6.304-3.728-2.224-9.648,0.976-16.064
		c14.864-27.12,37.888-45.712,61.984-54.864C156.768,94.624,226.736,103.552,216.016,130.592z"/>
	<path style="fill:#3E4347;" d="M179.376,204.048c0,21.36-17.312,38.672-38.8,38.672c-21.36,0-38.672-17.312-38.672-38.672
		s17.312-38.672,38.672-38.672C162.064,165.376,179.376,182.688,179.376,204.048z"/>
</g>
<g>
	
		<ellipse transform="matrix(-0.7071 -0.7071 0.7071 -0.7071 128.9926 434.0205)" style="fill:#FFFFFF;" cx="154.385" cy="190.295" rx="11.456" ry="7.184"/>
	<path style="fill:#FFFFFF;" d="M270.592,235.392c0,47.536,38.608,86.128,86.256,86.128c47.536,0,86.128-38.608,86.128-86.128
		c0-47.664-38.608-86.128-86.128-86.128C309.184,149.264,270.592,187.728,270.592,235.392z"/>
</g>
<g>
	<path style="fill:#3E4347;" d="M295.984,130.592c11.296,28.528,34.176-17.792,93.824,0.272
		c23.072,6.544,44.608,22.192,60.032,47.888c1.952,3.888,6.576,4.88,9.92,2.8c6.304-3.728,2.224-9.648-0.976-16.064
		c-14.864-27.12-37.888-45.712-61.984-54.864C355.232,94.624,285.264,103.552,295.984,130.592z"/>
	<path style="fill:#3E4347;" d="M380.944,204.048c0,21.36-17.312,38.672-38.8,38.672c-21.36,0-38.672-17.312-38.672-38.672
		s17.312-38.672,38.672-38.672C363.632,165.376,380.944,182.688,380.944,204.048z"/>
</g>
<ellipse transform="matrix(-0.7071 -0.7071 0.7071 -0.7071 473.0491 576.5226)" style="fill:#FFFFFF;" cx="355.926" cy="190.29" rx="11.456" ry="7.184"/>
<path style="fill:#3E4347;" d="M359.856,388.656c-10.048-7.104-20.96-7.792-30.88-9.44c-135.248-8.992-164.32,36.32-164.32,36.32
	c-12.496,9.472-27.056-9.488-14.24-19.2c35.968,0,55.84-90.576,182.08-40.48c9.376,3.072,25.008,9.6,34.88,9.6
	C388.752,365.952,379.056,401.456,359.856,388.656z"/>
<g>
</g>
<g>
</g>
<g>
</g>
<g>
</g>
<g>
</g>
<g>
</g>
<g>
</g>
<g>
</g>
<g>
</g>
<g>
</g>
<g>
</g>
<g>
</g>
<g>
</g>
<g>
</g>
<g>
</g>
</svg>
