<?xml version="1.0" encoding="iso-8859-1"?>
<!-- Generator: Adobe Illustrator 19.0.0, SVG Export Plug-In . SVG Version: 6.00 Build 0)  -->
<svg version="1.1" id="Capa_1" xmlns="http://www.w3.org/2000/svg" xmlns:xlink="http://www.w3.org/1999/xlink" x="0px" y="0px"
	 viewBox="0 0 512.003 512.003" style="enable-background:new 0 0 512.003 512.003;" xml:space="preserve">
<circle style="fill:#FFD93B;" cx="256.002" cy="254.979" r="237.808"/>
<path style="fill:#F4C534;" d="M493.81,254.979c0,131.392-106.496,237.808-237.808,237.808c-74.752,0-141.488-34.48-185.12-88.512
	c40.8,32.992,92.736,52.688,149.296,52.688c131.312,0,237.808-106.416,237.808-237.808c0-56.56-19.696-108.496-52.688-149.296
	C459.25,113.491,493.81,180.227,493.81,254.979z"/>
<path style="fill:#59A5E0;" d="M253.426,334.867c-73.76,0.16-121.28,49.6-108.16,86.4c12.8,37.28,60.8,55.04,108.16,55.68
	c47.52-0.64,95.36-18.4,108.16-55.68C374.706,384.467,327.186,335.027,253.426,334.867z M166.866,415.667
	c-2.56-11.2,7.84-23.36,24.16-27.04c-3.2,15.36-0.32,29.76,6.72,43.52C183.026,433.267,169.586,426.867,166.866,415.667z
	 M339.986,415.667c-2.72,11.2-16.16,17.6-30.72,16.48c7.04-13.76,9.92-28.16,6.72-43.52
	C332.306,392.307,342.706,404.467,339.986,415.667z"/>
<path style="fill:#FFFFFF;" d="M235.25,213.827c0,48.752-29.728,88.288-66.432,88.288c-36.56,0-66.432-39.536-66.432-88.288
	s29.872-88.288,66.432-88.288C205.522,125.555,235.25,165.075,235.25,213.827z"/>
<path style="fill:#3E4347;" d="M204.034,227.507c0,22.288-18.288,40.432-40.576,40.432c-22.448,0-40.576-18.128-40.576-40.432
	c0-22.448,18.128-40.576,40.576-40.576C185.762,186.931,204.034,205.059,204.034,227.507z"/>
<g>
	
		<ellipse transform="matrix(-0.7071 -0.7071 0.7071 -0.7071 154.5232 488.8554)" style="fill:#FFFFFF;" cx="178.507" cy="212.425" rx="13.68" ry="7.696"/>
	<path style="fill:#FFFFFF;" d="M409.618,213.827c0,48.752-29.728,88.288-66.432,88.288c-36.56,0-66.432-39.536-66.432-88.288
		s29.872-88.288,66.432-88.288C379.89,125.555,409.618,165.075,409.618,213.827z"/>
</g>
<path style="fill:#3E4347;" d="M378.402,227.507c0,22.288-18.288,40.432-40.576,40.432c-22.448,0-40.576-18.128-40.576-40.432
	c0-22.448,18.128-40.576,40.576-40.576C360.13,186.931,378.402,205.059,378.402,227.507z"/>
<ellipse transform="matrix(-0.7071 -0.7071 0.7071 -0.7071 452.0504 612.2091)" style="fill:#FFFFFF;" cx="352.818" cy="212.482" rx="13.68" ry="7.696"/>
<path style="fill:#3E4347;" d="M282.322,98.803c-22.544,13.92-50.656,12.72-69.264,2.08c19.152,6.96,45.328,3.744,62.272-11.44
	c32.608-29.232,1.344-68.304-18.72-58.256c-4.24,2.928-6.272,6.208-6.688,8.768c-0.272,0.128-1.952,6.976-2.08,7.28
	c-6.656,25.888-46.256,11.168-34.624-12.032v-0.176c6.256-10.416,3.632-12.448,15.312-23.04c4.608-4.464,11.152-8.176,18.88-10.4
	C300.258-12.125,334.85,66.611,282.322,98.803z"/>
<path style="fill:#4E99D2;" d="M299.778,419.875c-6.272,18.16-25.888,28.08-44.32,28.336c-18.416-0.256-38.032-10.176-44.32-28.336
	c-6.4-17.952,13.088-40.912,44.32-40.96C286.722,378.979,306.13,401.923,299.778,419.875z"/>
<path style="fill:#E9EFF4;" d="M255.474,512.003c-27.808,0-50.432-22.624-50.432-50.432s22.624-50.416,50.432-50.416
	s50.416,22.624,50.416,50.416C305.89,489.379,283.282,512.003,255.474,512.003z M255.474,425.843
	c-19.712,0-35.744,16.032-35.744,35.728s16.032,35.728,35.744,35.728c19.696,0,35.728-16.032,35.728-35.728
	S275.186,425.843,255.474,425.843z"/>
<path style="fill:#65B1EF;" d="M282.098,419.331c-3.744,10.896-15.6,16.864-26.624,17.04c-11.056-0.16-22.88-6.128-26.64-17.04
	c-3.824-10.768,7.888-24.592,26.64-24.608C274.242,394.739,285.954,408.563,282.098,419.331z"/>
<g>
</g>
<g>
</g>
<g>
</g>
<g>
</g>
<g>
</g>
<g>
</g>
<g>
</g>
<g>
</g>
<g>
</g>
<g>
</g>
<g>
</g>
<g>
</g>
<g>
</g>
<g>
</g>
<g>
</g>
</svg>
