<?xml version="1.0" encoding="iso-8859-1"?>
<!-- Generator: Adobe Illustrator 19.0.0, SVG Export Plug-In . SVG Version: 6.00 Build 0)  -->
<svg version="1.1" id="Capa_1" xmlns="http://www.w3.org/2000/svg" xmlns:xlink="http://www.w3.org/1999/xlink" x="0px" y="0px"
	 viewBox="0 0 512 512" style="enable-background:new 0 0 512 512;" xml:space="preserve">
<circle style="fill:#FFD93B;" cx="256" cy="250.336" r="250.336"/>
<path style="fill:#F4C534;" d="M506.336,250.336c0,138.304-112.096,250.336-250.336,250.336
	c-78.704,0-148.944-36.304-194.864-93.168c42.944,34.736,97.632,55.472,157.168,55.472c138.24,0,250.336-112.032,250.336-250.336
	c0-59.536-20.736-114.224-55.472-157.168C469.952,101.392,506.336,171.632,506.336,250.336z"/>
<path style="fill:#3E4347;" d="M366.56,424.672c-73.744-13.184-147.36-13.184-221.104,0c-15.072,2.608-26.512-13.616-18.688-26.8
	c31.584-53.168,77.808-86.64,129.248-86.64s97.648,33.472,129.248,86.64C393.088,411.056,381.632,427.28,366.56,424.672z"/>
<path style="fill:#E24B4B;" d="M188.88,337.904c-0.016,1.52-0.096,3.008-0.096,4.544c0,93.648,30.096,169.552,67.232,169.552
	s67.232-75.92,67.232-169.552c0-1.536-0.08-3.008-0.096-4.544H188.88z"/>
<path style="fill:#FFFFFF;" d="M169.104,346.208c25.92,1.488,55.488,1.936,86.912,1.936s60.992-0.448,86.912-1.936
	c-25.536-22.192-55.216-34.992-86.912-34.992S194.64,324.016,169.104,346.208z"/>
<g>
	<path style="fill:#3E4347;" d="M417.776,187.984c-5.104,4.768-12.16,4.416-16.576,0c-22.992-22.688-50.544-31.6-84.496-27.536
		c-6.416,0.624-12.368-3.904-12.992-10.32c-0.784-6.416,3.76-12.208,10.176-12.992c40.832-5.008,75.888,6.576,103.888,34.272
		C422.32,175.936,422.32,183.296,417.776,187.984z"/>
	<path style="fill:#3E4347;" d="M206.4,224.592l-18.624,18.464L206.4,261.68c5.312,5.328,5.312,13.92,0,19.248
		c-6,5.664-14.208,5.2-19.408,0l-18.464-18.464l-18.608,18.464c-5.536,5.52-13.92,5.328-19.248,0s-5.328-13.92,0-19.248
		l18.464-18.624l-18.464-18.464c-5.328-5.312-5.328-13.92,0-19.408c5.328-5.312,13.92-5.312,19.248,0l18.624,18.624l18.464-18.624
		c5.328-5.312,13.92-5.312,19.408,0C211.728,210.672,211.728,219.28,206.4,224.592z"/>
	<path style="fill:#3E4347;" d="M110.8,187.984c-4.752,4.752-12.16,4.416-16.592,0c-4.544-4.688-4.544-12.048,0-16.592
		c28-27.696,63.056-39.264,103.888-34.272c6.416,0.784,10.96,6.576,10.176,12.992c-0.784,6.416-6.72,10.96-12.992,10.32
		C161.344,156.384,133.648,165.296,110.8,187.984z"/>
	<path style="fill:#3E4347;" d="M381.328,224.592l-18.464,18.464l18.464,18.624c5.312,5.328,5.312,13.92,0,19.248
		c-5.504,5.504-14.048,5.344-19.408,0l-18.464-18.464l-18.464,18.464c-5.52,5.52-14.064,5.328-19.408,0
		c-5.312-5.328-5.312-13.92,0-19.248l18.464-18.624L305.6,224.592c-5.312-5.312-5.312-13.92,0-19.408
		c5.328-5.312,14.08-5.312,19.408,0l18.464,18.464l18.464-18.464c5.312-5.312,14.08-5.312,19.408,0
		C386.64,210.672,386.64,219.28,381.328,224.592z"/>
</g>
<g>
</g>
<g>
</g>
<g>
</g>
<g>
</g>
<g>
</g>
<g>
</g>
<g>
</g>
<g>
</g>
<g>
</g>
<g>
</g>
<g>
</g>
<g>
</g>
<g>
</g>
<g>
</g>
<g>
</g>
</svg>
