<?xml version="1.0" encoding="iso-8859-1"?>
<!-- Generator: Adobe Illustrator 19.0.0, SVG Export Plug-In . SVG Version: 6.00 Build 0)  -->
<svg version="1.1" id="Capa_1" xmlns="http://www.w3.org/2000/svg" xmlns:xlink="http://www.w3.org/1999/xlink" x="0px" y="0px"
	 viewBox="0 0 512 512" style="enable-background:new 0 0 512 512;" xml:space="preserve">
<circle style="fill:#FFD93B;" cx="256" cy="267.184" r="244.816"/>
<path id="SVGCleanerId_0" style="fill:#3E4347;" d="M386.528,368.048c-23.712,48.192-73.296,81.248-130.512,81.248
	c-57.376,0-106.944-33.2-130.672-81.552c-5.968-11.936,4.288-25.392,17.6-23.408c75.28,11.632,150.56,12.096,225.984,0.304
	C382.096,342.496,392.496,355.952,386.528,368.048z"/>
<g>
	<path id="SVGCleanerId_0_1_" style="fill:#3E4347;" d="M386.528,368.048c-23.712,48.192-73.296,81.248-130.512,81.248
		c-57.376,0-106.944-33.2-130.672-81.552c-5.968-11.936,4.288-25.392,17.6-23.408c75.28,11.632,150.56,12.096,225.984,0.304
		C382.096,342.496,392.496,355.952,386.528,368.048z"/>
</g>
<path style="fill:#F4C534;" d="M500.816,267.184C500.816,402.448,391.184,512,256,512c-76.96,0-145.664-35.504-190.576-91.12
	c42,33.968,95.472,54.24,153.696,54.24c135.184,0,244.816-109.552,244.816-244.816c0-58.224-20.272-111.696-54.24-153.696
	C465.232,121.536,500.816,190.224,500.816,267.184z"/>
<path style="fill:#FFFFFF;" d="M364.304,345.264c-72.416,10.832-144.688,10.4-216.944-0.336
	c16.976,26.88,67.552,36.608,108.48,36.608C296.72,381.52,347.312,371.84,364.304,345.264z"/>
<path style="fill:#E24B4B;" d="M256.016,449.296c24.048,0,46.576-6.112,66.56-16.448c-1.744-10.208-5.744-19.616-11.68-27.68
	c-10.4-14.384-29.68-18.208-46.048-11.472c-9.328,3.824-20.048,5.968-32.128,5.968c-0.16,0-0.16,0-0.16,0
	c-20.656,0-39.776,12.704-43.296,32.896c-0.016,0.064,0,0.128-0.016,0.176C209.28,443.136,231.872,449.296,256.016,449.296z"/>
<g>
	<path style="fill:#FFFFFF;" d="M280.32,253.984c-7.344-38.32-3.136-105.488,37.616-110.144s102.64,54.976,109.984,93.296
		s-19.744,73.168-60.512,77.824C326.656,319.584,287.664,292.304,280.32,253.984z"/>
	<path style="fill:#FFFFFF;" d="M231.68,253.984c7.344-38.32,3.136-105.488-37.616-110.144S91.424,198.816,84.08,237.136
		s19.744,73.168,60.512,77.824C185.344,319.584,224.336,292.304,231.68,253.984z"/>
</g>
<ellipse style="fill:#3E4347;" cx="179.97" cy="222.755" rx="33.056" ry="33.056"/>
<ellipse style="fill:#FFFFFF;" cx="181.152" cy="205.088" rx="10.576" ry="6.656"/>
<ellipse style="fill:#3E4347;" cx="332.061" cy="222.792" rx="33.056" ry="33.056"/>
<ellipse style="fill:#FFFFFF;" cx="333.232" cy="205.088" rx="10.576" ry="6.656"/>
<g>
	<rect x="245.92" y="91.536" style="fill:#65B1EF;" width="20.784" height="20.784"/>
	<path style="fill:#65B1EF;" d="M294.8,34.112c0,24.992-30.576,23.408-29.984,50.256H245.92c0-6.96-0.24-13.584,3.024-19.904
		c5.872-11.728,25.696-19.824,25.696-30.992c0-17.296-32.368-23.392-38.416,3.52l-19.024-2.4
		C219.968-13.056,294.8-9.824,294.8,34.112z"/>
	
		<rect x="348.039" y="104.166" transform="matrix(-0.7071 0.7071 -0.7071 -0.7071 688.345 -59.7661)" style="fill:#65B1EF;" width="17.024" height="17.024"/>
	<path style="fill:#65B1EF;" d="M418.096,95.68c-14.464,14.464-31.248-4.16-46.448,11.744L360.704,96.48
		c4.032-4.032,7.728-8,13.28-9.776c10.192-3.392,26.352,3.392,32.816-3.056c10.016-10.016-5.2-32.288-24.288-20.208l-9.632-12.4
		C402.08,25.04,443.52,70.24,418.096,95.68z"/>
	
		<rect x="146.91" y="103.782" transform="matrix(-0.7071 0.7071 -0.7071 -0.7071 344.7261 81.797)" style="fill:#65B1EF;" width="17.024" height="17.024"/>
	<path style="fill:#65B1EF;" d="M138.432,50.752C152.896,65.216,134.272,82,150.176,97.2l-10.944,10.944
		c-4.032-4.032-8-7.728-9.776-13.28c-3.392-10.176,3.392-26.352-3.056-32.8c-10.016-10.016-32.304,5.184-20.208,24.272l-12.4,9.632
		C67.792,66.768,112.992,25.328,138.432,50.752z"/>
</g>
<g>
</g>
<g>
</g>
<g>
</g>
<g>
</g>
<g>
</g>
<g>
</g>
<g>
</g>
<g>
</g>
<g>
</g>
<g>
</g>
<g>
</g>
<g>
</g>
<g>
</g>
<g>
</g>
<g>
</g>
</svg>
