<?xml version="1.0" encoding="iso-8859-1"?>
<!-- Generator: Adobe Illustrator 19.0.0, SVG Export Plug-In . SVG Version: 6.00 Build 0)  -->
<svg version="1.1" id="Capa_1" xmlns="http://www.w3.org/2000/svg" xmlns:xlink="http://www.w3.org/1999/xlink" x="0px" y="0px"
	 viewBox="0 0 511.997 511.997" style="enable-background:new 0 0 511.997 511.997;" xml:space="preserve">
<circle style="fill:#FFD93B;" cx="284.909" cy="248.015" r="227.088"/>
<path style="fill:#F4C534;" d="M511.997,248.015c0,125.472-101.696,227.088-227.088,227.088c-71.392,0-135.12-32.928-176.768-84.512
	c38.96,31.504,88.56,50.32,142.576,50.32c125.392,0,227.088-101.616,227.088-227.088c0-54-18.8-103.616-50.32-142.576
	C479.005,112.895,511.997,176.623,511.997,248.015z"/>
<path style="fill:#D03F3F;" d="M110.029,377.695l60.72,105.152c0,0-19.072,9.632-44.848,8.048c-9.92-0.608-19.2-5.04-25.984-12.304
	C19.661,392.495-10.867,289.759,8.365,170.383c1.6-9.968,7.008-18.976,15.136-24.976c20.672-15.264,41.76-17.6,41.76-17.6
	l6.56,121.248c0,0-11.76-1.312-19.136-1.84c-4.944-0.352-7.392,2.576-8.464,4.56c2.416,50.32,15.84,96.688,41.232,138.752
	c1.984,1.072,5.632,2.192,9.584-0.816C100.893,385.215,110.029,377.695,110.029,377.695z"/>
<g>
	<path style="fill:#E24B4B;" d="M93.437,135.791l5.68,105.008c0.064,1.008-0.368,1.984-1.152,2.64
		c-7.344,6.208-15.536,8.816-24.368,8.672c-1.696-0.032-3.088-1.344-3.168-3.04l-6.48-119.872c-0.096-1.856,1.392-3.392,3.232-3.392
		c10.176,0.064,19.152,1.872,25.28,7.84C93.037,134.223,93.389,134.975,93.437,135.791z"/>
	<path style="fill:#E24B4B;" d="M189.997,460.751l-52.592-91.072c-0.512-0.88-1.392-1.456-2.4-1.584
		c-9.536-1.184-17.824,1.104-25.152,6.032c-1.408,0.944-1.84,2.816-0.992,4.288l60.032,103.968c0.928,1.6,3.008,2.08,4.56,1.072
		c8.496-5.616,15.008-12.032,16.896-20.368C190.525,462.303,190.413,461.455,189.997,460.751z"/>
</g>
<path style="fill:#FFFFFF;" d="M238.285,204.303c0,36.544-22.496,66.08-50.432,66.08c-27.776,0-50.288-29.52-50.288-66.08
	c0-36.544,22.512-66.08,50.288-66.08C215.773,138.223,238.285,167.759,238.285,204.303z"/>
<circle style="fill:#3E4347;" cx="187.885" cy="218.991" r="25.872"/>
<ellipse transform="matrix(-0.7071 -0.7071 0.7071 -0.7071 190.1318 497.9669)" style="fill:#FFFFFF;" cx="198.198" cy="209.606" rx="8.4" ry="5.04"/>
<g>
	<path style="fill:#3E4347;" d="M421.197,196.639c-12.656,11.328-16.912,7.664-30.96,10.368
		c-88.512,2.864-108.112,79.408-76.288-26.976c-1.12,13.248-2.56,26.336-3.984,39.424
		C335.821,193.615,398.893,167.663,421.197,196.639z"/>
	<path style="fill:#3E4347;" d="M191.405,335.743c-7.84,5.968,8.88,32,45.232,49.776c45.36,22.16,108.432,28.848,137.92-12.128
		c28.224-39.248,9.696-96.224-1.984-86.288c-11.232,10.16-36.832,38.24-65.952,55.28
		C244.093,378.975,196.445,326.063,191.405,335.743z"/>
	<path style="fill:#3E4347;" d="M429.181,136.303c-1.12,5.904-6.704,9.744-12.608,8.624
		c-53.952-10.368-111.088,19.792-111.728,20.112c-4.528,2.72-11.52,1.2-14.528-4.304c-2.864-5.264-0.96-11.808,4.304-14.688
		c2.72-1.28,64.48-34,125.936-22.352C426.461,124.815,430.301,130.399,429.181,136.303z"/>
	<path style="fill:#3E4347;" d="M28.397,112.447L0.845,69.231c-1.6-2.512-0.864-5.856,1.664-7.472
		c2.512-1.584,5.856-0.88,7.456,1.648l27.552,43.216c1.6,2.512,0.864,5.856-1.664,7.472
		C33.277,115.727,29.949,114.895,28.397,112.447z"/>
	<path style="fill:#3E4347;" d="M50.701,104.351l-5.68-60.048c-0.288-2.976,1.904-5.6,4.864-5.888
		c2.96-0.224,5.632,1.888,5.888,4.864l5.664,60.048c0.288,2.976-1.904,5.6-4.864,5.888
		C53.501,109.471,50.957,107.231,50.701,104.351z"/>
	<path style="fill:#3E4347;" d="M78.077,107.151c-2.736-1.152-4.032-4.32-2.88-7.072l22.848-54.448
		c1.168-2.752,4.32-4.064,7.072-2.896c2.752,1.152,4.032,4.32,2.88,7.072l-22.832,54.448
		C83.997,107.023,80.845,108.303,78.077,107.151z"/>
	<path style="fill:#3E4347;" d="M257.117,82.367c-1.44,5.744-7.184,9.264-13.088,7.824c-76.288-18.992-106.784,35.28-107.888,37.664
		c-3.328,5.6-10.24,6.976-14.704,4.304c-5.264-2.72-7.168-9.264-4.464-14.528c0.48-0.64,39.264-71.504,132.32-48.368
		C255.037,70.703,258.557,76.447,257.117,82.367z"/>
</g>
<path style="fill:#E24B4B;" d="M266.925,397.023c39.904,11.296,84.144,8.784,107.504-23.488
	c-10.64-13.504-28.192-19.552-48.112-12.528c-6.624,2.384-13.712,3.536-20.72,3.744
	C282.909,365.423,270.333,379.567,266.925,397.023z"/>
<g>
</g>
<g>
</g>
<g>
</g>
<g>
</g>
<g>
</g>
<g>
</g>
<g>
</g>
<g>
</g>
<g>
</g>
<g>
</g>
<g>
</g>
<g>
</g>
<g>
</g>
<g>
</g>
<g>
</g>
</svg>
