<?xml version="1.0" encoding="iso-8859-1"?>
<!-- Generator: Adobe Illustrator 19.0.0, SVG Export Plug-In . SVG Version: 6.00 Build 0)  -->
<svg version="1.1" id="Capa_1" xmlns="http://www.w3.org/2000/svg" xmlns:xlink="http://www.w3.org/1999/xlink" x="0px" y="0px"
	 viewBox="0 0 512 512" style="enable-background:new 0 0 512 512;" xml:space="preserve">
<circle style="fill:#FFD93B;" cx="256" cy="256" r="256"/>
<g>
	<path style="fill:#F4C534;" d="M512,256c0,141.44-114.64,256-256,256c-80.48,0-152.32-37.12-199.28-95.28
		c43.92,35.52,99.84,56.72,160.72,56.72c141.36,0,256-114.56,256-256c0-60.88-21.2-116.8-56.72-160.72
		C474.8,103.68,512,175.52,512,256z"/>
	<path style="fill:#F4C534;" d="M176.288,111.264c-2.016,27.264-24.864,50.064-51.856,51.776c-26.976,1.6-46.4-16.688-41.472-41.696
		c4.976-24.944,30.064-49.776,54.016-53.728C160.976,63.712,178.208,84.048,176.288,111.264z"/>
</g>
<path style="fill:#E9B02C;" d="M170.72,84.096c-6.656-4.848-14.992-7.072-24.416-5.856c-24.416,3.344-49.12,27.856-53.392,53.168
	c-1.568,9.744,0.336,18.448,4.912,25.408C86.112,149.648,80,136.912,82.96,121.344c4.976-24.944,30.064-49.776,54.016-53.728
	C151.968,65.28,164.016,72,170.72,84.096z"/>
<path style="fill:#F4C534;" d="M128.032,381.088c2.16,19.488-10.32,33.36-28.72,30.192c-18.352-3.2-37.184-20.928-40.832-38.864
	c-3.664-17.936,10.352-30.816,30.192-29.232C108.544,344.816,125.776,361.584,128.032,381.088z"/>
<path style="fill:#E9B02C;" d="M119.536,360.656c-6.048-4.416-13.328-7.248-20.784-7.936c-19.696-1.648-33.552,11.296-29.792,29.456
	c1.36,6.976,5.072,13.824,10.016,19.856c-10.128-7.52-18.272-18.432-20.496-29.584c-3.664-17.936,10.352-30.816,30.192-29.232
	C100.912,344.24,112.304,350.96,119.536,360.656z"/>
<path style="fill:#F4C534;" d="M468.064,231.696c0.736,17.696-16.224,32.384-36.64,32.752c-20.448,0.336-36.816-15.2-37.248-34.64
	c-0.416-19.456,15.008-34.336,35.184-32.944C449.504,198.272,467.344,214.016,468.064,231.696z"/>
<path style="fill:#E9B02C;" d="M460.512,213.008c-6.128-3.984-13.472-6.608-21.232-7.024c-20.272-1.248-35.76,13.568-35.52,32.88
	c0.112,7.328,2.576,14.16,6.72,19.664c-9.648-6.096-16.016-16.736-16.304-28.704c-0.416-19.456,15.008-34.336,35.184-32.944
	C441.824,197.648,453.36,204.128,460.512,213.008z"/>
<path style="fill:#F4C534;" d="M253.824,301.12c0,15.04-11.936,27.264-26.704,27.12c-14.784-0.144-27.104-12.528-27.376-27.44
	c-0.288-14.912,11.824-26.944,26.864-26.928C241.632,273.888,253.792,286.064,253.824,301.12z"/>
<path style="fill:#E9B02C;" d="M248.96,285.664c-4.336-3.056-9.68-4.864-15.424-4.864c-15.008-0.016-27.12,12.016-26.816,26.976
	c0.112,5.696,1.968,11.056,5.088,15.44c-7.104-4.944-11.936-13.184-12.08-22.416c-0.288-14.912,11.824-26.944,26.864-26.928
	C235.904,273.888,244.08,278.544,248.96,285.664z"/>
<path style="fill:#F4C534;" d="M331.344,104.32c1.216,15.12-9.936,26.624-24.72,26.048c-14.784-0.592-26.896-13.312-27.168-28.768
	c-0.24-15.44,10.688-27.6,24.48-26.688C317.744,75.824,330.144,89.216,331.344,104.32z"/>
<path style="fill:#E9B02C;" d="M325.568,88.384c-4.304-3.424-9.408-5.632-14.768-6c-13.92-0.992-24.832,11.088-24.528,26.512
	c0.144,5.872,1.984,11.408,5.12,15.952c-7.072-5.168-11.712-13.696-11.92-23.248c-0.24-15.44,10.688-27.6,24.48-26.688
	C312.512,75.472,320.448,80.832,325.568,88.384z"/>
<path style="fill:#F4C534;" d="M389.168,379.632c-3.888,25.632-27.728,50.384-51.728,53.584
	c-24.016,3.136-42.48-17.968-41.632-45.44c0.96-27.504,23.264-50.24,50.256-51.632C373.024,334.864,393.008,353.968,389.168,379.632
	z"/>
<path style="fill:#E9B02C;" d="M384,353.92c-7.12-4.576-16.304-6.96-26.464-6.24c-26.8,1.776-49.168,24.656-50.56,52.064
	c-0.592,10.416,1.792,19.92,6.176,27.376c-10.944-7.776-18-22.4-17.36-39.344c0.96-27.504,23.264-50.24,50.256-51.632
	C362.672,335.264,376.832,342.432,384,353.92z"/>
<path style="fill:#FFFFFF;" d="M229.616,226.048c0,45.472-30.56,82.272-68.384,82.272c-37.808,0-68.56-36.8-68.56-82.272
	c0-45.296,30.736-82.112,68.56-82.112C199.04,143.936,229.616,180.752,229.616,226.048z"/>
<path style="fill:#3E4347;" d="M195.68,245.856c0,19.568-15.888,35.456-35.456,35.456c-19.76,0-35.648-15.888-35.648-35.456
	c0-19.76,15.888-35.648,35.648-35.648C179.792,210.224,195.68,226.096,195.68,245.856z"/>
<g>
	
		<ellipse transform="matrix(-0.7071 -0.7071 0.7071 -0.7071 131.8017 518.4734)" style="fill:#FFFFFF;" cx="173.28" cy="231.94" rx="11.424" ry="6.688"/>
	<path style="fill:#FFFFFF;" d="M419.312,226.048c0,45.472-30.56,82.272-68.384,82.272c-37.808,0-68.56-36.8-68.56-82.272
		c0-45.296,30.736-82.112,68.56-82.112S419.312,180.752,419.312,226.048z"/>
</g>
<path style="fill:#3E4347;" d="M385.392,245.856c0,19.568-15.888,35.456-35.456,35.456c-19.76,0-35.648-15.888-35.648-35.456
	c0-19.76,15.888-35.648,35.648-35.648C369.504,210.224,385.392,226.096,385.392,245.856z"/>
<ellipse transform="matrix(-0.7071 -0.7071 0.7071 -0.7071 455.6637 652.6187)" style="fill:#FFFFFF;" cx="362.994" cy="231.938" rx="11.424" ry="6.688"/>
<path style="fill:#3E4347;" d="M387.056,367.424c-24.48,47.52-73.92,80-131.04,80s-106.72-32.48-131.04-80
	c-4.8-9.28,3.04-19.84,13.28-17.6c78.4,16.8,156.96,16.8,235.52,0C384.016,347.584,391.856,358.144,387.056,367.424z"/>
<path style="fill:#FFFFFF;" d="M373.776,349.824c-78.56,16.8-157.12,16.8-235.52,0c-0.24-0.048-0.448-0.016-0.672-0.048
	c21.392,47.488,42.384,43.712,118.4,43.712c76.16,0,96.88,3.776,118.336-43.696C374.128,349.808,373.968,349.776,373.776,349.824z"
	/>
<path style="fill:#E24B4B;" d="M256.016,447.424c24.304,0,47.056-6.16,67.248-16.576c-12.928-24.24-39.664-36.592-70.224-24.992
	c-6.464,2.4-13.168,3.584-19.744,3.824c-20.144,0.736-34.192,9.552-42.8,22.112C210.272,441.632,232.432,447.424,256.016,447.424z"
	/>
<g>
</g>
<g>
</g>
<g>
</g>
<g>
</g>
<g>
</g>
<g>
</g>
<g>
</g>
<g>
</g>
<g>
</g>
<g>
</g>
<g>
</g>
<g>
</g>
<g>
</g>
<g>
</g>
<g>
</g>
</svg>
