<?xml version="1.0" encoding="iso-8859-1"?>
<!-- Generator: Adobe Illustrator 19.0.0, SVG Export Plug-In . SVG Version: 6.00 Build 0)  -->
<svg version="1.1" id="Capa_1" xmlns="http://www.w3.org/2000/svg" xmlns:xlink="http://www.w3.org/1999/xlink" x="0px" y="0px"
	 viewBox="0 0 512 512" style="enable-background:new 0 0 512 512;" xml:space="preserve">
<polygon style="fill:#3E4347;" points="44.416,269.6 8.736,269.6 21.536,28.16 31.616,28.16 "/>
<ellipse style="fill:#FFD93B;" cx="26.608" cy="22.192" rx="22.256" ry="22.192"/>
<ellipse style="fill:#65B1EF;" cx="26.608" cy="22.192" rx="22.256" ry="22.192"/>
<path style="fill:#59A5E0;" d="M46.816,31.536c-3.52,7.52-11.36,12.8-20.16,12.8c-12.32,0-22.4-9.92-22.4-22.08
	c0-8.8,5.12-16.48,12.64-19.84c-1.44,2.88-2.24,6.08-2.24,9.44c0,12.16,9.92,22.08,22.4,22.08
	C40.576,33.936,43.936,33.136,46.816,31.536z"/>
<g>
	<path style="fill:#5A5F63;" d="M511.856,242.064v86.72c0,7.2-5.92,12.96-13.12,12.96h-26.56c-7.2,0-13.12-5.76-13.12-12.96v-86.72
		c0-7.2,5.92-12.96,13.12-12.96h26.56C505.936,229.104,511.856,234.864,511.856,242.064z"/>
	<path style="fill:#5A5F63;" d="M52.944,242.064v86.72c0,7.2-5.92,12.96-13.12,12.96h-26.56c-7.2,0-13.12-5.76-13.12-12.96v-86.72
		c0-7.2,5.92-12.96,13.12-12.96h26.56C47.024,229.104,52.944,234.864,52.944,242.064z"/>
</g>
<circle style="fill:#DEE4E9;" cx="256" cy="285.424" r="226.576"/>
<path style="fill:#D3D9DD;" d="M482.576,285.424C482.576,410.608,381.104,512,256,512c-71.232,0-134.816-32.848-176.368-84.32
	c38.864,31.44,88.368,50.192,142.24,50.192c125.104,0,226.576-101.392,226.576-226.576c0-53.888-18.768-103.376-50.192-142.24
	C449.648,150.624,482.576,214.208,482.576,285.424z"/>
<path style="fill:#E9EFF4;" d="M256,58.864c-60.96,0-116.192,24.208-156.928,63.392V308.72c0,85.2,69.184,119.456,154.544,119.456
	c85.344,0,154.544-34.272,154.544-119.456V117.904C367.904,81.344,314.64,58.864,256,58.864z"/>
<path style="fill:#FFFFFF;" d="M242.896,229.104c0,30.64-24.88,55.376-55.376,55.376c-30.64,0-55.52-24.736-55.52-55.376
	s24.88-55.376,55.52-55.376C218.016,173.744,242.896,198.464,242.896,229.104z"/>
<path style="fill:#3E4347;" d="M212.88,229.104c0,14-11.36,25.36-25.36,25.36c-14.16,0-25.504-11.36-25.504-25.36
	s11.36-25.36,25.504-25.36C201.536,203.76,212.88,215.104,212.88,229.104z"/>
<g>
	
		<ellipse transform="matrix(-0.7071 -0.7071 0.7071 -0.7071 181.3856 513.98)" style="fill:#FFFFFF;" cx="197.142" cy="219.424" rx="7.312" ry="4.272"/>
	<path style="fill:#FFFFFF;" d="M380,229.104c0,30.64-24.88,55.376-55.376,55.376c-30.64,0-55.52-24.736-55.52-55.376
		s24.88-55.376,55.52-55.376C355.104,173.744,380,198.464,380,229.104z"/>
</g>
<path style="fill:#3E4347;" d="M349.968,229.104c0,14-11.36,25.36-25.36,25.36c-14.16,0-25.504-11.36-25.504-25.36
	s11.36-25.36,25.504-25.36C338.624,203.76,349.968,215.104,349.968,229.104z"/>
<ellipse transform="matrix(-0.7071 -0.7071 0.7071 -0.7071 415.3875 610.925)" style="fill:#FFFFFF;" cx="334.22" cy="219.433" rx="7.312" ry="4.272"/>
<path style="fill:#3E4347;" d="M351.6,335.696c-21.76,28.96-56.48,47.68-95.52,47.68c-39.2,0-73.76-18.72-95.68-47.68
	c-5.44-7.36,2.56-17.12,11.04-13.76c56.48,21.92,112.8,21.92,169.12,0C349.04,318.576,357.04,328.336,351.6,335.696z"/>
<g>
</g>
<g>
</g>
<g>
</g>
<g>
</g>
<g>
</g>
<g>
</g>
<g>
</g>
<g>
</g>
<g>
</g>
<g>
</g>
<g>
</g>
<g>
</g>
<g>
</g>
<g>
</g>
<g>
</g>
</svg>
