<?xml version="1.0" encoding="iso-8859-1"?>
<!-- Generator: Adobe Illustrator 19.0.0, SVG Export Plug-In . SVG Version: 6.00 Build 0)  -->
<svg version="1.1" id="Capa_1" xmlns="http://www.w3.org/2000/svg" xmlns:xlink="http://www.w3.org/1999/xlink" x="0px" y="0px"
	 viewBox="0 0 511.996 511.996" style="enable-background:new 0 0 511.996 511.996;" xml:space="preserve">
<g>
	<path style="fill:#D23F77;" d="M343.837,164.853c1.792-4.528,3.568-9.056,5.344-13.568c17.296-44.544,20.016-65.696,17.024-80.944
		c-6.56-30.56-38.736-47.456-61.36-29.664c-11.232,8.832-22.24,27.456-40.512,73.152c-1.856,4.64-3.728,9.28-5.616,13.92
		C286.749,139.829,315.181,152.325,343.837,164.853z"/>
	<path style="fill:#D23F77;" d="M168.381,347.813c-1.792,4.576-3.568,9.152-5.328,13.728
		c-17.296,45.088-19.952,66.576-16.928,81.936c6.624,30.816,38.816,47.12,61.408,28.768c11.216-9.088,22.208-28.016,40.432-73.984
		c1.856-4.656,3.728-9.328,5.6-14C225.501,372.469,197.053,360.197,168.381,347.813z"/>
	<path style="fill:#D23F77;" d="M384.333,253.429c4.656-1.872,9.312-3.728,13.952-5.568c45.968-18.176,64.704-29.024,73.616-40.24
		c17.936-22.288,1.344-54.192-29.456-60.848c-15.232-2.912-36.56-0.4-81.216,16.576c-4.544,1.728-9.088,3.488-13.648,5.248
		C360.029,197.205,372.413,225.525,384.333,253.429z"/>
	<path style="fill:#D23F77;" d="M127.821,258.565c-4.656,1.888-9.312,3.776-13.968,5.648c-45.984,18.448-64.8,29.616-73.68,41.072
		c-17.952,22.848-1.312,55.328,29.536,61.744c15.28,2.8,36.56-0.048,81.264-17.568c4.544-1.792,9.088-3.584,13.648-5.408
		C152.157,315.317,139.757,286.773,127.821,258.565z"/>
	<path style="fill:#D23F77;" d="M347.581,343.365c4.56,1.76,9.104,3.52,13.648,5.248c44.816,17.024,66.128,19.536,81.424,16.48
		c30.656-6.72,47.248-38.608,29.168-60.944c-8.944-11.088-27.728-21.936-73.536-40.064c-4.656-1.84-9.296-3.696-13.952-5.568
		C372.397,286.437,360.029,314.773,347.581,343.365z"/>
	<path style="fill:#D23F77;" d="M164.621,167.925c-4.56-1.824-9.104-3.616-13.648-5.408c-44.832-17.584-66.144-20.432-81.472-17.472
		c-30.704,6.464-47.344,38.944-29.264,61.84c8.944,11.328,27.744,22.512,73.6,40.896c4.656,1.872,9.312,3.744,13.968,5.648
		C139.757,225.189,152.157,196.645,164.621,167.925z"/>
	<path style="fill:#D23F77;" d="M258.685,384.229c1.888,4.64,3.744,9.296,5.616,13.92c18.336,45.856,29.36,64.464,40.704,73.232
		c22.592,17.648,54.768,0.752,61.264-29.936c2.848-15.2,0.16-36.336-17.12-80.736c-1.76-4.512-3.536-9.04-5.328-13.568
		C315.181,359.653,286.749,372.149,258.685,384.229z"/>
	<path style="fill:#D23F77;" d="M253.565,127.717c-1.872-4.672-3.744-9.328-5.6-14c-18.288-46.112-29.264-65.04-40.624-74.064
		c-22.544-18.224-54.736-1.904-61.312,29.056c-2.88,15.296-0.224,36.784,17.024,81.728c1.76,4.576,3.536,9.152,5.328,13.728
		C197.053,151.765,225.501,139.493,253.565,127.717z"/>
</g>
<g>
	<path style="fill:#E84D88;" d="M304.877,129.365c-0.08-5.344-0.16-10.688-0.24-16.032c-0.88-52.8-5.84-76.72-14.016-91.184
		c-16.64-29.248-52.384-29.664-69.056-0.448c-8.048,14.352-13.008,38.288-13.968,91.136c-0.08,5.36-0.176,10.72-0.256,16.096
		C239.869,128.581,272.365,128.725,304.877,129.365z"/>
	<path style="fill:#E84D88;" d="M207.357,383.077c0.08,5.36,0.16,10.72,0.256,16.096c0.944,53.008,5.936,76.944,14.112,91.296
		c16.672,29.04,52.416,28.624,69.056-0.8c7.984-14.464,12.976-38.368,13.856-91.024c0.08-5.344,0.16-10.688,0.24-16.032
		C272.365,383.237,239.869,383.397,207.357,383.077z"/>
	<path style="fill:#E84D88;" d="M380.717,202.373c3.728-3.648,7.44-7.28,11.136-10.88c36.512-35.584,48.688-53.456,51.792-68.576
		c5.904-29.968-23.328-59.248-53.696-53.536c-15.12,3.104-33.248,15.04-69.008,51.152c-3.632,3.664-7.296,7.36-10.96,11.056
		C333.325,155.349,357.037,179.077,380.717,202.373z"/>
	<path style="fill:#E84D88;" d="M131.421,310.101c-3.728,3.696-7.44,7.376-11.136,11.04c-36.528,36.16-48.688,54.496-51.776,69.856
		c-5.872,30.544,23.424,59.808,53.792,53.536c15.104-3.344,33.232-15.744,68.976-52.432c3.632-3.728,7.296-7.472,10.96-11.216
		C178.877,357.237,155.133,333.525,131.421,310.101z"/>
	<path style="fill:#E84D88;" d="M382.925,304.517c5.36-0.08,10.704-0.176,16.048-0.272c52.896-1.008,76.8-6.016,91.2-14.112
		c29.12-16.544,29.12-51.856-0.176-68.432c-14.4-7.968-38.304-12.944-91.024-13.968c-5.344-0.096-10.704-0.192-16.048-0.272
		C383.389,239.813,383.389,272.165,382.925,304.517z"/>
	<path style="fill:#E84D88;" d="M129.213,206.997c-5.36,0.064-10.72,0.144-16.064,0.224c-52.912,0.816-76.864,5.792-91.296,14.016
		c-29.168,16.768-29.152,52.912,0.176,69.68c14.416,8.064,38.368,13.04,91.12,13.856c5.36,0.08,10.72,0.144,16.064,0.224
		C128.733,272.309,128.733,239.653,129.213,206.997z"/>
	<path style="fill:#E84D88;" d="M309.965,380.389c3.664,3.696,7.328,7.392,10.96,11.056c35.904,36.224,53.984,48.16,69.232,51.136
		c30.256,5.6,59.488-23.68,53.488-53.744c-3.216-14.992-15.424-32.88-51.808-68.352c-3.696-3.616-7.408-7.248-11.136-10.88
		C357.037,332.901,333.325,356.629,309.965,380.389z"/>
	<path style="fill:#E84D88;" d="M202.237,131.093c-3.664-3.744-7.328-7.488-10.96-11.216c-35.872-36.8-53.952-49.2-69.2-52.416
		c-30.24-6.176-59.552,23.072-53.568,53.728c3.2,15.232,15.376,33.6,51.792,69.632c3.696,3.664,7.408,7.344,11.136,11.04
		C155.133,178.453,178.877,154.725,202.237,131.093z"/>
</g>
<circle style="fill:#FFD93B;" cx="256.157" cy="255.989" r="168.768"/>
<path style="fill:#3E4347;" d="M369.069,299.525c-20.016,42.144-63.056,71.488-112.864,71.488c-49.664,0-92.56-29.2-112.72-71.184
	c-3.168-6.768,3.456-14.144,10.528-11.888c67.568,22.272,135.888,21.52,204.512-0.304
	C365.613,285.381,372.221,292.901,369.069,299.525z"/>
<path style="fill:#F4C534;" d="M424.957,255.989c0,93.248-75.568,168.768-168.768,168.768c-53.056,0-100.416-24.464-131.376-62.816
	c28.96,23.408,65.824,37.392,105.952,37.392c93.184,0,168.768-75.52,168.768-168.768c0-40.128-13.968-76.992-37.392-105.952
	C400.429,155.573,424.957,202.933,424.957,255.989z"/>
<path style="fill:#FFFFFF;" d="M357.709,287.861c-68.016,21.456-135.728,22.208-202.704,0.352
	c17.84,32.624,41.008,40.896,98.576,40.896C311.229,329.109,339.901,320.725,357.709,287.861z"/>
<path style="fill:#E24B4B;" d="M256.205,370.997c18.016,0,35.088-3.936,50.56-10.832c-3.856-27.136-28.352-33.008-45.52-24.688
	c-7.328,3.488-16.048,4.752-22.672,4.144c-14.48-0.8-27.232,8.304-31.648,21.024C222.061,367.205,238.669,370.997,256.205,370.997z"
	/>
<path style="fill:#F4C534;" d="M240.445,220.629c0,34.16-21.072,61.856-46.96,61.856c-26.032,0-47.104-27.696-47.104-61.856
	c0-34.016,21.072-61.696,47.104-61.696C219.373,158.933,240.445,186.613,240.445,220.629z"/>
<path style="fill:#FFFFFF;" d="M232.029,227.205c0,28.672-17.312,49.04-38.528,45.44c-21.376-3.6-38.672-29.776-38.672-58.608
	c0-28.512,17.312-48.896,38.672-45.28C214.717,172.357,232.029,198.533,232.029,227.205z"/>
<circle style="fill:#3E4347;" cx="200.877" cy="236.261" r="19.536"/>
<ellipse transform="matrix(-0.7071 -0.7071 0.7071 -0.7071 193.5699 539.9931)" style="fill:#FFFFFF;" cx="208.621" cy="229.907" rx="6.592" ry="3.76"/>
<path style="fill:#F4C534;" d="M271.917,220.629c0,34.16,21.072,61.856,46.96,61.856c26.032,0,47.104-27.696,47.104-61.856
	c0-34.016-21.072-61.696-47.104-61.696C292.989,158.933,271.917,186.613,271.917,220.629z"/>
<path style="fill:#FFFFFF;" d="M280.349,227.205c0,28.672,17.312,49.04,38.528,45.44c21.376-3.6,38.672-29.776,38.672-58.608
	c0-28.512-17.312-48.896-38.672-45.28C297.645,172.357,280.349,198.533,280.349,227.205z"/>
<circle style="fill:#3E4347;" cx="311.485" cy="236.261" r="19.536"/>
<ellipse transform="matrix(-0.7071 -0.7071 0.7071 -0.7071 382.2873 618.2471)" style="fill:#FFFFFF;" cx="319.187" cy="229.949" rx="6.592" ry="3.76"/>
<g>
</g>
<g>
</g>
<g>
</g>
<g>
</g>
<g>
</g>
<g>
</g>
<g>
</g>
<g>
</g>
<g>
</g>
<g>
</g>
<g>
</g>
<g>
</g>
<g>
</g>
<g>
</g>
<g>
</g>
</svg>
