<?xml version="1.0" encoding="iso-8859-1"?>
<!-- Generator: Adobe Illustrator 19.0.0, SVG Export Plug-In . SVG Version: 6.00 Build 0)  -->
<svg version="1.1" id="Capa_1" xmlns="http://www.w3.org/2000/svg" xmlns:xlink="http://www.w3.org/1999/xlink" x="0px" y="0px"
	 viewBox="0 0 512 512" style="enable-background:new 0 0 512 512;" xml:space="preserve">
<circle style="fill:#E24B4B;" cx="256" cy="256" r="256"/>
<path style="fill:#D03F3F;" d="M512,256c0,141.44-114.64,256-256,256c-80.48,0-152.32-37.12-199.28-95.28
	c43.92,35.52,99.84,56.72,160.72,56.72c141.36,0,256-114.56,256-256c0-60.88-21.2-116.8-56.72-160.72
	C474.8,103.68,512,175.52,512,256z"/>
<path style="fill:#FFFFFF;" d="M236.096,205.776c0,40-32.64,72.64-72.8,72.64c-40,0-72.64-32.64-72.64-72.64
	c0-40.16,32.64-72.8,72.64-72.8C203.456,132.976,236.096,165.616,236.096,205.776z"/>
<path style="fill:#3E4347;" d="M199.296,205.776c0,19.68-16.16,35.84-36,35.84c-19.68,0-35.84-16.16-35.84-35.84
	c0-19.84,16.16-36,35.84-36C183.136,169.776,199.296,185.936,199.296,205.776z"/>
<g>
	<path style="fill:#FFFFFF;" d="M184.672,199.776c-2.384,2.384-7.408,1.2-11.024-2.416c-3.744-3.744-4.8-8.64-2.416-11.024
		c2.368-2.368,7.28-1.328,11.024,2.416C185.872,192.368,187.04,197.392,184.672,199.776z"/>
	<path style="fill:#FFFFFF;" d="M421.344,205.776c0,40-32.64,72.64-72.8,72.64c-40,0-72.64-32.64-72.64-72.64
		c0-40.16,32.64-72.8,72.64-72.8C388.704,132.976,421.344,165.616,421.344,205.776z"/>
</g>
<path style="fill:#3E4347;" d="M384.544,205.776c0,19.68-16.16,35.84-36,35.84c-19.68,0-35.84-16.16-35.84-35.84
	c0-19.84,16.16-36,35.84-36C368.384,169.776,384.544,185.936,384.544,205.776z"/>
<path style="fill:#FFFFFF;" d="M369.92,199.776c-2.384,2.384-7.408,1.2-11.024-2.416c-3.744-3.744-4.8-8.64-2.416-11.024
	c2.368-2.368,7.28-1.328,11.024,2.416C371.12,192.368,372.288,197.392,369.92,199.776z"/>
<path style="fill:#3E4347;" d="M393.616,356.976c0,8.048-4.96,14.912-11.936,17.776c-8.432,3.456-16.8,7.104-23.472,13.296
	c-27.536,25.504-63.84,39.984-102.176,39.984c-38.304,0-74.56-14.448-102.096-39.888c-6.736-6.224-15.136-9.904-23.6-13.408
	c-6.976-2.88-11.904-9.776-11.904-17.76c0-10.56,8.64-19.2,19.2-19.2c8.912,0,15.968,5.968,18.352,13.568
	c5.232,16.736,14.928,31.84,29.904,40.96C206.704,405.008,230.88,412,256.048,412c25.184,0,49.376-7.008,70.208-19.776
	c15.104-9.264,24.112-24.832,30.032-41.536c2.56-7.2,9.344-12.928,18.144-12.928C384.976,337.776,393.616,346.416,393.616,356.976z"
	/>
<g>
</g>
<g>
</g>
<g>
</g>
<g>
</g>
<g>
</g>
<g>
</g>
<g>
</g>
<g>
</g>
<g>
</g>
<g>
</g>
<g>
</g>
<g>
</g>
<g>
</g>
<g>
</g>
<g>
</g>
</svg>
