<?xml version="1.0" encoding="iso-8859-1"?>
<!-- Generator: Adobe Illustrator 19.0.0, SVG Export Plug-In . SVG Version: 6.00 Build 0)  -->
<svg version="1.1" id="Capa_1" xmlns="http://www.w3.org/2000/svg" xmlns:xlink="http://www.w3.org/1999/xlink" x="0px" y="0px"
	 viewBox="0 0 512 512" style="enable-background:new 0 0 512 512;" xml:space="preserve">
<circle style="fill:#FFD93B;" cx="256" cy="256" r="256"/>
<path style="fill:#F4C534;" d="M512,256c0,141.44-114.64,256-256,256c-80.48,0-152.32-37.12-199.28-95.28
	c43.92,35.52,99.84,56.72,160.72,56.72c141.36,0,256-114.56,256-256c0-60.88-21.2-116.8-56.72-160.72
	C474.8,103.68,512,175.52,512,256z"/>
<path style="fill:#3E4347;" d="M364.24,382.784c1.376,36.768-37.968,57.312-108.224,56.448
	c-70.256,0.864-109.776-19.68-108.224-56.448C146.4,345.84,185.76,325.296,256,326.16
	C326.256,325.296,365.616,345.84,364.24,382.784z"/>
<path style="fill:#FFFFFF;" d="M282.256,228.368c0,39.888,32.32,72.224,72.352,72.224c39.888,0,72.224-32.32,72.224-72.224
	c0-40.016-32.32-72.352-72.224-72.352C314.576,156.016,282.256,188.336,282.256,228.368z"/>
<path style="fill:#3E4347;" d="M319.392,228.368c0,19.424,15.648,35.072,35.216,35.072c19.424,0,35.072-15.648,35.072-35.072
	c0-19.568-15.648-35.216-35.072-35.216C335.04,193.168,319.392,208.816,319.392,228.368z"/>
<ellipse transform="matrix(-0.7071 -0.7071 0.7071 -0.7071 430.7903 609.1227)" style="fill:#FFFFFF;" cx="341.549" cy="215.342" rx="6.736" ry="11.344"/>
<path style="fill:#3E4347;" d="M450.624,210.64c5.2-1.44,8.256-6.816,6.816-12.032c-15.36-55.632-73.92-91.008-132.272-75.152
	c-5.2,1.424-8.272,6.8-6.864,12.016c1.408,5.2,6.8,8.256,12.016,6.864c48.16-13.152,95.712,15.984,108.272,61.488
	C440.032,209.056,445.488,212.096,450.624,210.64z"/>
<path style="fill:#F4C534;" d="M241.856,228.368c0,39.888-32.32,72.224-72.352,72.224c-39.888,0-72.224-32.32-72.224-72.224
	c0-40.016,32.32-72.352,72.224-72.352C209.536,156.016,241.856,188.336,241.856,228.368z"/>
<path style="fill:#FFFFFF;" d="M241.856,228.336c0,15.152-32.32,27.408-72.336,27.408c-39.888,0-72.224-12.272-72.224-27.408
	c0-15.2,32.32-27.472,72.224-27.472C209.536,200.864,241.856,213.136,241.856,228.336z"/>
<path style="fill:#3E4347;" d="M193.328,202.512c6.976,6.416,11.392,15.552,11.392,25.872c0,10.224-4.416,19.328-11.392,25.728
	c-7.488,0.992-15.424,1.632-23.808,1.632c-8.352,0-16.24-0.64-23.696-1.632c-6.96-6.4-11.376-15.504-11.376-25.744
	c0-10.304,4.416-19.456,11.376-25.872c7.456-0.992,15.344-1.632,23.696-1.632C177.904,200.864,185.824,201.52,193.328,202.512z"/>
<ellipse transform="matrix(-0.7071 -0.7071 0.7071 -0.7071 159.4017 496.5964)" style="fill:#FFFFFF;" cx="182.549" cy="215.285" rx="11.344" ry="6.736"/>
<path style="fill:#3E4347;" d="M73.488,210.64c-5.2-1.44-8.256-6.816-6.816-12.032c15.36-55.632,73.92-91.008,132.272-75.152
	c5.2,1.424,8.272,6.8,6.864,12.016c-1.408,5.2-6.8,8.256-12.016,6.864c-48.16-13.152-95.712,15.984-108.272,61.488
	C84.08,209.056,78.624,212.096,73.488,210.64z"/>
<path style="fill:#FFFFFF;" d="M256,326.16c-32.688-0.4-58.576,3.888-76.896,12.24c0.16,3.248,0.4,6.448,0.8,9.488
	c0.912,6.928,6.384,12.4,13.312,13.312c41.968,5.648,83.92,5.648,125.888,0.176c7.12-0.912,12.592-6.752,13.328-13.872
	c0.272-2.896,0.432-5.984,0.544-9.104C314.64,330.048,288.736,325.76,256,326.16z"/>
<path style="fill:#E24B4B;" d="M263.232,377.552c-10.704,6.144-23.12,8.32-34.848,7.52c-15.264-1.024-29.84,8.656-33.712,23.472
	c-2,7.376-2.64,15.36-1.744,23.568c33.376,9.824,92.8,9.824,126.16-0.016c0.272-2.384,0.416-4.816,0.416-7.28
	c0-14.688-4.896-28.016-13.216-38.848C296.144,372.88,277.696,369.344,263.232,377.552z"/>
<g>
</g>
<g>
</g>
<g>
</g>
<g>
</g>
<g>
</g>
<g>
</g>
<g>
</g>
<g>
</g>
<g>
</g>
<g>
</g>
<g>
</g>
<g>
</g>
<g>
</g>
<g>
</g>
<g>
</g>
</svg>
