<?xml version="1.0" encoding="iso-8859-1"?>
<!-- Generator: Adobe Illustrator 19.0.0, SVG Export Plug-In . SVG Version: 6.00 Build 0)  -->
<svg version="1.1" id="Capa_1" xmlns="http://www.w3.org/2000/svg" xmlns:xlink="http://www.w3.org/1999/xlink" x="0px" y="0px"
	 viewBox="0 0 512 512" style="enable-background:new 0 0 512 512;" xml:space="preserve">
<circle style="fill:#FFD93B;" cx="256" cy="256" r="256"/>
<path style="fill:#F4C534;" d="M512,256c0,141.44-114.64,256-256,256c-80.48,0-152.32-37.12-199.28-95.28
	c43.92,35.52,99.84,56.72,160.72,56.72c141.36,0,256-114.56,256-256c0-60.88-21.2-116.8-56.72-160.72
	C474.8,103.68,512,175.52,512,256z"/>
<ellipse style="fill:#FFFFFF;" cx="357.92" cy="208.32" rx="76.976" ry="77.04"/>
<circle style="fill:#3E4347;" cx="372.64" cy="183.728" r="34.24"/>
<g>
	
		<ellipse transform="matrix(-0.7071 -0.7071 0.7071 -0.7071 534.7256 565.3682)" style="fill:#FFFFFF;" cx="384.454" cy="171.939" rx="9.376" ry="6.592"/>
	<ellipse style="fill:#FFFFFF;" cx="160.96" cy="230.736" rx="76.976" ry="77.04"/>
</g>
<circle style="fill:#3E4347;" cx="146.176" cy="255.344" r="34.24"/>
<ellipse transform="matrix(-0.7071 -0.7071 0.7071 -0.7071 97.4662 527.4621)" style="fill:#FFFFFF;" cx="157.974" cy="243.545" rx="9.376" ry="6.592"/>
<g>
	<path style="fill:#3E4347;" d="M246.512,146.416c0.992,3.856-0.864,7.856-4.288,9.856c-3.36,1.872-7.472,1.536-10.576-1.568
		c-1.568-1.424-39.6-37.168-120.64-23.584c-4.864,0.864-9.424-2.416-10.144-7.28c-0.864-4.864,2.432-9.584,7.28-10.288
		c56.464-9.584,94.624,3.152,115.776,14.576l-4.864-21.152c-1.152-4.72,1.856-9.584,6.72-10.72c4.864-1.008,9.584,1.856,10.72,6.72
		L246.512,146.416z"/>
	<path style="fill:#3E4347;" d="M422.048,102.112c-0.864,4.864-5.44,8-10.288,7.296c-81.056-13.728-118.928,22.16-120.496,23.728
		c-2.992,2.752-7.584,3.168-10.72,1.28c-3.424-1.856-5.136-5.856-4.288-9.712L286.4,81.248c0.992-4.864,5.856-7.712,10.72-6.72
		c4.72,1.136,7.712,6,6.576,10.72l-4.864,21.152c21.296-11.44,59.456-24.16,115.92-14.576
		C419.616,92.528,422.896,97.248,422.048,102.112z"/>
	<path style="fill:#3E4347;" d="M352.864,390.256c-7.632,38.56-49.76,88.384-96.928,88.272c-47.04-1.696-89.168-51.232-96.8-87.936
		c-7.792-37.12,35.68-70.016,96.768-72.176C317.152,318.4,360.672,351.248,352.864,390.256z"/>
</g>
<path style="fill:#E24B4B;" d="M315.952,447.968c0.544-2.704,1.152-5.376,1.44-8.096c0.976-10.032,0.144-19.12-2.496-27.216
	c-6.416-21.12-31.552-31.584-52.784-20.992c-9.872,5.008-20.944,7.664-33.68,7.072c-2.352-0.112-4.704-0.4-6.912-0.672
	c-10.784-1.536-20.72,4.128-24,13.696c-3.536,10.192-4.016,21.904-1.456,35.104C235.488,455.392,276.512,455.792,315.952,447.968z"
	/>
<g>
	<path style="fill:#FFFFFF;" d="M323.92,432.128c-44.176,2.704-91.504,2.576-135.904-0.8c-3.056-0.224-5.568,0.784-7.488,2.512
		c18.336,23.728,45.904,43.632,75.408,44.688c29.584,0.064,57.184-19.504,75.536-43.632
		C329.52,433.056,326.992,431.936,323.92,432.128z"/>
	<path style="fill:#FFFFFF;" d="M243.168,365.296c4.336,0.016,8.144-3.456,8.496-8.24c1.008-12.832,2.08-25.696,3.2-38.544
		c-22.336,0.928-42.272,5.936-58.16,13.776c0.576,7.792,1.168,15.584,1.728,23.376c0.352,4.784,4.448,8.832,9.152,8.992
		C219.44,365.04,231.296,365.248,243.168,365.296z"/>
	<path style="fill:#FFFFFF;" d="M257.12,318.464c1.12,12.832,2.192,25.664,3.216,38.496c0.336,4.784,4.16,8.208,8.496,8.128
		c11.872-0.224,23.728-0.624,35.568-1.2c4.672-0.24,8.816-4.416,9.168-9.296c0.576-7.952,1.152-15.904,1.728-23.856
		C299.408,323.12,279.472,318.624,257.12,318.464z"/>
</g>
<g>
</g>
<g>
</g>
<g>
</g>
<g>
</g>
<g>
</g>
<g>
</g>
<g>
</g>
<g>
</g>
<g>
</g>
<g>
</g>
<g>
</g>
<g>
</g>
<g>
</g>
<g>
</g>
<g>
</g>
</svg>
