<?xml version="1.0" encoding="iso-8859-1"?>
<!-- Generator: Adobe Illustrator 19.0.0, SVG Export Plug-In . SVG Version: 6.00 Build 0)  -->
<svg version="1.1" id="Capa_1" xmlns="http://www.w3.org/2000/svg" xmlns:xlink="http://www.w3.org/1999/xlink" x="0px" y="0px"
	 viewBox="0 0 512 512" style="enable-background:new 0 0 512 512;" xml:space="preserve">
<circle style="fill:#FFD93B;" cx="256" cy="238.944" r="238.944"/>
<path style="fill:#F4C534;" d="M494.944,238.944c0,132.016-107.008,238.944-238.944,238.944c-75.12,0-142.176-34.64-186-88.928
	c40.992,33.152,93.184,52.944,150.016,52.944c131.936,0,238.944-106.928,238.944-238.944c0-56.832-19.792-109.024-52.944-150.016
	C460.224,96.768,494.944,163.824,494.944,238.944z"/>
<path style="fill:#3E4347;" d="M375.856,341.376c-24.768,50.32-69.008,83.872-119.808,83.872s-95.216-33.552-119.968-83.872
	c-3.36-6.864,2.24-14.704,9.904-13.744c73.328,9.264,146.656,9.264,220.144,0C373.776,326.672,379.376,334.512,375.856,341.376z"/>
<path style="fill:#E24B4B;" d="M322.144,349.552C321.168,461.136,289.824,512,253.888,512c-36.096,0-63.008-50.864-64.16-162.448
	H322.144z"/>
<g>
	<path style="fill:#FFFFFF;" d="M149.584,328.032c23.104,31.776,62.112,36.832,106.4,36.832c44.272,0,83.328-5.056,106.432-36.832
		C291.36,336.704,220.464,336.704,149.584,328.032z"/>
	<path style="fill:#FFFFFF;" d="M412.32,217.232c0,36.384-29.584,65.984-66.128,65.984s-66.128-29.584-66.128-65.984
		c0-36.544,29.584-66.128,66.128-66.128S412.32,180.688,412.32,217.232z"/>
</g>
<g>
	<path style="fill:#3E4347;" d="M429.152,203.408c-5.824-42.608-44.336-72.752-85.392-69.712
		c-12.848,1.376-14.816-16.976-1.968-18.352c53.76-3.856,98.768,35.392,105.648,85.568c0.688,5.056-2.848,9.696-7.888,10.4
		C434.224,211.968,429.824,208.256,429.152,203.408z"/>
	<path style="fill:#3E4347;" d="M377.888,217.232c0,17.328-14.224,31.552-31.696,31.552s-31.696-14.224-31.696-31.552
		c0-17.472,14.224-31.696,31.696-31.696C363.68,185.536,377.888,199.76,377.888,217.232z"/>
</g>
<g>
	<path style="fill:#FFFFFF;" d="M364.048,213.312c-2.72,2.72-7.984,1.696-11.888-2.208c-3.744-3.904-4.752-9.168-2.208-11.888
		c2.72-2.544,7.984-1.536,11.888,2.384C365.744,205.504,366.768,210.768,364.048,213.312z"/>
	<path style="fill:#FFFFFF;" d="M99.68,217.232c0,36.384,29.584,65.984,66.128,65.984s66.128-29.584,66.128-65.984
		c0-36.544-29.584-66.128-66.128-66.128S99.68,180.688,99.68,217.232z"/>
</g>
<g>
	<path style="fill:#3E4347;" d="M82.848,203.408c5.824-42.608,44.336-72.752,85.392-69.712c12.848,1.376,14.816-16.976,1.968-18.352
		c-53.76-3.856-98.768,35.392-105.648,85.568c-0.688,5.056,2.848,9.696,7.888,10.4C77.776,211.968,82.176,208.256,82.848,203.408z"
		/>
	<path style="fill:#3E4347;" d="M134.112,217.232c0,17.328,14.224,31.552,31.696,31.552s31.696-14.224,31.696-31.552
		c0-17.472-14.224-31.696-31.696-31.696C148.32,185.536,134.112,199.76,134.112,217.232z"/>
</g>
<path style="fill:#FFFFFF;" d="M147.952,213.312c2.72,2.72,7.984,1.696,11.888-2.208c3.744-3.904,4.752-9.168,2.208-11.888
	c-2.72-2.544-7.984-1.536-11.888,2.384C146.256,205.504,145.232,210.768,147.952,213.312z"/>
<g>
</g>
<g>
</g>
<g>
</g>
<g>
</g>
<g>
</g>
<g>
</g>
<g>
</g>
<g>
</g>
<g>
</g>
<g>
</g>
<g>
</g>
<g>
</g>
<g>
</g>
<g>
</g>
<g>
</g>
</svg>
