<?xml version="1.0" encoding="iso-8859-1"?>
<!-- Generator: Adobe Illustrator 19.0.0, SVG Export Plug-In . SVG Version: 6.00 Build 0)  -->
<svg version="1.1" id="Capa_1" xmlns="http://www.w3.org/2000/svg" xmlns:xlink="http://www.w3.org/1999/xlink" x="0px" y="0px"
	 viewBox="0 0 512 512" style="enable-background:new 0 0 512 512;" xml:space="preserve">
<circle style="fill:#E24B4B;" cx="256" cy="256" r="256"/>
<path style="fill:#D03F3F;" d="M512,256c0,141.44-114.64,256-256,256c-80.48,0-152.32-37.12-199.28-95.28
	c43.92,35.52,99.84,56.72,160.72,56.72c141.36,0,256-114.56,256-256c0-60.88-21.2-116.8-56.72-160.72
	C474.8,103.68,512,175.52,512,256z"/>
<path style="fill:#FFFFFF;" d="M233.52,258c-10.144,52.704-69.2,80.336-116.784,52.704c-65.392-37.712-32.88-134.064-7.552-111.024
	c39.936,35.952,75.344,44.736,107.312,40.48C226.672,238.656,235.44,247.984,233.52,258z"/>
<path style="fill:#3E4347;" d="M189.312,278.688c0.128,16.544-13.136,29.904-29.392,29.92c-16.4,0.016-29.712-13.28-29.84-29.84
	c-0.128-16.4,12.976-29.904,29.392-29.92C175.728,248.832,189.184,262.288,189.312,278.688z"/>
<ellipse transform="matrix(-0.7071 -0.7071 0.7071 -0.7071 101.9907 577.769)" style="fill:#FFFFFF;" cx="170.655" cy="267.762" rx="9.472" ry="5.552"/>
<path style="fill:#3E4347;" d="M207.36,214.992c-65.456-5.36-107.984-45.888-109.76-47.616c-3.68-3.552-3.76-9.408-0.208-13.088
	c3.568-3.68,9.424-3.792,13.088-0.24c0.384,0.368,38.368,36.352,95.28,42.176l20.176-13.12c4.336-2.8,10.032-1.568,12.832,2.72
	c2.784,4.288,1.568,10.032-2.72,12.816l-22.88,14.864C211.408,214.656,209.328,215.152,207.36,214.992z"/>
<path style="fill:#FFFFFF;" d="M278.48,258c10.144,52.704,69.2,80.336,116.784,52.704c65.392-37.712,32.88-134.064,7.552-111.024
	c-39.936,35.952-75.344,44.736-107.312,40.48C285.328,238.656,276.56,247.984,278.48,258z"/>
<path style="fill:#3E4347;" d="M381.92,278.688c0.128,16.544-13.136,29.904-29.392,29.92c-16.4,0.016-29.712-13.28-29.84-29.84
	c-0.128-16.4,12.976-29.904,29.392-29.92C368.336,248.832,381.792,262.288,381.92,278.688z"/>
<ellipse transform="matrix(-0.7071 -0.7071 0.7071 -0.7071 430.7959 713.9623)" style="fill:#FFFFFF;" cx="363.264" cy="267.76" rx="9.472" ry="5.552"/>
<path style="fill:#3E4347;" d="M304.64,214.992c65.456-5.36,107.984-45.888,109.76-47.616c3.68-3.552,3.76-9.408,0.208-13.088
	c-3.568-3.68-9.424-3.792-13.088-0.24c-0.384,0.368-38.368,36.352-95.28,42.176l-20.176-13.12c-4.336-2.8-10.032-1.568-12.832,2.72
	c-2.784,4.288-1.568,10.032,2.72,12.816l22.88,14.864C300.592,214.656,302.672,215.152,304.64,214.992z"/>
<g>
	<path style="fill:#FFFFFF;" d="M355.376,452.976l-31.2-53.76l2.24-0.8c7.84-2.72,15.04-6.56,21.28-11.36l3.04-2.24L355.376,452.976
		z"/>
	<path style="fill:#FFFFFF;" d="M185.136,398.896l2.4,0.8l-30.88,53.28l4.48-66.72l2.88,2.08
		C170.416,392.976,177.456,396.496,185.136,398.896z"/>
</g>
<path style="fill:#3E4347;" d="M408.016,333.936c-30.352,57.488-87.84,85.392-152,86.416c-65.536-1.744-121.952-29.2-152-86.416
	c32.144,37.312,84.656,60.976,152,61.888C322.16,395.152,375.296,372.08,408.016,333.936z"/>
<g>
</g>
<g>
</g>
<g>
</g>
<g>
</g>
<g>
</g>
<g>
</g>
<g>
</g>
<g>
</g>
<g>
</g>
<g>
</g>
<g>
</g>
<g>
</g>
<g>
</g>
<g>
</g>
<g>
</g>
</svg>
