<?xml version="1.0" encoding="iso-8859-1"?>
<!-- Generator: Adobe Illustrator 19.0.0, SVG Export Plug-In . SVG Version: 6.00 Build 0)  -->
<svg version="1.1" id="Capa_1" xmlns="http://www.w3.org/2000/svg" xmlns:xlink="http://www.w3.org/1999/xlink" x="0px" y="0px"
	 viewBox="0 0 512.006 512.006" style="enable-background:new 0 0 512.006 512.006;" xml:space="preserve">
<path style="fill:#BBC7D1;" d="M446.312,139.791c28.256,39.632,39.376,85.168,32.32,128.224
	c11.168,6.656,19.76,16.064,25.792,26.944c16.928-57.536,5.2-120.448-32.704-173.632C424.232,55.055,345.64,16.879,256.008,16.879
	S87.784,55.071,40.296,121.343C2.232,174.751-9.464,237.967,7.768,295.695c6-10.896,14.56-20.32,25.696-27.024
	c-7.28-43.28,3.84-89.168,32.24-128.864c41.504-58.08,110.944-91.376,190.304-91.376C335.384,48.431,404.824,81.727,446.312,139.791
	z"/>
<g>
	<path style="fill:#3E4347;" d="M0.12,318.735c-3.408-104.736,85.296-76.784,69.36-35.712c-6.336,17.104-7.44,40.688-0.96,60.112
		C83.608,388.463,2.872,414.959,0.12,318.735z"/>
	<path style="fill:#3E4347;" d="M511.912,318.735c-2.8,98.112-82.992,65.52-69.68,28.224v-0.16
		c7.904-22.576,6.912-46.016,0.16-63.776C427.176,241.567,515.288,214.799,511.912,318.735z"/>
	<path style="fill:#3E4347;" d="M409.176,47.599c5.136,2.896,6.704,10.272,3.408,15.536l-17.968,27.68
		c-3.536,5.44-10.464,6.32-15.056,3.408c-71.696-44.848-173.824-45.504-247.232,0c-4.976,3.2-11.456,1.76-14.896-3.408
		l-18.128-27.68c-4.16-5.616-6-13.024,0-18.272C210.776-17.889,312.216-9.185,409.176,47.599z"/>
</g>
<g>
	<path style="fill:#5A5F63;" d="M28.68,314.719c0-26.592,4.256-52.56,12.656-77.2c7.968-23.328,33.392-35.792,56.656-27.84
		c23.344,7.952,35.808,33.312,27.856,56.656c-5.232,15.344-7.888,31.632-7.888,48.384c0,16.816,2.672,32.992,7.936,48.112
		C147.272,424.191,28.68,475.775,28.68,314.719z"/>
	<path style="fill:#5A5F63;" d="M483.304,314.719c0-26.592-4.256-52.56-12.656-77.2c-7.968-23.328-33.392-35.792-56.656-27.84
		c-23.344,7.952-35.808,33.312-27.856,56.656c5.232,15.344,7.888,31.632,7.888,48.384c0,16.816-2.672,32.992-7.936,48.112
		C364.728,424.191,483.304,475.775,483.304,314.719z"/>
</g>
<circle style="fill:#FFD93B;" cx="255.992" cy="314.703" r="196"/>
<path style="fill:#3E4347;" d="M359.784,388.623c-20.528,42.112-59.216,70.528-103.712,70.528s-83.184-28.416-103.856-70.528
	c-3.424-7.136,2.976-14.88,10.72-13.248c62.048,13.392,124.096,13.392,186.144,0C356.808,373.759,363.208,381.487,359.784,388.623z"
	/>
<path style="fill:#F4C534;" d="M451.992,314.703c0,108.288-87.76,196-196,196c-61.616,0-116.608-28.416-152.56-72.944
	c33.632,27.2,76.432,43.424,123.04,43.424c108.224,0,196-87.712,196-196c0-46.608-16.224-89.424-43.424-123.04
	C423.512,198.079,451.992,253.087,451.992,314.703z"/>
<path style="fill:#FFFFFF;" d="M240.056,278.751c0,32.72-26.544,59.264-59.264,59.264s-59.056-26.544-59.056-59.264
	c0-32.512,26.336-59.056,59.056-59.056C213.512,219.695,240.056,246.239,240.056,278.751z"/>
<path style="fill:#3E4347;" d="M207.848,278.767c0,14.896-12.112,27.008-27.008,27.008s-26.864-12.112-26.864-27.008
	c0-14.752,11.968-26.864,26.864-26.864S207.848,264.015,207.848,278.767z"/>
<g>
	
		<ellipse transform="matrix(-0.7071 -0.7071 0.7071 -0.7071 134.6044 594.5002)" style="fill:#FFFFFF;" cx="190.427" cy="269.373" rx="8.56" ry="5.152"/>
	<path style="fill:#FFFFFF;" d="M390.248,278.751c0,32.72-26.544,59.264-59.264,59.264s-59.056-26.544-59.056-59.264
		c0-32.512,26.336-59.056,59.056-59.056C363.704,219.695,390.248,246.239,390.248,278.751z"/>
</g>
<path style="fill:#3E4347;" d="M358.024,278.767c0,14.896-12.112,27.008-27.008,27.008s-26.864-12.112-26.864-27.008
	c0-14.752,11.968-26.864,26.864-26.864C345.912,251.903,358.024,264.015,358.024,278.767z"/>
<g>
	
		<ellipse transform="matrix(-0.7071 -0.7071 0.7071 -0.7071 390.9921 700.6819)" style="fill:#FFFFFF;" cx="340.612" cy="269.364" rx="8.56" ry="5.152"/>
	<path style="fill:#FFFFFF;" d="M166.552,376.079c19.536,37.328,35.856,38.4,89.424,38.4c53.488,0,70.112-1.072,89.568-38.416
		C285.896,388.447,226.232,388.447,166.552,376.079z"/>
</g>
<path style="fill:#E24B4B;" d="M256.072,459.167c23.584,0,45.44-8.16,63.936-21.952c-4.432-6.624-9.984-12.48-16.576-17.136
	c-6.016-4.208-14.064-3.632-20.272,0.352c-15.488,9.968-34.064,10.784-49.696,6.688c-6.832-1.92-14.416-0.016-18.816,5.472
	c-3.36,4.128-6.144,8.736-8.384,13.664C221.432,454.431,238.232,459.167,256.072,459.167z"/>
<g>
</g>
<g>
</g>
<g>
</g>
<g>
</g>
<g>
</g>
<g>
</g>
<g>
</g>
<g>
</g>
<g>
</g>
<g>
</g>
<g>
</g>
<g>
</g>
<g>
</g>
<g>
</g>
<g>
</g>
</svg>
