<?xml version="1.0" encoding="iso-8859-1"?>
<!-- Generator: Adobe Illustrator 19.0.0, SVG Export Plug-In . SVG Version: 6.00 Build 0)  -->
<svg version="1.1" id="Capa_1" xmlns="http://www.w3.org/2000/svg" xmlns:xlink="http://www.w3.org/1999/xlink" x="0px" y="0px"
	 viewBox="0 0 511.974 511.974" style="enable-background:new 0 0 511.974 511.974;" xml:space="preserve">
<path style="fill:#FFD93B;" d="M429.507,219.318c-58.896,26.72-70.848,14.016-115.184,17.392
	c-29.232,1.936-29.776,8.624-58.096,9.104c-28.32-0.208-28.912-6.912-57.984-8.592c-28.912-1.376-59.888,8.976-115.024-16.32
	c-8.848-16.96-15.232-28.384-16.32-44.928c1.776-23.168,9.488-23.92,17.28-43.424c3.84-5.744,7.232-19.2,11.216-24.512
	c9.808-23.456,18.832-24.752,39.056-42.448c9.744-12.464,17.152-11.328,24.928-17.104c9.328-11.92,16.096-13.344,23.888-19.712
	c9.392-15.808,14.24-4.464,23.584-15.808c8.096-2.496,16.688-8.56,24.576-5.264c8.208-0.704,16.544,3.568,24.944,0.448
	c8.224-1.792,16.944,4.416,24.944-0.224c8.048-2.4,16.08-0.272,24.528,5.456c8.192,4.448,15.12,5.888,23.456,15.904
	c7.984,7.904,16.928,21.696,23.728,19.728c6.992,1.776,15.456,6.464,24.784,17.072c12.512,3.264,33.728,30.816,38.832,42.128
	c3.76,3.76,7.456,14.032,11.168,24.224c4.016,13.92,17.456,22.976,17.44,42.704C444.899,189.558,437.907,203.302,429.507,219.318z"
	/>
<path style="fill:#F4C534;" d="M297.763,153.59c-1.936,4.56-2.384,3.168-0.56,9.264c0.656,2.368-1.584,16.272-6.48,17.792
	c-3.328,1.184-6.768-0.432-9.312-2.8c-6.272-5.2-6.608-8.64-15.232-9.456c-5.008,3.984-5.584,12.768-11.424,15.744
	c-13.936,7.904-22.288-22.096-8.368-30.704c-2.992-7.536,9.2-24.064,16.56-20.656c2.96,0.992,4.352,4.096,7.04,5.648
	c4.656,2.384,10.16-1.44,15.536-2.016C294.691,135.158,302.083,144.534,297.763,153.59z"/>
<path style="fill:#DE9C25;" d="M280.995,151.494c-0.192,2.4-1.888,4.672-4,5.664c-0.992,0.72-2.128,1.008-3.088,0.864
	c-1.264,0.144-2.368-0.416-3.488-0.4c-2.368-0.416-4.88,0.16-7.12,1.296c-1.808,0.992-3.344,2.56-5.168,3.552
	c-0.992,0.704-2.784,0.56-4.176,0.576c-0.272-2.272,0.96-4.944,1.936-7.072c1.248-2.128,2.656-4.384,3.504-6.656
	c0.992-2.416,1.408-5.104,0.576-7.36c3.232,3.824,8.56,5.776,13.488,4.768c1.136-0.304,2.256-0.576,3.376-0.304
	C279.251,146.566,281.043,148.95,280.995,151.494z"/>
<path style="fill:#E9B02C;" d="M285.539,136.39c-0.832,0.08-1.632,0.336-2.464,0.544c2.496,2.032,4.896,4.16,6.88,6.656
	c3.04,3.808,5.168,8.544,4.896,13.456c-0.24,4.912-3.232,9.984-7.792,11.84c-4.496,1.84-9.488,0.352-13.84-1.632
	c-4.336-1.984-9.616-7.52-13.52-4.624c-3.344,2.496-2.288,8.208-4.816,11.504c-2.512,3.296-6.72,5.552-10.64,4.384
	c-1.424-0.416-2.624-1.376-3.68-2.464c2.336,6.96,7.472,11.824,14.16,8.08c5.824-2.976,6.416-11.76,11.424-15.744
	c8.624,0.816,8.96,4.256,15.232,9.456c2.544,2.368,6,3.984,9.312,2.8c4.896-1.52,7.136-15.424,6.48-17.792
	c-1.808-6.08-1.376-4.704,0.56-9.264C302.083,144.534,294.691,135.158,285.539,136.39z"/>
<path style="fill:#F4C534;" d="M409.331,191.318c-0.576-3.536,0.432-3.136-3.984-5.024c-1.584-0.768-7.104-9.344-4.224-13.36
	c1.952-2.784,5.568-4.16,8.832-4.56c7.728-1.28,9.776,0.272,16.912-4.704c1.776-5.184-2.672-10.24-0.048-15.536
	c5.792-13.008,29.376-1.28,23.04,11.104c6.416,2.096,4.416,17.2-3.264,20.128c-2.832,1.376-5.312,0.768-8.16,1.696
	c-4.8,1.744-7.6,7.072-11.744,10.8C419.683,198.326,410.051,198.678,409.331,191.318z"/>
<path style="fill:#DE9C25;" d="M423.715,181.606c-0.976-1.296-0.72-3.536,0.448-5.376c0.432-0.976,1.168-1.824,2-2.384
	c0.912-0.864,2.064-1.28,2.944-1.984c2.064-1.28,3.744-3.136,4.912-5.104c0.896-1.632,1.296-3.376,2.16-5.008
	c0.384-0.96,1.84-2,2.896-2.848c1.424,0.992,1.872,3.136,2.176,4.816c0.112,1.84,0.128,3.84,0.576,5.472
	c0.4,1.808,1.328,3.376,3.056,3.952c-4.368,0.128-9.504,2.448-12.96,6.048c-0.768,0.848-1.552,1.696-2.56,2.272
	C427.395,182.918,424.867,182.886,423.715,181.606z"/>
<path style="fill:#E9B02C;" d="M426.707,191.862c0.624-0.576,1.184-1.216,1.792-1.84c-2.88,0.624-5.728,1.136-8.4,1.184
	c-4.128,0.096-7.904-0.864-10.048-3.504c-2.128-2.64-2.336-7.136,0.288-11.04c2.608-3.84,7.264-6.256,11.68-7.968
	s11.36-2.144,12.88-6.048c1.264-3.328-2.592-5.68-2.528-9.008c0.08-3.312,1.92-7.152,5.456-8.896
	c1.296-0.624,2.704-0.832,4.096-0.88c-5.696-2.4-12.288-1.984-15.088,4.272c-2.624,5.296,1.824,10.352,0.048,15.536
	c-7.12,4.976-9.184,3.424-16.912,4.704c-3.264,0.384-6.896,1.776-8.832,4.56c-2.912,4.016,2.64,12.592,4.224,13.36
	c4.416,1.888,3.408,1.472,3.984,5.024C410.067,198.662,419.683,198.342,426.707,191.862z"/>
<path style="fill:#F4C534;" d="M399.763,118.822c-5.408,2.112-4.624,0.624-8.128,7.04c-1.408,2.384-15.008,12.32-20.352,9.568
	c-3.776-1.76-5.328-6.064-5.552-10.176c-1.12-9.616,1.376-12.624-5.68-20.576c-7.664-1.072-15.344,5.536-23.072,2.912
	c-19.008-5.968-2.176-36.928,16.64-31.456c2.944-8.4,25.728-10.304,30.368-1.6c2.128,3.2,1.232,6.672,2.592,10.064
	c2.56,5.632,10.512,7.28,15.888,11.168C411.955,102.198,411.011,114.966,399.763,118.822z"/>
<path style="fill:#DE9C25;" d="M386.723,103.638c-2.048,1.728-5.36,2.112-8.048,1.168c-1.44-0.24-2.672-0.944-3.44-1.872
	c-1.248-0.928-1.808-2.288-2.816-3.216c-1.808-2.304-4.56-3.952-7.472-4.944c-2.416-0.736-5.04-0.816-7.456-1.568
	c-1.44-0.272-2.976-1.92-4.24-3.104c1.488-2.016,4.72-3.072,7.232-3.888c2.752-0.592,5.76-1.152,8.24-2.176
	c2.704-1.024,5.088-2.72,5.936-5.12c0.272,5.6,3.664,11.584,8.928,14.864c1.264,0.704,2.512,1.424,3.312,2.544
	C388.979,98.374,388.755,101.686,386.723,103.638z"/>
<path style="fill:#E9B02C;" d="M402.467,95.766c-0.816-0.592-1.776-1.072-2.688-1.584c0.768,3.536,1.312,7.088,1.152,10.576
	c-0.256,5.376-2.224,10.752-6.496,14.512c-4.24,3.744-10.976,5.52-16.416,3.296c-5.36-2.208-8.496-7.6-10.752-12.832
	c-2.224-5.232-2.64-14.064-8.464-15.072c-4.96-0.88-8.544,4.56-13.504,5.04c-4.944,0.48-10.608-1.36-13.248-5.696
	c-0.976-1.584-1.264-3.36-1.36-5.152c-3.488,7.536-2.88,15.968,6.288,18.752c7.728,2.624,15.392-3.968,23.072-2.912
	c7.056,7.952,4.56,10.96,5.68,20.576c0.208,4.096,1.792,8.416,5.552,10.176c5.36,2.736,18.928-7.184,20.352-9.568
	c3.52-6.416,2.72-4.912,8.128-7.04C410.995,114.966,411.939,102.198,402.467,95.766z"/>
<path style="fill:#F4C534;" d="M248.131,57.846c-5.248,2.352-4.464,0.736-7.984,7.712c-1.408,2.64-14.64,13.2-19.904,10.256
	c-3.68-1.856-5.072-6.368-5.072-10.656c-0.448-10.032,2.176-13.328-3.488-21.344c-7.024-0.72-15.168,6.416-22.112,4.128
	c-17.344-4.768,5.68-37.088,21.376-33.504c4.704-9.008,25.408-13.44,27.776-4.256c1.264,3.328-0.176,7.184,0.496,10.784
	c1.44,5.968,8.528,7.344,13.072,11.44C260.259,39.158,258.931,53.574,248.131,57.846z"/>
<path style="fill:#DE9C25;" d="M236.803,41.606c-2.08,1.936-5.232,2.464-7.664,1.552c-1.328-0.224-2.384-0.912-3.008-1.856
	c-1.04-0.928-1.408-2.352-2.224-3.296c-1.392-2.352-3.664-3.968-6.224-4.848c-2.128-0.64-4.528-0.56-6.64-1.2
	c-1.296-0.192-2.416-1.808-3.36-2.944c1.776-2.192,4.928-3.52,7.376-4.56c2.656-0.8,5.488-1.616,7.952-2.896
	c2.672-1.28,5.152-3.248,6.4-5.904c-0.88,6,1.232,12.144,5.664,15.44c1.056,0.704,2.128,1.424,2.72,2.592
	C239.459,35.83,238.899,39.43,236.803,41.606z"/>
<path style="fill:#E9B02C;" d="M252.307,32.39c-0.688-0.624-1.504-1.12-2.304-1.632c0.288,3.872,0.464,7.744,0.016,11.616
	c-0.672,5.92-2.784,11.888-6.992,16c-4.208,4.128-10.736,6.032-15.872,3.728c-5.088-2.272-7.68-7.904-9.264-13.328
	s-0.656-14.704-5.872-15.408c-4.448-0.592-8.688,5.232-13.392,6.016c-4.688,0.784-9.712-0.752-11.248-4.928
	c-0.56-1.52-0.48-3.296-0.176-5.088c-4.896,7.888-5.872,16.208,2.384,18.56c6.928,2.304,15.088-4.848,22.112-4.128
	c5.632,8.016,3.024,11.312,3.488,21.344c-0.016,4.288,1.408,8.8,5.072,10.656c5.264,2.96,18.512-7.6,19.904-10.256
	c3.504-6.992,2.736-5.36,7.984-7.712C258.931,53.59,260.259,39.142,252.307,32.39z"/>
<path style="fill:#F4C534;" d="M150.851,80.646c-4.16,0.272-3.136-0.576-7.6,3.088c-1.76,1.392-13.52,5.072-15.92,1.952
	c-1.76-2.064-1.232-5.28,0.144-8.064c2.88-6.656,5.568-8.192,4.64-14.848c-4.128-2.16-11.408,0.688-14.8-2.432
	c-8.592-7.136,15.36-24.144,23.808-17.552c5.68-5.024,20.432-2.544,19.088,4.192c-0.256,2.56-2.48,4.752-3.216,7.312
	c-1.024,4.32,3.152,6.96,4.832,10.768C164.867,71.446,159.235,80.47,150.851,80.646z"/>
<path style="fill:#DE9C25;" d="M148.707,67.334c-1.968,0.784-4.176,0.352-5.408-0.816c-0.768-0.464-1.248-1.168-1.328-1.952
	c-0.368-0.864-0.144-1.888-0.352-2.72c-0.128-1.904-1.056-3.52-2.352-4.736c-1.104-0.944-2.64-1.472-3.728-2.416
	c-0.752-0.432-0.912-1.792-1.12-2.8c1.792-1.056,4.176-1.168,6.032-1.264c1.904,0.112,3.968,0.256,5.92,0.032
	c2.112-0.192,4.32-0.896,6-2.368c-2.528,3.792-3.168,8.432-1.376,11.696c0.464,0.72,0.896,1.44,0.912,2.384
	C152.291,64.182,150.771,66.406,148.707,67.334z"/>
<path style="fill:#E9B02C;" d="M161.827,65.062c-0.256-0.576-0.656-1.104-0.976-1.632c-1.088,2.608-2.256,5.184-3.792,7.6
	c-2.368,3.712-5.648,7.072-9.696,8.736c-4.032,1.68-8.832,1.376-11.376-1.328c-2.496-2.672-2.384-6.944-1.616-10.896
	c0.752-3.952,4.304-9.904,1.296-11.648c-2.544-1.472-7.04,1.424-10.144,0.832c-3.088-0.592-5.552-2.784-5.104-6.016
	c0.16-1.168,0.816-2.384,1.568-3.536c-5.424,4.256-8.832,9.696-4.672,13.168c3.376,3.12,10.672,0.272,14.8,2.432
	c0.96,6.656-1.744,8.192-4.64,14.848c-1.376,2.768-1.904,6.016-0.144,8.064c2.416,3.104,14.176-0.56,15.92-1.936
	c4.464-3.68,3.456-2.832,7.6-3.088C159.235,80.47,164.883,71.43,161.827,65.062z"/>
<path style="fill:#F4C534;" d="M338.051,27.99c-3.568,2.224-3.488,1.408-3.216,5.68c-0.528,1.408-4.432,10.624-7.472,11.792
	c-2.544,0.704-5.392-0.688-7.504-2.64c-5.232-4.272-5.696-7.152-13.072-8.176c-3.68,3.136-2.864,9.952-7.312,12.192
	c-7.568,4.864-23.104-15.856-15.024-23.728c-6.976-3.584,0.96-25.408,12.128-22.912c4.096,1.024,6.528,4.768,10.048,6.736
	c5.888,3.088,12.336,0.304,19.68,2.528C339.155,14.086,346.707,25.238,338.051,27.99z"/>
<path style="fill:#DE9C25;" d="M319.875,21.75c-0.304,2.032-2.096,3.664-4.16,4.256c-0.96,0.496-2,0.624-2.944,0.416
	c-1.184,0.016-2.32-0.544-3.36-0.64c-2.304-0.528-4.656-0.128-6.56,0.848c-1.536,0.832-2.656,2.16-4.048,3.008
	c-0.736,0.576-2.368,0.496-3.648,0.544c-0.832-1.808-0.48-4.096-0.096-5.984c0.672-1.888,1.456-4,1.776-6.192
	c0.4-2.32,0.256-5.024-1.36-7.312c4.928,3.632,10.816,5.6,16.144,5.344c1.2-0.112,2.544-0.208,3.76,0.272
	C318.115,16.918,320.051,19.59,319.875,21.75z"/>
<path style="fill:#E9B02C;" d="M326.275,9.43c-1.072-0.32-2.224-0.464-3.264-0.592c3.152,3.088,6,6.128,8.048,9.008
	c3.2,4.496,4.352,8.32,2.8,11.504c-1.6,3.152-5.36,6.128-9.312,7.104c-4,0.928-8.032-0.528-11.888-2.4
	c-3.664-1.84-9.392-6.768-12.416-4.288c-2.432,2.112-0.368,6.672-1.888,9.216c-1.472,2.56-4.464,4.208-7.744,3.296
	c-1.184-0.32-2.352-1.088-3.456-1.872c3.536,5.216,7.136,9.344,12.304,6.432c4.4-2.224,3.648-9.072,7.312-12.192
	c7.408,1.024,7.808,3.888,13.072,8.176c2.144,1.952,4.944,3.328,7.504,2.624c3.024-1.136,6.944-10.384,7.472-11.792
	c-0.288-4.288-0.304-3.456,3.216-5.68C346.675,25.222,339.091,14.118,326.275,9.43z"/>
<path style="fill:#F4C534;" d="M128.867,168.822c-5.92,3.056-5.6,1.488-8.064,7.152c-0.576,2.544-14.912,12-26.56,4.496
	c-7.344-4.32-10.416-10.064-10.144-13.664c0.64-8.944,3.824-9.008,2.56-19.728c-4.688-6.656-14.512-13.008-8.656-24.56
	c22.848-26.048,30.784-0.256,30.512,8.576c7.44,1.392,19.04,9.376,17.792,12.672c-0.544,1.648-3.472,2.896-4.224,4.784
	c-0.864,3.36,6.624,5.184,11.488,6.4C142.099,156.694,140.851,161.558,128.867,168.822z"/>
<path style="fill:#DE9C25;" d="M114.147,159.478c-2.672,0.912-6.656,0.48-9.28-1.152c-1.488-0.672-2.592-1.664-2.992-2.608
	c-0.896-1.168-0.784-2.304-1.28-3.392c-0.512-2.32-1.808-4.736-3.216-7.088c-1.216-1.92-2.8-3.824-3.376-6.016
	c-0.512-1.232,0.352-3.152,1.072-4.544c2.304,0.528,4.464,2.544,6.448,3.808c1.888,1.552,4.16,2.976,6.624,3.744
	c2.608,0.88,5.6,1.056,8.032,0.4c-4.192,2.24-5.504,6.88-1.728,10.096c0.896,0.704,1.84,1.36,2.24,2.16
	C118.051,156.422,116.899,158.406,114.147,159.478z"/>
<path style="fill:#E9B02C;" d="M133.571,154.95c-0.752-0.208-1.616-0.384-2.464-0.592c-0.272,1.728-0.4,3.52-1.088,5.52
	c-1.008,3.024-2.976,6.992-7.408,10.576c-4.32,3.616-12.736,5.568-20.864,1.44c-7.888-3.968-11.328-10.88-11.248-16
	c-0.096-5.44,5.456-10.4,2.96-15.04c-1.792-4.128-8.08-5.2-9.024-10.448c-1.008-5.168,3.936-12.656,10.528-15.536
	c2.304-1.088,4.32-1.328,6.096-1.344c-3.296-3.936-14.352-4.448-23.056,8.992c-5.872,11.536,3.936,17.888,8.656,24.576
	c1.264,10.72-1.92,10.784-2.56,19.728c-0.272,3.584,2.816,9.36,10.144,13.664c11.648,7.488,25.984-1.968,26.576-4.512
	c2.464-5.664,2.144-4.08,8.064-7.152C140.867,161.542,142.083,156.694,133.571,154.95z"/>
<path style="fill:#F4C534;" d="M205.219,135.574c-4.144-1.2-3.2-1.632-7.152-0.592c-1.392,0.704-13.36-1.728-14.72-8.688
	c-0.992-4.24,0.96-7.408,3.056-8.624c5.2-3.088,6.592-1.872,11.52-6.624c1.328-4.496,0.752-10.88,8.432-13.872
	c20.288-2.96,12.096,12.304,8.048,15.712c2.336,3.536,3.472,11.344,1.488,12.144c-0.976,0.448-2.768-0.192-3.952,0.256
	c-1.92,0.976,0.368,4.592,1.872,6.96C216.579,136.246,214.003,137.606,205.219,135.574z"/>
<path style="fill:#DE9C25;" d="M203.379,126.406c-1.6-0.688-3.104-2.368-3.424-4c-0.304-0.816-0.272-1.632,0.032-2.144
	c0.192-0.8,0.816-1.2,1.152-1.808c0.944-1.104,1.584-2.56,2.144-4.048c0.432-1.248,0.704-2.64,1.52-3.76
	c0.4-0.72,1.632-1.168,2.592-1.488c0.656,1.152,0.592,2.816,0.8,4.096c0.032,1.36,0.288,2.832,0.944,4.096
	c0.64,1.36,1.808,2.592,3.12,3.28c-2.752-0.736-5.504,0.624-5.472,3.312c0.048,0.624,0.144,1.232-0.08,1.696
	C206.547,126.758,205.075,127.078,203.379,126.406z"/>
<path style="fill:#E9B02C;" d="M213.827,132.246c-0.224-0.384-0.512-0.784-0.768-1.184c-0.912,0.544-1.824,1.184-3.056,1.664
	c-1.872,0.736-4.608,1.44-8.352,1.008c-3.68-0.368-8.608-2.976-10.08-7.52c-1.44-4.416,0.816-8.24,3.488-10.208
	c2.784-2.144,7.536-2.016,8.752-4.864c1.232-2.416-0.752-5.296,1.376-7.936c2.064-2.64,7.408-4.128,11.152-2.8
	c1.36,0.432,2.24,1.12,2.928,1.84c0.352-3.152-3.408-7.84-12.88-5.04c-7.68,2.976-7.104,9.376-8.432,13.872
	c-4.912,4.752-6.32,3.552-11.52,6.624c-2.112,1.216-4.064,4.4-3.056,8.624c1.344,6.944,13.296,9.376,14.72,8.688
	c3.984-1.04,3.04-0.608,7.152,0.592C214.003,137.622,216.579,136.23,213.827,132.246z"/>
<path style="fill:#E9EFF4;" d="M142.595,511.974c-21.888,0-40.688-15.696-44.608-37.168L52.963,226.342h50.608L142.595,511.974z"/>
<polygon style="fill:#38C0DC;" points="180.339,511.926 154.435,226.278 103.683,226.278 142.531,511.926 "/>
<polygon style="fill:#E9EFF4;" points="218.147,511.926 205.187,226.278 154.435,226.278 180.339,511.926 "/>
<polygon style="fill:#38C0DC;" points="255.955,511.926 255.955,226.278 205.187,226.278 218.147,511.926 "/>
<polygon style="fill:#E9EFF4;" points="293.763,511.926 306.707,226.278 255.955,226.278 255.955,511.926 "/>
<polygon style="fill:#38C0DC;" points="331.571,511.926 357.475,226.278 306.707,226.278 293.763,511.926 "/>
<polygon style="fill:#E9EFF4;" points="369.379,511.926 408.227,226.278 357.475,226.278 331.571,511.926 "/>
<path style="fill:#38C0DC;" d="M459.011,226.342l-45.024,248.464c-3.936,21.472-22.72,37.168-44.608,37.168l38.832-285.632
	L459.011,226.342L459.011,226.342z"/>
<path style="fill:#45CBEA;" d="M479.795,209.59c0,12.288-10.08,22.208-22.368,22.208H54.547c-12.288,0-22.368-9.92-22.368-22.208
	c0-12.288,10.08-22.208,22.368-22.208h402.88C469.715,187.398,479.795,197.318,479.795,209.59z"/>
<path style="fill:#E24B4B;" d="M383.427,455.142c-1.76-14.656-11.936-28.224-32.72-63.136c-8.688,7.344-19.536,12.64-32.352,15.248
	c-12.112,9.36-27.92,15.168-47.472,15.168c-5.824,0-11.264-0.576-16.432-1.536c25.264,46.432,53.872,100.656,103.072,78.72
	C374.307,491.958,385.971,473.366,383.427,455.142z"/>
<path style="fill:#3E4347;" d="M139.955,369.158c25.952,30.992,74.608,43.904,115.84,44.352c41.712-0.528,89.6-12.704,116.24-44.352
	c-21.824,42.432-68.544,58.736-115.84,60.096C207.011,427.862,161.123,410.198,139.955,369.158z"/>
<path style="fill:#FFFFFF;" d="M242.099,312.23c1.888,28.496-16.16,51.568-40.288,51.568s-45.216-23.072-47.104-51.568
	s16.144-51.568,40.288-51.568S240.227,283.734,242.099,312.23z"/>
<ellipse style="fill:#3E4347;" cx="201.779" cy="298.886" rx="19.728" ry="21.408"/>
<g>
	<path style="fill:#FFFFFF;" d="M210.227,289.974c-0.88,1.952-4.24,2.176-7.296,0.656s-4.784-4.384-3.872-6.224
		s4.24-2.176,7.296-0.656C209.427,285.27,211.267,288.102,210.227,289.974z"/>
	<path style="fill:#FFFFFF;" d="M269.891,312.23c-1.888,28.496,16.16,51.568,40.288,51.568c24.144,0,45.216-23.072,47.104-51.568
		s-16.144-51.568-40.288-51.568C292.851,260.662,271.763,283.734,269.891,312.23z"/>
</g>
<ellipse style="fill:#3E4347;" cx="310.211" cy="298.886" rx="19.728" ry="21.408"/>
<path style="fill:#FFFFFF;" d="M301.763,289.974c0.88,1.952,4.24,2.176,7.296,0.656s4.784-4.384,3.872-6.224
	s-4.24-2.176-7.296-0.656C302.563,285.27,300.739,288.102,301.763,289.974z"/>
<g>
	<path style="fill:#3E4347;" d="M385.251,312.182c-7.744-20.608-11.888-26.288-17.36-32.848c-8.32-9.504-21.456-16.544-27.392-24.96
		c12.368-5.008,27.664,8.064,35.008,19.072C383.491,284.854,386.899,301.014,385.251,312.182z"/>
	<path style="fill:#3E4347;" d="M171.491,254.374c-6.016,8.528-18.704,15.04-27.392,24.96c-6.048,7.248-9.52,11.904-17.36,32.848
		c-1.744-11.792,1.904-27.52,9.76-38.736C143.859,262.39,159.171,249.398,171.491,254.374z"/>
	<path style="fill:#3E4347;" d="M272.163,469.27c-5.76,1.28-10.88,0.48-16.16,0.96c-5.6-0.48-10.08,0.32-16.16-0.96
		c2.88-4,7.472-8.544,15.632-9.184C263.651,460.742,269.283,465.27,272.163,469.27z"/>
</g>
<g>
</g>
<g>
</g>
<g>
</g>
<g>
</g>
<g>
</g>
<g>
</g>
<g>
</g>
<g>
</g>
<g>
</g>
<g>
</g>
<g>
</g>
<g>
</g>
<g>
</g>
<g>
</g>
<g>
</g>
</svg>
