<?xml version="1.0" encoding="iso-8859-1"?>
<!-- Generator: Adobe Illustrator 19.0.0, SVG Export Plug-In . SVG Version: 6.00 Build 0)  -->
<svg version="1.1" id="Capa_1" xmlns="http://www.w3.org/2000/svg" xmlns:xlink="http://www.w3.org/1999/xlink" x="0px" y="0px"
	 viewBox="0 0 512.003 512.003" style="enable-background:new 0 0 512.003 512.003;" xml:space="preserve">
<circle style="fill:#FFD93B;" cx="256.001" cy="299.587" r="212.416"/>
<path style="fill:#3E4347;" d="M129.473,381.187c26.832,46.8,73.424,77.84,126.528,77.84s99.696-31.04,126.528-77.84H129.473z"/>
<path style="fill:#F4C534;" d="M256.001,512.003c-66.784,0-126.384-30.8-165.344-79.056c36.432,29.472,82.832,47.056,133.344,47.056
	c179.152,0,276.624-208.176,165.36-345.76C544.065,259.315,456.593,512.003,256.001,512.003z"/>
<path style="fill:#E9EFF4;" d="M462.993,93.699l-38.624,75.936c-112.176,21.376-224.496,21.376-336.672,0L48.913,93.427
	c-4.64-9.024-1.984-20.176,6.24-25.888c130.24-89.472,263.92-90.672,401.2,0.128C464.849,73.251,467.633,84.531,462.993,93.699z"/>
<circle style="fill:#65B1EF;" cx="256.001" cy="97.315" r="56.144"/>
<g>
	<path style="fill:#FFFFFF;" d="M290.401,97.219v0.096c0,4.624-3.824,8.448-8.448,8.448h-17.504v17.504
		c0,4.624-3.824,8.448-8.448,8.448c-4.736,0-8.544-3.824-8.544-8.448v-17.488h-17.504c-4.624,0-8.448-3.824-8.448-8.448v-0.112
		c0-4.624,3.824-8.448,8.448-8.448h17.504V71.363c0-4.624,3.824-8.448,8.544-8.448c4.624,0,8.448,3.824,8.448,8.448v17.408h17.504
		C286.577,88.771,290.401,92.595,290.401,97.219z"/>
	<path style="fill:#FFFFFF;" d="M236.961,271.747c0.864,39.552-25.312,72.128-58.432,72.848
		c-33.264,0.72-60.688-30.688-61.536-70.24s25.168-72.256,58.432-72.976C208.529,200.659,236.097,232.195,236.961,271.747z"/>
</g>
<path style="fill:#3E4347;" d="M213.441,291.123c0,16.592-13.408,30.144-30.144,30.144c-16.592,0-30.144-13.536-30.144-30.144
	c0-16.72,13.536-30.144,30.144-30.144C200.033,260.995,213.441,274.403,213.441,291.123z"/>
<g>
	
		<ellipse transform="matrix(-0.7071 -0.7071 0.7071 -0.7071 137.5805 613.9373)" style="fill:#FFFFFF;" cx="195.941" cy="278.475" rx="8.048" ry="5.248"/>
	<path style="fill:#FFFFFF;" d="M275.041,271.747c-0.864,39.552,25.312,72.128,58.432,72.848
		c33.264,0.72,60.688-30.688,61.536-70.24s-25.168-72.256-58.432-72.976C303.473,200.659,275.905,232.195,275.041,271.747z"/>
</g>
<path style="fill:#3E4347;" d="M358.833,291.123c0,16.592-13.408,30.144-30.144,30.144c-16.592,0-30.144-13.536-30.144-30.144
	c0-16.72,13.536-30.144,30.144-30.144C345.425,260.995,358.833,274.403,358.833,291.123z"/>
<g>
	
		<ellipse transform="matrix(-0.7071 -0.7071 0.7071 -0.7071 385.8029 716.6224)" style="fill:#FFFFFF;" cx="341.319" cy="278.409" rx="8.048" ry="5.248"/>
	<path style="fill:#FFFFFF;" d="M147.569,406.499h216.864c6.656-7.824,12.848-16.16,18.096-25.312H129.473
		C134.721,390.339,140.913,398.659,147.569,406.499z"/>
</g>
<path style="fill:#E24B4B;" d="M210.513,450.787c14.384,5.152,29.584,8.24,45.488,8.24c18.416,0,35.968-3.952,52.272-10.784
	c-6.384-17.52-22.272-29.6-43.136-29.6C243.281,418.643,222.385,431.875,210.513,450.787z"/>
<g>
</g>
<g>
</g>
<g>
</g>
<g>
</g>
<g>
</g>
<g>
</g>
<g>
</g>
<g>
</g>
<g>
</g>
<g>
</g>
<g>
</g>
<g>
</g>
<g>
</g>
<g>
</g>
<g>
</g>
</svg>
