<?xml version="1.0" encoding="iso-8859-1"?>
<!-- Generator: Adobe Illustrator 19.0.0, SVG Export Plug-In . SVG Version: 6.00 Build 0)  -->
<svg version="1.1" id="Capa_1" xmlns="http://www.w3.org/2000/svg" xmlns:xlink="http://www.w3.org/1999/xlink" x="0px" y="0px"
	 viewBox="0 0 512 512" style="enable-background:new 0 0 512 512;" xml:space="preserve">
<circle style="fill:#FFD93B;" cx="256" cy="256" r="256"/>
<path style="fill:#F4C534;" d="M512,256c0,141.44-114.64,256-256,256c-80.48,0-152.32-37.12-199.28-95.28
	c43.92,35.52,99.84,56.72,160.72,56.72c141.36,0,256-114.56,256-256c0-60.88-21.2-116.8-56.72-160.72
	C474.8,103.68,512,175.52,512,256z"/>
<path style="fill:#FFFFFF;" d="M238.592,284.832c0,45.568-36.944,70.128-82.496,70.128S73.6,330.384,73.6,284.832
	s58.016-134.288,103.584-134.288S238.592,239.264,238.592,284.832z"/>
<circle style="fill:#3E4347;" cx="173.12" cy="281.616" r="40.32"/>
<ellipse transform="matrix(-0.7071 -0.7071 0.7071 -0.7071 132.6712 588.158)" style="fill:#FFFFFF;" cx="188.147" cy="266.602" rx="12.96" ry="7.76"/>
<path style="fill:#3E4347;" d="M153.68,108.304c3.584-6.336,33.744-9.504,60.496,10.048c33.232,28.736,22.432,57.504,22.432,57.504
	c-6.88-16-13.008-29.328-32.672-44.416C186.416,116.752,159.312,107.536,153.68,108.304z"/>
<path style="fill:#FFFFFF;" d="M273.408,284.832c0,45.568,36.944,70.128,82.496,70.128S438.4,330.4,438.4,284.832
	s-58.016-134.288-103.584-134.288S273.408,239.264,273.408,284.832z"/>
<circle style="fill:#3E4347;" cx="338.88" cy="281.616" r="40.32"/>
<ellipse transform="matrix(-0.7071 -0.7071 0.7071 -0.7071 364.3654 684.045)" style="fill:#FFFFFF;" cx="323.853" cy="266.56" rx="7.76" ry="12.96"/>
<g>
	<path style="fill:#3E4347;" d="M358.32,108.304c-3.584-6.336-33.744-9.504-60.496,10.048
		c-33.232,28.736-22.432,57.504-22.432,57.504c6.88-16,13.008-29.328,32.672-44.416C325.584,116.752,352.688,107.536,358.32,108.304
		z"/>
	<path style="fill:#3E4347;" d="M340.016,419.536c-4.224,9.696-17.36,12.112-24.64,3.2l-0.16-0.16
		c-13.12-16.384-31.696-26.72-55.36-26.72c-22.224,0.448-41.504,11.568-57.28,27.36c-5.44,5.92-14.56,6.08-20.32,0.64
		c-5.76-5.44-6.08-14.56-0.64-20.32c4.672-5.136,48.112-23.024,77.92-23.52c33.792-0.848,56.96,13.616,72.96,20.48
		C339.856,403.696,343.216,412.336,340.016,419.536z"/>
</g>
<path style="fill:#F4C534;" d="M281.456,421.296h-38.08C250.784,410.928,272.224,409.536,281.456,421.296z"/>
<g>
</g>
<g>
</g>
<g>
</g>
<g>
</g>
<g>
</g>
<g>
</g>
<g>
</g>
<g>
</g>
<g>
</g>
<g>
</g>
<g>
</g>
<g>
</g>
<g>
</g>
<g>
</g>
<g>
</g>
</svg>
