<?xml version="1.0" encoding="iso-8859-1"?>
<!-- Generator: Adobe Illustrator 19.0.0, SVG Export Plug-In . SVG Version: 6.00 Build 0)  -->
<svg version="1.1" id="Capa_1" xmlns="http://www.w3.org/2000/svg" xmlns:xlink="http://www.w3.org/1999/xlink" x="0px" y="0px"
	 viewBox="0 0 511.998 511.998" style="enable-background:new 0 0 511.998 511.998;" xml:space="preserve">
<rect x="478.312" y="103.039" style="fill:#3E4347;" width="8.448" height="164.512"/>
<path style="fill:#E24B4B;" d="M501.288,293.359c-12.32,8.832-24.88,8.112-37.68,0c0,0,8.272-14.832,10.048-23.024
	c0.08-0.32,0.08-1.456,0.08-2.832c0-4.784,3.968-8.592,8.672-8.592c4.784,0,8.672,3.808,8.752,8.592c0,1.376,0,2.512,0.08,2.832
	C492.936,278.527,501.288,293.359,501.288,293.359z"/>
<path style="fill:#3E4347;" d="M492.392,265.999c0,0.864-0.688,1.552-1.552,1.552h-16.976c-0.688,0-1.376-0.688-1.376-1.552
	s0.688-1.552,1.376-1.552h16.976C491.704,264.447,492.392,265.135,492.392,265.999z"/>
<circle style="fill:#FFD93B;" cx="255.976" cy="287.615" r="182.496"/>
<path style="fill:#3E4347;" d="M357.736,378.527c-25.6,26.912-61.696,43.584-101.712,43.584c-41.088,0-78.016-17.632-103.728-45.728
	c-6.08-6.672,1.552-17.024,9.76-13.456c64.08,28.576,126.128,29.296,186.144,1.904C356.904,360.895,364.28,371.615,357.736,378.527z
	"/>
<path style="fill:#F4C534;" d="M438.472,287.615c0,100.832-81.728,182.496-182.496,182.496c-57.376,0-108.592-26.464-142.064-67.92
	c31.312,25.328,71.168,40.432,114.576,40.432c100.768,0,182.496-81.664,182.496-182.496c0-43.408-15.12-83.264-40.432-114.576
	C411.96,179.023,438.472,230.239,438.472,287.615z"/>
<path style="fill:#3E4347;" d="M421.832,211.903c-106.56,18.016-217.12,18.016-331.696,0
	c24.304-84.528,89.312-145.088,165.856-145.088C332.52,66.815,397.432,127.375,421.832,211.903z"/>
<path style="fill:#5A5F63;" d="M508.312,104.175l-251.36,53.12c-0.624,0.128-1.28,0.128-1.92,0l-251.36-53.12
	c-4.896-1.04-4.896-8.032,0-9.072l251.376-53.12c0.624-0.128,1.28-0.128,1.92,0l251.36,53.12
	C513.224,96.143,513.224,103.135,508.312,104.175z"/>
<path style="fill:#FFFFFF;" d="M240.568,292.895c0,30.608-20.96,55.36-47.024,55.36c-25.952,0-47.024-24.752-47.024-55.36
	c0-30.464,21.088-55.216,47.024-55.216C219.608,237.663,240.568,262.431,240.568,292.895z"/>
<ellipse style="fill:#3E4347;" cx="193.592" cy="300.895" rx="21.536" ry="21.6"/>
<g>
	
		<ellipse transform="matrix(-0.7071 -0.7071 0.7071 -0.7071 136.8143 642.6041)" style="fill:#FFFFFF;" cx="201.495" cy="292.967" rx="7.296" ry="4.224"/>
	<path style="fill:#FFFFFF;" d="M365.432,292.895c0,30.608-20.96,55.36-47.024,55.36c-25.952,0-47.024-24.752-47.024-55.36
		c0-30.464,21.088-55.216,47.024-55.216C344.472,237.663,365.432,262.431,365.432,292.895z"/>
</g>
<ellipse style="fill:#3E4347;" cx="318.408" cy="300.895" rx="21.536" ry="21.6"/>
<ellipse transform="matrix(-0.7071 -0.7071 0.7071 -0.7071 349.9945 730.9089)" style="fill:#FFFFFF;" cx="326.373" cy="292.968" rx="7.296" ry="4.224"/>
<path style="fill:#3E4347;" d="M276.168,99.567c0,3.52-8.96,6.4-20.16,6.4c-11.2,0-20.16-2.88-20.16-6.4
	c0-3.36,8.96-6.24,20.16-6.24C267.208,93.327,276.168,96.207,276.168,99.567z"/>
<g>
</g>
<g>
</g>
<g>
</g>
<g>
</g>
<g>
</g>
<g>
</g>
<g>
</g>
<g>
</g>
<g>
</g>
<g>
</g>
<g>
</g>
<g>
</g>
<g>
</g>
<g>
</g>
<g>
</g>
</svg>
