<?xml version="1.0" encoding="iso-8859-1"?>
<!-- Generator: Adobe Illustrator 19.0.0, SVG Export Plug-In . SVG Version: 6.00 Build 0)  -->
<svg version="1.1" id="Capa_1" xmlns="http://www.w3.org/2000/svg" xmlns:xlink="http://www.w3.org/1999/xlink" x="0px" y="0px"
	 viewBox="0 0 512 512" style="enable-background:new 0 0 512 512;" xml:space="preserve">
<circle style="fill:#FFD93B;" cx="256" cy="256" r="256"/>
<path style="fill:#F4C534;" d="M512,256c0,141.44-114.64,256-256,256c-80.48,0-152.32-37.12-199.28-95.28
	c43.92,35.52,99.84,56.72,160.72,56.72c141.36,0,256-114.56,256-256c0-60.88-21.2-116.8-56.72-160.72
	C474.8,103.68,512,175.52,512,256z"/>
<path style="fill:#FFFFFF;" d="M238.544,191.68c-6.928,118.944-37.488,107.232-83.84,107.232c-42.72,0-74.64-48.016-71.184-107.232
	s40.976-107.232,83.696-107.232C210.064,84.448,241.984,132.464,238.544,191.68z"/>
<path style="fill:#3E4347;" d="M207.504,228.224c0,18.88-15.136,34.192-34.016,34.192c-18.72,0-34.016-15.312-34.016-34.192
	c0-18.704,15.312-34.016,34.016-34.016C192.352,194.208,207.504,209.52,207.504,228.224z"/>
<g>
	
		<ellipse transform="matrix(-0.7071 -0.7071 0.7071 -0.7071 165.4843 499.6535)" style="fill:#FFFFFF;" cx="186.224" cy="215.554" rx="9.76" ry="6.64"/>
	<path style="fill:#FFFFFF;" d="M273.456,191.68c6.928,118.944,37.488,107.232,83.84,107.232c42.72,0,74.64-48.016,71.184-107.232
		S387.504,84.448,344.784,84.448C301.936,84.448,270.016,132.464,273.456,191.68z"/>
</g>
<path style="fill:#3E4347;" d="M372.544,228.224c0,18.88-15.136,34.192-34.016,34.192c-18.72,0-34.016-15.312-34.016-34.192
	c0-18.704,15.312-34.016,34.016-34.016C357.392,194.208,372.544,209.52,372.544,228.224z"/>
<ellipse transform="matrix(-0.7071 -0.7071 0.7071 -0.7071 447.2151 616.3586)" style="fill:#FFFFFF;" cx="351.26" cy="215.558" rx="9.76" ry="6.64"/>
<path style="fill:#3E4347;" d="M432.976,349.312c-7.2,2.4-22.992,1.152-29.12-4.96c-33.984,63.024-80.352,86.752-130.08,94.56
	c-49.216,8.688-122.624-22.096-147.68-61.44c-4.208,5.488-8.512,7.76-14.4,9.6c-5.44,1.44-9.6-0.16-9.28-0.48
	c1.392,1.392,19.264-13.488,25.76-31.68c2.08-4.48,4-7.68,4-7.68c3.264,8.144,0.096,23.744-4.8,28.64
	c48.352,36.24,121.952,44.304,143.84,39.2c70.304-9.584,103.776-46.88,131.2-71.84c-4.224-3.264-7.84-8.224-9.28-14.4
	c-1.44-5.44,0-9.44,0.32-8.96C393.456,330,424.016,344.608,432.976,349.312z"/>
<g>
</g>
<g>
</g>
<g>
</g>
<g>
</g>
<g>
</g>
<g>
</g>
<g>
</g>
<g>
</g>
<g>
</g>
<g>
</g>
<g>
</g>
<g>
</g>
<g>
</g>
<g>
</g>
<g>
</g>
</svg>
