<?xml version="1.0" encoding="iso-8859-1"?>
<!-- Generator: Adobe Illustrator 19.0.0, SVG Export Plug-In . SVG Version: 6.00 Build 0)  -->
<svg version="1.1" id="Capa_1" xmlns="http://www.w3.org/2000/svg" xmlns:xlink="http://www.w3.org/1999/xlink" x="0px" y="0px"
	 viewBox="0 0 512.001 512.001" style="enable-background:new 0 0 512.001 512.001;" xml:space="preserve">
<circle style="fill:#FFD93B;" cx="256.001" cy="223.584" r="223.584"/>
<path style="fill:#3E4347;" d="M394.641,290.352c-21.52,55.472-75.456,94.88-138.624,94.88s-117.104-39.408-138.624-94.88
	c-2.656-6.848,3.488-13.696,10.48-12.016c85.376,19.008,170.896,19.008,256.288,0C391.137,276.656,397.297,283.504,394.641,290.352z
	"/>
<path style="fill:#F4C534;" d="M479.585,223.584c0,123.536-100.128,223.584-223.584,223.584c-70.288,0-133.04-32.416-174.048-83.216
	c38.352,31.024,87.2,49.536,140.368,49.536c123.456,0,223.584-100.048,223.584-223.584c0-53.168-18.512-102.016-49.536-140.368
	C447.105,90.56,479.585,153.296,479.585,223.584z"/>
<circle style="fill:#FFFFFF;" cx="171.601" cy="183.024" r="70.944"/>
<path style="fill:#F4C534;" d="M186.337,90.768c-5.2,1.008-11.968,1.664-17.264,2.096c0,0-25.744,3.232-51.872,23.264
	c-29.152,24.896-33.856,47.024-39.488,62.16c-6.688-29.424,5.888-55.984,28.496-75.792
	C132.001,83.264,157.217,78.992,186.337,90.768z"/>
<circle style="fill:#3E4347;" cx="171.601" cy="183.024" r="30.816"/>
<g>
	
		<ellipse transform="matrix(-0.7071 -0.7071 0.7071 -0.7071 191.8705 422.0625)" style="fill:#FFFFFF;" cx="183.347" cy="171.294" rx="9.872" ry="5.856"/>
	<circle style="fill:#FFFFFF;" cx="340.401" cy="183.024" r="70.944"/>
</g>
<path style="fill:#F4C534;" d="M325.665,90.768c5.2,1.008,11.968,1.664,17.264,2.096c0,0,25.744,3.232,51.872,23.264
	c29.152,24.896,33.856,47.024,39.488,62.16c6.688-29.424-5.888-55.984-28.496-75.776C380.001,83.264,354.785,78.992,325.665,90.768z
	"/>
<circle style="fill:#3E4347;" cx="340.401" cy="183.024" r="30.816"/>
<ellipse transform="matrix(-0.7071 -0.7071 0.7071 -0.7071 439.9244 524.7495)" style="fill:#FFFFFF;" cx="328.641" cy="171.263" rx="5.856" ry="9.872"/>
<path style="fill:#E24B4B;" d="M208.289,378c25.168,14.88,44.144,39.92,51.712,68.32c1.6,5.968,2.784,12.208,4.144,18.368
	c1.504,3.376,2.896,6.88,4.064,10.656c5.456,17.792,23.2,19.84,41.232,13.104c30.448-11.392,46.56-44.816,40.4-76.736
	c-13.408-69.616-73.12-82.928-90.512-72.72c-4.32,2.528-9.36,3.152-14.192,1.84C211.121,331.632,194.273,369.52,208.289,378z"/>
<path style="fill:#FFFFFF;" d="M136.737,280.064c27.344,39.584,58.496,43.872,119.248,43.872s91.952-4.288,119.296-43.872
	C295.809,296.528,216.225,296.528,136.737,280.064z"/>
<g>
	<path style="fill:#65B1EF;" d="M367.297,339.184c-6.304,8.96-6.768,9.168-3.856,18.704c2.24,6-5.168,5.984-2.544,0.72
		c2.56-5.632-2.912-6.224-4.096-0.848c-2.992,13.952,0.784,24.544,5.68,31.76c3.072,9.376-10.288,13.952-8.32,2.928
		c2.656-14.96-11.648-42.016-0.976-58.704C358.897,318.88,376.785,324.96,367.297,339.184z"/>
	<path style="fill:#65B1EF;" d="M351.601,411.696c-0.704,2.512-3.92,4.464-6.016,2.928c-2.096-1.68-1.12-5.024-1.12-7.824
		c0.192-6.256-5.056-10.464-9.92-14.112c-2.288-1.52-13.264-10.496-15.648-9.776c-2.048,0.368-3.52,3.088-0.416,8.24
		c8.432,13.968,25.024,59.04,14.256,60.64c-2.24,0.416-4.192-1.952-4.336-4.192c-0.272-2.368,0.704-4.608,1.264-6.848
		c4.896-19.04-17.232-33.568-19.712-51.984c-0.688-5.584,0.272-11.6-2.24-16.624c-2.24-4.336-6.848-7.264-7.968-11.872
		c-2.304-10.08,11.616-16.32,18.032-9.92c0.752,0.368,1.76,1.152,2.24,1.952c0.224,0.112,0.688,0.432,0.688,0.704
		c2.96,2.368,6.944-1.456,9.088,1.68c19.36,28.4,19.056,46.704,20.256,49.472C351.185,406.528,352.161,409.184,351.601,411.696z"/>
	<path style="fill:#65B1EF;" d="M278.273,488.16c0.272,2.096,0.976,4.192,0.832,6.288c0,9.296-10.448,7.904-9.232-7.12
		c2.736-33.856,3.344-27.904-5.728-44.576c-2.096-1.392-8.24-4.048-7.552-7.264c0.704-2.8,7.264-2.24,8.672-0.704
		c-1.952-2.096-0.144-6.144,2.656-6.848c8.592-2.576,16.976,15.568,21.664,23.616C301.041,471.184,274.881,465.408,278.273,488.16z"
		/>
	<path style="fill:#65B1EF;" d="M189.073,388.784c-4.528,0-3.744-5.52-4.048-9.504c0-14.336-24.496,0.304-19.28,15.504
		c1.12,2.928,2.928,5.456,4.048,8.24c2.96,7.776-2.592,12.304-8.24,9.648c-10.16-5.376-2.272-30.432-1.392-42.208
		c0.832-9.088-0.56-18.592-6.016-25.712c0.976-1.536,2.928-2.8,4.752-2.24c2.24,0.704,3.072,3.36,4.896,4.608
		c2.512,1.824,5.872,0.704,8.8,1.264C183.441,350.368,201.409,389.808,189.073,388.784z"/>
	<path style="fill:#65B1EF;" d="M286.753,511.232c-5.136-2.8,0.832-26.56,1.76-32.672
		C298.881,508.416,291.537,514.432,286.753,511.232z"/>
</g>
<g>
</g>
<g>
</g>
<g>
</g>
<g>
</g>
<g>
</g>
<g>
</g>
<g>
</g>
<g>
</g>
<g>
</g>
<g>
</g>
<g>
</g>
<g>
</g>
<g>
</g>
<g>
</g>
<g>
</g>
</svg>
