<?xml version="1.0" encoding="iso-8859-1"?>
<!-- Generator: Adobe Illustrator 19.0.0, SVG Export Plug-In . SVG Version: 6.00 Build 0)  -->
<svg version="1.1" id="Capa_1" xmlns="http://www.w3.org/2000/svg" xmlns:xlink="http://www.w3.org/1999/xlink" x="0px" y="0px"
	 viewBox="0 0 512.032 512.032" style="enable-background:new 0 0 512.032 512.032;" xml:space="preserve">
<path style="fill:#3E4347;" d="M488.928,127.04c0,70.176-100.912,78.992-229.6,78.992c-128.576,0-236.208-8.816-236.208-78.992
	C178.256,87.248,333.52,87.312,488.928,127.04z"/>
<circle style="fill:#FFD93B;" cx="256.016" cy="289.92" r="222.112"/>
<path style="fill:#3E4347;" d="M391.984,376.816c-28.592,44.832-78.704,74.544-135.904,74.544
	c-57.184,0-107.312-29.712-136.048-74.544c-5.696-8.88,2.64-20.272,12.768-17.36c82.176,23.184,164.224,23.184,246.4,0
	C389.344,356.544,397.68,367.92,391.984,376.816z"/>
<path style="fill:#F4C534;" d="M478.128,289.888c0,122.72-99.472,222.112-222.112,222.112c-69.824,0-132.16-32.208-172.896-82.672
	c38.112,30.816,86.624,49.216,139.44,49.216c122.64,0,222.112-99.392,222.112-222.112c0-52.816-18.4-101.344-49.216-139.44
	C445.856,157.728,478.128,220.064,478.128,289.888z"/>
<path style="fill:#FFFFFF;" d="M242.368,280.752c0,36.656-28.528,66.416-63.52,66.416c-35.12,0-63.52-29.76-63.52-66.416
	s28.4-66.416,63.52-66.416C213.84,214.336,242.368,244.096,242.368,280.752z"/>
<path style="fill:#3E4347;" d="M206.976,296.032c-0.112,16.512-13.424,29.696-29.696,29.808c-16.512,0-29.568-13.184-29.456-29.696
	c0-16.272,13.296-29.456,29.696-29.568C193.792,266.592,207.088,279.776,206.976,296.032z"/>
<g>
	
		<ellipse transform="matrix(-0.7041 -0.7101 0.7101 -0.7041 117.3126 620.825)" style="fill:#FFFFFF;" cx="188.005" cy="285.97" rx="9.744" ry="5.392"/>
	<path style="fill:#FFFFFF;" d="M396.704,280.752c0,36.656-28.528,66.416-63.52,66.416c-35.12,0-63.52-29.76-63.52-66.416
		s28.4-66.416,63.52-66.416C368.176,214.336,396.704,244.096,396.704,280.752z"/>
</g>
<path style="fill:#3E4347;" d="M361.312,296.032c-0.112,16.512-13.424,29.696-29.696,29.808c-16.512,0-29.568-13.184-29.456-29.696
	c0-16.272,13.296-29.456,29.696-29.568C348.128,266.592,361.424,279.776,361.312,296.032z"/>
<ellipse transform="matrix(-0.7041 -0.7101 0.7101 -0.7041 380.3036 730.4216)" style="fill:#FFFFFF;" cx="342.336" cy="285.974" rx="9.744" ry="5.392"/>
<path style="fill:#DEE4E9;" d="M66.304,127.024c22.016,104.464,98.912,124.72,189.776,124.72s167.056-20.256,189.056-124.72H66.304z
	"/>
<g>
	<path style="fill:#3E4347;" d="M91.648,189.264c35.04,50.832,95.712,62.48,164.432,62.48c68.56,0,128.736-11.584,163.616-62.128
		C309.152,215.632,202.72,216.016,91.648,189.264z"/>
	<path style="fill:#3E4347;" d="M23.104,127.024C23.104,56.864,127.376,0,256.016,0s232.912,56.864,232.912,127.024"/>
	<path style="fill:#3E4347;" d="M488.928,127.024c0,49.12-104.176,50.4-232.864,50.4c-128.576,0-232.944-1.28-232.944-50.4
		C178.256,99.168,333.52,99.216,488.928,127.024z"/>
</g>
<path style="fill:#65B1EF;" d="M306.896,48.992v30.336c0,31.136-19.664,59.008-48.896,69.44c-1.28,0.4-2.704,0.4-3.984,0
	c-29.232-10.432-48.896-38.304-48.896-69.44V48.992c0-3.024,2.384-5.408,5.408-5.568c22.544-1.2,36.24-9.712,42.128-14.416
	c1.984-1.6,4.704-1.6,6.688,0c5.888,4.704,19.584,13.216,42.128,14.416C304.512,43.584,306.896,45.968,306.896,48.992z"/>
<g>
	<path style="fill:#FFFFFF;" d="M274.208,88.592c-1.008,0.976-1.472,2.384-1.232,3.744l2.096,12.16
		c0.576,3.456-3.056,6.096-6.16,4.464l-10.928-5.728c-1.232-0.656-2.704-0.656-3.936,0l-10.928,5.728
		c-3.104,1.632-6.752-1.008-6.144-4.464l2.048-12.16c0.256-1.376-0.224-2.784-1.184-3.744l-8.832-8.624
		c-2.528-2.448-1.152-6.752,2.352-7.248l12.192-1.76c1.408-0.176,2.592-1.088,3.216-2.304l5.44-11.072
		c1.552-3.136,6.064-3.136,7.616,0l5.44,11.072c0.656,1.232,1.84,2.128,3.216,2.304l12.192,1.76c3.504,0.512,4.864,4.8,2.384,7.248
		L274.208,88.592z"/>
	<path style="fill:#FFFFFF;" d="M143.2,362.016c29.456,33.68,59.984,43.152,112.896,43.152c52.896,0,83.472-9.488,112.864-43.184
		C293.664,381.472,218.48,381.472,143.2,362.016z"/>
</g>
<g>
</g>
<g>
</g>
<g>
</g>
<g>
</g>
<g>
</g>
<g>
</g>
<g>
</g>
<g>
</g>
<g>
</g>
<g>
</g>
<g>
</g>
<g>
</g>
<g>
</g>
<g>
</g>
<g>
</g>
</svg>
