<?xml version="1.0" encoding="iso-8859-1"?>
<!-- Generator: Adobe Illustrator 19.0.0, SVG Export Plug-In . SVG Version: 6.00 Build 0)  -->
<svg version="1.1" id="Capa_1" xmlns="http://www.w3.org/2000/svg" xmlns:xlink="http://www.w3.org/1999/xlink" x="0px" y="0px"
	 viewBox="0 0 512 512" style="enable-background:new 0 0 512 512;" xml:space="preserve">
<circle style="fill:#FFD93B;" cx="256" cy="256" r="256"/>
<path style="fill:#F4C534;" d="M512,256c0,141.44-114.64,256-256,256c-80.48,0-152.32-37.12-199.28-95.28
	c43.92,35.52,99.84,56.72,160.72,56.72c141.36,0,256-114.56,256-256c0-60.88-21.2-116.8-56.72-160.72
	C474.8,103.68,512,175.52,512,256z"/>
<g>
	<ellipse style="fill:#FFFFFF;" cx="354.56" cy="215.856" rx="71.104" ry="89.264"/>
	<ellipse style="fill:#FFFFFF;" cx="354.56" cy="215.856" rx="71.104" ry="89.264"/>
	<ellipse style="fill:#FFFFFF;" cx="354.56" cy="215.856" rx="71.104" ry="89.264"/>
</g>
<path style="fill:#3E4347;" d="M310.096,231.184c0,21.088,17.072,38.016,38.016,38.016c21.088,0,38.176-16.928,38.176-38.016
	s-17.088-38.16-38.16-38.16C327.184,193.024,310.096,210.096,310.096,231.184z"/>
<path style="fill:#FFFFFF;" d="M325.76,226.272c2.928,2.928,9.232,1.392,14.16-3.536c4.768-4.768,6.464-11.232,3.392-14.16
	c-2.768-2.768-9.232-1.072-14,3.696C324.384,217.024,322.992,223.344,325.76,226.272z"/>
<path style="fill:#65B1EF;" d="M403.184,241.616c-12.864,3.008-15.056-6.832-27.92-3.968c-12.864,3.008-10.672,12.72-23.52,15.6
	c-12.864,2.88-15.056-6.848-27.92-3.968c-12.864,2.864-10.672,12.72-23.536,15.6c-1.856,0.416-3.408,0.448-4.88,0.416
	c12.752,24.016,34.48,39.872,59.168,39.872c36.256,0,66.208-34.24,70.576-78.336C414.704,230.256,415.376,238.912,403.184,241.616z"
	/>
<path style="fill:#FFD93B;" d="M301.568,315.36c78.048,14.208,125.504-12.864,146.256-75.664
	C447.824,239.696,346.08,245.152,301.568,315.36z"/>
<path style="fill:#F4C534;" d="M447.856,239.712c-26.176-4.768-73.152,4.832-99.696,22.624
	c-21.328,12.96-37.248,29.824-46.624,53.072c27.632-25.168,20.224-19.632,54.048-40.208
	C376.096,262.256,429.392,245.52,447.856,239.712z"/>
<path style="fill:#65B1EF;" d="M422.24,235.536c0,0,1.232,5.136-6.368,7.584c-16,5.184-32.576,9.168-28.512,40.624
	c1.648,12.72,9.232,26.592,9.84,31.664c1.936,15.872-22.736,21.792-18.464-3.344c1.84-10.88,4.416-25.136-4.048-32.672
	s-11.536-0.768-17.28,6.624s-10.672,4.512-11.696,13.536s-6.976,15.392-12.512,7.184s-1.024-16.208-1.024-20.928
	s-0.032,0.416-7.808,7.184c-21.456,18.672,1.312,34.048-2.24,50.064c-1.648,7.392-2.88,10.672-7.792,10.256
	c-4.928-0.416-5.776-3.072-4.224-14.56c2.848-21.072,4.96-26.208-14.688-73.44l8.848,5.264l52.928-16.56
	c25.632-11.136,14.32-7.728,45.552-12.816c10.048-1.648,18.368-10.064,18.368-10.064"/>
<g>
	<ellipse style="fill:#FFFFFF;" cx="157.424" cy="215.856" rx="71.104" ry="89.264"/>
	<ellipse style="fill:#FFFFFF;" cx="157.424" cy="215.856" rx="71.104" ry="89.264"/>
	<ellipse style="fill:#FFFFFF;" cx="157.424" cy="215.856" rx="71.104" ry="89.264"/>
</g>
<path style="fill:#3E4347;" d="M201.904,231.184c0,21.088-17.072,38.016-38.016,38.016c-21.088,0-38.176-16.928-38.176-38.016
	s17.088-38.16,38.16-38.16C184.816,193.024,201.904,210.096,201.904,231.184z"/>
<path style="fill:#FFFFFF;" d="M186.24,226.272c-2.928,2.928-9.232,1.392-14.16-3.536c-4.768-4.768-6.464-11.232-3.392-14.16
	c2.768-2.768,9.232-1.072,14,3.696C187.616,217.024,189.008,223.344,186.24,226.272z"/>
<path style="fill:#65B1EF;" d="M108.816,241.616c12.864,3.008,15.056-6.832,27.92-3.968c12.864,3.008,10.672,12.72,23.52,15.6
	c12.864,2.88,15.056-6.848,27.92-3.968c12.864,2.864,10.672,12.72,23.536,15.6c1.856,0.416,3.408,0.448,4.88,0.416
	c-12.752,24.016-34.48,39.872-59.168,39.872c-36.256,0-66.208-34.24-70.576-78.336C97.296,230.256,96.624,238.912,108.816,241.616z"
	/>
<path style="fill:#FFD93B;" d="M210.432,315.36c-78.048,14.208-125.504-12.864-146.256-75.664
	C64.176,239.696,165.92,245.152,210.432,315.36z"/>
<path style="fill:#F4C534;" d="M64.144,239.712c26.176-4.768,73.152,4.832,99.696,22.624c21.328,12.96,37.248,29.824,46.624,53.072
	c-27.632-25.168-20.224-19.632-54.048-40.208C135.904,262.256,82.608,245.52,64.144,239.712z"/>
<path style="fill:#65B1EF;" d="M213.776,270.736l0.48,0.16c-0.64,1.76-1.6,4-2.4,6.24c-4.8,35.936-25.344,27.296-26.56,60.32
	c0,13.328-12.16,10.4-9.76,1.28c0.8-3.04,3.04-5.6,4.16-8.64c2.736-7.456-4.128-37.408-6.56-39.84c-4.64-4.64-13.28,1.28-19.04-2.08
	c-2.24-1.28-3.52-4-4.64-6.4c-4.224-9.648-9.856-9.152-11.52-5.6c-1.12,2.4,0.16,6.24-2.4,7.2c-2.08,0.96-3.84-1.92-3.84-4.32
	c0-2.24,0.64-4.96-0.96-6.56c-2.24-2.4-6.08-0.48-9.28-0.96c-3.84-0.64-5.76-4.64-8.32-7.52c-8.208-9.472-26.912-12.064-23.2-26.08
	c-0.656-1.744,0.432-4.768,0.96-6.88c10.768,10.976,21.456,10.56,43.52,14.08c22.768,9.856,18.688,8.416,30.88,12.16
	c2.4,0,4.8,0,7.2-0.16l37.76,12.48c2.24-1.44,5.44-3.68,6.4-4.32C215.856,267.216,214.576,268.976,213.776,270.736z"/>
<path style="fill:#3E4347;" d="M166.72,419.296c0,0,67.392-77.248,180.112-46.912c21.36,5.744,12.64,42.64-11.232,32.496
	c-67.2-28.544-124.416-9.136-156.592,27.152c-3.264,3.648-8.656,3.776-12.048,0.256C163.568,428.768,163.456,422.944,166.72,419.296
	z"/>
<path style="fill:#F4C534;" d="M286.16,426.096l2.304,5.296c2.016,4.608-2.416,9.424-6.736,7.296
	c-14.528-7.2-28.768-7.76-45.168,0.048c-4.032,1.92-8.16-2.48-6.48-6.832C242.08,400.88,277.84,407.008,286.16,426.096z"/>
<g>
	<path style="fill:#3E4347;" d="M415.056,90.24c0,0-41.792,6.816-61.28,11.36c-5.44,1.456-58.4,21.76-58.4,16.32
		c2.752-20.592,32.832-31.488,54.88-34.08c23.312-3.424,50.336-0.064,64.16,5.12C414.896,89.12,415.216,89.76,415.056,90.24z"/>
	<path style="fill:#3E4347;" d="M216.656,117.92c0,0.688-0.528,1.44-1.44,1.44c-8.144-0.512-40.96-13.488-56.96-17.76
		c-43.408-10.128-87.584-10.368-41.12-17.28c12-1.92,28.16-2.88,44.48-0.48C184.16,86.496,212.288,96.064,216.656,117.92z"/>
</g>
<g>
</g>
<g>
</g>
<g>
</g>
<g>
</g>
<g>
</g>
<g>
</g>
<g>
</g>
<g>
</g>
<g>
</g>
<g>
</g>
<g>
</g>
<g>
</g>
<g>
</g>
<g>
</g>
<g>
</g>
</svg>
