<?xml version="1.0" encoding="iso-8859-1"?>
<!-- Generator: Adobe Illustrator 19.0.0, SVG Export Plug-In . SVG Version: 6.00 Build 0)  -->
<svg version="1.1" id="Capa_1" xmlns="http://www.w3.org/2000/svg" xmlns:xlink="http://www.w3.org/1999/xlink" x="0px" y="0px"
	 viewBox="0 0 512 512" style="enable-background:new 0 0 512 512;" xml:space="preserve">
<circle style="fill:#FFD93B;" cx="256" cy="256" r="256"/>
<path style="fill:#3E4347;" d="M381.936,379.376c-21.76,44.96-67.2,78.08-125.92,78.08s-104.16-33.12-125.92-78.08
	c-6.08-12.48,2.56-27.2,15.36-26.4c73.28,4.96,147.84,4.96,221.12,0C379.216,352.176,387.696,366.896,381.936,379.376z"/>
<path style="fill:#F4C534;" d="M512,256c0,141.44-114.64,256-256,256c-80.48,0-152.32-37.12-199.28-95.28
	c43.92,35.52,99.84,56.72,160.72,56.72c141.36,0,256-114.56,256-256c0-60.88-21.2-116.8-56.72-160.72
	C474.8,103.68,512,175.52,512,256z"/>
<circle style="fill:#FFFFFF;" cx="154.624" cy="236.336" r="80.8"/>
<circle style="fill:#3E4347;" cx="154.624" cy="236.336" r="39.488"/>
<g>
	
		<ellipse transform="matrix(-0.7071 -0.7071 0.7071 -0.7071 129.8115 499.1501)" style="fill:#FFFFFF;" cx="168.283" cy="222.69" rx="11.888" ry="8.192"/>
	<circle style="fill:#FFFFFF;" cx="357.376" cy="236.336" r="80.8"/>
</g>
<circle style="fill:#3E4347;" cx="357.376" cy="236.336" r="39.488"/>
<ellipse transform="matrix(-0.7071 -0.7071 0.7071 -0.7071 475.9451 642.5115)" style="fill:#FFFFFF;" cx="371.041" cy="222.684" rx="11.888" ry="8.192"/>
<g>
	<path style="fill:#3E4347;" d="M448.304,156.08c-3.744,5.168-11.52,6.384-16.864,2.384c-57.776-44.08-117.136-38.432-117.76-38.288
		c-6.56,0.752-12.496-4.08-13.248-10.656c-0.752-6.56,3.92-12.464,10.496-13.2c2.88-0.352,69.344-7.216,135.024,43.04
		C451.328,143.344,452.304,150.848,448.304,156.08z"/>
	<path style="fill:#3E4347;" d="M63.696,156.08c3.744,5.168,11.52,6.384,16.864,2.384c57.776-44.08,117.136-38.432,117.76-38.288
		c6.56,0.752,12.496-4.08,13.248-10.656c0.752-6.56-3.92-12.464-10.496-13.2c-2.88-0.352-69.344-7.216-135.024,43.04
		C60.672,143.344,59.696,150.848,63.696,156.08z"/>
</g>
<g>
	<path style="fill:#FFFFFF;" d="M165.296,353.984c16.672,38.64,50.976,36.512,90.64,36.512s73.968,2.128,90.64-36.512
		C286.368,357.328,225.52,357.328,165.296,353.984z"/>
	<path style="fill:#FFFFFF;" d="M334.752,433.84c-19.664-14.976-47.664-13.856-78.816-13.856c-31.104,0-59.072-1.12-78.736,13.808
		c21.808,14.736,48.496,23.68,78.816,23.68C286.304,457.456,312.96,448.544,334.752,433.84z"/>
</g>
<g>
</g>
<g>
</g>
<g>
</g>
<g>
</g>
<g>
</g>
<g>
</g>
<g>
</g>
<g>
</g>
<g>
</g>
<g>
</g>
<g>
</g>
<g>
</g>
<g>
</g>
<g>
</g>
<g>
</g>
</svg>
