<?xml version="1.0" encoding="iso-8859-1"?>
<!-- Generator: Adobe Illustrator 19.0.0, SVG Export Plug-In . SVG Version: 6.00 Build 0)  -->
<svg version="1.1" id="Capa_1" xmlns="http://www.w3.org/2000/svg" xmlns:xlink="http://www.w3.org/1999/xlink" x="0px" y="0px"
	 viewBox="0 0 511.992 511.992" style="enable-background:new 0 0 511.992 511.992;" xml:space="preserve">
<g>
	<path style="fill:#F4C534;" d="M319.312,165.096c-6.576-44.656-20.8-135.312-56.8-162.864c-3.776-2.976-9.456-2.976-13.296,0
		c-36,27.552-50.208,118.144-56.8,162.864H319.312z"/>
	<path style="fill:#F4C534;" d="M193.28,347.112c6.432,44.608,20.336,135.152,56.16,162.656c3.76,2.976,9.408,2.96,13.264-0.016
		c35.968-27.568,50.416-118.08,57.12-162.768L193.28,347.112z"/>
	<path style="fill:#F4C534;" d="M365.072,236.408C392,200.184,446.048,126.024,440.064,81.08c-0.56-4.784-4.576-8.784-9.408-9.408
		c-44.944-5.968-119.04,48.032-155.328,74.992L365.072,236.408z"/>
	<path style="fill:#F4C534;" d="M147.248,275.992c-26.992,36.08-81.184,109.952-75.312,154.72c0.56,4.752,4.56,8.752,9.376,9.36
		c44.928,5.952,119.136-47.84,155.488-74.704L147.248,275.992z"/>
	<path style="fill:#F4C534;" d="M346.896,319.24c44.656-6.576,135.312-20.8,162.864-56.816c2.976-3.776,2.976-9.456,0-13.296
		c-27.552-36-118.144-50.208-162.864-56.8V319.24z"/>
	<path style="fill:#F4C534;" d="M164.88,193.192c-44.608,6.432-135.152,20.336-162.656,56.16c-2.976,3.76-2.96,9.408,0.016,13.264
		c27.568,35.968,118.08,50.416,162.768,57.12L164.88,193.192z"/>
	<path style="fill:#F4C534;" d="M275.568,365c36.224,26.912,110.384,80.976,155.328,74.992c4.784-0.56,8.784-4.576,9.408-9.408
		c5.968-44.944-48.032-119.04-74.992-155.328L275.568,365z"/>
	<path style="fill:#F4C534;" d="M235.984,147.16c-36.08-26.992-109.952-81.184-154.72-75.312c-4.752,0.576-8.752,4.576-9.36,9.392
		c-5.952,44.928,47.84,119.136,74.704,155.488L235.984,147.16z"/>
</g>
<circle style="fill:#FFD93B;" cx="256.16" cy="255.992" r="189.584"/>
<path style="fill:#3E4347;" d="M369.712,323.368c-23.04,38.88-65.28,64.96-113.76,64.96c-48.16,0-90.24-25.6-113.44-64
	c-5.44-9.28,2.08-21.12,12.64-19.36c64.48,10.72,131.68,9.44,201.76-0.8C367.632,302.728,375.152,314.088,369.712,323.368z"/>
<path style="fill:#F4C534;" d="M445.68,255.976c0,104.752-84.896,189.584-189.584,189.584c-59.6,0-112.8-27.488-147.584-70.56
	c32.528,26.304,73.936,42,119.024,42c104.688,0,189.584-84.848,189.584-189.584c0-45.088-15.696-86.496-42-119.024
	C418.128,143.16,445.68,196.376,445.68,255.976z"/>
<path style="fill:#FFFFFF;" d="M275.984,200.456c0,33.568,22.304,61.024,49.904,61.104c27.392,0.08,49.696-27.248,49.696-60.816
	c0-33.744-22.304-61.2-49.696-61.28C298.288,139.384,275.984,166.696,275.984,200.456z"/>
<circle style="fill:#3E4347;" cx="325.632" cy="207.64" r="26.352"/>
<ellipse transform="matrix(-0.7071 -0.7071 0.7071 -0.7071 399.2648 561.4769)" style="fill:#FFFFFF;" cx="315.918" cy="198.048" rx="5.328" ry="8.32"/>
<path style="fill:#FFD93B;" d="M258.048,271.448h118.144c-12.416-8.176-55.248-33.44-100.48-25.776
	C245.424,250.808,249.088,262.36,258.048,271.448z"/>
<path style="fill:#F4C534;" d="M379.888,273.992c-17.84-7.216-35.04-14.336-51.056-18.928c-26.656-8.224-37.12-7.152-53.12-9.392
	c18.384-7.392,37.536-5.68,56.096-0.576C352.08,251.048,371.168,263.752,379.888,273.992z"/>
<path style="fill:#FFFFFF;" d="M236.016,200.456c0,33.568-22.304,61.024-49.904,61.104c-27.392,0.08-49.696-27.248-49.696-60.816
	c0-33.744,22.304-61.2,49.696-61.28C213.712,139.384,236.016,166.696,236.016,200.456z"/>
<circle style="fill:#3E4347;" cx="186.368" cy="207.64" r="26.352"/>
<ellipse transform="matrix(-0.7071 -0.7071 0.7071 -0.7071 194.6782 476.7401)" style="fill:#FFFFFF;" cx="196.075" cy="198.051" rx="8.32" ry="5.328"/>
<path style="fill:#FFD93B;" d="M253.952,271.448c8.96-9.104,12.624-20.64-17.664-25.776c-45.248-7.664-88.064,17.6-100.48,25.776
	H253.952z"/>
<path style="fill:#F4C534;" d="M132.112,273.992c8.736-10.256,27.84-22.96,48.08-28.88c18.8-5.184,37.968-6.72,56.096,0.576
	c-16,2.24-24.528,0.56-53.12,9.392C167.136,259.656,149.936,266.776,132.112,273.992z"/>
<path style="fill:#E24B4B;" d="M255.952,388.328c19.168,0,37.296-4.208,53.728-11.552c-8.768-22.32-31.824-30.736-52.592-22.784
	c-6.096,2.432-12.512,3.552-18.832,3.76c-16.096,0.512-27.808,8.576-34.144,20C220.032,384.536,237.536,388.328,255.952,388.328z"/>
<path style="fill:#FFFFFF;" d="M155.152,304.968c-0.144-0.016-0.256,0.016-0.4,0c25.616,26.912,52.624,35.44,101.552,35.44
	c49.104,0,75.728-8.832,101.424-36.224c-0.272,0.016-0.528-0.048-0.816,0C286.832,314.408,219.632,315.688,155.152,304.968z"/>
<g>
</g>
<g>
</g>
<g>
</g>
<g>
</g>
<g>
</g>
<g>
</g>
<g>
</g>
<g>
</g>
<g>
</g>
<g>
</g>
<g>
</g>
<g>
</g>
<g>
</g>
<g>
</g>
<g>
</g>
</svg>
