<?xml version="1.0" encoding="iso-8859-1"?>
<!-- Generator: Adobe Illustrator 19.0.0, SVG Export Plug-In . SVG Version: 6.00 Build 0)  -->
<svg version="1.1" id="Capa_1" xmlns="http://www.w3.org/2000/svg" xmlns:xlink="http://www.w3.org/1999/xlink" x="0px" y="0px"
	 viewBox="0 0 512 512" style="enable-background:new 0 0 512 512;" xml:space="preserve">
<circle style="fill:#FFD93B;" cx="255.984" cy="286.688" r="225.28"/>
<path style="fill:#F4C534;" d="M481.296,286.688C481.296,411.184,380.4,512,255.984,512c-70.832,0-134.048-32.672-175.392-83.856
	c38.656,31.264,87.872,49.92,141.456,49.92c124.416,0,225.312-100.816,225.312-225.312c0-53.584-18.656-102.8-49.92-141.456
	C448.544,152.64,481.296,215.872,481.296,286.688z"/>
<path style="fill:#3E4347;" d="M150.944,343.392c-1.216,4.864-1.904,9.872-1.904,14.992c0,44.64,47.888,80.832,106.96,80.832
	s106.976-36.192,106.976-80.832c0-5.136-0.704-10.128-1.92-14.992H150.944z"/>
<path style="fill:#89664C;" d="M429.024,75.2c-67.568-53.632-105.472,76.448-228.544,52.176
	c-68.752-13.168-61.216-91.968,8.56-116.384c20.864-7.28,43.12-9.2,65.12-10.992c-4.992,6.912-10.096,13.808-15.088,20.72
	c24.176-15.088,54.992-18.8,82.112-9.84c-8.064,1.536-14.96,7.68-17.264,15.472C366.368,2.48,419.936,27.536,429.024,75.2z"/>
<g>
	<path style="fill:#FFFFFF;" d="M236.56,241.648c0,44.208-29.712,80.256-66.048,80.256c-36.464,0-66.176-36.048-66.176-80.256
		c0-44.224,29.712-80.128,66.176-80.128C206.832,161.536,236.56,197.44,236.56,241.648z"/>
	<ellipse style="fill:#FFFFFF;" cx="341.6" cy="241.76" rx="66.048" ry="80.16"/>
</g>
<circle style="fill:#3E4347;" cx="175.552" cy="262.928" r="30.128"/>
<ellipse transform="matrix(-0.7071 -0.7071 0.7071 -0.7071 139.3815 562.3466)" style="fill:#FFFFFF;" cx="186.157" cy="252.306" rx="9.2" ry="5.968"/>
<circle style="fill:#3E4347;" cx="336.464" cy="262.928" r="30.128"/>
<ellipse transform="matrix(-0.7071 -0.7071 0.7071 -0.7071 377.9547 661.1088)" style="fill:#FFFFFF;" cx="325.897" cy="252.277" rx="5.968" ry="9.2"/>
<path style="fill:#89664C;" d="M313.824,385.248c-32.432-4.368-50.032-14.688-57.84-26.864
	c-7.936,12.176-25.424,22.496-57.84,26.864C48.432,406.832,56.512,332.56,76.096,313.232c6.096-5.952,16.544-7.408,22.768-1.856
	c-6.48,0-11.376,6.752-11.376,13.232c0.256,13.632,8.08,28.592,27.136,29.248c39.568,1.184,49.632-34.016,67.504-49.504
	c13.104-11.648,31.904-15.76,47.52-9.136c10.064,4.368,20.384,14.16,26.336,25.68c5.952-11.648,16.144-21.312,26.208-25.68
	c15.744-6.624,34.416-2.512,47.648,9.136c17.744,15.488,27.792,50.704,67.504,49.504c19.056-0.656,26.864-15.616,27.008-29.248
	c0.128-6.48-4.896-13.232-11.392-13.232c6.352-5.552,16.816-4.096,22.896,1.856C455.472,332.576,463.536,406.832,313.824,385.248z"
	/>
<path style="fill:#E24B4B;" d="M255.696,393.856c-6.368,3.184-13.456,4.608-20.272,4.512c-17.968-0.24-34.08,10.528-39.216,27.04
	C213.28,434.112,233.856,439.2,256,439.2c22.304,0,43.008-5.168,60.16-14C307.648,390.096,278.608,382.624,255.696,393.856z"/>
<g>
</g>
<g>
</g>
<g>
</g>
<g>
</g>
<g>
</g>
<g>
</g>
<g>
</g>
<g>
</g>
<g>
</g>
<g>
</g>
<g>
</g>
<g>
</g>
<g>
</g>
<g>
</g>
<g>
</g>
</svg>
