<?xml version="1.0" encoding="iso-8859-1"?>
<!-- Generator: Adobe Illustrator 19.0.0, SVG Export Plug-In . SVG Version: 6.00 Build 0)  -->
<svg version="1.1" id="Capa_1" xmlns="http://www.w3.org/2000/svg" xmlns:xlink="http://www.w3.org/1999/xlink" x="0px" y="0px"
	 viewBox="0 0 512 512" style="enable-background:new 0 0 512 512;" xml:space="preserve">
<path style="fill:#FFD93B;" d="M462.992,280.496C462.992,408.4,359.264,512,231.504,512C103.6,512,0,408.4,0,280.496
	S103.6,49.008,231.504,49.008C359.264,49.008,462.992,152.592,462.992,280.496z"/>
<path style="fill:#F4C534;" d="M462.976,280.48c0,127.904-103.664,231.504-231.504,231.504c-72.784,0-137.744-33.568-180.208-86.16
	c39.712,32.128,90.288,51.296,145.344,51.296c127.824,0,231.504-103.6,231.504-231.504c0-55.056-19.168-105.616-51.296-145.344
	C429.344,142.736,462.976,207.696,462.976,280.48z"/>
<path style="fill:#FFFFFF;" d="M216.56,227.12c0,44.272-26.624,80.032-59.632,80.032c-32.88,0-59.504-35.776-59.504-80.032
	c0-44.144,26.624-79.92,59.504-79.92C189.936,147.216,216.56,182.976,216.56,227.12z"/>
<circle style="fill:#3E4347;" cx="159.056" cy="245.36" r="34.368"/>
<g>
	<path style="fill:#FFFFFF;" d="M179.216,238.912c-1.952,3.056-6.96,2.464-11.312-1.232c-4.352-3.712-6.304-9.04-4.352-12.096
		c1.904-2.976,6.96-2.464,11.312,1.232C179.216,230.512,181.12,235.936,179.216,238.912z"/>
	<path style="fill:#FFFFFF;" d="M246.4,227.12c0,44.272,26.624,80.032,59.632,80.032c32.88,0,59.504-35.776,59.504-80.032
		c0-44.144-26.624-79.92-59.504-79.92C273.024,147.216,246.4,182.976,246.4,227.12z"/>
</g>
<circle style="fill:#3E4347;" cx="303.904" cy="245.36" r="34.368"/>
<path style="fill:#FFFFFF;" d="M324.048,238.912c-1.952,3.056-6.96,2.464-11.312-1.232c-4.352-3.712-6.304-9.04-4.352-12.096
	c1.904-2.976,6.96-2.464,11.312,1.232C324.048,230.512,325.952,235.936,324.048,238.912z"/>
<path id="SVGCleanerId_0" style="fill:#3E4347;" d="M403.104,331.136c-21.408,74.656-90.144,129.2-171.6,129.2
	c-81.312,0-149.888-54.256-171.6-128.624c-3.472-12.16,10-26.032,20.112-18.528c100.048,74.272,201.232,78.832,303.408-0.576
	C393.216,305.008,406.576,319.136,403.104,331.136z"/>
<g>
	<path id="SVGCleanerId_0_1_" style="fill:#3E4347;" d="M403.104,331.136c-21.408,74.656-90.144,129.2-171.6,129.2
		c-81.312,0-149.888-54.256-171.6-128.624c-3.472-12.16,10-26.032,20.112-18.528c100.048,74.272,201.232,78.832,303.408-0.576
		C393.216,305.008,406.576,319.136,403.104,331.136z"/>
</g>
<path style="fill:#E24B4B;" d="M231.504,460.352c28.688,0,55.712-6.88,79.728-18.896c-1.824-6.528-4.288-13.024-7.952-19.392
	c-12.592-22.032-39.456-33.088-63.552-24.8c-9.12,3.024-18.976,3.696-28.032,2.448c-24.752-3.536-49.168,11.76-57.808,35.312
	c-0.784,2.176-1.36,4.368-1.952,6.56C175.92,453.504,202.88,460.352,231.504,460.352z"/>
<path style="fill:#FFFFFF;" d="M381.328,314.144c-100.848,77.248-200.72,72.8-299.488,0.32c43.36,74.048,64.752,91.52,148.432,91.52
	C313.808,406,338.176,388.336,381.328,314.144z"/>
<path style="fill:#65B1EF;" d="M512,67.2c0,36-36.64,65.44-82.88,67.2l-53.44,38.56c-3.36,2.4-8.32,0-8.32-4.16v-50.88
	c-18.4-12.16-29.92-30.4-29.92-50.72c0-37.12,39.04-67.2,87.2-67.2C472.96,0,512,30.08,512,67.2z"/>
<g>
	<path style="fill:#FFFFFF;" d="M394.512,57.552h-4.224c0.096-3.296,0.16-6.144,0.16-8.56h-7.504c0,2.16,0.048,5.024,0.144,8.56
		h-4.208c0.24-6.064,0.288-13.504,0-19.408h4.208c-0.112,2.784-0.176,5.376-0.176,7.744h7.568c0-2.096-0.064-4.672-0.176-7.744
		h4.224C394.208,43.52,394.24,52.064,394.512,57.552z"/>
	<path style="fill:#FFFFFF;" d="M410.448,57.536l-3.52,0.112c-0.16-0.416-0.24-0.8-0.24-1.136h-0.192
		c-7.232,6.176-15.536-7.344-0.112-7.632c0.096-0.88,0-2.144-0.752-2.624c-1.408-0.944-5.536-0.4-7.248,0.08l0.32-2.736
		c2.304-0.8,7.664-1.296,9.888,0.432c2.096,1.616,1.36,5.728,1.36,8.448C409.968,54.544,410.128,56.224,410.448,57.536z
		 M406.464,54.432c-0.064-1.344-0.096-2.496-0.096-3.472C397.536,50.96,401.792,57.92,406.464,54.432z"/>
	<path style="fill:#FFFFFF;" d="M426.192,43.392c0,1.52-5.328,12.656-5.328,14.16H416.8c0-1.28-4.736-13.392-4.736-14.16h4.352
		c0,1.04,2.944,9.28,2.944,10.48h0.192c0-0.864,2.8-8.944,2.8-10.48H426.192z"/>
	<path style="fill:#FFFFFF;" d="M441.104,50.928l-9.6,0.16c0.56,4.464,5.088,4.416,9.456,3.248l-0.304,2.896
		c-15.488,5.6-16.864-14.464-5.696-14.464C439.984,42.784,441.456,45.984,441.104,50.928z M437.696,48.816
		c0-4.608-5.504-4.784-6.224,0.112L437.696,48.816z"/>
	<path style="fill:#FFFFFF;" d="M383.312,86.944h-3.68c0-0.4-1.36-2.56-4.096-6.448c-2.864-4.096-4.496-6.912-4.896-8.416h-0.24
		c0.448,3.904,0.288,7.52,0.576,14.88h-3.664c0.272-5.584,0.32-13.904,0-19.408h4.432c0,0.528,1.232,2.624,3.68,6.304
		c2.608,3.904,4.112,6.56,4.496,7.936h0.224c-0.608-5.6-0.16-6.016-0.576-14.24h3.728C383.008,73.024,383.056,81.408,383.312,86.944
		z"/>
	<path style="fill:#FFFFFF;" d="M391.344,86.944h-4c0.272-4.096,0.384-9.952-0.304-14.032l4.288-0.432
		C391.104,75.936,391.04,82.144,391.344,86.944z M387.776,70.176c-2.192-2.448,1.728-5.632,3.68-3.44
		C393.616,69.168,389.728,72.336,387.776,70.176z"/>
	<path style="fill:#FFFFFF;" d="M406,83.824l-0.256,2.848c-0.896,0.48-2.128,0.72-3.68,0.72c-11.04,0-10.256-15.104,0.096-15.104
		c1.232,0,2.32,0.144,3.264,0.416l-0.512,3.04C395.872,72.016,394.848,87.2,406,83.824z"/>
	<path style="fill:#FFFFFF;" d="M421.168,80.336l-9.6,0.16c0.56,4.432,5.12,4.4,9.456,3.248l-0.304,2.896
		c-15.552,5.632-16.816-14.464-5.696-14.464c2.112,0,3.664,0.576,4.704,1.712C421.392,75.76,421.344,77.872,421.168,80.336z
		 M417.776,78.224c0-2.288-0.976-3.424-2.928-3.424c-1.856,0-2.96,1.184-3.312,3.552L417.776,78.224z"/>
	<path style="fill:#FFFFFF;" d="M447.44,76.576c0,2.816-0.896,5.28-2.72,7.392c-3.408,3.968-8.272,3.232-13.68,2.976
		c0.24-5.696,0.288-13.776,0-19.408C435.616,67.552,447.44,65.712,447.44,76.576z M434.848,70.576
		c0.272,5.264,0.032,7.104,0.304,13.296C445.936,86.032,446.608,69.168,434.848,70.576z"/>
	<path style="fill:#FFFFFF;" d="M462.384,86.928l-3.52,0.112c-0.16-0.416-0.24-0.8-0.24-1.136h-0.192
		c-1.84,1.568-5.536,2.032-7.52,0.368c-0.816-0.688-1.232-1.6-1.232-2.752c0-1.504,0.64-2.752,1.904-3.712
		c1.28-0.96,3.52-1.472,6.72-1.536c0.464-3.92-4.272-3.584-7.984-2.544l0.32-2.736c2.304-0.8,7.664-1.296,9.888,0.432
		c1.76,1.36,1.488,4.032,1.424,6.24c-0.032,1.104-0.048,1.84-0.048,2.208C461.904,83.936,462.064,85.616,462.384,86.928z
		 M458.4,83.84c-0.064-1.344-0.096-2.496-0.096-3.472C449.488,80.368,453.744,87.312,458.4,83.84z"/>
	<path style="fill:#FFFFFF;" d="M478.016,72.784c0,0.896-4.72,12.688-5.12,14.24c-1.328,5.072-3.28,6.512-7.344,6.512l-0.304-2.88
		c2.416,0,4.24-1.44,4.24-3.856c0-2.32-5.36-13.984-5.36-14.032h4.608c0,0.544,2.72,9.328,2.72,10.592h0.208
		c0-1.136,2.464-8.864,2.464-10.592h3.888V72.784z"/>
	<path style="fill:#FFFFFF;" d="M482.768,87.104c-1.84,0-2.336-2.128-1.232-3.296c0.704-0.752,2.24-0.864,2.928-0.08
		C485.488,84.912,484.816,87.104,482.768,87.104z M483.568,80.88H482.4c-0.784-3.952-2.256-12.944,0.848-12.944
		C486.24,67.936,484.368,77.968,483.568,80.88z"/>
	<path style="fill:#FFFFFF;" d="M464.096,57.536l-3.52,0.112c-0.16-0.416-0.24-0.8-0.24-1.136h-0.192
		c-7.232,6.176-15.536-7.344-0.112-7.632c0.096-0.88,0-2.144-0.752-2.624c-1.408-0.944-5.536-0.4-7.248,0.08l0.32-2.736
		c2.304-0.8,7.664-1.296,9.888,0.432c2.096,1.616,1.36,5.728,1.36,8.448C463.632,54.544,463.776,56.224,464.096,57.536z
		 M460.128,54.432c-0.064-1.344-0.096-2.496-0.096-3.472C451.2,50.96,455.456,57.92,460.128,54.432z"/>
</g>
<g>
</g>
<g>
</g>
<g>
</g>
<g>
</g>
<g>
</g>
<g>
</g>
<g>
</g>
<g>
</g>
<g>
</g>
<g>
</g>
<g>
</g>
<g>
</g>
<g>
</g>
<g>
</g>
<g>
</g>
</svg>
