<?xml version="1.0" encoding="iso-8859-1"?>
<!-- Generator: Adobe Illustrator 19.0.0, SVG Export Plug-In . SVG Version: 6.00 Build 0)  -->
<svg version="1.1" id="Capa_1" xmlns="http://www.w3.org/2000/svg" xmlns:xlink="http://www.w3.org/1999/xlink" x="0px" y="0px"
	 viewBox="0 0 512.032 512.032" style="enable-background:new 0 0 512.032 512.032;" xml:space="preserve">
<circle style="fill:#FFD93B;" cx="256" cy="256" r="256"/>
<path style="fill:#F4C534;" d="M512,256c0,141.44-114.64,256-256,256c-80.48,0-152.32-37.12-199.28-95.28
	c43.92,35.52,99.84,56.72,160.72,56.72c141.36,0,256-114.56,256-256c0-60.88-21.2-116.8-56.72-160.72
	C474.8,103.68,512,175.52,512,256z"/>
<path style="fill:#E24B4B;" d="M512.032,406.832c0,58.048-47.152,105.2-105.2,105.2c-58.192,0-105.344-47.152-105.344-105.2
	c0-58.192,47.152-105.344,105.344-105.344C464.88,301.488,512.032,348.64,512.032,406.832z"/>
<circle style="fill:#FFFFFF;" cx="406.784" cy="406.784" r="83.936"/>
<path style="fill:#65B1EF;" d="M412.672,416.592v-64.72c0-3.232-2.688-5.92-5.92-5.92s-5.92,2.688-5.92,5.92v64.72H412.672z"/>
<path style="fill:#F4C534;" d="M435.424,442.288l-35.536-35.536c-1.872-1.872-1.872-5.008,0-6.88s5.008-1.872,6.88,0l35.536,35.536
	c1.872,1.872,1.872,5.008,0,6.88S437.296,444.176,435.424,442.288z"/>
<path style="fill:#3E4347;" d="M424.416,406.832c0,9.6-7.984,17.584-17.584,17.584c-9.744,0-17.728-7.984-17.728-17.584
	c0-9.744,7.968-17.728,17.728-17.728C416.432,389.104,424.416,397.088,424.416,406.832z"/>
<circle style="fill:#5A5F63;" cx="406.768" cy="406.768" r="6.88"/>
<path style="fill:#3E4347;" d="M252.064,387.04c0,36.656-26.896,66.512-59.872,66.512c-33.168,0-59.872-29.84-59.872-66.512
	s26.72-66.32,59.872-66.32C225.168,320.704,252.064,350.368,252.064,387.04z"/>
<path style="fill:#FFFFFF;" d="M275.008,192.832c0,47.84,35.424,86.72,79.168,86.72c43.744,0,79.312-38.88,79.312-86.72
	s-48-113.28-91.76-113.28S275.008,144.992,275.008,192.832z"/>
<path style="fill:#3E4347;" d="M298.928,205.856c0,22.8,18.384,41.488,41.488,41.488c22.944,0,41.488-18.688,41.488-41.488
	c0-22.944-18.544-41.488-41.488-41.488C317.312,164.352,298.928,182.896,298.928,205.856z"/>
<g>
	
		<ellipse transform="matrix(-0.7071 -0.7071 0.7071 -0.7071 420.834 556.5324)" style="fill:#FFFFFF;" cx="325.679" cy="191.109" rx="7.808" ry="12.704"/>
	<path style="fill:#FFFFFF;" d="M237.024,192.832c0,47.84-35.424,86.72-79.168,86.72s-79.312-38.88-79.312-86.72
		s48-113.28,91.76-113.28S237.024,144.992,237.024,192.832z"/>
</g>
<path style="fill:#3E4347;" d="M213.104,205.856c0,22.8-18.384,41.488-41.488,41.488c-22.944,0-41.488-18.688-41.488-41.488
	c0-22.944,18.544-41.488,41.488-41.488C194.72,164.352,213.104,182.896,213.104,205.856z"/>
<ellipse transform="matrix(-0.7071 -0.7071 0.7071 -0.7071 183.1063 458.076)" style="fill:#FFFFFF;" cx="186.424" cy="191.115" rx="12.704" ry="7.808"/>
<g>
</g>
<g>
</g>
<g>
</g>
<g>
</g>
<g>
</g>
<g>
</g>
<g>
</g>
<g>
</g>
<g>
</g>
<g>
</g>
<g>
</g>
<g>
</g>
<g>
</g>
<g>
</g>
<g>
</g>
</svg>
