<?xml version="1.0" encoding="iso-8859-1"?>
<!-- Generator: Adobe Illustrator 19.0.0, SVG Export Plug-In . SVG Version: 6.00 Build 0)  -->
<svg version="1.1" id="Capa_1" xmlns="http://www.w3.org/2000/svg" xmlns:xlink="http://www.w3.org/1999/xlink" x="0px" y="0px"
	 viewBox="0 0 511.995 511.995" style="enable-background:new 0 0 511.995 511.995;" xml:space="preserve">
<path style="fill:#E24B4B;" d="M278.478,471.25c-13.472,9.44-31.44,9.44-44.896,0C149.806,412.882-101.97,226.13,45.294,74.546
	c24-24.768,56.208-40.88,90.736-40.88c55.12,0,102.048,34.992,120,83.92c17.968-48.928,64.88-83.92,120-83.92
	c34.528,0,66.736,16.256,90.736,41.04C613.87,226.45,362.254,412.882,278.478,471.25z"/>
<g>
	<path style="fill:#D03F3F;" d="M278.478,471.25c-9.136,6.352-20.288,8.512-30.656,6.032
		C367.934,406.018,503.758,241.49,466.766,74.69C613.87,226.45,362.254,412.882,278.478,471.25z"/>
	
		<ellipse transform="matrix(-0.9455 -0.3257 0.3257 -0.9455 602.9553 504.4267)" style="fill:#D03F3F;" cx="343.701" cy="201.743" rx="66.962" ry="85.938"/>
</g>
<path style="fill:#FFFFFF;" d="M291.838,183.906c-9.184,36.928,6.56,74.864,35.264,84.752c28.592,9.856,59.248-12.096,68.432-49.024
	c9.216-37.024-6.544-74.96-35.136-84.816C331.71,124.93,301.054,146.882,291.838,183.906z"/>
<path style="fill:#3E4347;" d="M367.934,214.322c0,18.464-14.928,33.392-33.392,33.392c-18.336,0-33.264-14.928-33.264-33.392
	c0-18.336,14.928-33.392,33.264-33.392C353.022,180.946,367.934,195.986,367.934,214.322z"/>
<ellipse transform="matrix(-0.7071 -0.7071 0.7071 -0.7071 450.0296 589.9649)" style="fill:#FFFFFF;" cx="347.201" cy="201.778" rx="8.608" ry="5.84"/>
<ellipse transform="matrix(-0.3257 -0.9455 0.9455 -0.3257 27.484 423.1662)" style="fill:#D03F3F;" cx="164.642" cy="201.782" rx="85.938" ry="66.962"/>
<path style="fill:#FFFFFF;" d="M216.526,183.906c9.184,36.928-6.56,74.864-35.264,84.752c-28.592,9.856-59.248-12.096-68.432-49.024
	c-9.216-37.024,6.544-74.96,35.136-84.816C176.654,124.93,207.31,146.882,216.526,183.906z"/>
<path style="fill:#3E4347;" d="M207.102,214.322c0,18.464-14.928,33.392-33.392,33.392c-18.336,0-33.264-14.928-33.264-33.392
	c0-18.336,14.928-33.392,33.264-33.392C192.174,180.946,207.102,195.986,207.102,214.322z"/>
<g>
	
		<ellipse transform="matrix(-0.7071 -0.7071 0.7071 -0.7071 175.4604 476.1539)" style="fill:#FFFFFF;" cx="186.345" cy="201.738" rx="8.608" ry="5.84"/>
	<path style="opacity:0.2;fill:#FFFFFF;enable-background:new    ;" d="M79.934,115.394c-21.216,18.8-21.072,44.576-31.344,33.184
		c-10.08-11.376-9.808-38.048,11.408-56.672c21.04-18.816,45.552-16.016,55.648-4.64C125.726,98.658,100.974,96.562,79.934,115.394z
		"/>
</g>
<path style="fill:#3E4347;" d="M331.406,330.498c-14.24,31.584-42.432,53.264-75.408,53.264s-61.168-21.68-75.408-53.264
	c-2.176-4.8,2.944-9.6,7.744-7.584c45.056,19.04,90.272,19.04,135.488,0C328.622,320.898,333.566,325.698,331.406,330.498z"/>
<g>
</g>
<g>
</g>
<g>
</g>
<g>
</g>
<g>
</g>
<g>
</g>
<g>
</g>
<g>
</g>
<g>
</g>
<g>
</g>
<g>
</g>
<g>
</g>
<g>
</g>
<g>
</g>
<g>
</g>
</svg>
