<?xml version="1.0" encoding="iso-8859-1"?>
<!-- Generator: Adobe Illustrator 19.0.0, SVG Export Plug-In . SVG Version: 6.00 Build 0)  -->
<svg version="1.1" id="Capa_1" xmlns="http://www.w3.org/2000/svg" xmlns:xlink="http://www.w3.org/1999/xlink" x="0px" y="0px"
	 viewBox="0 0 511.993 511.993" style="enable-background:new 0 0 511.993 511.993;" xml:space="preserve">
<circle style="fill:#FFD93B;" cx="255.996" cy="218.624" r="218.624"/>
<path style="fill:#F4C534;" d="M474.62,218.624c0,120.784-97.904,218.624-218.624,218.624c-68.72,0-130.08-31.696-170.176-81.36
	c37.504,30.336,85.264,48.432,137.248,48.432c120.72,0,218.624-97.824,218.624-218.624c0-51.984-18.112-99.744-48.432-137.248
	C442.844,88.544,474.62,149.888,474.62,218.624z"/>
<g>
	<path style="fill:#3E4347;" d="M355.756,345.84c1.504,7.104-4.912,13.664-12.288,12.576c-57.792-7.648-117.232-7.648-175.168,0
		c-7.248,0.96-13.536-5.472-12.032-12.576c8.736-43.04,46.592-78.704,99.616-78.704C309.02,267.136,346.732,302.8,355.756,345.84z"
		/>
	<path style="fill:#3E4347;" d="M169.996,248.256c-29.904,0-55.504-21.392-60.88-50.864c-1.168-6.496,3.136-12.72,9.632-13.904
		c6.544-1.2,12.72,3.136,13.904,9.616c3.28,18.112,18.992,31.248,37.328,31.248c16.352,0,30.752-10.608,35.856-26.384
		c2.048-6.272,8.752-9.728,15.072-7.696c6.288,2.032,9.728,8.768,7.696,15.056C220.3,231.008,196.748,248.256,169.996,248.256z"/>
	<path style="fill:#3E4347;" d="M197.26,166.064l-83.616-23.072c-5.456-1.52-8.656-7.152-7.152-12.608
		c1.504-5.44,7.12-8.656,12.592-7.152l79.408,21.92l24.112-14.32c4.864-2.896,11.152-1.28,14.032,3.584
		c2.896,4.864,1.296,11.152-3.584,14.048l-27.856,16.544C202.716,166.464,199.836,166.768,197.26,166.064z"/>
	<path style="fill:#3E4347;" d="M341.996,248.256c-26.768,0-50.304-17.248-58.608-42.944c-2.032-6.272,1.424-13.024,7.712-15.04
		c6.304-2.032,13.024,1.424,15.056,7.712c5.088,15.776,19.488,26.368,35.84,26.368c18.352,0,34.048-13.136,37.328-31.232
		c1.184-6.496,7.36-10.816,13.904-9.632c6.496,1.168,10.816,7.392,9.632,13.904C397.516,226.864,371.9,248.256,341.996,248.256z"/>
	<path style="fill:#3E4347;" d="M306.796,164.992l-27.872-16.544c-4.864-2.896-6.464-9.184-3.584-14.048
		c2.88-4.864,9.168-6.464,14.032-3.584l24.128,14.32l79.408-21.92c5.488-1.504,11.088,1.712,12.592,7.152
		c1.504,5.456-1.696,11.104-7.152,12.608l-83.616,23.072C312.172,166.768,309.276,166.464,306.796,164.992z"/>
</g>
<path style="fill:#FFFFFF;" d="M195.5,285.76c18.4,3.968,38.896,6.256,60.592,6.256c21.616,0,42-2.256,60.304-6.192
	c-16.352-11.6-36.912-18.672-60.528-18.672C232.348,267.136,211.836,274.192,195.5,285.76z"/>
<path style="fill:#8CC63E;" d="M324.956,390.928c-17.104,47.312,2.56,75.232,0.688,88.944c-0.96,6.144-6.288,12.032-12.288,11.072
	c-22.048-3.68,4.208-70.752-10.928-78.976c-13.664-7.136-21.632,21.616-18.864,39.76c0.544,3.552,1.504,7.376,0.144,10.928
	c-1.232,3.408-6.016,5.744-8.736,3.408c-1.92-1.632-2.32-4.784-4.64-5.6c-2.32-0.688-4.368,1.632-5.184,3.824
	c-0.688,2.32-0.544,4.912-1.776,6.976c-2.704,4.432-9.648,4.112-11.344-1.36c0.72,24.672,3.456,37.696-3.68,41.264
	c-13.664,6.832-24.384-30.352-20.352-53.84c3.648-18.208-12.368-15.936-9.84-4.096c0.816,3.824,2.88,7.376,2.32,11.344
	c-0.688,6.016-7.92,9.568-13.664,8.064c-23.632-6.592-3.472-43.584-27.904-116.112c-0.144-0.448-0.112-0.976,0.096-1.392
	c15.648-30.432,44.736-29.792,76.176-25.696C328.188,339.632,346.108,333.488,324.956,390.928z"/>
<g>
	<path style="fill:#7FB239;" d="M271.996,410.608c-0.144,1.92-1.232,3.968-3.136,4.368c-1.92,0.416-3.696-0.96-4.512-2.592
		c-0.816-1.776-0.816-3.696-0.816-5.6c0.272-8.064,1.92-15.984,4.64-23.632c-0.688,7.376,0.272,14.752,2.592,21.728
		C271.308,406.784,272.14,408.704,271.996,410.608z"/>
	<path style="fill:#7FB239;" d="M212.78,414.704c0.064,2.336-1.408,4.816-3.76,5.008c-10.496,0.768-2.768-38.512,0.256-53.6
		C209.02,410.336,213.244,401.024,212.78,414.704z"/>
</g>
<g>
	<path style="fill:#8CC63E;" d="M323.98,341.664c0,0,20,25.888,10.944,46.112c-6.768,15.136-0.624,21.408,7.904,23.488
		s15.184-12.208,11.52-29.104C350.652,365.28,323.98,341.664,323.98,341.664z"/>
	<path style="fill:#8CC63E;" d="M338.54,441.376c0.144-0.416,3.28-12.848,4.368-16.8c1.504,5.744,3.008,11.344,4.512,17.072
		C352.06,458.464,334.028,458.592,338.54,441.376z"/>
</g>
<path style="fill:#7FB239;" d="M241.356,462.064c0.144,1.232,1.984,15.2,3.072,19.504
	C248.332,499.104,227.82,492.464,241.356,462.064z"/>
<g>
</g>
<g>
</g>
<g>
</g>
<g>
</g>
<g>
</g>
<g>
</g>
<g>
</g>
<g>
</g>
<g>
</g>
<g>
</g>
<g>
</g>
<g>
</g>
<g>
</g>
<g>
</g>
<g>
</g>
</svg>
