<?xml version="1.0" encoding="iso-8859-1"?>
<!-- Generator: Adobe Illustrator 19.0.0, SVG Export Plug-In . SVG Version: 6.00 Build 0)  -->
<svg version="1.1" id="Capa_1" xmlns="http://www.w3.org/2000/svg" xmlns:xlink="http://www.w3.org/1999/xlink" x="0px" y="0px"
	 viewBox="0 0 512 512" style="enable-background:new 0 0 512 512;" xml:space="preserve">
<circle style="fill:#FFD93B;" cx="256" cy="256" r="256"/>
<path style="fill:#F4C534;" d="M512,256c0,141.44-114.64,256-256,256c-80.48,0-152.32-37.12-199.28-95.28
	c43.92,35.52,99.84,56.72,160.72,56.72c141.36,0,256-114.56,256-256c0-60.88-21.2-116.8-56.72-160.72
	C474.8,103.68,512,175.52,512,256z"/>
<circle style="fill:#FFFFFF;" cx="150.688" cy="272" r="80.96"/>
<circle style="fill:#3E4347;" cx="150.688" cy="272" r="39.68"/>
<g>
	<path style="fill:#FFFFFF;" d="M146.368,256.48c0,5.76-4.64,10.4-10.56,10.4c-5.76,0-10.4-4.64-10.4-10.4
		c0-5.92,4.64-10.56,10.4-10.56C141.728,245.92,146.368,250.56,146.368,256.48z"/>
	<circle style="fill:#FFFFFF;" cx="163.056" cy="293.232" r="6.336"/>
	<circle style="fill:#FFFFFF;" cx="361.312" cy="272" r="80.96"/>
</g>
<circle style="fill:#3E4347;" cx="361.312" cy="272" r="39.68"/>
<g>
	<path style="fill:#FFFFFF;" d="M356.992,256.48c0,5.76-4.64,10.4-10.56,10.4c-5.76,0-10.4-4.64-10.4-10.4
		c0-5.92,4.64-10.56,10.4-10.56C352.352,245.92,356.992,250.56,356.992,256.48z"/>
	<circle style="fill:#FFFFFF;" cx="373.696" cy="293.232" r="6.336"/>
</g>
<g>
	<path style="fill:#3E4347;" d="M406.944,184c-45.888-10.24-81.936-29.536-107.12-57.376c-4.448-4.912-4.08-12.496,0.848-16.96
		c4.928-4.432,12.512-4.064,16.944,0.848c21.792,24.08,53.632,40.928,94.56,50.064c6.464,1.44,10.544,7.856,9.104,14.32
		C419.824,181.424,413.344,185.424,406.944,184z"/>
	<path style="fill:#3E4347;" d="M90.768,174.896c-1.44-6.464,2.64-12.88,9.104-14.336c40.944-9.136,72.752-25.984,94.544-50.064
		c4.416-4.928,12.016-5.296,16.944-0.848s5.296,12.032,0.848,16.96c-25.2,27.84-61.232,47.152-107.12,57.392
		C98.64,185.44,92.208,181.392,90.768,174.896z"/>
	<path style="fill:#3E4347;" d="M332.976,387.424c15.04,11.424-14.24,62.416-77.072,63.088
		c-62.816-0.288-92.272-51.344-76.896-63.088c14.112-12.752,46.16-3.632,77.056-4.912
		C286.992,384.176,319.2,375.008,332.976,387.424z"/>
</g>
<path style="fill:#FFFFFF;" d="M325.248,383.232c-16.064-5.536-43.008,0.672-69.168-0.72c-26.448,1.088-53.632-5.328-69.792,0.752
	c13.824,18.544,28.624,21.296,69.632,21.488C296.96,404.32,311.408,401.664,325.248,383.232z"/>
<path style="fill:#E24B4B;" d="M255.92,450.512c16.976-0.176,31.408-4.096,43.28-9.856c-0.256-2.304-0.336-4.592-1.008-6.896
	c-4.592-17.312-23.728-25.344-40.752-19.792c-4.496,1.536-9.184,2.288-13.68,2.48c-18.688,0.784-28.384,11.648-30.56,24.72
	C224.976,446.72,239.232,450.432,255.92,450.512z"/>
<g>
</g>
<g>
</g>
<g>
</g>
<g>
</g>
<g>
</g>
<g>
</g>
<g>
</g>
<g>
</g>
<g>
</g>
<g>
</g>
<g>
</g>
<g>
</g>
<g>
</g>
<g>
</g>
<g>
</g>
</svg>
