<?xml version="1.0" encoding="iso-8859-1"?>
<!-- Generator: Adobe Illustrator 19.0.0, SVG Export Plug-In . SVG Version: 6.00 Build 0)  -->
<svg version="1.1" id="Capa_1" xmlns="http://www.w3.org/2000/svg" xmlns:xlink="http://www.w3.org/1999/xlink" x="0px" y="0px"
	 viewBox="0 0 512 512" style="enable-background:new 0 0 512 512;" xml:space="preserve">
<circle style="fill:#FFD93B;" cx="256" cy="256" r="256"/>
<path style="fill:#F4C534;" d="M512,256c0,141.44-114.64,256-256,256c-80.48,0-152.32-37.12-199.28-95.28
	c43.92,35.52,99.84,56.72,160.72,56.72c141.36,0,256-114.56,256-256c0-60.88-21.2-116.8-56.72-160.72
	C474.8,103.68,512,175.52,512,256z"/>
<path style="fill:#E24B4B;" d="M232.256,201.296c0,49.184-74.304,94.176-74.304,94.176s-74.304-44.992-74.304-94.176
	c0-21.008,16.976-37.968,37.968-37.968c17.184,0,31.6,11.344,36.384,26.832c4.672-15.488,19.088-26.832,36.272-26.832
	C215.168,163.328,232.256,180.304,232.256,201.296z"/>
<path style="fill:#D03F3F;" d="M96.144,173.312c-7.632,6.944-12.48,16.848-12.48,28c0,49.184,74.304,94.176,74.304,94.176
	C80.16,229.776,95.568,175.216,96.144,173.312z"/>
<path style="fill:#FFFFFF;" d="M215.2,200.032c-3.616,2.928-9.76,0.976-13.792-4.176c-4.176-5.152-4.608-11.424-1.248-14.08
	c3.616-2.784,9.76-0.704,13.936,4.464C218.128,191.376,218.688,197.648,215.2,200.032z"/>
<path style="fill:#E24B4B;" d="M428.352,201.296c0,49.184-74.304,94.176-74.304,94.176s-74.304-44.992-74.304-94.176
	c0-21.008,16.976-37.968,37.968-37.968c17.184,0,31.6,11.344,36.384,26.832c4.672-15.488,19.088-26.832,36.272-26.832
	C411.264,163.328,428.352,180.304,428.352,201.296z"/>
<path style="fill:#D03F3F;" d="M292.24,173.312c-7.632,6.944-12.48,16.848-12.48,28c0,49.184,74.304,94.176,74.304,94.176
	C276.256,229.776,291.664,175.216,292.24,173.312z"/>
<path style="fill:#FFFFFF;" d="M411.296,200.032c-3.616,2.928-9.76,0.976-13.792-4.176c-4.176-5.152-4.608-11.424-1.248-14.08
	c3.616-2.784,9.76-0.704,13.936,4.464C414.224,191.376,414.784,197.648,411.296,200.032z"/>
<path style="fill:#3E4347;" d="M381.728,374.112c-30.24,35.84-75.312,64.416-125.712,64.416s-95.408-28.576-125.808-64.256
	c-10.56-12.48,0.16-31.52,16.48-28.64c72,12.64,144.8,12.8,218.72-0.16C381.568,342.752,392.448,361.632,381.728,374.112z"/>
<path style="fill:#E24B4B;" d="M256.016,438.528c25.712,0,50.016-7.504,71.696-19.552c-9.088-33.712-40.752-43.312-62.64-31.68
	c-29.648,15.824-62.816-4.656-75.616,34.304C209.824,432.032,232.272,438.528,256.016,438.528z"/>
<g>
</g>
<g>
</g>
<g>
</g>
<g>
</g>
<g>
</g>
<g>
</g>
<g>
</g>
<g>
</g>
<g>
</g>
<g>
</g>
<g>
</g>
<g>
</g>
<g>
</g>
<g>
</g>
<g>
</g>
</svg>
