<?xml version="1.0" encoding="iso-8859-1"?>
<!-- Generator: Adobe Illustrator 19.0.0, SVG Export Plug-In . SVG Version: 6.00 Build 0)  -->
<svg version="1.1" id="Capa_1" xmlns="http://www.w3.org/2000/svg" xmlns:xlink="http://www.w3.org/1999/xlink" x="0px" y="0px"
	 viewBox="0 0 512 512" style="enable-background:new 0 0 512 512;" xml:space="preserve">
<circle style="fill:#FFD93B;" cx="256" cy="256" r="256"/>
<path style="fill:#F4C534;" d="M512,256c0,141.44-114.64,256-256,256c-80.48,0-152.32-37.12-199.28-95.28
	c43.92,35.52,99.84,56.72,160.72,56.72c141.36,0,256-114.56,256-256c0-60.88-21.2-116.8-56.72-160.72
	C474.8,103.68,512,175.52,512,256z"/>
<ellipse transform="matrix(-0.3946 -0.9189 0.9189 -0.3946 56.5179 360.4288)" style="fill:#FFFFFF;" cx="146.998" cy="161.595" rx="76.979" ry="77.027"/>
<path style="fill:#3E4347;" d="M187.2,179.6c4.208,18.592-7.456,37.088-26.176,41.312c-18.592,4.208-37.088-7.456-41.28-26.064
	c-4.208-18.576,7.456-37.072,26.048-41.28C164.512,149.344,183.008,161.008,187.2,179.6z"/>
<ellipse transform="matrix(-0.8457 -0.5337 0.5337 -0.8457 209.3192 404.2898)" style="fill:#FFFFFF;" cx="163.111" cy="171.882" rx="10.768" ry="6.72"/>
<path style="fill:#3E4347;" d="M38.064,139.168c-6.304-2.016-9.776-8.784-7.744-15.088c10.848-33.76,35.744-61.136,68.24-75.104
	c22.4-9.616,46.784-12.352,70.608-7.952c6.496,1.2,10.816,7.472,9.616,13.984c-1.216,6.528-7.472,10.8-13.984,9.632
	c-19.104-3.536-38.784-1.296-56.768,6.4c-26.144,11.216-46.128,33.232-54.88,60.4C51.152,137.696,44.416,141.216,38.064,139.168z"/>
<ellipse transform="matrix(-0.9327 -0.3608 0.3608 -0.9327 636.6996 471.2522)" style="fill:#FFFFFF;" cx="362.336" cy="176.198" rx="77.028" ry="76.98"/>
<path style="fill:#3E4347;" d="M311.456,148.976c-3.52,18.736,8.816,36.784,27.68,40.336c18.736,3.52,36.784-8.816,40.304-27.552
	c3.52-18.736-8.816-36.784-27.552-40.304C333.024,117.904,314.976,130.24,311.456,148.976z"/>
<ellipse transform="matrix(-0.5642 -0.8256 0.8256 -0.5642 408.4748 496.4)" style="fill:#FFFFFF;" cx="335.242" cy="140.399" rx="6.72" ry="10.768"/>
<g>
	<path style="fill:#3E4347;" d="M470.352,149.76c6.224-2.256,9.44-9.136,7.184-15.36c-12.08-33.344-37.952-59.792-70.944-72.56
		c-22.736-8.784-47.2-10.64-70.848-5.376c-6.448,1.44-10.544,7.856-9.104,14.32c1.456,6.48,7.856,10.528,14.336,9.104
		c18.976-4.24,38.72-2.72,56.96,4.32c26.528,10.256,47.312,31.536,57.04,58.352C457.216,148.768,464.064,152.032,470.352,149.76z"/>
	<path style="fill:#3E4347;" d="M346.432,392.432c5.216,30.592,8.496,57.856-38.336,79.296
		c-30.336,13.888-65.632,15.264-96.384,2.304c-44.32-18.672-41.968-47.76-38.768-78.736c1.904-18.464-0.336-37.184-6.512-54.688
		c-11.76-33.36-20.288-57.744,48.976-80.368c25.584-8.352,53.44-8.224,78.928,0.4c68.128,23.072,62.72,47.696,54.432,79.76
		C344.368,357.392,343.488,375.152,346.432,392.432z"/>
</g>
<path style="fill:#E24B4B;" d="M326,457.136c2.08-5.664,3.536-11.632,4.112-17.936c1.6-19.36-4.8-37.44-16.32-51.04
	c-9.92-11.68-25.92-14.24-40.16-8.96c-12,4.48-25.12,5.44-37.76,3.68c-13.6-1.92-28,2.4-35.2,14.08c-8.16,13.44-12,29.92-9.28,48
	c0.672,4.192,1.872,8.224,3.312,12.176L326,457.136L326,457.136z"/>
<g>
	<path style="fill:#FFFFFF;" d="M294.336,260.64c-25.488-8.624-53.344-8.752-78.928-0.4c-49.04,16.016-59.024,32.928-56.544,53.264
		c25.824-4.912,60.24-11.392,97.136-11.408c37.6,0.016,71.696,6.752,97.472,11.696C353.776,293.92,342.32,276.88,294.336,260.64z"/>
	<path style="fill:#FFFFFF;" d="M348.976,424.832c-26.112,4.368-57.52,11.648-93.12,11.664c-30.432-0.016-59.68-6.4-83.984-10.144
		c1.872,18.752,10.848,35.44,39.84,47.664c30.752,12.96,66.032,11.6,96.368-2.304C337.632,458.208,347.216,442.368,348.976,424.832z
		"/>
</g>
<g>
</g>
<g>
</g>
<g>
</g>
<g>
</g>
<g>
</g>
<g>
</g>
<g>
</g>
<g>
</g>
<g>
</g>
<g>
</g>
<g>
</g>
<g>
</g>
<g>
</g>
<g>
</g>
<g>
</g>
</svg>
