<?xml version="1.0" encoding="iso-8859-1"?>
<!-- Generator: Adobe Illustrator 19.0.0, SVG Export Plug-In . SVG Version: 6.00 Build 0)  -->
<svg version="1.1" id="Capa_1" xmlns="http://www.w3.org/2000/svg" xmlns:xlink="http://www.w3.org/1999/xlink" x="0px" y="0px"
	 viewBox="0 0 512 512" style="enable-background:new 0 0 512 512;" xml:space="preserve">
<circle style="fill:#FFD93B;" cx="256" cy="256" r="256"/>
<path style="fill:#F4C534;" d="M512,256c0,141.44-114.64,256-256,256c-80.48,0-152.32-37.12-199.28-95.28
	c43.92,35.52,99.84,56.72,160.72,56.72c141.36,0,256-114.56,256-256c0-60.88-21.2-116.8-56.72-160.72
	C474.8,103.68,512,175.52,512,256z"/>
<path style="fill:#FFFFFF;" d="M230.112,207.488c-7.968,60.256-39.2,87.36-87.36,87.36s-87.36-39.2-87.36-87.36
	c0-48.32,92.752-130.416,140.912-130.416S236.448,159.584,230.112,207.488z"/>
<path style="fill:#3E4347;" d="M187.296,212.976c0.144,19.84-16.032,36.016-35.872,35.872c-19.84,0.144-36.016-16.032-35.872-35.872
	c-0.128-19.84,16.032-36.016,35.872-35.872C171.264,176.96,187.44,193.136,187.296,212.976z"/>
<ellipse transform="matrix(-0.7071 -0.7071 0.7071 -0.7071 140.856 456.9973)" style="fill:#FFFFFF;" cx="165.075" cy="199.326" rx="11.168" ry="6.592"/>
<path style="fill:#65B1EF;" d="M211.248,282.368c-3.664,6.784-34.32,21.088-43.04,20.8c-23.616-0.672-19.392-13.36-36.64,47.04
	c-3.68,12.16-7.2,25.44-3.36,37.6c0.8,2.88,2.08,5.6,2.24,8.48c0.448,7.936-8.432,10.048-11.52,2.72c-1.12-2.88-0.96-6.08-0.64-9.28
	c1.76-17.92,3.36-35.84,4.96-53.76c0.64-5.92,0.96-12.48-2.72-17.12c-0.336,3.36-0.896,18.288-3.84,19.36
	c-3.104,1.2-6.496-2.192-2.88-9.44c-2.72,0.48-5.12-2.56-5.28-5.28c-0.64-5.696,4.64-11.6,0.8-16.48
	c-6.288,4.064-13.936,22.096-9.28,40.96c5.072,18.592-11.248,25.376-12.16,12.64c3.68-25.28,11.2-49.616-1.44-82.08
	c-2.032-5.216-8-7.36-8-11.84c3.84-5.44,12-8.48,27.04-0.48c25.616,13.248,28.096,1.936,48,0.8c13.28-0.96,26.56,5.92,39.2,2.72
	c7.312-2.128,16.56-6.624,20,1.12l0.16,0.16v0.16C214,272.336,212.384,280.496,211.248,282.368z"/>
<path style="fill:#FFFFFF;" d="M268.192,207.488c7.968,60.256,39.2,87.36,87.36,87.36s87.36-39.2,87.36-87.36
	c0-48.32-92.752-130.416-140.912-130.416S261.872,159.584,268.192,207.488z"/>
<path style="fill:#3E4347;" d="M311.008,212.976c-0.144,19.84,16.032,36.016,35.872,35.872c19.84,0.144,36.016-16.032,35.872-35.872
	c0.128-19.84-16.032-36.016-35.872-35.872C327.056,176.96,310.88,193.136,311.008,212.976z"/>
<ellipse transform="matrix(-0.7071 -0.7071 0.7071 -0.7071 427.9357 575.8991)" style="fill:#FFFFFF;" cx="333.24" cy="199.321" rx="6.592" ry="11.168"/>
<path style="fill:#65B1EF;" d="M419.28,270.08c-6.976,13.632-12.784,27.824-13.392,43.12c-0.8,20.288-0.064,44.176,1.36,59.104
	c2.16,21.568-15.52,19.504-15.52,6.24c0-5.28,2.72-9.92,4.64-14.72c8.576-20.816,1.296-42.416-8-48
	c-5.76-3.632-22.784-5.84-25.76,0.64c-1.472,3.536,1.552,9.184-0.16,12.32c-0.96,1.92-4.608,3.488-5.28,1.44
	c-4.976-15.296,1.6-22.56-31.36-31.04c-5.408-1.392-35.36-10.96-38.72-16.8c-1.12-1.92-2.72-10.08-1.6-11.2v-0.16l0.16-0.16
	c3.36-7.68,12.64-3.2,20-1.12c12.64,3.2,25.92-3.68,39.2-2.72c19.84,1.12,22.4,12.48,48-0.8c15.04-8,23.2-4.96,27.04,0.48
	C420.208,267.648,419.92,268.816,419.28,270.08z"/>
<path id="SVGCleanerId_0" style="fill:#3E4347;" d="M346.4,433.408c-60.32-13.92-120.48-13.92-180.8,0
	c-10.72,2.4-20.96-6.08-19.36-16.96c9.76-61.92,55.2-108.8,109.76-108.8s100,46.88,109.76,108.8
	C367.36,427.328,357.12,435.824,346.4,433.408z"/>
<g>
	<path id="SVGCleanerId_0_1_" style="fill:#3E4347;" d="M346.4,433.408c-60.32-13.92-120.48-13.92-180.8,0
		c-10.72,2.4-20.96-6.08-19.36-16.96c9.76-61.92,55.2-108.8,109.76-108.8s100,46.88,109.76,108.8
		C367.36,427.328,357.12,435.824,346.4,433.408z"/>
</g>
<path style="fill:#E24B4B;" d="M323.152,428.752c0.672-3.088,1.184-6.224,1.424-9.456l0.064-0.896
	c2.096-37.088-37.2-62.64-71.44-48.304c-10.688,4.48-22.384,6.336-34.208,5.776c-12.736-0.48-24.384,6.944-27.968,18.992
	c-2.56,8.368-3.52,17.472-2.432,27.152c0.24,2.24,0.768,4.4,1.232,6.592C234.288,421.104,278.688,421.136,323.152,428.752z"/>
<path style="fill:#FFFFFF;" d="M256.432,341.568c39.216,0,67.168,7.504,87.856,18.096c-20.432-31.584-52.336-52.016-88.288-52.016
	s-67.856,20.416-88.288,52.016C188.4,349.088,217.216,341.568,256.432,341.568z"/>
<g>
</g>
<g>
</g>
<g>
</g>
<g>
</g>
<g>
</g>
<g>
</g>
<g>
</g>
<g>
</g>
<g>
</g>
<g>
</g>
<g>
</g>
<g>
</g>
<g>
</g>
<g>
</g>
<g>
</g>
</svg>
