<?xml version="1.0" encoding="iso-8859-1"?>
<!-- Generator: Adobe Illustrator 19.0.0, SVG Export Plug-In . SVG Version: 6.00 Build 0)  -->
<svg version="1.1" id="Capa_1" xmlns="http://www.w3.org/2000/svg" xmlns:xlink="http://www.w3.org/1999/xlink" x="0px" y="0px"
	 viewBox="0 0 512 512" style="enable-background:new 0 0 512 512;" xml:space="preserve">
<circle style="fill:#FFD93B;" cx="256" cy="256" r="256"/>
<path style="fill:#F4C534;" d="M512,256c0,141.44-114.64,256-256,256c-80.48,0-152.32-37.12-199.28-95.28
	c43.92,35.52,99.84,56.72,160.72,56.72c141.36,0,256-114.56,256-256c0-60.88-21.2-116.8-56.72-160.72
	C474.8,103.68,512,175.52,512,256z"/>
<path style="fill:#3E4347;" d="M380.704,397.424c-2.384,8.112-11.056,14.352-21.776,14.88c-68.56,3.728-137.296,3.728-205.856,0
	c-10.72-0.528-19.392-6.784-21.776-14.88c-6.128-21.52-6.128-43.056,0-64.576c2.384-8.112,11.056-14.352,21.776-14.88
	c68.56-3.728,137.296-3.728,205.856,0c10.72,0.528,19.392,6.784,21.776,14.88C386.832,354.384,386.832,375.904,380.704,397.424z"/>
<g>
	<path style="fill:#FFFFFF;" d="M256,352.16c51.904,0,96.736-0.32,118.464-28.16c-4.016-3.376-9.344-5.728-15.536-6.032
		c-68.56-3.728-137.296-3.728-205.856,0c-6.192,0.304-11.52,2.656-15.536,6.048C159.28,351.84,204.112,352.16,256,352.16z"/>
	<path style="fill:#FFFFFF;" d="M358.928,412.32c6-0.304,11.216-2.496,15.184-5.712c-21.872-27.424-66.496-27.68-118.112-27.68
		s-96.24,0.272-118.112,27.68c3.968,3.2,9.184,5.408,15.184,5.712C221.632,416.032,290.368,416.032,358.928,412.32z"/>
</g>
<g>
	<path style="fill:#3E4347;" d="M411.6,264.752c-10.208-22.16-32.464-36.496-56.72-36.496c-14.96,0-29.424,5.392-40.736,15.2
		c-5.856,5.056-14.672,4.448-19.744-1.408c-5.056-5.84-4.432-14.688,1.408-19.744c16.4-14.224,37.392-22.048,59.072-22.048
		c35.152,0,67.408,20.72,82.16,52.784c3.232,7.024,0.16,15.328-6.864,18.576C423.136,274.848,414.816,271.744,411.6,264.752z"/>
	<path style="fill:#3E4347;" d="M81.824,271.616c-7.008-3.232-10.096-11.552-6.864-18.576c14.752-32.064,47.008-52.784,82.16-52.784
		c21.68,0,42.672,7.824,59.072,22.048c5.84,5.056,6.464,13.904,1.408,19.744c-5.056,5.856-13.904,6.464-19.744,1.408
		c-11.312-9.808-25.776-15.2-40.736-15.2c-24.256,0-46.512,14.336-56.72,36.496C97.184,271.744,88.864,274.848,81.824,271.616z"/>
	<path style="fill:#3E4347;" d="M226.944,160.288c1.024,6.512-3.456,12.656-10.112,13.648c-29.184,4.816-73.472-6.512-103.44-39.648
		c-4.4-4.88-4.16-12.56,0.88-16.928c4.864-4.4,12.4-4.192,16.912,0.88c34.864,38.416,81.76,32,82.096,31.92
		C219.968,149.168,226.112,153.648,226.944,160.288z"/>
	<path style="fill:#3E4347;" d="M396.544,167.136c-40.608,9.936-81.28-2.112-108.016-25.248c-4.816-4.512-5.072-12.112-0.72-16.976
		c4.56-4.96,12.16-5.232,16.976-0.72c24.256,19.472,55.024,27.2,86.032,19.68c6.576-1.664,12.928,2.384,14.496,8.768
		C406.88,159.008,402.912,165.568,396.544,167.136z"/>
</g>
<g>
</g>
<g>
</g>
<g>
</g>
<g>
</g>
<g>
</g>
<g>
</g>
<g>
</g>
<g>
</g>
<g>
</g>
<g>
</g>
<g>
</g>
<g>
</g>
<g>
</g>
<g>
</g>
<g>
</g>
</svg>
