<?xml version="1.0" encoding="iso-8859-1"?>
<!-- Generator: Adobe Illustrator 19.0.0, SVG Export Plug-In . SVG Version: 6.00 Build 0)  -->
<svg version="1.1" id="Capa_1" xmlns="http://www.w3.org/2000/svg" xmlns:xlink="http://www.w3.org/1999/xlink" x="0px" y="0px"
	 viewBox="0 0 512 512" style="enable-background:new 0 0 512 512;" xml:space="preserve">
<circle style="fill:#FFD93B;" cx="256" cy="256" r="256"/>
<path style="fill:#F4C534;" d="M512,256c0,141.44-114.64,256-256,256c-80.48,0-152.32-37.12-199.28-95.28
	c43.92,35.52,99.84,56.72,160.72,56.72c141.36,0,256-114.56,256-256c0-60.88-21.2-116.8-56.72-160.72
	C474.8,103.68,512,175.52,512,256z"/>
<path style="fill:#3E4347;" d="M315.632,460.24c-3.264,2.784-7.728,4.944-12.448,5.904c-32.416,7.2-61.856,7.2-94.4,0
	c-4.544-0.96-9.024-3.12-12.288-5.904c-26.416-23.232-71.952-66.608-62-111.808c1.712-6.432,8.96-10.016,18.48-9.264
	c74.32,11.2,131.696,11.328,206.272-0.256c9.248-0.496,16.784,3.024,18.208,9.536C387.392,393.632,342.112,437.008,315.632,460.24z"
	/>
<path style="fill:#E24B4B;" d="M315.648,460.24c7.808-6.848,17.232-15.488,26.4-25.36c-7.744-38.304-47.2-39.52-70.992-30.704
	c-15.04,5.552-30.832,6.96-46.784,5.168c-23.44-2.848-49.76,1.28-54.528,25.2c9.296,10.016,18.864,18.768,26.736,25.696
	c3.264,2.784,7.744,4.944,12.288,5.904c32.56,7.2,62,7.2,94.4,0C307.92,465.2,312.384,463.04,315.648,460.24z"/>
<g>
	<path style="fill:#FFFFFF;" d="M359.248,338.912c-74.592,11.584-131.92,11.456-206.272,0.256
		c-7.44-0.544-13.376,1.488-16.512,5.536c34.56,33.68,63.44,37.056,119.488,37.2c56.096-0.16,85.12-3.536,119.648-37.248
		C372.528,340.592,366.416,338.56,359.248,338.912z"/>
	<path style="fill:#FFFFFF;" d="M315.648,460.24c2.64-2.32,5.504-4.896,8.448-7.6c-7.84-11.744-35.952-10.768-68.096-10.832
		c-32.064,0.048-60.16-0.912-68.048,10.752c2.976,2.736,5.872,5.344,8.544,7.68c3.264,2.784,7.744,4.944,12.288,5.904
		c32.56,7.2,62,7.2,94.4,0C307.92,465.2,312.384,463.04,315.648,460.24z"/>
	<path style="fill:#FFFFFF;" d="M359.328,181.216c0,56.976-46.352,103.136-103.328,103.136s-103.328-46.16-103.328-103.136
		c0-57.168,46.352-103.328,103.328-103.328S359.328,124.048,359.328,181.216z"/>
</g>
<ellipse style="fill:#3E4347;" cx="255.984" cy="181.136" rx="46.24" ry="46.272"/>
<ellipse transform="matrix(-0.7071 -0.7071 0.7071 -0.7071 347.4676 474.2145)" style="fill:#FFFFFF;" cx="271.947" cy="165.144" rx="14.8" ry="9.168"/>
<g>
</g>
<g>
</g>
<g>
</g>
<g>
</g>
<g>
</g>
<g>
</g>
<g>
</g>
<g>
</g>
<g>
</g>
<g>
</g>
<g>
</g>
<g>
</g>
<g>
</g>
<g>
</g>
<g>
</g>
</svg>
