<?xml version="1.0" encoding="iso-8859-1"?>
<!-- Generator: Adobe Illustrator 19.0.0, SVG Export Plug-In . SVG Version: 6.00 Build 0)  -->
<svg version="1.1" id="Capa_1" xmlns="http://www.w3.org/2000/svg" xmlns:xlink="http://www.w3.org/1999/xlink" x="0px" y="0px"
	 viewBox="0 0 512 512" style="enable-background:new 0 0 512 512;" xml:space="preserve">
<circle style="fill:#FFD93B;" cx="256" cy="256" r="256"/>
<path style="fill:#F4C534;" d="M512,256c0,141.44-114.64,256-256,256c-80.48,0-152.32-37.12-199.28-95.28
	c43.92,35.52,99.84,56.72,160.72,56.72c141.36,0,256-114.56,256-256c0-60.88-21.2-116.8-56.72-160.72
	C474.8,103.68,512,175.52,512,256z"/>
<g>
	<path style="fill:#65B1EF;" d="M459.52,126.384c2.608,13.84-6.432,27.2-20.256,29.808c-13.824,2.592-27.232-6.56-29.824-20.384
		s14.384-61.776,14.384-61.776S456.912,112.56,459.52,126.384z"/>
	<path style="fill:#65B1EF;" d="M419.344,316.048c1.04,9.184-5.504,17.504-14.688,18.56c-9.184,1.04-17.52-5.584-18.56-14.768
		s12.352-39.776,12.352-39.776S418.304,306.864,419.344,316.048z"/>
	<path style="fill:#65B1EF;" d="M501.184,241.504c0.976,8.368-4.96,15.984-13.344,16.976c-8.368,0.976-16-5.04-16.976-13.424
		c-0.976-8.368,11.152-36.32,11.152-36.32S500.192,233.12,501.184,241.504z"/>
	<path style="fill:#65B1EF;" d="M500.576,391.888c-0.32,15.12-12.752,27.2-27.888,26.896c-15.12-0.304-27.2-12.896-26.88-28.016
		s28.736-61.824,28.736-61.824S500.896,376.768,500.576,391.888z"/>
	<path style="fill:#65B1EF;" d="M49.808,130.304c-2.8,14.864,6.912,29.232,21.776,32.032s29.264-7.04,32.064-21.92
		c2.8-14.864-15.456-66.4-15.456-66.4S52.592,115.44,49.808,130.304z"/>
	<path style="fill:#65B1EF;" d="M10.896,241.6c-0.976,8.32,4.944,15.888,13.264,16.864c8.32,0.976,15.904-5.008,16.88-13.344
		c0.976-8.32-11.088-36.096-11.088-36.096S11.872,233.28,10.896,241.6z"/>
	<path style="fill:#65B1EF;" d="M11.424,391.888c0.32,15.12,12.752,27.2,27.888,26.896c15.12-0.304,27.2-12.896,26.88-28.016
		s-28.736-61.824-28.736-61.824S11.104,376.768,11.424,391.888z"/>
</g>
<ellipse style="fill:#FFFFFF;" cx="176.96" cy="238.112" rx="63.52" ry="80.32"/>
<circle style="fill:#3E4347;" cx="186.448" cy="261.12" r="31.232"/>
<g>
	
		<ellipse transform="matrix(-0.7071 -0.7071 0.7071 -0.7071 162.961 565.4417)" style="fill:#FFFFFF;" cx="198.587" cy="248.971" rx="9.36" ry="6.256"/>
	<ellipse style="fill:#FFFFFF;" cx="335.008" cy="238.112" rx="63.52" ry="80.32"/>
</g>
<circle style="fill:#3E4347;" cx="325.552" cy="261.12" r="31.232"/>
<ellipse transform="matrix(-0.7071 -0.7071 0.7071 -0.7071 358.9586 646.6538)" style="fill:#FFFFFF;" cx="313.406" cy="248.984" rx="6.256" ry="9.36"/>
<path style="fill:#3E4347;" d="M372.8,433.488c2.496,9.856-6.16,18.848-15.216,16.288c-67.616-18.64-135.424-18.64-203.216,0
	c-9.056,2.576-17.52-6.432-15.216-16.288c13.872-57.424,60.864-99.648,116.928-99.648
	C311.936,333.856,358.928,376.064,372.8,433.488z"/>
<path style="fill:#FFFFFF;" d="M348.288,381.488c-61.008-16.544-123.2-16.544-184.368,0c22.064-29.088,54.992-47.632,92.096-47.632
	C292.96,333.856,326.048,352.4,348.288,381.488z"/>
<path style="fill:#E24B4B;" d="M324.72,442.432c-9.856,37.104-34.096,69.536-68.528,69.536c-34.768,0-58.832-32.592-68.528-69.696
	c-6.016-22.4,13.376-42.784,36.112-38.784c21.568,3.68,43.12,3.68,64.688,0C311.344,399.472,330.56,419.856,324.72,442.432z"/>
<g>
	<path style="fill:#3E4347;" d="M395.376,144.736c-17.84-10.72-2.08-9.312-91.04-50.4
		C331.12,85.808,384.064,103.264,395.376,144.736z"/>
	<path style="fill:#3E4347;" d="M207.696,94.336c-90.752,41.904-65.408,35.008-91.04,50.4
		C127.712,104.192,179.104,85.232,207.696,94.336z"/>
</g>
<g>
</g>
<g>
</g>
<g>
</g>
<g>
</g>
<g>
</g>
<g>
</g>
<g>
</g>
<g>
</g>
<g>
</g>
<g>
</g>
<g>
</g>
<g>
</g>
<g>
</g>
<g>
</g>
<g>
</g>
</svg>
