<?xml version="1.0" encoding="iso-8859-1"?>
<!-- Generator: Adobe Illustrator 19.0.0, SVG Export Plug-In . SVG Version: 6.00 Build 0)  -->
<svg version="1.1" id="Capa_1" xmlns="http://www.w3.org/2000/svg" xmlns:xlink="http://www.w3.org/1999/xlink" x="0px" y="0px"
	 viewBox="0 0 511.987 511.987" style="enable-background:new 0 0 511.987 511.987;" xml:space="preserve">
<circle style="fill:#FFD93B;" cx="256.003" cy="255.993" r="251.648"/>
<path style="fill:#F4C534;" d="M256.019,507.641c-79.104,0-149.728-36.496-195.888-93.664c43.168,34.912,98.144,55.76,157.984,55.76
	c212.224,0,327.712-246.64,195.888-409.632C597.267,208.281,493.651,507.641,256.019,507.641z"/>
<g>
	<path style="fill:#3E4347;" d="M256.067,314.265c-67.104,45.536-208.992,8.48-253.632-100.176
		c-3.088-11.664-4.72-28.976,4.448-44.064c18.704-31.84,66.528-39.104,113.44-35.136c27.696,2.208,48.88,4,67.088,6.288
		c45.744,5.808,91.456,5.808,137.232,0c18.192-2.272,39.376-4.08,67.04-6.288c46.896-3.984,94.736,3.28,113.44,35.136
		c9.152,15.088,7.504,32.4,4.448,44.064C465.027,322.617,323.187,359.673,256.067,314.265z"/>
	<path style="fill:#3E4347;" d="M347.075,391.353c0,8.96-7.232,16.352-16.352,16.352H181.315c-9.12,0-16.352-7.392-16.352-16.352
		c0-9.12,7.232-16.352,16.352-16.352h149.408C339.843,374.985,347.075,382.233,347.075,391.353z"/>
	<path style="fill:#3E4347;" d="M420.627,117.993c-47.44-51.696-121.824-22.368-122.576-22.064c-5.392,2.208-11.632-0.4-13.84-5.84
		c-2.192-5.44,0.416-11.632,5.856-13.824c3.616-1.472,88.848-35.072,146.208,27.392c3.968,4.32,3.68,11.04-0.64,14.992
		C431.347,122.585,424.595,122.329,420.627,117.993z"/>
	<path style="fill:#3E4347;" d="M76.419,118.633c-4.336-3.968-4.608-10.672-0.64-14.992
		c57.312-62.432,142.592-28.848,146.208-27.392c5.424,2.192,8.032,8.384,5.84,13.808c-2.176,5.424-8.352,8.048-13.808,5.872
		c-3.04-1.232-75.344-29.44-122.592,22.064C87.443,122.329,80.691,122.585,76.419,118.633z"/>
</g>
<path style="fill:#FFFFFF;" d="M344.627,299.145c-39.072,7.12-70.864-16.528-70.864-52.704c0-36.096,31.776-71.248,70.864-78.368
	c39.072-7.12,70.864,16.464,70.864,52.56C415.491,256.809,383.715,292.025,344.627,299.145z"/>
<path style="fill:#3E4347;" d="M371.283,237.145c0,40.224-60.544,40.272-60.544,0C310.739,197.161,371.283,197.097,371.283,237.145z
	"/>
<g>
	
		<ellipse transform="matrix(-0.7071 -0.7071 0.7071 -0.7071 439.5159 635.7208)" style="fill:#FFFFFF;" cx="351.42" cy="226.834" rx="9.104" ry="5.76"/>
	<path style="fill:#FFFFFF;" d="M96.531,220.617c0-36.096,31.776-59.664,70.864-52.56c39.072,7.12,70.864,42.272,70.864,78.368
		c0,36.176-31.776,59.824-70.864,52.704S96.531,256.809,96.531,220.617z"/>
</g>
<path style="fill:#3E4347;" d="M201.283,237.145c0,40.224-60.544,40.272-60.544,0C140.739,197.161,201.283,197.097,201.283,237.145z
	"/>
<ellipse transform="matrix(-0.7071 -0.7071 0.7071 -0.7071 149.2829 515.5003)" style="fill:#FFFFFF;" cx="181.405" cy="226.833" rx="9.104" ry="5.76"/>
<g>
</g>
<g>
</g>
<g>
</g>
<g>
</g>
<g>
</g>
<g>
</g>
<g>
</g>
<g>
</g>
<g>
</g>
<g>
</g>
<g>
</g>
<g>
</g>
<g>
</g>
<g>
</g>
<g>
</g>
</svg>
