<?xml version="1.0" encoding="iso-8859-1"?>
<!-- Generator: Adobe Illustrator 19.0.0, SVG Export Plug-In . SVG Version: 6.00 Build 0)  -->
<svg version="1.1" id="Capa_1" xmlns="http://www.w3.org/2000/svg" xmlns:xlink="http://www.w3.org/1999/xlink" x="0px" y="0px"
	 viewBox="0 0 512 512" style="enable-background:new 0 0 512 512;" xml:space="preserve">
<circle style="fill:#FFD93B;" cx="256" cy="256" r="256"/>
<path style="fill:#F4C534;" d="M512,256c0,141.44-114.64,256-256,256c-80.48,0-152.32-37.12-199.28-95.28
	c43.92,35.52,99.84,56.72,160.72,56.72c141.36,0,256-114.56,256-256c0-60.88-21.2-116.8-56.72-160.72
	C474.8,103.68,512,175.52,512,256z"/>
<path style="fill:#FFFFFF;" d="M422.352,219.296c7.152,50.368-19.632,95.696-59.808,101.408
	c-40.192,5.712-78.528-30.368-85.696-80.736c-7.152-50.368,19.6-95.856,59.792-101.568
	C376.832,132.688,415.2,168.944,422.352,219.296z"/>
<path style="fill:#3E4347;" d="M383.456,258.576c0,19.84-16,36-35.84,36c-20,0-36.16-16.16-36.16-36s16.16-36,36.16-36
	C367.456,222.576,383.456,238.736,383.456,258.576z"/>
<path style="fill:#FFFFFF;" d="M367.616,253.136c-2.72,2.72-8.16,1.76-12.16-2.24c-4-4.16-5.12-9.6-2.4-12.32s8-1.76,12.16,2.24
	C369.216,244.976,370.336,250.416,367.616,253.136z"/>
<path style="fill:#3E4347;" d="M305.536,111.04c0,0,26.896,38.688,117.968,27.584C423.504,138.624,294.208,197.04,305.536,111.04z"
	/>
<path style="fill:#FFFFFF;" d="M89.648,219.296c-7.152,50.368,19.632,95.696,59.808,101.408
	c40.192,5.712,78.528-30.368,85.696-80.736c7.152-50.368-19.6-95.856-59.792-101.568C135.168,132.688,96.8,168.944,89.648,219.296z"
	/>
<path style="fill:#3E4347;" d="M200.544,258.576c0,19.84-16,36-35.84,36c-20,0-36.16-16.16-36.16-36s16.16-36,36.16-36
	C184.544,222.576,200.544,238.736,200.544,258.576z"/>
<path style="fill:#FFFFFF;" d="M184.704,253.136c-2.72,2.72-8.16,1.76-12.16-2.24c-4-4.16-5.12-9.6-2.4-12.32s8-1.76,12.16,2.24
	C186.304,244.976,187.424,250.416,184.704,253.136z"/>
<g>
	<path style="fill:#3E4347;" d="M186.256,81.776c0,0-9.616,46.128-97.776,71.552C88.496,153.328,230.352,156.48,186.256,81.776z"/>
	<path style="fill:#3E4347;" d="M337.6,382.736c0,9.6-7.84,17.28-17.44,17.28H191.84c-9.6,0-17.44-7.68-17.44-17.28
		s7.84-17.44,17.44-17.44h128.32C329.76,365.296,337.6,373.136,337.6,382.736z"/>
</g>
<g>
</g>
<g>
</g>
<g>
</g>
<g>
</g>
<g>
</g>
<g>
</g>
<g>
</g>
<g>
</g>
<g>
</g>
<g>
</g>
<g>
</g>
<g>
</g>
<g>
</g>
<g>
</g>
<g>
</g>
</svg>
