<?xml version="1.0" encoding="iso-8859-1"?>
<!-- Generator: Adobe Illustrator 19.0.0, SVG Export Plug-In . SVG Version: 6.00 Build 0)  -->
<svg version="1.1" id="Capa_1" xmlns="http://www.w3.org/2000/svg" xmlns:xlink="http://www.w3.org/1999/xlink" x="0px" y="0px"
	 viewBox="0 0 512 512" style="enable-background:new 0 0 512 512;" xml:space="preserve">
<circle style="fill:#FFD93B;" cx="256" cy="256" r="256"/>
<path style="fill:#F4C534;" d="M512,256c0,141.44-114.64,256-256,256c-80.48,0-152.32-37.12-199.28-95.28
	c43.92,35.52,99.84,56.72,160.72,56.72c141.36,0,256-114.56,256-256c0-60.88-21.2-116.8-56.72-160.72
	C474.8,103.68,512,175.52,512,256z"/>
<path style="fill:#3E4347;" d="M261.168,436.288c-10.336-3.84-23.568-12.176-28.56-22.128c5.312,5.312,13.68,10.88,30.736,14.624
	c36.464,7.888,29.472-14.768,8.48-23.776c-7.232-1.808-11.008-11.392-3.696-17.072c2.56-2.048,4.784-2.736,8.064-4.368
	c6.752-3.904,13.808-10.784,12.704-18.448c0.416-1.232-4.096-4.368-9.696-4.368c-5.328-0.416-10.8,0.128-15.856,1.232
	c-9.664,2.144-24.576,7.056-30.736,14.752c2.944-8.816,19.584-18.928,28.56-22.272c44.752-17.216,52.256,23.152,21.584,40.848
	c0,0-0.144,0-0.144,0.144h0.144C313.792,413.344,305.728,453.424,261.168,436.288z"/>
<g>
	<path style="fill:#E24B4B;" d="M400.352,407.952c0,20.016-22.176,35.072-32.096,40.816c-2.912,1.664-6.448,1.696-9.312,0.032
		c-9.6-5.52-30.896-19.872-32.16-39.04c-0.672-10.096,5.952-19.168,15.936-20.8c9.216-1.488,17.472,3.536,20.832,11.2
		c2.944-6.736,9.664-11.44,17.536-11.44C391.744,388.72,400.352,397.328,400.352,407.952z"/>
	<path style="fill:#E24B4B;" d="M512,340.592c0,28.688-31.776,50.272-46,58.496c-4.16,2.384-9.232,2.432-13.36,0.048
		c-13.76-7.92-44.272-28.48-46.096-55.952c-0.96-14.464,8.528-27.472,22.848-29.808c13.2-2.128,25.024,5.072,29.856,16.048
		c4.208-9.648,13.856-16.4,25.136-16.4C499.664,313.024,512,325.36,512,340.592z"/>
</g>
<g>
	<path style="fill:#3E4347;" d="M437.008,121.968c-42.064-24.496-88.656-27.216-116.16-26.112c-8.64,0.304-12.752-10.64-5.92-15.968
		c50.096-39.264,101.408,5.424,127.504,35.44C445.632,118.96,441.216,124.384,437.008,121.968z"/>
	<path style="fill:#3E4347;" d="M74.992,121.968c42.064-24.496,88.656-27.216,116.16-26.112c8.64,0.304,12.752-10.64,5.92-15.968
		c-50.08-39.248-101.392,5.44-127.488,35.456C66.368,118.96,70.784,124.384,74.992,121.968z"/>
</g>
<path style="fill:#FFFFFF;" d="M436.992,226.704c0,47.6-34.496,86.304-77.056,86.304c-42.432,0-76.912-38.704-76.912-86.304
	c0-47.76,34.496-86.448,76.912-86.448C402.496,140.24,436.992,178.944,436.992,226.704z"/>
<path style="fill:#3E4347;" d="M394.944,240.288c0,21.488-17.584,39.056-39.216,39.056c-21.488,0-39.056-17.584-39.056-39.056
	c0-21.632,17.584-39.216,39.056-39.216C377.36,201.072,394.944,218.656,394.944,240.288z"/>
<g>
	<path style="fill:#FFFFFF;" d="M378.384,233.808c-3.04,3.04-8.96,1.584-13.424-2.752c-4.336-4.48-5.776-10.4-2.736-13.44
		c2.896-2.896,8.96-1.584,13.28,2.736C379.984,224.848,381.28,230.912,378.384,233.808z"/>
	<path style="fill:#FFFFFF;" d="M228.992,226.704c0,47.6-34.496,86.304-77.056,86.304c-42.432,0-76.912-38.704-76.912-86.304
		c0-47.76,34.496-86.448,76.912-86.448C194.496,140.24,228.992,178.944,228.992,226.704z"/>
</g>
<path style="fill:#3E4347;" d="M186.944,240.288c0,21.488-17.584,39.056-39.216,39.056c-21.488,0-39.056-17.584-39.056-39.056
	c0-21.632,17.584-39.216,39.056-39.216C169.36,201.072,186.944,218.656,186.944,240.288z"/>
<path style="fill:#FFFFFF;" d="M170.384,233.808c-3.04,3.04-8.96,1.584-13.424-2.752c-4.336-4.48-5.776-10.4-2.736-13.44
	c2.896-2.896,8.96-1.584,13.28,2.736C171.984,224.848,173.28,230.912,170.384,233.808z"/>
<g>
</g>
<g>
</g>
<g>
</g>
<g>
</g>
<g>
</g>
<g>
</g>
<g>
</g>
<g>
</g>
<g>
</g>
<g>
</g>
<g>
</g>
<g>
</g>
<g>
</g>
<g>
</g>
<g>
</g>
</svg>
