<?xml version="1.0" encoding="iso-8859-1"?>
<!-- Generator: Adobe Illustrator 19.0.0, SVG Export Plug-In . SVG Version: 6.00 Build 0)  -->
<svg version="1.1" id="Capa_1" xmlns="http://www.w3.org/2000/svg" xmlns:xlink="http://www.w3.org/1999/xlink" x="0px" y="0px"
	 viewBox="0 0 512 512" style="enable-background:new 0 0 512 512;" xml:space="preserve">
<circle style="fill:#FFD93B;" cx="256" cy="256" r="256"/>
<path style="fill:#3E4347;" d="M256.032,451.936c-87.04,0.192-110.88-74.512-99.68-82.96c9.76-9.44,43.36,35.584,99.2,35.584
	c55.36,0,90.4-45.024,100.16-35.584C366.752,377.616,343.072,452.128,256.032,451.936z"/>
<path style="fill:#F4C534;" d="M512,256c0,141.44-114.64,256-256,256c-80.48,0-152.32-37.12-199.28-95.28
	c43.92,35.52,99.84,56.72,160.72,56.72c141.36,0,256-114.56,256-256c0-60.88-21.2-116.8-56.72-160.72
	C474.8,103.68,512,175.52,512,256z"/>
<path style="fill:#3E4347;" d="M411.04,307.024c-9.888,64.384-140.672,73.584-154.864,49.616
	c-15.856,23.792-145.168,14.56-155.216-49.616c10.448,13.824,29.408,21.968,46.784,23.04c37.024,2.48,47.664-25.872,65.376-35.088
	c14.528-7.44,33.664-1.248,43.056,15.584c9.04-16.832,28.352-23.024,42.704-15.584c17.712,9.216,28.528,37.552,65.552,35.088
	C381.616,328.992,400.752,320.848,411.04,307.024z"/>
<circle style="fill:#FFFFFF;" cx="365.68" cy="191.856" r="83.52"/>
<circle style="fill:#3E4347;" cx="365.68" cy="191.84" r="40.96"/>
<path style="fill:#FFFFFF;" d="M341.68,185.296c2.88,2.72,8.96,1.28,13.76-3.52c4.8-4.64,6.24-10.88,3.36-13.6
	c-2.72-2.88-8.96-1.44-13.6,3.36C340.4,176.176,338.96,182.416,341.68,185.296z"/>
<path style="fill:#3E4347;" d="M451.776,91.056C414,56.928,381.04,36.72,338.192,40.832
	C338.208,40.832,406.64-34.672,451.776,91.056z"/>
<circle style="fill:#FFFFFF;" cx="146.32" cy="191.856" r="83.52"/>
<circle style="fill:#3E4347;" cx="146.32" cy="191.84" r="40.96"/>
<path style="fill:#FFFFFF;" d="M170.32,185.296c-2.88,2.72-8.96,1.28-13.76-3.52c-4.8-4.64-6.24-10.88-3.36-13.6
	c2.72-2.88,8.96-1.44,13.6,3.36C171.6,176.176,173.04,182.416,170.32,185.296z"/>
<path style="fill:#3E4347;" d="M60.224,91.056C98,56.928,130.96,36.72,173.808,40.832C173.792,40.832,105.36-34.672,60.224,91.056z"
	/>
<g>
</g>
<g>
</g>
<g>
</g>
<g>
</g>
<g>
</g>
<g>
</g>
<g>
</g>
<g>
</g>
<g>
</g>
<g>
</g>
<g>
</g>
<g>
</g>
<g>
</g>
<g>
</g>
<g>
</g>
</svg>
