<?xml version="1.0" encoding="iso-8859-1"?>
<!-- Generator: Adobe Illustrator 19.0.0, SVG Export Plug-In . SVG Version: 6.00 Build 0)  -->
<svg version="1.1" id="Capa_1" xmlns="http://www.w3.org/2000/svg" xmlns:xlink="http://www.w3.org/1999/xlink" x="0px" y="0px"
	 viewBox="0 0 512 512" style="enable-background:new 0 0 512 512;" xml:space="preserve">
<circle style="fill:#FFD93B;" cx="256" cy="256" r="256"/>
<path style="fill:#F4C534;" d="M512,256c0,141.44-114.64,256-256,256c-80.48,0-152.32-37.12-199.28-95.28
	c43.92,35.52,99.84,56.72,160.72,56.72c141.36,0,256-114.56,256-256c0-60.88-21.2-116.8-56.72-160.72
	C474.8,103.68,512,175.52,512,256z"/>
<path style="fill:#3E4347;" d="M350.032,389.92C347.52,424.928,306.4,452.912,256,452.912s-91.632-27.984-94.016-62.992
	C224.592,325.2,287.312,325.344,350.032,389.92z"/>
<path style="fill:#7A5B44;" d="M418.192,370.08c-30.976,39.344-102.128,31.168-115.984,26.784
	c-22-6.912-37.232-18.032-46.224-30.224c-8.976,12.192-24.256,23.312-46.256,30.224c-13.808,4.384-84.96,12.56-115.936-26.784
	c3.808,1.776,43.344,10.672,58.816-2.976c6.976-6.144,11.312-14.64,16.224-22.528c29.728-48.144,69.152-46.816,87.152-28.784
	c18-18.032,57.424-19.36,87.152,28.784c4.912,7.888,9.248,16.368,16.224,22.528C374.848,380.768,414.384,371.856,418.192,370.08z"/>
<path style="fill:#E24B4B;" d="M256.064,452.944c17.488,0,33.808-3.44,47.856-9.296c-0.912-8.656-3.984-16.672-8.896-23.36
	c-7.888-10.72-22.368-14.272-34.704-9.312c-7.088,2.832-14.768,4.256-22.368,4.352c-13.76,0.208-26,9.312-29.136,22.768
	c-0.4,1.808-0.496,3.696-0.688,5.552C222.192,449.52,238.544,452.944,256.064,452.944z"/>
<g>
	<path style="fill:#FFFFFF;" d="M474.56,204.416c-0.176,30.72-14.384,59.328-38,76.736l-0.176,0.176
		c-16.336,11.36-34.992,17.408-54,17.408c-5.328,0-10.656-0.528-15.984-1.424c-24.864-4.624-46.72-18.832-61.456-40.32
		c-30.912-45.472-15.456-93.952,13.68-121.84c28.24-26.992,75.664-40.144,117.936-8.528
		C460.88,144.912,474.736,173.328,474.56,204.416z"/>
	<path style="fill:#FFFFFF;" d="M193.568,135.312c28.96,27.712,44.576,76.192,13.504,121.664
		c-14.736,21.488-36.592,35.696-61.456,40.32c-5.328,0.88-10.656,1.424-16.16,1.424c-18.832,0-37.472-6.032-53.824-17.408
		C51.824,263.728,37.616,235.136,37.44,204.4c-0.176-31.088,13.68-59.504,38.016-77.792
		C117.904,95.008,165.328,108.144,193.568,135.312z"/>
</g>
<g>
	<path style="fill:#3E4347;" d="M447.376,109.744C400,75.68,344.224,87.472,310.576,116.736
		c-14.288,12.432-32.16,20.016-51.088,19.072c-2.352-0.112-4.704-0.112-7.056,0c-18.88,0.96-36.72-6.624-50.976-19.04
		c-33.6-29.264-89.424-41.12-136.848-7.024c-61.104,45.12-60.384,138.72,5.328,180.448c47.952,30.192,111.008,21.664,147.072-26.816
		c12.816-17.52,19.136-36.88,20.576-55.76c0.736-9.52,8.688-16.896,18.224-16.928c0.128,0,0.256,0,0.384,0
		c9.536,0.032,17.488,7.376,18.224,16.88c1.472,18.896,7.872,38.272,20.56,55.808c36.064,48.496,99.104,57.008,147.072,26.816
		C507.76,248.464,508.48,154.848,447.376,109.744z M203.824,254.848c-28.016,40.8-82.912,53.584-125.968,23.312
		c-47.76-35.152-49.456-111.296,0-148.528C156.832,70.784,260.416,171.744,203.824,254.848z M433.856,277.76
		c-42.816,30.112-97.424,17.392-125.28-23.184c-56.096-82.64,46.752-183.056,125.28-124.528
		C483.024,167.056,481.344,242.784,433.856,277.76z"/>
	<path style="fill:#3E4347;" d="M175.248,215.424c0,23.44-18.96,42.416-42.416,42.416c-23.28,0-42.256-18.976-42.256-42.416
		s18.96-42.416,42.256-42.416C156.288,173.008,175.248,191.984,175.248,215.424z"/>
</g>
<ellipse transform="matrix(-0.7071 -0.7071 0.7071 -0.7071 110.4787 446.7957)" style="fill:#FFFFFF;" cx="147.774" cy="200.517" rx="12.384" ry="8.304"/>
<path style="fill:#3E4347;" d="M423.6,215.424c0,23.44-18.96,42.416-42.416,42.416c-23.28,0-42.256-18.976-42.256-42.416
	s18.96-42.416,42.256-42.416C404.64,173.008,423.6,191.984,423.6,215.424z"/>
<ellipse transform="matrix(-0.7071 -0.7071 0.7071 -0.7071 534.4202 622.5066)" style="fill:#FFFFFF;" cx="396.135" cy="200.571" rx="12.384" ry="8.304"/>
<g>
</g>
<g>
</g>
<g>
</g>
<g>
</g>
<g>
</g>
<g>
</g>
<g>
</g>
<g>
</g>
<g>
</g>
<g>
</g>
<g>
</g>
<g>
</g>
<g>
</g>
<g>
</g>
<g>
</g>
</svg>
