<?xml version="1.0" encoding="iso-8859-1"?>
<!-- Generator: Adobe Illustrator 19.0.0, SVG Export Plug-In . SVG Version: 6.00 Build 0)  -->
<svg version="1.1" id="Capa_1" xmlns="http://www.w3.org/2000/svg" xmlns:xlink="http://www.w3.org/1999/xlink" x="0px" y="0px"
	 viewBox="0 0 512 512" style="enable-background:new 0 0 512 512;" xml:space="preserve">
<path style="fill:#65B1EF;" d="M489.968,65.328c-5.536,0-10.096-4.16-10.72-9.52c-8.384-10.096-82.8-29.088-223.232-29.088
	S41.184,45.712,32.8,55.808c-0.624,5.36-5.184,9.52-10.72,9.52c-5.968,0-10.8-4.832-10.8-10.8C11.28,6.512,230.96,5.12,256.016,5.12
	s244.752,1.376,244.752,49.408C500.768,60.496,495.936,65.328,489.968,65.328z M479.168,54.528L479.168,54.528
	C479.168,54.544,479.168,54.544,479.168,54.528z M32.88,54.528L32.88,54.528C32.88,54.544,32.88,54.544,32.88,54.528z"/>
<circle style="fill:#FFD93B;" cx="256" cy="256" r="256"/>
<path style="fill:#F4C534;" d="M512,256c0,141.44-114.64,256-256,256c-80.48,0-152.32-37.12-199.28-95.28
	c43.92,35.52,99.84,56.72,160.72,56.72c141.36,0,256-114.56,256-256c0-60.88-21.2-116.8-56.72-160.72
	C474.8,103.68,512,175.52,512,256z"/>
<path style="fill:#65B1EF;" d="M256.016,104.048c-25.04,0-244.736-1.376-244.736-49.52c0-5.968,4.832-10.8,10.8-10.8
	c5.536,0,10.096,4.16,10.72,9.52c8.368,10.128,82.784,29.2,223.216,29.2s214.848-19.072,223.232-29.2
	c0.624-5.36,5.184-9.52,10.72-9.52c5.968,0,10.8,4.832,10.8,10.8C500.768,102.656,281.056,104.048,256.016,104.048z M479.168,54.512
	L479.168,54.512C479.168,54.528,479.168,54.528,479.168,54.512z M32.88,54.512L32.88,54.512C32.88,54.528,32.88,54.528,32.88,54.512
	z"/>
<path style="fill:#FFFFFF;" d="M232.864,234.544c0,42.608-34.64,77.248-77.424,77.248s-77.424-34.64-77.424-77.248
	c0-42.784,34.64-77.424,77.424-77.424C198.24,157.12,232.864,191.76,232.864,234.544z"/>
<path style="fill:#3E4347;" d="M192.512,234.544c0,20.272-16.624,36.896-37.056,36.896s-37.072-16.624-37.072-36.896
	c0-20.432,16.624-37.056,37.072-37.056C175.888,197.472,192.512,214.096,192.512,234.544z"/>
<g>
	<path style="fill:#FFFFFF;" d="M175.376,228.816c-2.768,2.768-8.144,1.728-12.128-2.256c-3.808-3.984-4.848-9.36-2.256-12.128
		c2.768-2.592,8.144-1.552,12.128,2.432C177.104,220.848,178.144,226.224,175.376,228.816z"/>
	<path style="fill:#FFFFFF;" d="M433.968,234.544c0,42.608-34.64,77.248-77.424,77.248s-77.424-34.64-77.424-77.248
		c0-42.784,34.64-77.424,77.424-77.424S433.968,191.76,433.968,234.544z"/>
</g>
<path style="fill:#3E4347;" d="M393.616,234.544c0,20.272-16.624,36.896-37.056,36.896s-37.072-16.624-37.072-36.896
	c0-20.432,16.624-37.056,37.072-37.056C376.992,197.472,393.616,214.096,393.616,234.544z"/>
<path style="fill:#FFFFFF;" d="M376.464,228.816c-2.768,2.768-8.144,1.728-12.128-2.256c-3.808-3.984-4.848-9.36-2.256-12.128
	c2.768-2.592,8.144-1.552,12.128,2.432C378.192,220.848,379.232,226.224,376.464,228.816z"/>
<path style="fill:#3E4347;" d="M384.416,365.744c-26.528,53.92-73.936,89.856-128.368,89.856s-102.016-35.936-128.544-89.856
	c-3.6-7.36,2.4-15.744,10.608-14.72c78.56,9.92,157.12,9.92,235.856,0C382.192,350,388.176,358.384,384.416,365.744z"/>
<path style="fill:#FFFFFF;" d="M141.984,351.456c24.768,34.048,66.56,39.472,113.984,39.472s89.28-5.424,114.032-39.456
	C293.888,360.736,217.936,360.736,141.984,351.456z"/>
<path style="fill:#E24B4B;" d="M194.256,438.816c18.88,10.624,39.712,16.784,61.792,16.784s42.896-6.16,61.728-16.784
	C309.92,415.504,285.36,417.6,256,417.6C226.624,417.584,202.112,415.504,194.256,438.816z"/>
<g>
</g>
<g>
</g>
<g>
</g>
<g>
</g>
<g>
</g>
<g>
</g>
<g>
</g>
<g>
</g>
<g>
</g>
<g>
</g>
<g>
</g>
<g>
</g>
<g>
</g>
<g>
</g>
<g>
</g>
</svg>
