<?xml version="1.0" encoding="iso-8859-1"?>
<!-- Generator: Adobe Illustrator 19.0.0, SVG Export Plug-In . SVG Version: 6.00 Build 0)  -->
<svg version="1.1" id="Capa_1" xmlns="http://www.w3.org/2000/svg" xmlns:xlink="http://www.w3.org/1999/xlink" x="0px" y="0px"
	 viewBox="0 0 512 512" style="enable-background:new 0 0 512 512;" xml:space="preserve">
<circle style="fill:#FFD93B;" cx="256" cy="256" r="256"/>
<path style="fill:#F4C534;" d="M512,256c0,141.44-114.64,256-256,256c-80.48,0-152.32-37.12-199.28-95.28
	c43.92,35.52,99.84,56.72,160.72,56.72c141.36,0,256-114.56,256-256c0-60.88-21.2-116.8-56.72-160.72
	C474.8,103.68,512,175.52,512,256z"/>
<g>
	<path style="fill:#FFFFFF;" d="M235.44,244.432c0,43.808-35.424,79.376-79.376,79.376c-43.792,0-79.376-35.568-79.376-79.376
		c0-43.952,35.568-79.52,79.376-79.52C200.016,164.912,235.44,200.496,235.44,244.432z"/>
	<path style="fill:#FFFFFF;" d="M276.624,244.288c0-43.808,35.424-79.376,79.376-79.376c43.792,0,79.376,35.568,79.376,79.376
		c0,43.952-35.584,79.52-79.376,79.52C312.048,323.824,276.624,288.24,276.624,244.288z"/>
</g>
<g>
	<path style="fill:#3E4347;" d="M412.416,91.552c-4.24-4.144-11.52-4.448-16.048,0.192c-36.912,37.84-88.416,14.608-88.96,14.32
		c-5.696-2.672-12.384-0.144-15.056,5.568c-2.512,5.744-0.144,12.384,5.568,15.056c2.672,1.12,66.592,29.936,114.688-19.104
		C416.992,103.088,416.912,95.936,412.416,91.552z"/>
	<path style="fill:#3E4347;" d="M99.584,91.552c4.24-4.144,11.52-4.448,16.048,0.192c36.912,37.84,88.416,14.608,88.96,14.32
		c5.696-2.672,12.384-0.144,15.056,5.568c2.512,5.744,0.144,12.384-5.568,15.056c-2.672,1.12-66.592,29.936-114.688-19.104
		C95.008,103.088,95.088,95.936,99.584,91.552z"/>
	<path style="fill:#3E4347;" d="M328.064,400.976c0,10.24-8.32,18.4-18.4,18.4h-107.36c-10.08,0-18.4-8.16-18.4-18.4
		c0-10.08,8.32-18.4,18.4-18.4h107.36C319.744,382.576,328.064,390.896,328.064,400.976z"/>
	<circle style="fill:#3E4347;" cx="165.664" cy="244.368" r="36.16"/>
</g>
<ellipse transform="matrix(-0.7071 -0.7071 0.7071 -0.7071 142.974 520.5497)" style="fill:#FFFFFF;" cx="179.296" cy="230.664" rx="10" ry="6.48"/>
<circle style="fill:#3E4347;" cx="346.4" cy="244.368" r="36.16"/>
<ellipse transform="matrix(-0.7071 -0.7071 0.7071 -0.7071 451.5318 648.2496)" style="fill:#FFFFFF;" cx="360.023" cy="230.61" rx="10" ry="6.48"/>
<g>
</g>
<g>
</g>
<g>
</g>
<g>
</g>
<g>
</g>
<g>
</g>
<g>
</g>
<g>
</g>
<g>
</g>
<g>
</g>
<g>
</g>
<g>
</g>
<g>
</g>
<g>
</g>
<g>
</g>
</svg>
