<?xml version="1.0" encoding="iso-8859-1"?>
<!-- Generator: Adobe Illustrator 19.0.0, SVG Export Plug-In . SVG Version: 6.00 Build 0)  -->
<svg version="1.1" id="Capa_1" xmlns="http://www.w3.org/2000/svg" xmlns:xlink="http://www.w3.org/1999/xlink" x="0px" y="0px"
	 viewBox="0 0 512 512" style="enable-background:new 0 0 512 512;" xml:space="preserve">
<circle style="fill:#FFD93B;" cx="256" cy="256" r="256"/>
<path style="fill:#F4C534;" d="M512,256c0,141.44-114.64,256-256,256c-80.48,0-152.32-37.12-199.28-95.28
	c43.92,35.52,99.84,56.72,160.72,56.72c141.36,0,256-114.56,256-256c0-60.88-21.2-116.8-56.72-160.72
	C474.8,103.68,512,175.52,512,256z"/>
<path style="fill:#3E4347;" d="M419.744,367.12c-11.36,54.4-84.16,93.44-163.68,93.44c-79.84,0-152.48-39.04-163.84-93.44
	c-3.04-14.72-1.44-29.28,4.32-42.88c2.88-7.2,12-9.28,18.24-4.8c38.56,28,105.6,38.72,140.8,38.72c35.52,0,102.88-10.72,141.6-38.72
	c6.24-4.48,15.2-2.4,18.24,4.64C421.184,337.84,422.784,352.416,419.744,367.12z"/>
<circle style="fill:#FFFFFF;" cx="134.16" cy="190.336" r="84.112"/>
<circle style="fill:#3E4347;" cx="142.16" cy="198.336" r="44.688"/>
<g>
	<path style="fill:#FFFFFF;" d="M168.528,192.976c-3.696,3.616-11.28,1.824-17.056-3.952s-7.488-13.296-3.808-16.896
		c3.712-3.632,11.36-1.904,17.136,3.872S172.224,189.36,168.528,192.976z"/>
	<circle style="fill:#FFFFFF;" cx="377.84" cy="190.336" r="84.112"/>
</g>
<circle style="fill:#3E4347;" cx="369.76" cy="198.336" r="44.688"/>
<g>
	<path style="fill:#FFFFFF;" d="M396.208,192.976c-3.696,3.616-11.28,1.824-17.056-3.952s-7.488-13.296-3.808-16.896
		c3.696-3.616,11.344-1.888,17.12,3.888C398.24,181.776,399.904,189.36,396.208,192.976z"/>
	<path style="fill:#FFFFFF;" d="M200.816,384.32c6.032-5.008,9.216-16.56,10.752-30.144c-17.68-2.816-36.576-7.312-54.48-13.68
		c-2.064,17.056-1.808,32.912,4.224,40.192C167.648,388.304,193.184,390.656,200.816,384.32z"/>
	<path style="fill:#FFFFFF;" d="M234.176,357.008c1.328,17.088,7.168,32.112,22.464,36.736c16.112,4.848,71.536-2.784,85.728-11.824
		c13.424-8.544,15.008-24.496,11.728-41.216c-34.832,12.24-74.144,17.472-98.528,17.472
		C249.392,358.176,242,357.712,234.176,357.008z"/>
</g>
<path style="fill:#E24B4B;" d="M256.064,460.576c36.448,0,71.392-8.272,99.76-22.4c-0.368-8.16-3.056-16.304-8.416-23.904
	c-16.432-23.296-46.32-12.192-91.216-12.192s-73.552-11.104-90,12.192c-5.552,7.856-8.224,16.32-8.432,24.752
	C185.824,452.64,220.192,460.576,256.064,460.576z"/>
<g>
</g>
<g>
</g>
<g>
</g>
<g>
</g>
<g>
</g>
<g>
</g>
<g>
</g>
<g>
</g>
<g>
</g>
<g>
</g>
<g>
</g>
<g>
</g>
<g>
</g>
<g>
</g>
<g>
</g>
</svg>
