<?xml version="1.0" encoding="iso-8859-1"?>
<!-- Generator: Adobe Illustrator 19.0.0, SVG Export Plug-In . SVG Version: 6.00 Build 0)  -->
<svg version="1.1" id="Capa_1" xmlns="http://www.w3.org/2000/svg" xmlns:xlink="http://www.w3.org/1999/xlink" x="0px" y="0px"
	 viewBox="0 0 512 512" style="enable-background:new 0 0 512 512;" xml:space="preserve">
<circle style="fill:#FFD93B;" cx="256" cy="256" r="256"/>
<path style="fill:#F4C534;" d="M512,256c0,141.44-114.64,256-256,256c-80.48,0-152.32-37.12-199.28-95.28
	c43.92,35.52,99.84,56.72,160.72,56.72c141.36,0,256-114.56,256-256c0-60.88-21.2-116.8-56.72-160.72
	C474.8,103.68,512,175.52,512,256z"/>
<path style="fill:#FFFFFF;" d="M219.504,184.736c12.432,58.784-28,114.656-71.232,113.904c-43.184-0.256-72.4-36.336-78.032-70.96
	c-4.816-34.928,14.496-73.408,50.8-96.896C156.608,107.504,206.944,125.872,219.504,184.736z"/>
<path style="fill:#3E4347;" d="M140.736,171.104c18.832-10.016,43.296,4.672,49.808,36.608c6.528,31.728-10,62.56-31.248,65.68
	c-21.424,3.264-38.448-16.608-42.688-41.424C112.544,206.928,121.632,181.232,140.736,171.104z"/>
<path style="fill:#65B1EF;" d="M219.536,184.752c-6.976-32.976-46.56-38.112-85.168-19.744
	c-38.88,18.56-66.928,43.168-64.144,62.688c-4.8-34.928,14.512-73.44,50.8-96.96C156.592,107.472,206.976,125.872,219.536,184.752z"
	/>
<path style="fill:#5A5F63;" d="M216.096,175.008c0.064,0.208-2.528-3.12-6.704-5.616c-4.336-2.736-10.688-4.496-18.16-4.832
	c-15.008-0.784-34.464,4.896-53.264,12.352c-4.8,1.952-9.552,4.032-13.904,6.016c-4.528,2.112-8.976,4.224-13.2,6.464
	c-8.544,4.256-16.112,8.944-22.4,13.216c-6.208,4.368-11.056,8.528-13.92,12.112c-2.864,3.536-4.096,6.112-4.096,6.144
	c0.16,0.032-0.464-2.784,0.624-7.888c0.656-2.512,1.6-5.52,3.264-8.768c1.664-3.216,3.712-6.848,6.464-10.368
	c5.264-7.28,12.576-14.848,21.056-21.92c4.256-3.52,8.784-6.944,13.6-10.032c4.928-3.312,9.92-5.952,14.896-8.576
	c20.416-10.176,43.856-13.568,61.52-5.296c4.368,1.76,8.304,4.56,11.6,7.36c3.328,2.8,5.92,6.192,7.872,9.072
	C215.248,170.864,215.872,175.056,216.096,175.008z"/>
<path style="fill:#FFFFFF;" d="M278.656,184.752c-12.432,58.784,28,114.656,71.232,113.904c43.184-0.256,72.4-36.336,78.032-70.96
	c4.816-34.928-14.496-73.408-50.8-96.896C341.536,107.52,291.216,125.888,278.656,184.752z"/>
<path style="fill:#3E4347;" d="M352.592,173.696c-18.832-10.016-43.296,4.672-49.808,36.608c-6.512,31.728,10,62.56,31.248,65.68
	c21.424,3.264,38.448-16.608,42.688-41.424C380.768,209.536,371.696,183.824,352.592,173.696z"/>
<path style="fill:#5A5F63;" d="M343.632,214.224c1.456,9.168,8.144,16.528,14.544,16.256c6.416-0.24,10.208-7.52,8.736-16.272
	c-1.472-8.752-7.6-15.904-14.032-16.144C346.464,197.872,342.16,205.024,343.632,214.224z"/>
<path style="fill:#65B1EF;" d="M278.608,184.768c6.976-32.992,46.56-38.112,85.168-19.744c38.88,18.56,66.928,43.168,64.144,62.688
	c4.816-34.928-14.512-73.44-50.8-96.96C341.568,107.488,291.168,125.888,278.608,184.768z"/>
<path style="fill:#5A5F63;" d="M282.064,175.024c-0.048,0.208,2.528-3.12,6.704-5.616c4.336-2.736,10.688-4.496,18.16-4.832
	c15.008-0.784,34.464,4.896,53.264,12.352c4.8,1.952,9.552,4.032,13.904,6.016c4.528,2.112,8.976,4.224,13.2,6.464
	c8.544,4.256,16.112,8.944,22.4,13.216c6.208,4.368,11.056,8.528,13.936,12.112c2.848,3.536,4.096,6.112,4.096,6.144
	c-0.16,0.032,0.464-2.784-0.624-7.888c-0.656-2.512-1.6-5.52-3.264-8.768c-1.664-3.216-3.712-6.848-6.464-10.368
	c-5.264-7.28-12.576-14.848-21.056-21.92c-4.256-3.52-8.784-6.944-13.6-10.032c-4.928-3.312-9.92-5.952-14.896-8.576
	c-20.416-10.176-43.856-13.568-61.52-5.296c-4.368,1.76-8.304,4.56-11.6,7.36c-3.328,2.8-5.92,6.192-7.872,9.072
	C282.896,170.88,282.288,175.072,282.064,175.024z"/>
<g>
	<path style="fill:#3E4347;" d="M437.36,129.936c-20.24-14.608-42.352-26.688-65.216-34.56c-8.544-2.544-17.072-4.976-25.216-5.824
		c-10.768-1.84-32.752-1.024-46.176-5.776c18.048-20.512,51.52-13.824,77.36-3.952C404.448,90.944,428.512,113.936,437.36,129.936z"
		/>
	<path style="fill:#3E4347;" d="M69.584,113.872c11.552-15.088,38.896-33.856,66-40.816c26.624-5.84,60.56-8.48,75.936,15.344
		c0,0-2.912,0.56-7.312,0.704c-24.304,1.2-27.344-5.152-65.008,0.224C114.16,93.968,88.368,104.16,69.584,113.872z"/>
	<path style="fill:#3E4347;" d="M349.568,425.248c-17.856,4.368-55.504-35.424-104.16-32.032
		c-48.288-3.584-86.336,36.208-104.16,32.032c-22.96-2.064,3.568-101.504,104.16-102.608
		C346.656,324.032,372.384,423.328,349.568,425.248z"/>
</g>
<path style="fill:#5A5F63;" d="M155.68,208.56c1.456,9.168,8.144,16.528,14.544,16.272c6.416-0.24,10.208-7.52,8.736-16.272
	c-1.472-8.752-7.6-15.904-14.032-16.144C158.512,192.208,154.208,199.36,155.68,208.56z"/>
<circle style="fill:#FFD93B;" cx="256" cy="256" r="256"/>
<g>
	<path style="fill:#F4C534;" d="M512,256c0,141.44-114.64,256-256,256c-80.48,0-152.32-37.12-199.28-95.28
		c43.92,35.52,99.84,56.72,160.72,56.72c141.36,0,256-114.56,256-256c0-60.88-21.2-116.8-56.72-160.72
		C474.8,103.68,512,175.52,512,256z"/>
	<path style="fill:#F4C534;" d="M229.648,207.472c0,50.112-31.616,90.864-70.944,90.864c-39.104,0-70.96-40.736-70.96-90.864
		c0-50.112,31.84-90.848,70.96-90.848C198.048,116.624,229.648,157.376,229.648,207.472z"/>
</g>
<path style="fill:#FFFFFF;" d="M215.376,201.616c0,39.808-25.296,72.352-56.672,72.352c-31.152,0-56.432-32.544-56.432-72.352
	c0-40.032,25.296-72.592,56.432-72.592C190.08,129.04,215.376,161.584,215.376,201.616z"/>
<ellipse transform="matrix(-0.9776 -0.2104 0.2104 -0.9776 290.2987 468.1335)" style="fill:#3E4347;" cx="170.052" cy="218.624" rx="30.576" ry="38.431"/>
<path style="fill:#5A5F63;" d="M189.296,210.032c-2.624,1.408-6.704-1.296-9.2-5.968s-2.416-9.792,0.144-10.96
	c2.624-1.408,6.768,1.072,9.264,5.744C191.936,203.744,191.92,208.64,189.296,210.032z"/>
<path style="fill:#F4C534;" d="M267.6,207.472c0,50.112,31.616,90.864,70.944,90.864c39.104,0,70.96-40.736,70.96-90.864
	c0-50.112-31.84-90.848-70.96-90.848C299.216,116.624,267.6,157.376,267.6,207.472z"/>
<path style="fill:#FFFFFF;" d="M281.888,201.616c0,39.808,25.296,72.352,56.672,72.352c31.152,0,56.432-32.544,56.432-72.352
	c0-40.032-25.296-72.592-56.432-72.592C307.184,129.04,281.888,161.584,281.888,201.616z"/>
<ellipse transform="matrix(-0.2104 -0.9776 0.9776 -0.2104 182.3067 584.5007)" style="fill:#3E4347;" cx="327.197" cy="218.628" rx="38.431" ry="30.576"/>
<path style="fill:#5A5F63;" d="M307.968,210.032c2.624,1.408,6.704-1.296,9.2-5.968s2.416-9.792-0.144-10.96
	c-2.624-1.408-6.768,1.072-9.264,5.744C305.328,203.744,305.328,208.64,307.968,210.032z"/>
<g>
	<path style="fill:#3E4347;" d="M319.024,40.272c0,0,65.44,17.888,95.584,78.864C414.608,119.12,384.368-4.768,319.024,40.272z"/>
	<path style="fill:#3E4347;" d="M198.896,42.528c0,0-66.656,12.672-101.504,71.056C97.392,113.6,137.312-7.52,198.896,42.528z"/>
	<path style="fill:#3E4347;" d="M366.8,383.008c2.112,97.04-71.808,61.968-158.672,33.552c-62.368-20.4-93.088,21.216-92.4-33.568
		c-0.72-54.72,30.016-13.088,92.4-33.536C294.992,321.056,368.928,285.792,366.8,383.008z"/>
</g>
<g>
	<path style="fill:#FFFFFF;" d="M359.568,340.048c-20.4-40.448-81.712-13.376-151.44,9.408c-33.024,10.832-57.088,4.32-72.416,3.856
		c-0.16,6.672,0.8,17.024,9.776,21.52c12.432,6.224,128.064-5.856,164.64-16.832C333.632,350.944,350.608,348.32,359.568,340.048z"
		/>
	<path style="fill:#FFFFFF;" d="M361.296,421.872c-13.072-11.888-46-4.624-63.6-9.92c-20.56-6.192-133.904-21.776-147.088-14.08
		c-5.712,3.328-7.952,9.056-8.784,14.48c15.344-1.424,37.36-5.264,66.288,4.192C280.032,440.064,342.912,467.92,361.296,421.872z"/>
</g>
<g>
</g>
<g>
</g>
<g>
</g>
<g>
</g>
<g>
</g>
<g>
</g>
<g>
</g>
<g>
</g>
<g>
</g>
<g>
</g>
<g>
</g>
<g>
</g>
<g>
</g>
<g>
</g>
<g>
</g>
</svg>
