<?xml version="1.0" encoding="iso-8859-1"?>
<!-- Generator: Adobe Illustrator 19.0.0, SVG Export Plug-In . SVG Version: 6.00 Build 0)  -->
<svg version="1.1" id="Capa_1" xmlns="http://www.w3.org/2000/svg" xmlns:xlink="http://www.w3.org/1999/xlink" x="0px" y="0px"
	 viewBox="0 0 512 512" style="enable-background:new 0 0 512 512;" xml:space="preserve">
<circle style="fill:#FFD93B;" cx="256" cy="256" r="256"/>
<path style="fill:#F4C534;" d="M512,256c0,141.44-114.64,256-256,256c-80.48,0-152.32-37.12-199.28-95.28
	c43.92,35.52,99.84,56.72,160.72,56.72c141.36,0,256-114.56,256-256c0-60.88-21.2-116.8-56.72-160.72
	C474.8,103.68,512,175.52,512,256z"/>
<path style="fill:#3E4347;" d="M362,356.72c-3.792,3.168-56.528,40.896-56.528,40.896l-57.824-19.408l-56.832,20.128
	c0,0-54.784-40.112-56.832-41.632l56.72,26.24l56.944-22.672l58.496,24.336L362,356.72z"/>
<circle style="fill:#FFFFFF;" cx="149.92" cy="235.808" r="83.2"/>
<path style="fill:#3E4347;" d="M192.256,271.056c-8.784,21.952-33.808,32.672-55.76,23.888
	c-22.128-8.848-32.672-33.808-23.888-55.76s33.632-32.736,55.76-23.888C190.32,224.08,201.04,249.12,192.256,271.056z"/>
<ellipse transform="matrix(-0.9284 -0.3715 0.3715 -0.9284 240.455 574.8079)" style="fill:#5A5F63;" cx="175.596" cy="264.242" rx="8.4" ry="12.464"/>
<circle style="fill:#FFFFFF;" cx="347.296" cy="235.808" r="83.2"/>
<path style="fill:#3E4347;" d="M294.992,210.544c8.784-21.952,33.808-32.672,55.76-23.888c22.128,8.848,32.672,33.808,23.888,55.76
	s-33.632,32.736-55.76,23.888C296.928,257.52,286.208,232.496,294.992,210.544z"/>
<ellipse transform="matrix(-0.9284 -0.3715 0.3715 -0.9284 520.2287 534.9587)" style="fill:#5A5F63;" cx="311.644" cy="217.368" rx="8.4" ry="12.464"/>
<g>
	<path style="fill:#3E4347;" d="M95.392,115.36c23.84-4.464,49.712-5.008,73.44-1.664c24.88,3.232,51.392,11.056,65.072,34.208
		l-1.008,1.248c-2.608-0.704-65.872-22.704-66.624-22.912c-34.096-9.44-70.784-9.28-70.784-9.28L95.392,115.36z"/>
	<path style="fill:#3E4347;" d="M416.512,116.944c0,0-36.688-0.16-70.784,9.28c-2.976,0.784-62.688,21.856-66.624,22.912
		l-1.008-1.248c16.4-27.76,49.072-32.128,65.072-34.208c23.712-3.328,49.568-2.8,73.44,1.664L416.512,116.944z"/>
</g>
<path style="fill:#E24B4B;" d="M253.024,406.416c0,48.192-22.56,87.2-50.288,87.2c-27.92,0-50.48-39.008-50.48-87.2
	c0-12.048,1.344-23.712,4.016-34.224c16.064,10.128,31.168,19.504,32.32,20.08c2.48-0.96,58.4-23.232,58.4-23.232
	S253.024,393.792,253.024,406.416z"/>
<g>
</g>
<g>
</g>
<g>
</g>
<g>
</g>
<g>
</g>
<g>
</g>
<g>
</g>
<g>
</g>
<g>
</g>
<g>
</g>
<g>
</g>
<g>
</g>
<g>
</g>
<g>
</g>
<g>
</g>
</svg>
