<?xml version="1.0" encoding="iso-8859-1"?>
<!-- Generator: Adobe Illustrator 19.0.0, SVG Export Plug-In . SVG Version: 6.00 Build 0)  -->
<svg version="1.1" id="Capa_1" xmlns="http://www.w3.org/2000/svg" xmlns:xlink="http://www.w3.org/1999/xlink" x="0px" y="0px"
	 viewBox="0 0 512 512" style="enable-background:new 0 0 512 512;" xml:space="preserve">
<circle style="fill:#FFD93B;" cx="256" cy="256" r="256"/>
<path style="fill:#3E4347;" d="M430.912,340.336c-31.36,65.12-97.76,110.08-174.88,110.08s-143.68-44.96-175.04-110.08
	c-6.56-13.76,4.8-28.96,19.84-26.88c103.52,14.08,206.88,14.08,310.4,0C426.112,311.36,437.472,326.576,430.912,340.336z"/>
<path style="fill:#F4C534;" d="M512,256c0,141.44-114.64,256-256,256c-80.48,0-152.32-37.12-199.28-95.28
	c43.92,35.52,99.84,56.72,160.72,56.72c141.36,0,256-114.56,256-256c0-60.88-21.2-116.8-56.72-160.72
	C474.8,103.68,512,175.52,512,256z"/>
<path style="fill:#FFFFFF;" d="M416.624,313.44c-1.728-0.24-3.52-0.256-5.376,0c-103.52,14.08-206.88,14.08-310.4,0
	c-1.904-0.272-3.76-0.24-5.52,0.016c23.568,40.448,86.496,48.336,160.64,48.336C330.128,361.792,393.072,353.92,416.624,313.44z"/>
<path style="fill:#E24B4B;" d="M256.032,450.4c28.224,0,54.976-6.064,79.136-16.896c-3.088-36.336-32.688-76.576-70.48-58.272
	c-31.744,15.04-58.896-6.24-76.848,23.696c-6.736,11.168-10.144,22.944-11.04,34.56C201.008,444.336,227.808,450.4,256.032,450.4z"
	/>
<g>
	<path style="fill:#3E4347;" d="M165.472,221.6v-43.68c-24.016-6.864-39.52-20.992-39.52-46.4c0-22.56,15.152-39.712,39.52-42.128
		v-10.32h15.12v10.32c22.864,2.736,35.408,16.176,38.896,36.288l-26.384,3.44c-1.6-8.208-5.776-13.76-12.512-16.688V153.2
		c26.384,7.152,43.168,17.696,43.168,45.248c0,24.112-14.832,43.584-43.168,47.648V265.6h-15.12v-18.976
		c-23.104-2.8-39.376-16.912-43.696-45.248l27.216-2.912C151.296,209.968,158.192,218.096,165.472,221.6z M165.472,112.128
		c-8.464,2.864-13.44,10.272-13.44,18.144c0,7.04,4.032,13.872,13.456,17.936v-36.08H165.472z M180.592,223.072
		c10.384-1.936,17.616-10.304,17.616-20.848c0-11.04-7.136-16.784-17.616-19.808V223.072z"/>
	<path style="fill:#3E4347;" d="M331.92,221.6v-43.68c-24.016-6.864-39.52-20.992-39.52-46.4c0-22.56,15.152-39.712,39.52-42.128
		v-10.32h15.12v10.32c22.864,2.736,35.408,16.176,38.896,36.288l-26.384,3.44c-1.6-8.208-5.776-13.76-12.512-16.688V153.2
		c26.384,7.152,43.168,17.696,43.168,45.248c0,24.112-14.832,43.584-43.168,47.648V265.6h-15.12v-18.976
		c-23.12-2.8-39.376-16.912-43.696-45.248l27.216-2.912C317.744,209.968,324.624,218.096,331.92,221.6z M331.92,112.128
		c-8.464,2.864-13.456,10.272-13.456,18.144c0,7.04,4.032,13.872,13.456,17.936V112.128z M347.04,223.072
		c10.384-1.936,17.616-10.304,17.616-20.848c0-11.04-7.152-16.784-17.616-19.808V223.072z"/>
</g>
<g>
</g>
<g>
</g>
<g>
</g>
<g>
</g>
<g>
</g>
<g>
</g>
<g>
</g>
<g>
</g>
<g>
</g>
<g>
</g>
<g>
</g>
<g>
</g>
<g>
</g>
<g>
</g>
<g>
</g>
</svg>
