<?xml version="1.0" encoding="iso-8859-1"?>
<!-- Generator: Adobe Illustrator 19.0.0, SVG Export Plug-In . SVG Version: 6.00 Build 0)  -->
<svg version="1.1" id="Capa_1" xmlns="http://www.w3.org/2000/svg" xmlns:xlink="http://www.w3.org/1999/xlink" x="0px" y="0px"
	 viewBox="0 0 512 512" style="enable-background:new 0 0 512 512;" xml:space="preserve">
<circle style="fill:#FFD93B;" cx="256" cy="256" r="256"/>
<path style="fill:#F4C534;" d="M512,256c0,141.44-114.64,256-256,256c-80.48,0-152.32-37.12-199.28-95.28
	c43.92,35.52,99.84,56.72,160.72,56.72c141.36,0,256-114.56,256-256c0-60.88-21.2-116.8-56.72-160.72
	C474.8,103.68,512,175.52,512,256z"/>
<path style="fill:#FFFFFF;" d="M233.776,227.376c0,47.04-31.52,85.28-70.56,85.28c-38.88,0-70.4-38.24-70.4-85.28
	s31.52-85.12,70.4-85.12C202.256,142.256,233.776,180.336,233.776,227.376z"/>
<path style="fill:#3E4347;" d="M212.352,252.336c0,19.536-15.92,35.296-35.296,35.296c-19.536,0-35.296-15.776-35.296-35.296
	c0-19.392,15.776-35.296,35.296-35.296C196.448,217.04,212.352,232.96,212.352,252.336z"/>
<ellipse transform="matrix(-0.7071 -0.7071 0.7071 -0.7071 154.4796 543.2525)" style="fill:#FFFFFF;" cx="189.751" cy="239.632" rx="11.328" ry="6.464"/>
<path style="fill:#3E4347;" d="M78.848,161.024c0,0,44.752-61.312,101.392-51.232c22.992-1.536,20.96-30.448-2.016-28.912
	C178.224,80.88,111.616,82.592,78.848,161.024z"/>
<path style="fill:#FFFFFF;" d="M268.544,227.376c0,47.04,31.52,85.28,70.56,85.28c38.88,0,70.4-38.24,70.4-85.28
	s-31.52-85.12-70.4-85.12C300.064,142.256,268.544,180.336,268.544,227.376z"/>
<path style="fill:#3E4347;" d="M389.76,252.336c0,19.536-15.92,35.296-35.296,35.296c-19.536,0-35.296-15.776-35.296-35.296
	c0-19.392,15.776-35.296,35.296-35.296C373.856,217.04,389.76,232.96,389.76,252.336z"/>
<ellipse transform="matrix(-0.7071 -0.7071 0.7071 -0.7071 457.3465 668.6938)" style="fill:#FFFFFF;" cx="367.164" cy="239.627" rx="11.328" ry="6.464"/>
<path style="fill:#3E4347;" d="M423.456,161.024c0,0-44.752-61.312-101.392-51.232c-22.992-1.536-20.96-30.448,2.016-28.912
	C324.096,80.88,390.704,82.592,423.456,161.024z"/>
<ellipse style="fill:#F4C534;" cx="323.84" cy="428.128" rx="61.76" ry="69.856"/>
<ellipse style="fill:#3E4347;" cx="323.84" cy="428.128" rx="43.376" ry="49.072"/>
<g>
	<path style="fill:#E24B4B;" d="M435.072,407.152v46.096c0,6.496-6.096,11.76-13.584,11.76c-7.552,0-13.648-5.264-13.648-11.76
		s6.096-11.712,13.648-11.712c2.112,0,4.112,0.448,5.888,1.216V419.68l-28.512,4v33.568c0,6.496-6.096,11.76-13.584,11.76
		c-7.552,0-13.648-5.264-13.648-11.76s6.096-11.712,13.648-11.712c2.112,0,4.112,0.448,5.888,1.168v-34.672
		c0-2.384,1.712-4.32,4.048-4.656l34.512-4.88C432.528,402.048,435.072,404.256,435.072,407.152z"/>
	<path style="fill:#E24B4B;" d="M504,294.048v62.592c0,8.816-8.288,15.968-18.448,15.968c-10.24,0-18.528-7.152-18.528-15.968
		c0-8.816,8.288-15.888,18.528-15.888c2.864,0,5.568,0.608,7.984,1.664v-31.328l-38.72,5.424v45.568
		c0,8.816-8.288,15.968-18.448,15.968c-10.24,0-18.528-7.152-18.528-15.968c0-8.816,8.288-15.888,18.528-15.888
		c2.864,0,5.568,0.608,7.984,1.584v-47.072c0-3.232,2.336-5.872,5.504-6.32l46.848-6.624C500.528,287.12,504,290.128,504,294.048z"
		/>
</g>
<g>
</g>
<g>
</g>
<g>
</g>
<g>
</g>
<g>
</g>
<g>
</g>
<g>
</g>
<g>
</g>
<g>
</g>
<g>
</g>
<g>
</g>
<g>
</g>
<g>
</g>
<g>
</g>
<g>
</g>
</svg>
