<?xml version="1.0" encoding="iso-8859-1"?>
<!-- Generator: Adobe Illustrator 19.0.0, SVG Export Plug-In . SVG Version: 6.00 Build 0)  -->
<svg version="1.1" id="Capa_1" xmlns="http://www.w3.org/2000/svg" xmlns:xlink="http://www.w3.org/1999/xlink" x="0px" y="0px"
	 viewBox="0 0 512 512" style="enable-background:new 0 0 512 512;" xml:space="preserve">
<circle style="fill:#FFD93B;" cx="256.94" cy="242.24" r="242.24"/>
<path style="fill:#F4C534;" d="M497.564,242.24c0,133.84-108.48,242.24-242.24,242.24c-76.16,0-144.128-35.12-188.576-90.16
	C108.3,427.936,161.228,448,218.828,448c133.76,0,242.24-108.4,242.24-242.24c0-57.616-20.064-110.528-53.664-152.08
	C462.364,98.112,497.564,166.096,497.564,242.24z"/>
<g>
	<path style="fill:#FFFFFF;" d="M192.844,269.936C153.66,284.976,22.364,307.088,57.5,151.344
		c59.648-13.008,115.024-9.296,171.728,6.352C248.348,239.568,226.828,257.136,192.844,269.936z"/>
	<path style="fill:#FFFFFF;" d="M317.868,269.936c39.184,15.04,170.48,37.152,135.344-118.592
		c-59.648-13.008-115.024-9.296-171.728,6.352C262.364,239.568,283.868,257.136,317.868,269.936z"/>
</g>
<g>
	<path style="fill:#3E4347;" d="M489.1,144.384c-30.192-10.576-106.608-30.448-202.896-4.976c-5.216,1.776-8.528,4.464-10.704,8.528
		c-9.488,16.512-32.4,14-40.128,0c-2.288-4.08-5.6-6.752-10.96-8.528c-96.272-25.472-172.688-5.6-202.88,4.976
		c-6.752,2.544-10.448,9.808-7.904,16.56c2.288,6.752,9.808,10.448,16.56,7.904c3.44-1.136,8.656-2.8,14.768-4.464
		c-5.344,29.68-9.424,85.344,28.912,109.424c51.84,32.352,142.784,8.272,162.528-22.928c6.24-9.68,8.656-22.544,9.168-36.048
		c0-12.576,18.816-14.784,19.36-0.64c0.512,13.76,3.184,26.752,9.296,36.672c19.744,31.2,110.688,55.28,162.528,22.928
		c38.336-24.08,34.256-79.744,28.912-109.424c6.112,1.664,11.328,3.312,14.768,4.464c6.752,2.544,14.272-1.136,16.56-7.904
		C499.548,154.192,495.852,146.928,489.1,144.384z M220.22,240.672c-14.272,22.288-92.208,44.32-136.16,16.816
		c-31.968-20.256-23.312-76.16-18.464-98.08c35.664-7.12,91.072-11.584,155.52,5.984C225.58,186.416,230.796,223.728,220.22,240.672
		z M426.572,257.488c-43.936,27.52-121.888,5.472-136.16-16.816c-10.576-16.944-5.344-54.256-0.896-75.28
		c64.448-17.568,119.856-13.12,155.52-5.984C449.868,181.328,458.54,237.232,426.572,257.488z"/>
	<path style="fill:#3E4347;" d="M343.788,241.648c-19.008,0-34.304-15.152-34.304-34.304c0-18.88,15.296-34.448,34.304-34.304
		c18.88,0,34.304,15.424,34.304,34.304C378.236,226.352,362.668,241.648,343.788,241.648z"/>
</g>
<ellipse transform="matrix(-0.7071 -0.7071 0.7071 -0.7071 471.5983 584.0724)" style="fill:#FFFFFF;" cx="356.765" cy="194.365" rx="10.064" ry="5.952"/>
<path style="fill:#3E4347;" d="M201.148,207.344c0,19.008-15.152,34.304-34.304,34.304c-18.88,0-34.448-15.296-34.304-34.304
	c0-18.88,15.424-34.304,34.304-34.304C185.852,172.896,201.148,188.464,201.148,207.344z"/>
<ellipse transform="matrix(-0.7071 -0.7071 0.7071 -0.7071 125.1954 440.6151)" style="fill:#FFFFFF;" cx="153.852" cy="194.379" rx="5.952" ry="10.064"/>
<path style="fill:#3E4347;" d="M353.276,398.352c1.376,6.816-5.024,13.008-12.576,11.728c-56.24-9.168-113.152-8.752-170.768,0.208
	c-7.552,1.072-13.952-4.896-12.576-11.936c9.152-42.64,49.376-74.832,98.064-74.832C303.9,323.504,343.9,355.712,353.276,398.352z"
	/>
<path style="fill:#E24B4B;" d="M322.204,395.024C311.932,463.408,283.532,511.936,255.308,512
	c-28.384-0.048-56.816-48.72-66.88-117.152c-1.472-21.664,21.84-33.344,40.88-25.376c8.576,3.312,17.552,5.456,26.352,5.488
	c8.624-0.048,17.072-1.936,25.488-5.312C300.236,361.888,323.692,373.328,322.204,395.024z"/>
<g>
	<path style="fill:#3E4347;" d="M402.396,88.512c-32.784-27.824-86.944-32.448-107.552-33.136c-2.816-0.096-3.888-3.744-1.632-5.456
		c55.024-40.768,94.688,3.92,113.632,34.72C408.62,87.488,405.02,90.688,402.396,88.512z"/>
	<path style="fill:#3E4347;" d="M109.564,88.512c32.784-27.824,86.928-32.448,107.552-33.136c2.816-0.096,3.904-3.744,1.632-5.456
		C163.724,9.152,124.06,53.84,105.1,84.64C103.34,87.488,106.94,90.688,109.564,88.512z"/>
</g>
<g>
</g>
<g>
</g>
<g>
</g>
<g>
</g>
<g>
</g>
<g>
</g>
<g>
</g>
<g>
</g>
<g>
</g>
<g>
</g>
<g>
</g>
<g>
</g>
<g>
</g>
<g>
</g>
<g>
</g>
</svg>
