<?xml version="1.0" encoding="iso-8859-1"?>
<!-- Generator: Adobe Illustrator 19.0.0, SVG Export Plug-In . SVG Version: 6.00 Build 0)  -->
<svg version="1.1" id="Capa_1" xmlns="http://www.w3.org/2000/svg" xmlns:xlink="http://www.w3.org/1999/xlink" x="0px" y="0px"
	 viewBox="0 0 511.998 511.998" style="enable-background:new 0 0 511.998 511.998;" xml:space="preserve">
<path style="fill:#FFD93B;" d="M490.802,210.67c19.296,154.768-110.88,284.72-265.584,265.216
	C119.762,462.59,34.594,377.438,21.25,271.982C1.65,117.038,132.098-13.33,287.058,6.398
	C392.546,19.822,477.65,105.134,490.802,210.67z"/>
<path style="fill:#3E4347;" d="M402.85,329.726c-42.56,48.224-104.976,75.696-173.36,66.448
	c-46.88-6.56-88.992-30.752-120.352-66.144c-5.68-6.576,0.304-17.472,8.208-14.784c92.272,32.096,184.704,32.256,277.28,0
	C402.402,312.702,408.514,323.31,402.85,329.726z"/>
<path style="fill:#F4C534;" d="M491.106,268.958c-12.352,108.08-99.792,195.312-207.92,207.36
	c-85.28,9.504-162.8-26.336-211.456-86.576c47.024,38.032,108.944,58.32,175.616,50.944
	c108.496-11.984,196.208-99.68,208.192-208.192c7.36-66.688-12.912-128.592-50.944-175.616
	C464.93,105.63,500.882,183.422,491.106,268.958z"/>
<g>
	<path style="fill:#3E4347;" d="M301.314,13.774c0,0,68.416,3.696,106.8,72.576C408.098,86.35,378.05-41.25,301.314,13.774z"/>
	<path style="fill:#3E4347;" d="M210.69,13.774c0,0-68.416,3.696-106.8,72.576C103.906,86.35,133.954-41.25,210.69,13.774z"/>
</g>
<g>
	<path style="fill:#E24B4B;" d="M332.578,373.294c-6.544,79.52-43.104,138.672-76.672,138.704
		c-33.568-0.016-70.128-59.184-76.528-138.704c0.032-15.936,16.256-24.72,30.976-20.112c29.824,8.864,61.456,8.8,91.28,0
		C316.338,348.414,332.386,357.39,332.578,373.294z"/>
	<path style="fill:#E24B4B;" d="M25.586,205.15c17.92,43.024,100.208,62.992,129.264,68.736c6.384,1.216,12.688-1.376,16.256-6.752
		c16.448-24.816,60.272-97.328,42.336-140.336c-7.2-16.928-22.032-28.208-38.784-31.44c-9.888-1.968-20.384-1.056-30.336,3.088
		c-20.592,8.608-32.72,28.688-32.288,49.68c-14.72-14.976-37.632-20.544-58.224-11.936c-13.296,5.648-23.248,16.064-28.304,28.624
		C20.274,177.262,19.906,191.71,25.586,205.15z"/>
	<path style="fill:#E24B4B;" d="M486.418,205.15c-17.92,43.024-100.208,62.992-129.264,68.736
		c-6.384,1.216-12.688-1.376-16.256-6.752c-16.448-24.816-60.272-97.328-42.336-140.336c7.2-16.928,22.032-28.208,38.784-31.44
		c9.904-1.968,20.4-1.056,30.352,3.088c20.592,8.608,32.72,28.672,32.288,49.664c14.72-14.976,37.632-20.544,58.224-11.936
		c13.28,5.648,23.248,16.064,28.304,28.624C491.73,177.262,492.098,191.71,486.418,205.15z"/>
</g>
<g>
</g>
<g>
</g>
<g>
</g>
<g>
</g>
<g>
</g>
<g>
</g>
<g>
</g>
<g>
</g>
<g>
</g>
<g>
</g>
<g>
</g>
<g>
</g>
<g>
</g>
<g>
</g>
<g>
</g>
</svg>
