<?xml version="1.0" encoding="iso-8859-1"?>
<!-- Generator: Adobe Illustrator 19.0.0, SVG Export Plug-In . SVG Version: 6.00 Build 0)  -->
<svg version="1.1" id="Capa_1" xmlns="http://www.w3.org/2000/svg" xmlns:xlink="http://www.w3.org/1999/xlink" x="0px" y="0px"
	 viewBox="0 0 512.002 512.002" style="enable-background:new 0 0 512.002 512.002;" xml:space="preserve">
<path style="fill:#FFD93B;" d="M489.676,209.65c19.2,154.032-110.352,283.344-264.304,263.936
	C120.412,460.354,35.66,375.618,22.38,270.674C2.876,116.482,132.684-13.262,286.908,6.37
	C391.9,19.73,476.572,104.626,489.676,209.65z"/>
<path style="fill:#F4C534;" d="M489.98,267.666c-12.288,107.568-99.312,194.368-206.928,206.352
	c-84.864,9.456-162.016-26.208-210.432-86.16c46.8,37.856,108.416,58.032,174.784,50.704c107.984-11.92,195.264-99.216,207.2-207.2
	c7.328-66.368-12.848-127.968-50.704-174.784C463.916,105.122,499.708,182.546,489.98,267.666z"/>
<path style="fill:#FFD93B;" d="M331.996,356.898v99.968c0,22.672-14.576,43.584-36.512,49.616c-26.352,7.36-52.704,7.36-79.056,0
	c-21.936-6.032-36.512-26.944-36.512-49.616V353.65c0-44.464,38.128-79.936,83.472-75.664
	C303.004,281.81,331.996,317.138,331.996,356.898z"/>
<path style="fill:#3E4347;" d="M255.948,497.282c-11.776,0-23.744-1.664-35.568-4.976c-15.168-4.176-25.728-18.736-25.728-35.44
	v-103.2c0-33.808,27.52-61.296,61.36-61.296c1.984,0,3.984,0.08,6.016,0.272c30.976,3.008,55.264,31.232,55.264,64.272v99.952
	c0,16.704-10.56,31.28-25.696,35.424C279.708,495.618,267.74,497.282,255.948,497.282z"/>
<g>
	<path style="fill:#E24B4B;" d="M255.948,497.282c11.792,0,23.76-1.664,35.648-4.992c24.624-6.768,39.904-42.848,6.128-72.256
		c-15.984-13.616-24.912,1.056-54.72,1.056c-14.72,0-39.648-2.032-48.368,30.512v5.28c0,16.704,10.56,31.28,25.728,35.44
		C232.204,495.618,244.172,497.282,255.948,497.282z"/>
	<path style="fill:#E24B4B;" d="M223.788,146.37c10.208,55.712-78.352,134.624-78.352,134.624s-110.72-42.416-120.912-98.128
		c-5.232-28.512,13.648-55.856,42.144-61.088c21.808-3.984,42.96,6.16,53.968,23.888c4.016-20.48,20.192-37.456,42-41.456
		C191.212,98.978,218.556,117.858,223.788,146.37z"/>
	<path style="fill:#E24B4B;" d="M288.204,146.37c-10.208,55.712,78.368,134.624,78.368,134.624s110.72-42.416,120.912-98.128
		c5.216-28.512-13.664-55.856-42.176-61.072c-21.808-4-42.944,6.144-53.968,23.872c-4.016-20.48-20.192-37.456-42-41.456
		C320.78,98.978,293.436,117.858,288.204,146.37z"/>
</g>
<g>
	<path style="fill:#3E4347;" d="M301.084,13.698c0,0,68.096,3.68,106.288,72.24C407.372,85.938,377.468-41.038,301.084,13.698z"/>
	<path style="fill:#3E4347;" d="M210.908,13.698c0,0-68.096,3.68-106.288,72.24C104.62,85.938,134.524-41.038,210.908,13.698z"/>
</g>
<g>
</g>
<g>
</g>
<g>
</g>
<g>
</g>
<g>
</g>
<g>
</g>
<g>
</g>
<g>
</g>
<g>
</g>
<g>
</g>
<g>
</g>
<g>
</g>
<g>
</g>
<g>
</g>
<g>
</g>
</svg>
