<?xml version="1.0" encoding="iso-8859-1"?>
<!-- Generator: Adobe Illustrator 19.0.0, SVG Export Plug-In . SVG Version: 6.00 Build 0)  -->
<svg version="1.1" id="Capa_1" xmlns="http://www.w3.org/2000/svg" xmlns:xlink="http://www.w3.org/1999/xlink" x="0px" y="0px"
	 viewBox="0 0 512 512" style="enable-background:new 0 0 512 512;" xml:space="preserve">
<path style="fill:#FFD93B;" d="M447.392,225.66c18.304,146.864-105.216,270.16-252,251.664C95.328,464.7,14.512,383.9,1.856,283.836
	c-18.592-147.008,105.168-270.72,252.208-252C354.176,44.572,434.912,125.516,447.392,225.66z"/>
<path style="fill:#F4C534;" d="M447.696,280.956c-11.728,102.56-94.688,185.328-197.28,196.752
	c-80.928,9.008-154.48-24.976-200.64-82.16c44.624,36.096,103.376,55.328,166.64,48.352
	c102.96-11.376,186.176-94.592,197.552-197.552c6.992-63.28-12.256-122.016-48.352-166.64
	C422.848,125.996,456.96,199.804,447.696,280.956z"/>
<path style="fill:#FFD93B;" d="M381.664,409.676c0,39.952-29.136,72.368-65.104,72.368c-35.824,0-64.976-32.416-64.976-72.368
	c0-39.808,29.152-72.208,64.976-72.208C352.528,337.468,381.664,369.868,381.664,409.676z"/>
<g>
	<path style="fill:#3E4347;" d="M361.184,409.676c0,27.408-19.92,49.568-44.64,49.568c-24.56,0-44.48-22.16-44.48-49.568
		c0-27.264,19.92-49.584,44.48-49.584C341.264,360.108,361.184,382.428,361.184,409.676z"/>
	<path style="fill:#3E4347;" d="M192.288,263.74c-17.056-9.104-37.536-14.352-59.712-14.352s-42.656,5.248-59.712,14.352
		c-7.968,4.256-16.64-4.128-12.512-12.224c13.504-26.16,40.656-43.936,72.224-43.936s58.704,17.776,72.224,43.936
		C208.912,259.612,200.24,267.996,192.288,263.74z"/>
	<path style="fill:#3E4347;" d="M376.336,263.74c-17.056-9.104-37.536-14.352-59.712-14.352s-42.656,5.248-59.712,14.352
		c-7.968,4.256-16.64-4.128-12.512-12.224c13.504-26.16,40.656-43.936,72.224-43.936c31.552,0,58.704,17.776,72.224,43.936
		C392.976,259.612,384.304,267.996,376.336,263.74z"/>
</g>
<path style="fill:#E24B4B;" d="M512,332.012c0,33.136-50.24,71.36-66.992,83.2c-3.088,2.176-7.472,2.176-10.56,0
	c-16.752-11.84-66.992-50.064-66.992-83.2c0-42.096,59.136-51.248,72.272-11.824c4.912-14.752,18.928-25.312,35.136-25.312
	C495.376,294.86,512,311.516,512,332.012z"/>
<g>
	<path style="fill:#3E4347;" d="M344.672,128.668c-14.72-39.84-47.744-40.272-66.128-37.088c-5.92,1.104-11.328-2.864-12.352-8.64
		c-1.024-5.808,2.848-11.328,8.64-12.352c41.856-7.36,75.392,11.568,89.84,50.704c2.048,5.52-0.784,11.648-6.304,13.696
		C352.944,137.004,346.72,134.252,344.672,128.668z"/>
	<path style="fill:#3E4347;" d="M90.848,134.972c-5.536-2.048-8.352-8.16-6.304-13.696C99.008,82.14,132.528,63.164,174.4,70.588
		c5.792,1.008,9.664,6.544,8.64,12.352s-6.4,9.744-12.352,8.64c-18.416-3.264-51.44-2.768-66.16,37.088
		C102.48,134.252,96.256,137.004,90.848,134.972z"/>
</g>
<g>
</g>
<g>
</g>
<g>
</g>
<g>
</g>
<g>
</g>
<g>
</g>
<g>
</g>
<g>
</g>
<g>
</g>
<g>
</g>
<g>
</g>
<g>
</g>
<g>
</g>
<g>
</g>
<g>
</g>
</svg>
