<?xml version="1.0" encoding="iso-8859-1"?>
<!-- Generator: Adobe Illustrator 19.0.0, SVG Export Plug-In . SVG Version: 6.00 Build 0)  -->
<svg version="1.1" id="Capa_1" xmlns="http://www.w3.org/2000/svg" xmlns:xlink="http://www.w3.org/1999/xlink" x="0px" y="0px"
	 viewBox="0 0 512.005 512.005" style="enable-background:new 0 0 512.005 512.005;" xml:space="preserve">
<circle style="fill:#FFD93B;" cx="256.002" cy="245.173" r="220.384"/>
<path style="fill:#F4C534;" d="M476.386,245.173c0,121.76-98.688,220.384-220.384,220.384c-69.28,0-131.12-31.952-171.552-82.032
	c37.808,30.576,85.952,48.832,138.352,48.832c121.696,0,220.384-98.624,220.384-220.384c0-52.416-18.256-100.544-48.832-138.352
	C444.354,114.053,476.386,175.893,476.386,245.173z"/>
<g>
	<path style="fill:#E24B4B;" d="M281.714,192.645c-16.288,42.608-129.504,72.96-129.504,72.96s-64.128-98.112-47.84-140.736
		c9.632-25.2,37.904-37.776,63.104-28.144c19.904,7.6,31.936,26.784,31.328,46.944c12.992-15.424,34.832-21.664,54.736-14.048
		C278.754,139.253,291.346,167.429,281.714,192.645z"/>
	<path style="fill:#E24B4B;" d="M416.738,88.965c5.776,33.776-55.808,96.672-55.808,96.672s-78.96-38.896-84.736-72.672
		c-3.408-19.968,10.048-38.912,30.032-42.32c15.776-2.688,30.88,5.104,38.192,18.352c2.512-14.928,14.224-27.312,30-30.016
		C394.402,55.605,413.33,68.997,416.738,88.965z"/>
	<path style="fill:#E24B4B;" d="M275.794,51.157c-8.496,21.536-66.16,36.272-66.16,36.272s-32.032-50.208-23.536-71.76
		c5.024-12.736,19.456-18.96,32.208-13.92c10.064,3.984,16.064,13.792,15.664,24.032c6.688-7.744,17.808-10.784,27.872-6.816
		C274.578,24.021,280.818,38.405,275.794,51.157z"/>
</g>
<path style="fill:#FFD93B;" d="M322.69,380.181c1.184,65.744-21.664,99.104-66.672,97.36c-44.992,1.664-67.84-31.6-66.656-97.36
	c-1.2-65.6,21.68-99.008,66.656-97.248C301.01,281.189,323.89,314.597,322.69,380.181z"/>
<path style="fill:#3E4347;" d="M224.754,454.949c-28.32-25.296-28.288-124.176,0-149.472c14.144-12.624,48.176-12.864,62.544,0.016
	c28.48,25.456,28.16,124.304,0,149.504C272.466,468.261,238.514,467.253,224.754,454.949z"/>
<path style="fill:#FFFFFF;" d="M256.034,324.309c15.184,0,29.52-0.72,42.4-1.968c-3.04-6.976-6.704-12.88-11.136-16.832
	c-14.368-12.864-48.4-12.64-62.544-0.016c-4.416,3.952-8.064,9.856-11.12,16.848C226.53,323.605,240.85,324.309,256.034,324.309z"/>
<path style="fill:#E24B4B;" d="M308.434,392.725c-6.272,64.032-27.328,111.168-52.352,111.168c-25.12,0-46.16-47.312-52.448-111.52
	c-1.328-13.712,11.408-24.24,24.768-21.136c18.576,4.16,36.976,4.416,55.184,0.352C297.106,368.581,309.842,379.013,308.434,392.725
	z"/>
<g>
	<path style="fill:#65B1EF;" d="M288.946,428.869v30.928c0,3.28-2.464,5.76-5.648,5.76c-3.184,0-5.76-2.464-5.76-5.76v18.496
		c0,3.296-2.576,5.76-5.76,5.76c-3.088,0-5.76-2.464-5.76-5.76v-18.496c0,3.28-2.464,5.76-5.76,5.76
		c-3.088,0-5.648-2.464-5.648-5.76v-20.56c0-3.088,2.576-5.76,5.648-5.76c3.296,0,5.76,2.672,5.76,5.76v-26.416
		c0-3.088,2.672-5.744,5.76-5.744c3.184,0,5.76,2.672,5.76,5.744v16.032c0-3.088,2.576-5.76,5.76-5.76
		C286.482,423.109,288.946,425.781,288.946,428.869z"/>
	<ellipse style="fill:#65B1EF;" cx="260.306" cy="506.245" rx="5.696" ry="5.76"/>
	<ellipse style="fill:#65B1EF;" cx="283.266" cy="493.093" rx="5.696" ry="5.76"/>
</g>
<g>
</g>
<g>
</g>
<g>
</g>
<g>
</g>
<g>
</g>
<g>
</g>
<g>
</g>
<g>
</g>
<g>
</g>
<g>
</g>
<g>
</g>
<g>
</g>
<g>
</g>
<g>
</g>
<g>
</g>
</svg>
