<?xml version="1.0" encoding="iso-8859-1"?>
<!-- Generator: Adobe Illustrator 19.0.0, SVG Export Plug-In . SVG Version: 6.00 Build 0)  -->
<svg version="1.1" id="Capa_1" xmlns="http://www.w3.org/2000/svg" xmlns:xlink="http://www.w3.org/1999/xlink" x="0px" y="0px"
	 viewBox="0 0 511.99 511.99" style="enable-background:new 0 0 511.99 511.99;" xml:space="preserve">
<circle style="fill:#FFD93B;" cx="255.995" cy="265.526" r="246.464"/>
<path style="fill:#F4C534;" d="M502.459,265.526c0,136.176-110.368,246.464-246.464,246.464c-77.472,0-146.64-35.728-191.856-91.728
	c42.288,34.192,96.112,54.608,154.736,54.608c136.096,0,246.448-110.288,246.448-246.448c0-58.608-20.416-112.448-54.608-154.736
	C466.635,118.886,502.459,188.054,502.459,265.526z"/>
<path style="fill:#3E4347;" d="M429.243,361.83c-37.792,68.096-101.248,113.056-173.296,113.056S120.443,429.91,82.651,361.83
	c-5.744-10.624,2.368-24.368,12.48-21.456c107.328,30.192,214.48,30.192,321.632,0C426.875,337.462,435.147,351.206,429.243,361.83z
	"/>
<path style="fill:#E24B4B;" d="M255.947,474.902c36.672,0,71.088-11.712,101.056-32.128c-2.448-3.952-5.152-7.776-8.304-11.344
	c-19.776-22.448-55.632-29.168-86.8-20.08c-12.336,3.728-26.448,5.392-42.528,4.528c-3.12-0.16-6.224-0.48-9.312-0.784
	c-20.144-2.352-40.224,3.664-51.184,17.392c-2.272,2.8-4.224,5.792-6.016,8.832C183.307,462.63,218.427,474.902,255.947,474.902z"/>
<circle style="fill:#F4C534;" cx="353.275" cy="219.222" r="93.552"/>
<ellipse style="fill:#FFFFFF;" cx="353.275" cy="219.238" rx="76.768" ry="76.688"/>
<path style="fill:#F4C534;" d="M158.219,130.23c-51.472,0-93.104,41.76-93.104,93.104c0,26.336,10.944,50.048,28.48,66.976
	c8.816-3.456,18.816-5.488,30.128-5.488c27.36,0,47.328,11.36,60.096,27.952c38.864-11.136,67.344-46.88,67.344-89.44
	C251.179,171.99,209.547,130.23,158.219,130.23z"/>
<path style="fill:#FFFFFF;" d="M166.107,146.454c-42.32,0-80.096,34.48-84.448,76.88c-1.92,18.736,2.976,35.872,12.656,49.2
	c8.704-2.448,18.176-3.888,28.592-3.888c26.912,0,48.048,8.928,63.52,22.896c25.792-12.8,45.184-38.496,48.24-68.192
	C239.003,180.934,208.315,146.454,166.107,146.454z"/>
<ellipse style="fill:#3E4347;" cx="179.483" cy="197.862" rx="38.288" ry="38.352"/>
<ellipse transform="matrix(-0.7071 -0.7071 0.7071 -0.7071 199.7986 450.9542)" style="fill:#FFFFFF;" cx="193.295" cy="184.097" rx="11.712" ry="7.504"/>
<ellipse style="fill:#3E4347;" cx="340.091" cy="246.934" rx="38.288" ry="38.352"/>
<ellipse transform="matrix(-0.7071 -0.7071 0.7071 -0.7071 387.0154 694.8628)" style="fill:#FFFFFF;" cx="337.418" cy="267.278" rx="13.568" ry="8.688"/>
<path style="fill:#3E4347;" d="M484.379,135.254c-110.256-77.552-134.896-104.4-191.936-53.136
	c-31.968,26.992-56,18.256-64.08,3.392c-9.296-16.752-8.608-37.952-14.016-54.528c-4.272-14.032-12.256-9.072-26.032-1.392
	c-44.912,25.6-120.144,79.968-152.032,100.736c34.72-34.64,97.168-91.04,141.712-118.288c15.408-8.144,42.816-27.616,57.616,11.856
	c2.48,7.552,8.992,48.448,15.088,52.528c24.864,4.176,36.72-33.184,77.024-39.12c48.672-9.104,96.528,38.48,139.856,80.096
	C477.451,127.238,483.147,133.718,484.379,135.254z"/>
<g>
	<path style="fill:#FFFFFF;" d="M140.267,351.062c36.656,7.552,73.168,11.408,109.68,11.712l-5.552,41.744
		c-0.928,4.304-4.928,7.232-9.088,6.624c-13.088-1.696-27.264-5.392-34.96-7.552c-3.392-1.088-5.696-4.016-6-7.552l-2.16-31.264
		l-6.928,29.264c-1.072,4.624-5.696,7.392-10.16,6.32c-12.784-3.088-26.64-9.088-34.048-12.64c-3.392-1.536-5.232-5.088-4.768-8.784
		L140.267,351.062z"/>
	<path style="fill:#FFFFFF;" d="M366.075,352.134v36.8c0,3.232-1.84,6.16-4.784,7.552c-12.016,5.696-26.8,9.392-35.888,11.392
		c-4.624,1.088-9.088-2.16-9.856-6.784l-4.16-40.976C329.579,358.294,347.899,355.67,366.075,352.134z"/>
	<path style="fill:#FFFFFF;" d="M161.371,412.518c-3.696-0.784-7.232,1.536-8.016,5.232l-4.512,20.704
		c17.872,13.152,37.456,23.12,58.272,29.264v-31.184c0-1.84-0.608-3.696-2-4.928C193.403,420.838,171.995,414.982,161.371,412.518z"
		/>
	<path style="fill:#FFFFFF;" d="M358.459,427.974c-0.384-1.808-1.76-3.36-3.808-3.568c-15.728-1.808-37.84,2.144-46.576,3.84
		c-1.952,0.544-3.6,2.304-3.36,4.288l0.48,26.016l-2.944-24.016c-0.256-2.128-1.808-3.808-4.032-4
		c-17.792-2.16-43.04,2.32-52.912,4.304c-2.288,0.592-4.064,2.672-3.792,4.816l2.32,34.768c4.016,0.272,8.048,0.48,12.112,0.48
		c38.16,0,73.856-12.704,104.64-34.688L358.459,427.974z"/>
</g>
<g>
</g>
<g>
</g>
<g>
</g>
<g>
</g>
<g>
</g>
<g>
</g>
<g>
</g>
<g>
</g>
<g>
</g>
<g>
</g>
<g>
</g>
<g>
</g>
<g>
</g>
<g>
</g>
<g>
</g>
</svg>
