<?xml version="1.0" encoding="iso-8859-1"?>
<!-- Generator: Adobe Illustrator 19.0.0, SVG Export Plug-In . SVG Version: 6.00 Build 0)  -->
<svg version="1.1" id="Capa_1" xmlns="http://www.w3.org/2000/svg" xmlns:xlink="http://www.w3.org/1999/xlink" x="0px" y="0px"
	 viewBox="0 0 512 512" style="enable-background:new 0 0 512 512;" xml:space="preserve">
<circle style="fill:#FFD93B;" cx="256" cy="256" r="256"/>
<path style="fill:#F4C534;" d="M512,256c0,141.44-114.64,256-256,256c-80.48,0-152.32-37.12-199.28-95.28
	c43.92,35.52,99.84,56.72,160.72,56.72c141.36,0,256-114.56,256-256c0-60.88-21.2-116.8-56.72-160.72
	C474.8,103.68,512,175.52,512,256z"/>
<path style="fill:#FFFFFF;" d="M235.44,221.632c0,43.808-35.424,79.376-79.376,79.376c-43.792,0-79.376-35.568-79.376-79.376
	c0-43.952,35.584-79.52,79.376-79.52C200.016,142.112,235.44,177.68,235.44,221.632z"/>
<path style="fill:#3E4347;" d="M156.064,265.632c-20.464,0-38.544-14.528-42.96-34.544c-0.96-4.32,1.776-8.576,6.08-9.536
	c4.272-1.008,8.592,1.76,9.536,6.096c2.816,12.736,14.304,21.984,27.328,21.984c13.248,0,24.496-9.04,27.344-21.984
	c0.944-4.32,5.216-7.072,9.536-6.096c4.304,0.96,7.04,5.216,6.096,9.536C194.56,251.424,176.896,265.632,156.064,265.632z"/>
<path style="fill:#FFFFFF;" d="M435.376,221.632c0,43.808-35.424,79.376-79.376,79.376c-43.792,0-79.376-35.568-79.376-79.376
	c0-43.952,35.584-79.52,79.376-79.52C399.952,142.112,435.376,177.68,435.376,221.632z"/>
<g>
	<path style="fill:#3E4347;" d="M485.264,209.552H445.76c-5.92-44.336-43.888-78.64-89.76-78.64
		c-33.952,0-63.552,18.816-79.04,46.56c-4.208,7.536-12.144,11.92-20.784,11.872c-0.048,0-0.096,0-0.16,0
		c-0.08,0-0.144,0-0.224,0.016c-8.592,0.064-16.512-4.352-20.688-11.84c-15.488-27.76-45.088-46.592-79.04-46.592
		c-45.856,0-83.744,34.32-89.68,78.64H26.736v24H66.64c5.568,41.408,39.216,74.736,81.6,78.32
		c53.632,4.544,99.44-38.224,98.304-92.144c0.912-4.512,4.704-7.968,9.472-7.968c4.864,0,9.376,3.504,9.376,9.872
		c0,52.288,44.56,94.384,97.696,90.304c42.528-3.264,76.816-36.528,82.368-78.384h39.776v-24.016H485.264z M156.064,289.792
		c-37.584,0-68.176-30.592-68.176-68.16c0-37.664,30.576-68.304,68.176-68.304c37.584,0,68.16,30.64,68.16,68.304
		C224.224,259.2,193.648,289.792,156.064,289.792z M356,289.792c-37.584,0-68.176-30.592-68.176-68.16
		c0-37.664,30.576-68.304,68.176-68.304c37.584,0,68.16,30.64,68.16,68.304C424.16,259.2,393.584,289.792,356,289.792z"/>
	<ellipse style="fill:#3E4347;" cx="256" cy="392.352" rx="46.848" ry="61.76"/>
</g>
<path style="fill:#E24B4B;" d="M512,369.984c0,0-38.384-14.304-75.328-12.496v76.352c0,17.52-17.408,31.68-38.752,31.68
	s-38.752-14.16-38.752-31.68c0-17.648,17.392-31.792,38.752-31.792c7.552,0,14.64,1.792,20.512,4.912v-90.592
	c0-6.608,5.872-11.648,12.352-10.928C469.056,310.128,506.48,334.944,512,369.984z"/>
<g>
	<path style="fill:#3E4347;" d="M356,265.632c-20.48,0-38.544-14.528-42.976-34.544c-0.944-4.32,1.776-8.576,6.08-9.536
		c4.256-1.008,8.576,1.76,9.536,6.096c2.816,12.736,14.32,21.984,27.344,21.984c13.248,0,24.48-9.04,27.344-21.984
		c0.944-4.32,5.184-7.072,9.536-6.096c4.304,0.96,7.04,5.216,6.096,9.536C394.48,251.424,376.816,265.632,356,265.632z"/>
	<path style="fill:#3E4347;" d="M129.584,100.72c-5.328-3.136-7.088-10.016-3.936-15.344c11.728-19.84,30.976-34.56,55.632-42.544
		c5.872-1.888,12.208,1.328,14.096,7.2c1.904,5.888-1.328,12.208-7.216,14.112c-19.648,6.368-34.208,17.344-43.248,32.64
		C141.76,102.144,134.848,103.872,129.584,100.72z"/>
	<path style="fill:#3E4347;" d="M367.04,96.72c-8.88-15.2-23.424-26.176-43.216-32.576c-5.888-1.904-9.12-8.224-7.216-14.112
		c1.904-5.872,8.256-9.088,14.096-7.2c24.848,8.048,44.096,22.784,55.68,42.608c3.12,5.344,1.312,12.208-4.016,15.312
		C376.928,103.904,370.112,102.016,367.04,96.72z"/>
</g>
<g>
</g>
<g>
</g>
<g>
</g>
<g>
</g>
<g>
</g>
<g>
</g>
<g>
</g>
<g>
</g>
<g>
</g>
<g>
</g>
<g>
</g>
<g>
</g>
<g>
</g>
<g>
</g>
<g>
</g>
</svg>
