<?xml version="1.0" encoding="iso-8859-1"?>
<!-- Generator: Adobe Illustrator 19.0.0, SVG Export Plug-In . SVG Version: 6.00 Build 0)  -->
<svg version="1.1" id="Capa_1" xmlns="http://www.w3.org/2000/svg" xmlns:xlink="http://www.w3.org/1999/xlink" x="0px" y="0px"
	 viewBox="0 0 512 512" style="enable-background:new 0 0 512 512;" xml:space="preserve">
<circle style="fill:#FFD93B;" cx="256" cy="232.768" r="232.768"/>
<path style="fill:#F4C534;" d="M488.768,232.768c0,128.608-104.24,232.768-232.768,232.768c-73.168,0-138.496-33.76-181.184-86.64
	c39.936,32.304,90.784,51.568,146.128,51.568c128.528,0,232.768-104.16,232.768-232.768c0-55.36-19.28-106.192-51.568-146.128
	C454.944,94.272,488.768,159.584,488.768,232.768z"/>
<g>
	<path style="fill:#FFFFFF;" d="M237.312,214.24c0,39.824-32.208,72.176-72.176,72.176c-39.824,0-72.176-32.352-72.176-72.176
		c0-39.952,32.352-72.304,72.176-72.304C205.088,141.936,237.312,174.272,237.312,214.24z"/>
	<path style="fill:#FFFFFF;" d="M419.088,214.24c0,39.824-32.208,72.176-72.176,72.176c-39.824,0-72.176-32.352-72.176-72.176
		c0-39.952,32.352-72.304,72.176-72.304C386.88,141.936,419.088,174.272,419.088,214.24z"/>
</g>
<g>
	<path style="fill:#3E4347;" d="M464.448,203.248h-35.92c-5.376-40.304-39.904-71.504-81.6-71.504
		c-30.864,0-57.776,17.104-71.872,42.336c-3.824,6.848-11.056,10.832-18.896,10.784c-0.048,0-0.096,0-0.144,0
		c-0.064,0-0.144,0-0.208,0c-7.808,0.064-15.008-3.952-18.816-10.768c-14.08-25.248-40.992-42.368-71.872-42.368
		c-41.696,0-76.144,31.216-81.536,71.504H47.552v21.824H83.84c5.056,37.648,35.664,67.952,74.192,71.216
		c48.768,4.128,90.416-34.752,89.376-83.792c0.832-4.096,4.288-7.248,8.608-7.248c4.416,0,8.528,3.184,8.528,8.976
		c0,47.536,40.512,85.824,88.832,82.112c38.672-2.976,69.856-33.216,74.896-71.264h36.16v-21.808H464.448z M165.136,276.208
		c-34.176,0-61.984-27.808-61.984-61.968c0-34.24,27.808-62.112,61.984-62.112s61.968,27.856,61.968,62.112
		C227.104,248.4,199.312,276.208,165.136,276.208z M346.928,276.208c-34.176,0-61.984-27.808-61.984-61.968
		c0-34.24,27.808-62.112,61.984-62.112s61.968,27.856,61.968,62.112C408.896,248.4,381.104,276.208,346.928,276.208z"/>
	<path style="fill:#3E4347;" d="M187.408,245.92c0,10.4-8.368,18.96-18.896,18.96c-10.4,0-18.896-8.56-18.896-18.96
		c0-10.464,8.496-19.024,18.896-19.024C179.04,226.896,187.408,235.456,187.408,245.92z"/>
</g>
<ellipse transform="matrix(-0.7071 -0.7071 0.7071 -0.7071 129.6028 532.3714)" style="fill:#FFFFFF;" cx="175.059" cy="239.344" rx="6.224" ry="4.304"/>
<path style="fill:#3E4347;" d="M365.808,245.92c0,10.4-8.368,18.96-18.896,18.96c-10.4,0-18.896-8.56-18.896-18.96
	c0-10.464,8.496-19.024,18.896-19.024C357.44,226.896,365.808,235.456,365.808,245.92z"/>
<ellipse transform="matrix(-0.7072 -0.707 0.707 -0.7072 434.1435 658.5938)" style="fill:#FFFFFF;" cx="353.444" cy="239.401" rx="6.224" ry="4.304"/>
<g>
	<rect x="95.12" y="204.672" style="fill:#3E4347;" width="138.208" height="16.368"/>
	<rect x="277.872" y="204.672" style="fill:#3E4347;" width="142.288" height="16.368"/>
	<path style="fill:#3E4347;" d="M204.048,50.912c0.288,5.088-3.68,9.472-8.624,9.744c-1.408,0-33.92,2.688-43.808,27.84
		c-1.888,4.752-7.28,7.072-11.856,5.088c-4.672-1.824-7.072-7.056-5.232-11.856c14.416-36.608,58.08-39.28,59.92-39.424
		C199.232,41.696,203.76,45.616,204.048,50.912z"/>
	<path style="fill:#3E4347;" d="M372.224,93.584c-4.544,1.968-9.968-0.336-11.872-5.088c-9.888-25.152-42.4-27.84-43.664-27.84
		c-5.088-0.272-9.04-4.656-8.768-9.744c0.288-4.768,4.768-9.248,9.744-8.624c1.84,0.144,45.36,2.832,59.776,39.424
		C379.296,86.528,377.04,91.76,372.224,93.584z"/>
	<path style="fill:#3E4347;" d="M395.776,318.752c-11.904-5.792-65.2,40.336-142.08,38.288
		c-76.896,2.048-130.176-44.096-142.08-38.288c-16.272,3.744,31.824,82.032,142.08,82.112
		C363.968,400.752,412.048,322.464,395.776,318.752z"/>
</g>
<path style="fill:#E24B4B;" d="M243.872,372.624c-24.384-4.4-56.528,4.64-52.4,32.816c14.56,99.44,31.808,106.608,62.272,106.56
	c30.256,0.064,49.584-7.12,62.368-107.872c3.504-27.568-28.608-35.664-52.528-31.488
	C257.04,373.456,250.416,373.408,243.872,372.624z"/>
<g>
</g>
<g>
</g>
<g>
</g>
<g>
</g>
<g>
</g>
<g>
</g>
<g>
</g>
<g>
</g>
<g>
</g>
<g>
</g>
<g>
</g>
<g>
</g>
<g>
</g>
<g>
</g>
<g>
</g>
</svg>
