<?xml version="1.0" encoding="iso-8859-1"?>
<!-- Generator: Adobe Illustrator 19.0.0, SVG Export Plug-In . SVG Version: 6.00 Build 0)  -->
<svg version="1.1" id="Capa_1" xmlns="http://www.w3.org/2000/svg" xmlns:xlink="http://www.w3.org/1999/xlink" x="0px" y="0px"
	 viewBox="0 0 512 512" style="enable-background:new 0 0 512 512;" xml:space="preserve">
<circle style="fill:#FFD93B;" cx="256" cy="256" r="256"/>
<path style="fill:#F4C534;" d="M512,256c0,141.44-114.64,256-256,256c-80.48,0-152.32-37.12-199.28-95.28
	c43.92,35.52,99.84,56.72,160.72,56.72c141.36,0,256-114.56,256-256c0-60.88-21.2-116.8-56.72-160.72
	C474.8,103.68,512,175.52,512,256z"/>
<g>
	<path style="fill:#FFFFFF;" d="M235.44,221.632c0,43.808-35.424,79.376-79.376,79.376c-43.792,0-79.376-35.568-79.376-79.376
		c0-43.952,35.584-79.52,79.376-79.52C200.016,142.112,235.44,177.68,235.44,221.632z"/>
	<path style="fill:#FFFFFF;" d="M435.376,221.632c0,43.808-35.424,79.376-79.376,79.376c-43.792,0-79.376-35.568-79.376-79.376
		c0-43.952,35.584-79.52,79.376-79.52C399.952,142.112,435.376,177.68,435.376,221.632z"/>
</g>
<g>
	<path style="fill:#3E4347;" d="M485.264,209.552H445.76c-5.92-44.336-43.888-78.64-89.744-78.64
		c-33.952,0-63.552,18.816-79.04,46.56c-4.208,7.536-12.16,11.92-20.784,11.872c-0.048,0-0.096,0-0.16,0
		c-0.08,0-0.144,0-0.224,0.016c-8.592,0.064-16.512-4.352-20.688-11.84c-15.488-27.76-45.088-46.592-79.04-46.592
		c-45.856,0-83.744,34.32-89.68,78.64H26.736v24H66.64c5.568,41.408,39.216,74.736,81.6,78.32
		c53.632,4.544,99.44-38.224,98.304-92.144c0.912-4.512,4.704-7.968,9.472-7.968c4.864,0,9.376,3.504,9.376,9.872
		c0,52.288,44.56,94.384,97.696,90.304c42.528-3.264,76.832-36.528,82.368-78.384h39.776v-24.016H485.264z M156.064,289.792
		c-37.584,0-68.176-30.592-68.176-68.16c0-37.664,30.576-68.304,68.176-68.304c37.584,0,68.16,30.64,68.16,68.304
		C224.224,259.2,193.648,289.792,156.064,289.792z M356,289.792c-37.584,0-68.176-30.592-68.176-68.16
		c0-37.664,30.576-68.304,68.176-68.304c37.584,0,68.16,30.64,68.16,68.304C424.16,259.2,393.584,289.792,356,289.792z"/>
	<path style="fill:#3E4347;" d="M366.352,234.4c0,16.688-13.424,30.432-30.32,30.432c-16.688,0-30.32-13.744-30.32-30.432
		c0-16.784,13.648-30.544,30.32-30.544C352.928,203.856,366.352,217.6,366.352,234.4z"/>
</g>
<ellipse transform="matrix(-0.7071 -0.7071 0.7071 -0.7071 433.3604 627.0373)" style="fill:#FFFFFF;" cx="346.544" cy="223.767" rx="10" ry="6.912"/>
<path style="fill:#3E4347;" d="M206.352,234.4c0,16.688-13.424,30.432-30.32,30.432c-16.688,0-30.32-13.744-30.32-30.432
	c0-16.784,13.648-30.544,30.32-30.544C192.928,203.856,206.352,217.6,206.352,234.4z"/>
<ellipse transform="matrix(-0.7071 -0.7071 0.7071 -0.7071 160.2394 513.9388)" style="fill:#FFFFFF;" cx="186.56" cy="223.783" rx="10" ry="6.912"/>
<path style="fill:#3E4347;" d="M340.656,420.336c-8.128-29.92-43.728-51.616-84.656-51.616s-76.528,21.696-84.656,51.616
	c-1.456,5.344-6.912,8.4-12.272,7.04c-5.328-1.456-8.48-6.96-7.024-12.288C162.496,376.64,206.224,348.72,256,348.72
	s93.504,27.92,103.952,66.368c1.456,5.328-1.696,10.832-7.024,12.288C347.584,428.784,342.112,425.648,340.656,420.336z"/>
<path style="fill:#65B1EF;" d="M134.912,372.336c0,17.216-14.064,31.28-31.424,31.28c-17.216,0-31.28-14.064-31.28-31.28
	c0-17.36,31.28-62.656,31.28-62.656S134.912,354.976,134.912,372.336z"/>
<path style="opacity:0.3;fill:#FFFFFF;enable-background:new    ;" d="M119.024,388.688c-4.448,4.24-10,5.728-12.784,2.96
	c-2.592-2.592-1.296-8.32,3.152-12.592c4.448-4.432,10-5.92,12.784-3.152C124.752,378.496,123.456,384.24,119.024,388.688z"/>
<path style="fill:#65B1EF;" d="M130.64,474.832c0,14.864-12.16,27.024-27.152,27.024c-14.88,0-27.024-12.16-27.024-27.024
	c0-15.008,27.024-54.144,27.024-54.144S130.64,459.824,130.64,474.832z"/>
<path style="opacity:0.3;fill:#FFFFFF;enable-background:new    ;" d="M116.912,488.96c-3.84,3.664-8.64,4.96-11.04,2.56
	c-2.24-2.24-1.12-7.2,2.72-10.88c3.84-3.84,8.64-5.12,11.04-2.72C121.872,480.16,120.752,485.12,116.912,488.96z"/>
<path style="fill:#65B1EF;" d="M466.72,364.4c0,17.2-14.064,31.28-31.424,31.28c-17.216,0-31.28-14.064-31.28-31.28
	c0-17.36,31.28-62.656,31.28-62.656S466.72,347.04,466.72,364.4z"/>
<path style="opacity:0.3;fill:#FFFFFF;enable-background:new    ;" d="M450.832,380.752c-4.448,4.256-10,5.728-12.784,2.96
	c-2.592-2.592-1.296-8.32,3.152-12.592c4.448-4.432,10-5.92,12.768-3.152C456.576,370.56,455.28,376.304,450.832,380.752z"/>
<g>
</g>
<g>
</g>
<g>
</g>
<g>
</g>
<g>
</g>
<g>
</g>
<g>
</g>
<g>
</g>
<g>
</g>
<g>
</g>
<g>
</g>
<g>
</g>
<g>
</g>
<g>
</g>
<g>
</g>
</svg>
