<?xml version="1.0" encoding="iso-8859-1"?>
<!-- Generator: Adobe Illustrator 19.0.0, SVG Export Plug-In . SVG Version: 6.00 Build 0)  -->
<svg version="1.1" id="Capa_1" xmlns="http://www.w3.org/2000/svg" xmlns:xlink="http://www.w3.org/1999/xlink" x="0px" y="0px"
	 viewBox="0 0 512 512" style="enable-background:new 0 0 512 512;" xml:space="preserve">
<circle style="fill:#FFD93B;" cx="256" cy="256" r="256"/>
<g>
	<path style="fill:#F4C534;" d="M512,256c0,141.44-114.64,256-256,256c-80.48,0-152.32-37.12-199.28-95.28
		c43.92,35.52,99.84,56.72,160.72,56.72c141.36,0,256-114.56,256-256c0-60.88-21.2-116.8-56.72-160.72
		C474.8,103.68,512,175.52,512,256z"/>
	<path style="fill:#F4C534;" d="M234.896,210.288c0,57.392-41.184,104.048-92.304,104.048c-50.928,0-92.304-46.656-92.304-104.048
		c0-57.536,41.376-104.048,92.304-104.048C193.696,106.24,234.896,152.752,234.896,210.288z"/>
</g>
<path style="fill:#FFFFFF;" d="M219.616,214.8c-6.48,47.104-46.144,83.376-88.8,80.88c-42.512-2.496-71.76-42.816-65.28-89.904
	c6.496-47.216,46.288-83.376,88.8-80.88C197.008,127.392,226.128,167.584,219.616,214.8z"/>
<path style="fill:#3E4347;" d="M196.688,227.216c0,23.504-19.2,42.544-42.704,42.544s-42.704-19.04-42.704-42.544
	c0-23.664,19.184-42.704,42.704-42.704S196.688,203.536,196.688,227.216z"/>
<path style="fill:#FFFFFF;" d="M181.136,223.856c-3.184,3.184-10.496,1.2-16.208-4.512c-5.712-5.584-7.568-12.896-4.384-16.208
	c3.328-3.184,10.496-1.2,16.208,4.384C182.464,213.216,184.448,220.528,181.136,223.856z"/>
<path style="fill:#F4C534;" d="M268.704,210.288c0,57.392,41.184,104.048,92.304,104.048c50.928,0,92.304-46.656,92.304-104.048
	c0-57.536-41.376-104.048-92.304-104.048C309.904,106.24,268.704,152.752,268.704,210.288z"/>
<path style="fill:#FFFFFF;" d="M283.968,214.8c6.48,47.104,46.144,83.376,88.8,80.88c42.512-2.496,71.76-42.816,65.28-89.904
	c-6.496-47.216-46.288-83.376-88.8-80.88C306.592,127.392,277.472,167.584,283.968,214.8z"/>
<path style="fill:#3E4347;" d="M306.896,227.216c0,23.504,19.2,42.544,42.704,42.544s42.704-19.04,42.704-42.544
	c0-23.664-19.184-42.704-42.704-42.704S306.896,203.536,306.896,227.216z"/>
<path style="fill:#FFFFFF;" d="M322.464,223.856c3.184,3.184,10.496,1.2,16.208-4.512c5.712-5.584,7.568-12.896,4.384-16.208
	c-3.328-3.184-10.496-1.2-16.208,4.384C321.136,213.216,319.136,220.528,322.464,223.856z"/>
<g>
	<path style="fill:#3E4347;" d="M370.768,380.992c0,4.832-3.936,8.768-8.768,8.768H150c-4.832,0-8.768-3.936-8.768-8.768
		s3.936-8.64,8.768-8.64h212.016C366.832,372.352,370.768,376.176,370.768,380.992z"/>
	<path style="fill:#3E4347;" d="M178.752,348.416v30.032c0,2.176-1.776,3.936-3.936,3.936h-20.944c-2.176,0-3.936-1.76-3.936-3.936
		v-30.032c0-2.176,1.776-3.936,3.936-3.936H174.8C176.976,344.464,178.752,346.24,178.752,348.416z"/>
	<path style="fill:#3E4347;" d="M200.592,383.68v30.032c0,2.176-1.776,3.936-3.936,3.936h-20.928c-2.176,0-3.936-1.76-3.936-3.936
		V383.68c0-2.176,1.776-3.936,3.936-3.936h20.928C198.832,379.744,200.592,381.52,200.592,383.68z"/>
	<path style="fill:#3E4347;" d="M225.568,348.416v30.032c0,2.176-1.776,3.936-3.936,3.936h-20.928c-2.176,0-3.936-1.76-3.936-3.936
		v-30.032c0-2.176,1.776-3.936,3.936-3.936h20.928C223.792,344.464,225.568,346.24,225.568,348.416z"/>
	<path style="fill:#3E4347;" d="M247.408,383.68v30.032c0,2.176-1.776,3.936-3.936,3.936h-20.928c-2.176,0-3.936-1.76-3.936-3.936
		V383.68c0-2.176,1.776-3.936,3.936-3.936h20.928C245.648,379.744,247.408,381.52,247.408,383.68z"/>
	<path style="fill:#3E4347;" d="M272.384,348.416v30.032c0,2.176-1.776,3.936-3.936,3.936H247.52c-2.176,0-3.936-1.76-3.936-3.936
		v-30.032c0-2.176,1.776-3.936,3.936-3.936h20.928C270.608,344.464,272.384,346.24,272.384,348.416z"/>
	<path style="fill:#3E4347;" d="M294.224,383.68v30.032c0,2.176-1.776,3.936-3.936,3.936H269.36c-2.176,0-3.936-1.76-3.936-3.936
		V383.68c0-2.176,1.776-3.936,3.936-3.936h20.928C292.464,379.744,294.224,381.52,294.224,383.68z"/>
	<path style="fill:#3E4347;" d="M319.2,348.416v30.032c0,2.176-1.776,3.936-3.936,3.936h-20.928c-2.176,0-3.936-1.76-3.936-3.936
		v-30.032c0-2.176,1.776-3.936,3.936-3.936h20.928C317.424,344.464,319.2,346.24,319.2,348.416z"/>
	<path style="fill:#3E4347;" d="M341.04,383.68v30.032c0,2.176-1.776,3.936-3.936,3.936h-20.928c-2.176,0-3.936-1.76-3.936-3.936
		V383.68c0-2.176,1.776-3.936,3.936-3.936h20.928C339.28,379.744,341.04,381.52,341.04,383.68z"/>
	<path style="fill:#3E4347;" d="M334.08,348.272v30.032c0,2.176,1.776,3.936,3.936,3.936h20.928c2.176,0,3.936-1.76,3.936-3.936
		v-30.032c0-2.176-1.776-3.936-3.936-3.936h-20.928C335.856,344.336,334.08,346.096,334.08,348.272z"/>
	<path style="fill:#3E4347;" d="M361.136,379.472c-5.504-3.6-11.488-0.736-12.144,5.808c-1.344,13.408-0.896,37.344,12.448,65.232
		c7.056,14.752,22.144,21.968,34.016,16.288c11.712-5.6,15.728-21.968,8.672-36.72C390.784,402.208,372.416,386.832,361.136,379.472
		z M391.056,457.616c-4.896,2.352-11.984,0.592-16.832-5.264L397.52,441.2C399.04,448.64,395.968,455.264,391.056,457.616z"/>
</g>
<g>
</g>
<g>
</g>
<g>
</g>
<g>
</g>
<g>
</g>
<g>
</g>
<g>
</g>
<g>
</g>
<g>
</g>
<g>
</g>
<g>
</g>
<g>
</g>
<g>
</g>
<g>
</g>
<g>
</g>
</svg>
