<?xml version="1.0" encoding="iso-8859-1"?>
<!-- Generator: Adobe Illustrator 19.0.0, SVG Export Plug-In . SVG Version: 6.00 Build 0)  -->
<svg version="1.1" id="Capa_1" xmlns="http://www.w3.org/2000/svg" xmlns:xlink="http://www.w3.org/1999/xlink" x="0px" y="0px"
	 viewBox="0 0 512 512" style="enable-background:new 0 0 512 512;" xml:space="preserve">
<circle style="fill:#FFD93B;" cx="256" cy="278.752" r="233.248"/>
<path style="fill:#F4C534;" d="M488.128,278.752C488.128,407.632,383.68,512,254.88,512c-73.328,0-138.784-33.824-181.568-86.816
	c40.016,32.368,90.96,51.68,146.432,51.68c128.8,0,233.248-104.384,233.248-233.248c0-55.472-19.312-106.416-51.68-146.432
	C454.24,139.984,488.128,205.44,488.128,278.752z"/>
<g>
	<ellipse style="fill:#FFFFFF;" cx="171.616" cy="263.76" rx="67.008" ry="67.072"/>
	<path style="fill:#FFFFFF;" d="M407.392,263.792c0,36.976-29.904,67.008-67.008,67.008c-36.976,0-67.008-30.032-67.008-67.008
		c0-37.104,30.032-67.136,67.008-67.136C377.488,196.672,407.392,226.704,407.392,263.792z"/>
</g>
<g>
	<path style="fill:#3E4347;" d="M449.504,253.6H416.16c-4.992-37.424-37.056-66.384-75.76-66.384
		c-28.656,0-53.648,15.888-66.72,39.312c-3.552,6.352-10.256,10.064-17.536,10.016c-0.048,0-0.08,0-0.128,0
		c-0.064,0-0.128,0-0.192,0c-7.248,0.048-13.936-3.664-17.472-10c-13.072-23.44-38.064-39.328-66.72-39.328
		c-38.704,0-70.704,28.976-75.696,66.384H62.448v20.256h33.696c4.704,34.96,33.104,63.088,68.88,66.112
		c45.28,3.84,83.952-32.272,82.976-77.792c0.768-3.808,3.984-6.72,8-6.72c4.096,0,7.92,2.96,7.92,8.336
		c0,44.128,37.616,79.664,82.48,76.224c35.904-2.752,64.848-30.832,69.536-66.16h33.584V253.6H449.504z M171.616,321.328
		c-31.728,0-57.552-25.824-57.552-57.536c0-31.792,25.824-57.664,57.552-57.664s57.536,25.872,57.536,57.664
		C229.152,295.52,203.344,321.328,171.616,321.328z M340.4,321.328c-31.728,0-57.552-25.824-57.552-57.536
		c0-31.792,25.824-57.664,57.552-57.664s57.536,25.872,57.536,57.664C397.92,295.52,372.112,321.328,340.4,321.328z"/>
	<path style="fill:#3E4347;" d="M215.376,137.904c0,5.264-4.592,10.016-10.64,8.656c-15.152-3.392-30.528-3.312-46.128-0.08
		c-5.6,1.168-10.928-2.592-10.928-8.592c0-4.928,3.952-9.04,8.88-9.04c16.176-3.216,32.768-3.248,49.792,0
		C211.424,128.88,215.376,132.976,215.376,137.904z"/>
	<path style="fill:#3E4347;" d="M364.352,137.904c0,5.264-4.592,10.016-10.656,8.656c-15.152-3.392-30.544-3.312-46.128-0.08
		c-5.6,1.168-10.944-2.592-10.944-8.592c0-4.928,3.952-9.04,8.88-9.04c16.176-3.216,32.768-3.248,49.792,0
		C360.4,128.88,364.352,132.976,364.352,137.904z"/>
	<path style="fill:#3E4347;" d="M171.616,309.664c-25.312,0-45.904-20.592-45.904-45.888c0-25.344,20.592-45.984,45.904-45.984
		c25.312,0,45.904,20.624,45.904,45.984C217.52,289.072,196.928,309.664,171.616,309.664z M171.616,231.312
		c-17.856,0-32.4,14.56-32.4,32.48c0,17.856,14.528,32.384,32.4,32.384c17.872,0,32.4-14.528,32.4-32.384
		C204.016,245.872,189.472,231.312,171.616,231.312z"/>
	<path style="fill:#3E4347;" d="M171.616,285.52c-12,0-21.76-9.76-21.76-21.76c0-12.016,9.76-21.792,21.76-21.792
		s21.76,9.776,21.76,21.792C193.376,275.76,183.616,285.52,171.616,285.52z M171.616,255.472c-4.544,0-8.256,3.728-8.256,8.288
		c0,4.544,3.696,8.256,8.256,8.256s8.256-3.712,8.256-8.256C179.872,259.184,176.16,255.472,171.616,255.472z"/>
	<path style="fill:#3E4347;" d="M340.384,309.664c-25.312,0-45.904-20.592-45.904-45.888c0-25.344,20.592-45.984,45.904-45.984
		c25.312,0,45.904,20.624,45.904,45.984C386.288,289.072,365.696,309.664,340.384,309.664z M340.384,231.312
		c-17.856,0-32.4,14.56-32.4,32.48c0,17.856,14.528,32.384,32.4,32.384c17.856,0,32.4-14.528,32.4-32.384
		C372.784,245.872,358.256,231.312,340.384,231.312z"/>
	<path style="fill:#3E4347;" d="M340.384,285.52c-12,0-21.76-9.76-21.76-21.76c0-12.016,9.76-21.792,21.76-21.792
		s21.76,9.776,21.76,21.792C362.144,275.76,352.384,285.52,340.384,285.52z M340.384,255.472c-4.544,0-8.256,3.728-8.256,8.288
		c0,4.544,3.712,8.256,8.256,8.256s8.256-3.712,8.256-8.256C348.64,259.184,344.944,255.472,340.384,255.472z"/>
	<path style="fill:#3E4347;" d="M116.224,382.944c66.592,39.76,207.2,42.944,279.456,0
		C329.232,459.76,183.264,460.336,116.224,382.944z"/>
</g>
<g>
	<polygon style="fill:#F29A2E;" points="174.912,96.528 179.6,123.824 155.088,110.928 130.576,123.824 135.264,96.528 
		115.424,77.248 142.928,73.136 155.088,48.448 167.44,73.136 194.752,77.248 	"/>
	<polygon style="fill:#F29A2E;" points="275.632,58.048 281.28,91.024 251.68,75.44 222.096,91.024 227.744,58.048 203.792,34.784 
		237.008,29.808 251.68,0 266.592,29.808 299.568,34.784 	"/>
	<polygon style="fill:#F29A2E;" points="395.968,98.16 400.368,123.824 377.328,111.696 354.288,123.824 358.672,98.16 
		340.032,80.032 365.888,76.176 377.328,52.96 388.928,76.176 414.608,80.032 	"/>
</g>
<g>
</g>
<g>
</g>
<g>
</g>
<g>
</g>
<g>
</g>
<g>
</g>
<g>
</g>
<g>
</g>
<g>
</g>
<g>
</g>
<g>
</g>
<g>
</g>
<g>
</g>
<g>
</g>
<g>
</g>
</svg>
