<?xml version="1.0" encoding="iso-8859-1"?>
<!-- Generator: Adobe Illustrator 19.0.0, SVG Export Plug-In . SVG Version: 6.00 Build 0)  -->
<svg version="1.1" id="Capa_1" xmlns="http://www.w3.org/2000/svg" xmlns:xlink="http://www.w3.org/1999/xlink" x="0px" y="0px"
	 viewBox="0 0 512 512" style="enable-background:new 0 0 512 512;" xml:space="preserve">
<circle style="fill:#FFD93B;" cx="256" cy="256" r="256"/>
<path style="fill:#F4C534;" d="M512,256c0,141.44-114.64,256-256,256c-80.48,0-152.32-37.12-199.28-95.28
	c43.92,35.52,99.84,56.72,160.72,56.72c141.36,0,256-114.56,256-256c0-60.88-21.2-116.8-56.72-160.72
	C474.8,103.68,512,175.52,512,256z"/>
<g>
	<path style="fill:#3E4347;" d="M155.152,72.928c0,0-52.016-7.312-106.624,55.904C48.528,128.832,83.84,15.6,155.152,72.928z"/>
	<path style="fill:#3E4347;" d="M356.848,72.928c0,0,52.016-7.312,106.624,55.904C463.472,128.832,428.16,15.6,356.848,72.928z"/>
</g>
<path style="fill:#E24B4B;" d="M344.32,401.616c0,19.312-39.552,52.928-88.272,52.928s-88.272-33.6-88.272-52.928
	C226.592,378.288,285.44,378.304,344.32,401.616z"/>
<path style="fill:#BF3333;" d="M344.352,401.616c-19.872,4.768-59.456,11.104-77.504,1.264c-6.592-4.24-14.976-4.032-21.776,0
	c0,0-6.448,3.968-20.176,4.896c-10.288,0.992-32.384-0.24-57.136-6.16c14.976,0.752,60.656,3.168,73.712-4.688h0.208
	c4.256-4.672,18.432-7.008,28.368-0.224c0.208,0,0.208,0.224,0.4,0.224C284.24,404.88,328.608,402.4,344.352,401.616z"/>
<ellipse style="fill:#3E4347;" cx="256" cy="399.664" rx="23.744" ry="13.552"/>
<path style="fill:#E24B4B;" d="M344.304,401.632c0,0-58.096,8.784-75.424-1.584c-0.112-0.112-0.208-0.16-0.304-0.224
	c-7.888-5.024-17.376-4.864-25.328,0.112c-0.048,0-0.096,0.048-0.16,0.112c-17.28,10.368-75.424,1.584-75.424,1.584
	s22.928-44.8,40.16-52.992c10.192-4.864,22.08-5.04,32.08-1.328c10.368,3.84,21.872,3.824,32.256-0.016
	c9.968-3.696,21.856-3.52,32.064,1.344C321.376,356.832,344.304,401.632,344.304,401.632z"/>
<path style="fill:#F4C534;" d="M264.784,239.328c0,59.6,44.032,107.888,98.368,107.888s98.528-48.288,98.528-107.888
	s-44.192-108.064-98.528-108.064S264.784,179.744,264.784,239.328z"/>
<circle style="fill:#FFFFFF;" cx="363.2" cy="239.296" r="83.744"/>
<path style="fill:#3E4347;" d="M402.224,239.28c0,21.6-17.44,39.04-39.04,39.04c-21.44,0-38.88-17.44-38.88-39.04
	c0-21.44,17.44-39.04,38.88-39.04C384.784,200.24,402.224,217.696,402.224,239.28z"/>
<g>
	<path style="fill:#F4C534;" d="M408.064,151.472c-39.6-12.56-66.24-9.68-83.616-3.52c-2.992,6.048-7.008,11.488-12,16.144
		c12.704,2.592,28.704,4.16,46.272,4.16c23.168,0,43.6-2.72,57.28-6.928C412.976,158.336,410.304,155.056,408.064,151.472z"/>
	<path style="fill:#F4C534;" d="M420.272,310.544c-13.52-3.472-31.792-5.728-52.512-5.728c-23.584,0-44.32,2.816-58,7.168
		c2.064,2.736,3.904,5.6,5.456,8.672c52.416,17.44,82.784,8.208,99.056-1.008C415.968,316.416,417.984,313.392,420.272,310.544z"/>
</g>
<ellipse transform="matrix(-0.7071 -0.7071 0.7071 -0.7071 487.459 650.1898)" style="fill:#FFFFFF;" cx="378.388" cy="224.139" rx="11.12" ry="6.88"/>
<circle style="fill:#F4C534;" cx="146.912" cy="239.296" r="96.64"/>
<path style="fill:#3E4347;" d="M146.8,224.448c-36.032,0-67.424,9.52-83.968,23.536c-7.136,6.048-9.664,16.064-6.4,24.832
	l0.048,0.128c13.568-15.376,48.896-26.4,90.32-26.4c41.584,0,76.944,11.04,90.496,26.416c0.016-0.048,0.032-0.08,0.048-0.128
	c3.248-8.768,0.72-18.784-6.416-24.832C214.384,233.968,182.944,224.448,146.8,224.448z"/>
<g>
</g>
<g>
</g>
<g>
</g>
<g>
</g>
<g>
</g>
<g>
</g>
<g>
</g>
<g>
</g>
<g>
</g>
<g>
</g>
<g>
</g>
<g>
</g>
<g>
</g>
<g>
</g>
<g>
</g>
</svg>
