<?xml version="1.0" encoding="iso-8859-1"?>
<!-- Generator: Adobe Illustrator 19.0.0, SVG Export Plug-In . SVG Version: 6.00 Build 0)  -->
<svg version="1.1" id="Capa_1" xmlns="http://www.w3.org/2000/svg" xmlns:xlink="http://www.w3.org/1999/xlink" x="0px" y="0px"
	 viewBox="0 0 512 512" style="enable-background:new 0 0 512 512;" xml:space="preserve">
<circle style="fill:#FFD93B;" cx="256" cy="256" r="256"/>
<path style="fill:#F4C534;" d="M512,256c0,141.44-114.64,256-256,256c-80.48,0-152.32-37.12-199.28-95.28
	c43.92,35.52,99.84,56.72,160.72,56.72c141.36,0,256-114.56,256-256c0-60.88-21.2-116.8-56.72-160.72
	C474.8,103.68,512,175.52,512,256z"/>
<g>
	<path style="fill:#3E4347;" d="M97.936,91.968c0,0,52.256-41.84,112.896-25.12C210.832,66.848,135.936-4.848,97.936,91.968z"/>
	<path style="fill:#3E4347;" d="M414.064,91.968c0,0-52.24-41.84-112.896-25.12C301.168,66.848,376.064-4.848,414.064,91.968z"/>
</g>
<path style="fill:#F4C534;" d="M445.232,208.672c0,49.792-40.32,90.112-89.904,90.112c-49.792,0-90.112-40.32-90.112-90.112
	c0-49.584,40.32-89.92,90.112-89.92C404.912,118.752,445.232,159.088,445.232,208.672z"/>
<path style="fill:#FFFFFF;" d="M427.968,208.688c0,40.24-32.592,72.832-72.672,72.832c-40.24,0-72.832-32.592-72.832-72.832
	c0-40.08,32.592-72.672,72.832-72.672C395.376,136.016,427.968,168.608,427.968,208.688z"/>
<path style="fill:#8CC63E;" d="M350.56,240.24v-27.92c-8.704-2.48-15.088-6.256-19.152-11.296
	c-4.064-5.04-6.096-11.152-6.096-18.352c0-7.28,2.304-13.408,6.896-18.352s10.72-7.808,18.352-8.56v-6.576h9.664v6.592
	c7.056,0.848,12.672,3.248,16.848,7.232c4.176,3.968,6.832,9.296,8,15.952l-16.848,2.192c-1.024-5.232-3.68-8.8-8-10.656v26.048
	c16.864,4.56,27.584,11.312,27.584,28.912c0,8.032-2.432,14.816-7.296,20.32c-4.864,5.504-11.632,8.88-20.288,10.128v12.464h-9.664
	V256.24c-7.68-0.928-13.92-3.792-18.72-8.592c-4.8-4.8-7.856-11.568-9.2-20.32l17.392-1.872c0.704,3.552,2.048,6.624,4,9.2
	C345.984,237.232,348.16,239.088,350.56,240.24z M350.56,170.304c-2.624,0.896-4.704,2.4-6.256,4.528s-2.336,4.48-2.336,7.056
	c0,2.352,0.704,4.544,2.128,6.56s3.568,3.648,6.464,4.896L350.56,170.304L350.56,170.304z M360.224,241.184
	c3.328-0.624,6.048-2.16,8.128-4.624c2.096-2.464,3.136-5.36,3.136-8.688c0-7.056-4.56-10.72-11.264-12.656L360.224,241.184
	L360.224,241.184z"/>
<path style="fill:#F4C534;" d="M246.8,208.672c0,49.792-40.32,90.112-89.904,90.112c-49.792,0-90.112-40.32-90.112-90.112
	c0-49.584,40.32-89.92,90.112-89.92C206.464,118.752,246.8,159.088,246.8,208.672z"/>
<path style="fill:#FFFFFF;" d="M229.536,208.688c0,40.24-32.592,72.832-72.672,72.832c-40.24,0-72.832-32.592-72.832-72.832
	c0-40.08,32.592-72.672,72.832-72.672C196.944,136.016,229.536,168.608,229.536,208.688z"/>
<path style="fill:#8CC63E;" d="M152.112,240.24v-27.92c-8.704-2.48-15.088-6.256-19.152-11.296
	c-4.064-5.04-6.096-11.152-6.096-18.352c0-7.28,2.304-13.408,6.896-18.352c4.592-4.944,10.72-7.808,18.352-8.56v-6.576h9.664v6.592
	c7.056,0.848,12.688,3.248,16.848,7.232c4.176,3.968,6.832,9.296,8,15.952l-16.848,2.192c-1.024-5.232-3.68-8.8-8-10.656v26.048
	c16.864,4.56,27.584,11.312,27.584,28.912c0,8.032-2.432,14.816-7.296,20.32c-4.864,5.504-11.632,8.88-20.288,10.128v12.464h-9.664
	V256.24c-7.68-0.928-13.92-3.792-18.72-8.592s-7.856-11.568-9.2-20.32l17.392-1.872c0.704,3.552,2.048,6.624,4,9.2
	S149.712,239.088,152.112,240.24z M152.112,170.304c-2.624,0.896-4.704,2.4-6.256,4.528s-2.336,4.48-2.336,7.056
	c0,2.352,0.704,4.544,2.128,6.56c1.424,2.016,3.568,3.648,6.464,4.896L152.112,170.304L152.112,170.304z M161.776,241.184
	c3.328-0.624,6.048-2.16,8.128-4.624c2.08-2.464,3.136-5.36,3.136-8.688c0-7.056-4.56-10.72-11.264-12.656V241.184z"/>
<path style="fill:#3E4347;" d="M424.464,327.392c-24.432,79.952-88.56,137.232-164.208,137.232
	c-75.456,0-139.776-57.264-164.208-137.424c-1.76-6.256,4.304-11.536,10.368-8.992c59.616,26,247.68,26.384,307.68,0.192
	C420.16,315.664,426.416,321.136,424.464,327.392z"/>
<path style="fill:#E24B4B;" d="M260.256,464.624c29.6,0,57.376-8.864,81.76-24.336c-6.576-31.616-41.056-49.28-70.192-36.704
	c-9.136,3.936-19.28,4.416-28.816,1.584c-27.152-8.064-56.08,8.272-63.664,35.632C203.552,455.952,231.04,464.624,260.256,464.624z"
	/>
<path style="fill:#FFFFFF;" d="M406.912,320.896c-30.336,50.896-87.904,65.552-146.656,65.552
	c-58.768,0-116.544-15.264-146.672-65.792C177.104,343.264,343.184,343.504,406.912,320.896z"/>
<g>
</g>
<g>
</g>
<g>
</g>
<g>
</g>
<g>
</g>
<g>
</g>
<g>
</g>
<g>
</g>
<g>
</g>
<g>
</g>
<g>
</g>
<g>
</g>
<g>
</g>
<g>
</g>
<g>
</g>
</svg>
