<?xml version="1.0" encoding="iso-8859-1"?>
<!-- Generator: Adobe Illustrator 19.0.0, SVG Export Plug-In . SVG Version: 6.00 Build 0)  -->
<svg version="1.1" id="Capa_1" xmlns="http://www.w3.org/2000/svg" xmlns:xlink="http://www.w3.org/1999/xlink" x="0px" y="0px"
	 viewBox="0 0 511.992 511.992" style="enable-background:new 0 0 511.992 511.992;" xml:space="preserve">
<circle style="fill:#FFD93B;" cx="255.996" cy="258.824" r="253.168"/>
<g>
	<path style="fill:#F4C534;" d="M509.164,258.824c0,139.872-113.376,253.168-253.168,253.168
		c-79.584,0-150.64-36.704-197.088-94.224c43.44,35.12,98.736,56.096,158.944,56.096c139.808,0,253.168-113.296,253.168-253.168
		c0-60.208-20.96-115.52-56.096-158.944C472.38,108.184,509.164,179.224,509.164,258.824z"/>
	<path style="fill:#F4C534;" d="M226.22,230.328c-17.952,40.048-64.928,57.952-104.816,40.08
		c-40.048-17.952-57.952-64.928-40-104.992c17.872-39.888,64.864-57.792,104.912-39.84
		C226.188,143.464,244.092,190.44,226.22,230.328z"/>
</g>
<path style="fill:#FFFFFF;" d="M211.692,223.832c-14.352,32.016-51.904,46.336-83.792,32.032
	c-32.016-14.352-46.336-51.904-31.984-83.936c14.288-31.888,51.856-46.192,83.872-31.856
	C211.676,154.392,225.98,191.944,211.692,223.832z"/>
<ellipse style="fill:#3E4347;" cx="147.858" cy="213.318" rx="29.823" ry="29.823"/>
<path style="fill:#FFFFFF;" d="M136.14,225.864c-2.464,1.808-6.608,0.288-8.912-3.28c-2.4-3.776-2.288-8.064,0.288-9.648
	c2.624-1.744,6.608-0.272,9.072,3.328C138.828,219.992,138.7,224.28,136.14,225.864z"/>
<g>
	<path style="fill:#3E4347;" d="M452.476,200.088c-5.696,48.992-55.696,86.416-104.448,86.416c-48.96,0-94.272-33.44-88.576-82.416
		c5.664-48.784,50.4-106,99.344-106C407.564,98.088,458.14,151.304,452.476,200.088z"/>
	<path style="fill:#3E4347;" d="M405.9,318.52c-21.68,104.624-78.576,89.984-145.696,127.904
		c-66.944,38.448-124.016-67.504-145.696-108.176c-1.568-3.168,3.824-11.92,9.184-13.92c52.912-31.6,219.744,76.688,272.992-6.992
		C402.076,310.264,407.628,310.168,405.9,318.52z"/>
</g>
<path style="fill:#E24B4B;" d="M260.204,446.424c26.432-14.928,51.232-21.76,72.96-30.88c-0.176-0.192-0.24-0.448-0.432-0.64
	c-5.824-18.688-36.432-30.32-62.272-20.128c-8.112,3.568-17.104,4.976-25.568,2.944c-23.92-6.528-49.344,10.592-56.288,40.672
	C210.044,454.488,234.364,461.256,260.204,446.424z"/>
<path style="fill:#FFFFFF;" d="M388.828,327.32c-57.776,61.664-202.576-25.728-258.672-5.904c0,0.272-0.08,0.544-0.08,0.816
	c26.72,31.072,77.984,61.648,130.128,58.816C311.42,378.04,361.564,384.056,388.828,327.32z"/>
<path style="fill:#F4C534;" d="M231.196,213.336c-55.6-6.304-104.288-24.48-145.728-55.056
	c18.672-32.288,58.064-47.952,94.464-35.44C217.74,135.96,238.78,175.032,231.196,213.336z"/>
<g>
	<path style="fill:#3E4347;" d="M251.116,5.896c-5.04-10.016-26.88-5.792-25.264,1.712c17.072,38.752,94.96,197.328,272.672,323.712
		c4.96,3.728,10.672-21.776,6.048-24.896C346.892,191.624,272.556,52.024,251.116,5.896z"/>
	<path style="fill:#3E4347;" d="M457.164,75.656c0,0-45.84-47.76-107.472-39.168C349.708,36.488,432.38-24.168,457.164,75.656z"/>
	<path style="fill:#3E4347;" d="M54.828,75.656c0,0,45.84-47.76,107.472-39.168C162.284,36.488,79.612-24.168,54.828,75.656z"/>
</g>
<g>
</g>
<g>
</g>
<g>
</g>
<g>
</g>
<g>
</g>
<g>
</g>
<g>
</g>
<g>
</g>
<g>
</g>
<g>
</g>
<g>
</g>
<g>
</g>
<g>
</g>
<g>
</g>
<g>
</g>
</svg>
