<?xml version="1.0" encoding="iso-8859-1"?>
<!-- Generator: Adobe Illustrator 19.0.0, SVG Export Plug-In . SVG Version: 6.00 Build 0)  -->
<svg version="1.1" id="Capa_1" xmlns="http://www.w3.org/2000/svg" xmlns:xlink="http://www.w3.org/1999/xlink" x="0px" y="0px"
	 viewBox="0 0 512.018 512.018" style="enable-background:new 0 0 512.018 512.018;" xml:space="preserve">
<path style="fill:#5A5F63;" d="M496.729,318.305c-6.592,49.552-34.784,82.336-49.728,75.744
	c-25.712-10.448-20.112-44.144-14.896-84.432c5.616-40.272,9.104-74.208,36.672-77.52
	C484.937,229.745,503.465,268.753,496.729,318.305z"/>
<path style="fill:#3E4347;" d="M511.913,257.153c0.96,42-4.672,83.872-16.688,124.128c-2.688,9.056-10.08,15.328-17.76,15.504
	c-7.056,0.24-14.096-0.928-20.944-3.36c18.544-50.56,25.808-104.56,21.28-158.208c7.424-0.544,14.704,0.208,21.6,2.448
	C506.537,239.905,511.705,247.953,511.913,257.153z"/>
<path style="fill:#E9EFF4;" d="M483.241,230.689c5.456,57.152-2.288,114.784-22.64,168.48c-1.664,4.384-6.096,6.688-9.824,5.184
	c-3.712-1.568-5.344-6.096-3.744-10.336c19.552-51.6,27.008-107.024,21.76-161.952c-0.416-4.512,2.336-8.464,6.336-8.976
	C479.113,222.625,482.793,226.001,483.241,230.689z"/>
<path style="fill:#5A5F63;" d="M15.289,318.305c6.592,49.552,34.784,82.336,49.728,75.744
	c25.712-10.448,20.112-44.144,14.896-84.432c-5.616-40.272-9.104-74.208-36.672-77.52C27.081,229.745,8.553,268.753,15.289,318.305z
	"/>
<path style="fill:#3E4347;" d="M0.105,257.153c-0.96,42,4.672,83.872,16.688,124.128c2.688,9.056,10.08,15.328,17.76,15.504
	c7.056,0.24,14.096-0.928,20.944-3.36c-18.544-50.56-25.808-104.56-21.28-158.208c-7.424-0.544-14.704,0.208-21.6,2.448
	C5.481,239.905,0.313,247.953,0.105,257.153z"/>
<path style="fill:#E9EFF4;" d="M28.777,230.689c-5.456,57.152,2.288,114.784,22.64,168.48c1.664,4.384,6.096,6.688,9.824,5.184
	c3.712-1.568,5.344-6.096,3.744-10.336c-19.552-51.6-27.008-107.024-21.76-161.952c0.416-4.512-2.336-8.464-6.336-8.976
	C32.905,222.625,29.225,226.001,28.777,230.689z"/>
<circle style="fill:#FFD93B;" cx="256.009" cy="312.161" r="199.856"/>
<path style="fill:#F4C534;" d="M455.865,312.161c0,110.416-89.504,199.84-199.856,199.84c-62.832,0-118.912-28.976-155.568-74.384
	c34.288,27.728,77.936,44.272,125.472,44.272c110.352,0,199.84-89.44,199.84-199.84c0-47.536-16.544-91.184-44.272-125.472
	C426.825,193.249,455.865,249.329,455.865,312.161z"/>
<g>
	<path style="fill:#3E4347;" d="M132.617,184.097c0,0,40.784-32.672,88.128-19.616C220.745,164.497,162.281,108.513,132.617,184.097
		z"/>
	<path style="fill:#3E4347;" d="M379.401,184.097c0,0-40.784-32.672-88.128-19.616C291.273,164.497,349.737,108.513,379.401,184.097
		z"/>
	<path style="fill:#3E4347;" d="M374.345,367.089c-17.12,56-62.016,96.112-115.008,96.112c-52.848,0-97.888-40.112-115.008-96.24
		c-1.232-4.384,3.008-8.08,7.264-6.304c41.76,18.208,173.472,18.48,215.504,0.128C371.321,358.881,375.705,362.721,374.345,367.089z
		"/>
</g>
<path style="fill:#E24B4B;" d="M259.337,463.201c20.736,0,40.192-6.208,57.264-17.04c-4.608-22.144-28.752-34.512-49.168-25.712
	c-6.4,2.768-13.504,3.088-20.176,1.104c-19.024-5.648-39.28,5.792-44.592,24.96C219.625,457.137,238.873,463.201,259.337,463.201z"
	/>
<path style="fill:#FFFFFF;" d="M362.057,362.545c-21.248,35.648-61.568,45.92-102.72,45.92s-81.632-10.704-102.72-46.08
	C201.097,378.209,317.417,378.385,362.057,362.545z"/>
<path style="fill:#F4C534;" d="M237.945,264.033c0,34.64-28.064,62.704-62.56,62.704c-34.64,0-62.704-28.064-62.704-62.704
	c0-34.512,28.064-62.56,62.704-62.56C209.897,201.473,237.945,229.537,237.945,264.033z"/>
<path style="fill:#3E4347;" d="M234.889,284.785c-9.424-15.12-32.288-25.808-59.504-25.808c-27.36,0-50.224,10.688-59.648,25.808
	c-0.176-24.512,26-45.232,59.648-45.232C208.889,239.553,235.065,260.273,234.889,284.785z"/>
<path style="fill:#F4C534;" d="M399.337,264.033c0,34.64-28.064,62.704-62.56,62.704c-34.656,0-62.704-28.064-62.704-62.704
	c0-34.512,28.064-62.56,62.704-62.56C371.273,201.473,399.337,229.537,399.337,264.033z"/>
<g>
	<path style="fill:#3E4347;" d="M396.281,284.785c-9.424-15.12-32.288-25.808-59.504-25.808c-27.36,0-50.224,10.688-59.648,25.808
		c-0.176-24.512,26-45.232,59.648-45.232C370.281,239.553,396.457,260.273,396.281,284.785z"/>
	<path style="fill:#3E4347;" d="M6.825,273.585C-9.623,119.633,107.513,4.689,256.009,0.001
		c169.568,10.08,263.6,134.048,249.2,274.016h-16.944c-6.72-130.432-96.688-228.736-232.256-232.256
		C120.361,45.057,30.329,144.033,23.737,274.433L6.825,273.585z"/>
</g>
<g>
</g>
<g>
</g>
<g>
</g>
<g>
</g>
<g>
</g>
<g>
</g>
<g>
</g>
<g>
</g>
<g>
</g>
<g>
</g>
<g>
</g>
<g>
</g>
<g>
</g>
<g>
</g>
<g>
</g>
</svg>
