<?xml version="1.0" encoding="iso-8859-1"?>
<!-- Generator: Adobe Illustrator 19.0.0, SVG Export Plug-In . SVG Version: 6.00 Build 0)  -->
<svg version="1.1" id="Capa_1" xmlns="http://www.w3.org/2000/svg" xmlns:xlink="http://www.w3.org/1999/xlink" x="0px" y="0px"
	 viewBox="0 0 512 512" style="enable-background:new 0 0 512 512;" xml:space="preserve">
<circle style="fill:#FFD93B;" cx="256" cy="256" r="256"/>
<path style="fill:#F4C534;" d="M512,256c0,141.44-114.64,256-256,256c-80.48,0-152.32-37.12-199.28-95.28
	c43.92,35.52,99.84,56.72,160.72,56.72c141.36,0,256-114.56,256-256c0-60.88-21.2-116.8-56.72-160.72
	C474.8,103.68,512,175.52,512,256z"/>
<g>
	<path style="fill:#FFFFFF;" d="M243.952,205.136c0,51.44-41.744,93.344-93.056,93.344c-51.44,0-93.344-41.888-93.344-93.344
		c0-51.296,41.888-93.2,93.344-93.2C202.208,111.952,243.952,153.84,243.952,205.136z"/>
	<path style="fill:#FFFFFF;" d="M454.432,205.136c0,51.44-41.888,93.344-93.2,93.344c-51.44,0-93.2-41.888-93.2-93.344
		c0-51.296,41.76-93.2,93.2-93.2C412.544,111.952,454.432,153.84,454.432,205.136z"/>
</g>
<circle style="fill:#3E4347;" cx="162.928" cy="190.896" r="46.528"/>
<ellipse transform="matrix(-0.7071 -0.7071 0.7071 -0.7071 184.3932 424.0148)" style="fill:#FFFFFF;" cx="180.013" cy="173.818" rx="12.928" ry="8.16"/>
<circle style="fill:#3E4347;" cx="357.376" cy="223.792" r="46.528"/>
<ellipse transform="matrix(-0.7071 -0.7071 0.7071 -0.7071 493.0714 617.6147)" style="fill:#FFFFFF;" cx="374.448" cy="206.689" rx="12.928" ry="8.16"/>
<path style="fill:#3E4347;" d="M379.936,371.456c-3.2,16.48-60,78.24-114.56,39.2c-14.4-10.24-30.72-18.24-48.32-18.88
	c-46.88-1.6-86.56,27.52-84.96,19.36c3.2-17.12,63.84-98.88,121.92-51.52c8.96,7.2,19.84,12,31.04,14.88
	C337.52,387.456,381.68,362.496,379.936,371.456z"/>
<g>
</g>
<g>
</g>
<g>
</g>
<g>
</g>
<g>
</g>
<g>
</g>
<g>
</g>
<g>
</g>
<g>
</g>
<g>
</g>
<g>
</g>
<g>
</g>
<g>
</g>
<g>
</g>
<g>
</g>
</svg>
