<?xml version="1.0" encoding="iso-8859-1"?>
<!-- Generator: Adobe Illustrator 19.0.0, SVG Export Plug-In . SVG Version: 6.00 Build 0)  -->
<svg version="1.1" id="Capa_1" xmlns="http://www.w3.org/2000/svg" xmlns:xlink="http://www.w3.org/1999/xlink" x="0px" y="0px"
	 viewBox="0 0 512 512" style="enable-background:new 0 0 512 512;" xml:space="preserve">
<circle style="fill:#FFD93B;" cx="256" cy="256" r="256"/>
<path style="fill:#3E4347;" d="M160.08,402.016c7.36-40.8,39.84-81.92,96-81.92s88.64,41.136,95.84,81.936
	c1.12,6.08-3.04,11.84-9.12,12.96c-6.08,0.96-11.84-3.04-12.96-9.12c-5.6-31.52-30.56-63.36-73.76-63.376
	c-43.2,0-68.32,31.84-73.92,63.36c-1.12,6.08-6.88,10.08-12.96,9.12C163.12,413.856,158.96,408.096,160.08,402.016z"/>
<path style="fill:#F4C534;" d="M512,256c0,141.44-114.64,256-256,256c-80.48,0-152.32-37.12-199.28-95.28
	c43.92,35.52,99.84,56.72,160.72,56.72c141.36,0,256-114.56,256-256c0-60.88-21.2-116.8-56.72-160.72
	C474.8,103.68,512,175.52,512,256z"/>
<path style="fill:#FFFFFF;" d="M235.44,225.232c0,43.808-35.424,79.376-79.376,79.376c-43.792,0-79.376-35.568-79.376-79.376
	c0-43.952,35.584-79.52,79.376-79.52C200.016,145.712,235.44,181.296,235.44,225.232z"/>
<circle style="fill:#3E4347;" cx="165.664" cy="237.968" r="36.16"/>
<path style="fill:#FFFFFF;" d="M276.624,225.088c0-43.808,35.424-79.376,79.376-79.376c43.792,0,79.376,35.568,79.376,79.376
	c0,43.952-35.584,79.52-79.376,79.52C312.048,304.624,276.624,269.04,276.624,225.088z"/>
<path style="fill:#3E4347;" d="M485.264,213.168H445.76c-5.92-44.336-43.888-78.64-89.744-78.64
	c-33.952,0-63.552,18.816-79.04,46.56c-4.208,7.536-12.16,11.92-20.784,11.872c-0.048,0-0.096,0-0.16,0c-0.08,0-0.144,0-0.224,0
	c-8.592,0.064-16.512-4.336-20.688-11.84c-15.488-27.76-45.088-46.592-79.04-46.592c-45.856,0-83.744,34.336-89.68,78.64H26.736v24
	h39.92c5.568,41.408,39.216,74.736,81.6,78.32c53.632,4.544,99.44-38.224,98.304-92.144c0.912-4.512,4.72-7.968,9.472-7.968
	c4.864,0,9.376,3.504,9.376,9.872c0,52.288,44.56,94.384,97.696,90.304c42.528-3.264,76.832-36.528,82.368-78.384h39.776v-24
	H485.264z M156.064,293.392c-37.584,0-68.176-30.592-68.176-68.16c0-37.664,30.592-68.304,68.176-68.304s68.16,30.64,68.16,68.304
	C224.224,262.816,193.648,293.392,156.064,293.392z M356,293.392c-37.584,0-68.176-30.592-68.176-68.16
	c0-37.664,30.576-68.304,68.176-68.304c37.584,0,68.16,30.64,68.16,68.304C424.16,262.816,393.584,293.392,356,293.392z"/>
<ellipse transform="matrix(-0.7071 -0.7071 0.7071 -0.7071 147.4973 509.7283)" style="fill:#FFFFFF;" cx="179.317" cy="224.316" rx="10" ry="6.48"/>
<circle style="fill:#3E4347;" cx="346.4" cy="237.968" r="36.16"/>
<ellipse transform="matrix(-0.7071 -0.7071 0.7071 -0.7071 456.0146 637.6035)" style="fill:#FFFFFF;" cx="360.059" cy="224.358" rx="10" ry="6.48"/>
<g>
	<path style="fill:#3E4347;" d="M413.776,58.608c-5.12-2.992-12.256-1.536-15.52,4.064C371.584,108.336,316,98.24,315.392,98.08
		c-6.176-1.2-12.048,2.864-13.264,9.04c-1.056,6.176,2.864,12.064,9.04,13.264c2.864,0.448,71.872,12.96,106.672-46.256
		C421.008,68.704,419.2,61.776,413.776,58.608z"/>
	<path style="fill:#3E4347;" d="M98.224,58.608c5.12-2.992,12.256-1.536,15.52,4.064C140.416,108.336,196,98.24,196.608,98.08
		c6.176-1.2,12.048,2.864,13.264,9.04c1.056,6.176-2.864,12.064-9.04,13.264c-2.864,0.448-71.872,12.96-106.672-46.256
		C90.992,68.704,92.8,61.776,98.224,58.608z"/>
</g>
<g>
</g>
<g>
</g>
<g>
</g>
<g>
</g>
<g>
</g>
<g>
</g>
<g>
</g>
<g>
</g>
<g>
</g>
<g>
</g>
<g>
</g>
<g>
</g>
<g>
</g>
<g>
</g>
<g>
</g>
</svg>
