<?xml version="1.0" encoding="iso-8859-1"?>
<!-- Generator: Adobe Illustrator 19.0.0, SVG Export Plug-In . SVG Version: 6.00 Build 0)  -->
<svg version="1.1" id="Capa_1" xmlns="http://www.w3.org/2000/svg" xmlns:xlink="http://www.w3.org/1999/xlink" x="0px" y="0px"
	 viewBox="0 0 512 512" style="enable-background:new 0 0 512 512;" xml:space="preserve">
<circle style="fill:#FFD93B;" cx="256" cy="256" r="256"/>
<path style="fill:#F4C534;" d="M512,256c0,141.44-114.64,256-256,256c-80.48,0-152.32-37.12-199.28-95.28
	c43.92,35.52,99.84,56.72,160.72,56.72c141.36,0,256-114.56,256-256c0-60.88-21.2-116.8-56.72-160.72
	C474.8,103.68,512,175.52,512,256z"/>
<g>
	<path style="fill:#3E4347;" d="M435.536,120.784c-28.656-17.888-45.152-24.112-60.896-28.304
		c-6.576-2.208-68.592-15.744-65.248-21.616c0.128-0.224,0.336-0.432,0.544-0.544c11.6-7.296,38.336-10.4,71.408,4.064
		c19.856,9.136,45.408,25.712,56.064,44.528c0.4,0.624,0.208,1.472-0.416,1.872C436.544,121.056,435.952,121.024,435.536,120.784z"
		/>
	<path style="fill:#3E4347;" d="M74.608,118.912c10.64-18.816,36.176-35.392,56.064-44.528c32.768-14.32,58.992-11.472,71.408-4.064
		c0.72,0.432,0.96,1.36,0.528,2.096c-0.128,0.224-0.352,0.416-0.56,0.544c-14.4,8.64-48.128,13.952-64.688,19.52
		c-15.744,4.192-32.24,10.416-60.896,28.304c-0.64,0.4-1.472,0.208-1.856-0.432C74.336,119.92,74.368,119.328,74.608,118.912z"/>
</g>
<ellipse style="fill:#F4C534;" cx="153.664" cy="207.6" rx="82.032" ry="89.92"/>
<ellipse style="fill:#FFFFFF;" cx="153.664" cy="202.544" rx="64.816" ry="71.056"/>
<path style="fill:#3E4347;" d="M149.824,229.104v-23.04c-7.184-2.048-12.464-5.168-15.808-9.328
	c-3.36-4.16-5.024-9.216-5.024-15.152c0-6.016,1.904-11.056,5.696-15.152c3.776-4.08,8.832-6.448,15.136-7.072v-5.44h7.968v5.44
	c5.824,0.688,10.464,2.688,13.92,5.968s5.648,7.664,6.592,13.168l-13.92,1.808c-0.848-4.32-3.04-7.264-6.608-8.8v21.504
	c8.8,2.384,14.8,5.472,17.984,9.264c3.184,3.792,4.784,8.656,4.784,14.608c0,6.64-2,12.224-6.016,16.784
	c-4.016,4.544-9.6,7.328-16.752,8.368v10.288h-7.952v-10.016c-6.336-0.768-11.504-3.136-15.456-7.088
	c-3.968-3.952-6.496-9.552-7.584-16.768l14.352-1.536c0.592,2.928,1.68,5.456,3.296,7.584
	C146.048,226.608,147.84,228.16,149.824,229.104z M149.824,171.36c-2.16,0.736-3.888,1.984-5.168,3.744
	c-1.28,1.76-1.92,3.696-1.92,5.824c0,1.952,0.592,3.744,1.76,5.424c1.168,1.664,2.944,3.024,5.328,4.048V171.36z M157.792,229.872
	c2.752-0.512,4.992-1.792,6.704-3.824c1.728-2.032,2.576-4.432,2.576-7.184c0-2.448-0.72-4.576-2.176-6.352
	c-1.44-1.776-3.824-3.152-7.12-4.096v21.456H157.792z"/>
<ellipse style="fill:#F4C534;" cx="358.336" cy="207.6" rx="82.032" ry="89.92"/>
<ellipse style="fill:#FFFFFF;" cx="358.336" cy="202.544" rx="64.816" ry="71.056"/>
<g>
	<path style="fill:#3E4347;" d="M354.48,229.104v-23.04c-7.184-2.048-12.464-5.168-15.808-9.328c-3.36-4.16-5.04-9.216-5.04-15.152
		c0-6.016,1.904-11.056,5.696-15.152c3.792-4.08,8.848-6.448,15.152-7.072v-5.44h7.968v5.44c5.824,0.688,10.464,2.688,13.92,5.968
		c3.44,3.28,5.648,7.664,6.608,13.168l-13.92,1.808c-0.848-4.32-3.04-7.264-6.608-8.8v21.504c8.8,2.384,14.8,5.472,17.984,9.264
		c3.184,3.792,4.784,8.656,4.784,14.608c0,6.64-2,12.224-6.016,16.784c-4.016,4.544-9.6,7.328-16.752,8.368v10.288h-7.968v-10.016
		c-6.352-0.768-11.504-3.136-15.456-7.088c-3.968-3.952-6.496-9.552-7.584-16.768l14.352-1.536c0.592,2.928,1.68,5.456,3.296,7.584
		C350.704,226.608,352.496,228.16,354.48,229.104z M354.48,171.36c-2.16,0.736-3.888,1.984-5.168,3.744
		c-1.28,1.76-1.92,3.696-1.92,5.824c0,1.952,0.592,3.744,1.76,5.424c1.168,1.664,2.96,3.024,5.344,4.048v-19.04H354.48z
		 M362.448,229.872c2.752-0.512,4.992-1.792,6.704-3.824c1.728-2.032,2.592-4.432,2.592-7.184c0-2.448-0.72-4.576-2.176-6.352
		c-1.44-1.776-3.824-3.152-7.12-4.096L362.448,229.872L362.448,229.872z"/>
	<ellipse style="fill:#3E4347;" cx="256" cy="377.024" rx="72.64" ry="84.496"/>
</g>
<path style="fill:#E24B4B;" d="M197.344,426.496c13.2,21.136,34.48,35.008,58.656,35.008c25.168,0,47.344-14.912,60.368-37.536
	c-4.656-15.44-18.784-26.72-35.76-26.72c-12.144,0-22.96,5.824-29.872,14.816c-5.824-3.76-12.752-5.952-20.16-5.952
	C216.016,406.112,203.584,414.432,197.344,426.496z"/>
<g style="opacity:0.2;">
	<path style="fill:#FFFFFF;" d="M298.544,416.224c-1.072,3.232-6.336,4.448-11.6,2.704c-5.392-1.76-8.768-5.792-7.68-9.04
		c1.072-3.232,6.208-4.448,11.6-2.704C296.112,408.944,299.616,412.976,298.544,416.224z"/>
</g>
<g>
</g>
<g>
</g>
<g>
</g>
<g>
</g>
<g>
</g>
<g>
</g>
<g>
</g>
<g>
</g>
<g>
</g>
<g>
</g>
<g>
</g>
<g>
</g>
<g>
</g>
<g>
</g>
<g>
</g>
</svg>
