<?xml version="1.0" encoding="iso-8859-1"?>
<!-- Generator: Adobe Illustrator 19.0.0, SVG Export Plug-In . SVG Version: 6.00 Build 0)  -->
<svg version="1.1" id="Capa_1" xmlns="http://www.w3.org/2000/svg" xmlns:xlink="http://www.w3.org/1999/xlink" x="0px" y="0px"
	 viewBox="0 0 512 512" style="enable-background:new 0 0 512 512;" xml:space="preserve">
<circle style="fill:#FFD93B;" cx="256" cy="256" r="256"/>
<path style="fill:#3E4347;" d="M415.024,343.952c-24.576,69.52-85.04,120.192-158.96,120.192
	c-74.24,0-134.688-50.832-159.088-120.496c-1.936-5.104,3.184-10.624,8.432-9.28c103.168,26.48,204.96,26.48,301.04,0.304
	C411.824,333.168,416.784,338.688,415.024,343.952z"/>
<g>
	<path style="fill:#FFFFFF;" d="M444.672,215.792c0,44.32-35.84,80.16-80.16,80.16c-44.16,0-80.16-35.84-80.16-80.16
		s36-80.16,80.16-80.16C408.832,135.632,444.672,171.472,444.672,215.792z"/>
	<path style="fill:#FFFFFF;" d="M72.944,215.792c0,44.32,35.84,80.16,80.16,80.16c44.16,0,80.16-35.84,80.16-80.16
		s-36-80.16-80.16-80.16C108.784,135.632,72.944,171.472,72.944,215.792z"/>
</g>
<path style="fill:#F4C534;" d="M512,256c0,141.44-114.64,256-256,256c-80.48,0-152.32-37.12-199.28-95.28
	c43.92,35.52,99.84,56.72,160.72,56.72c141.36,0,256-114.56,256-256c0-60.88-21.2-116.8-56.72-160.72
	C474.8,103.68,512,175.52,512,256z"/>
<g style="opacity:0.25;">
	<path style="fill:#FFFFFF;" d="M460.384,271.968c-15.68,17.44-36.48,26.24-59.84,26.24c-16.56,0-24.128-2.88-68.48-14.56
		c-39.36-10.24-58.72-38.4-52-75.2c8.32-44.48,53.92-90.4,115.84-90.4c37.568,0,70.976,17.728,84,52.8
		C492.224,204.128,484.224,245.728,460.384,271.968z"/>
</g>
<g style="opacity:0.25;">
	<path style="fill:#FFFFFF;" d="M51.632,271.968c15.68,17.44,36.48,26.24,59.84,26.24c16.56,0,24.128-2.88,68.48-14.56
		c39.36-10.24,58.72-38.4,52-75.2c-18.048-96.512-167.104-125.776-199.84-37.6C19.792,204.128,27.792,245.728,51.632,271.968z"/>
</g>
<path style="fill:#3E4347;" d="M497.424,192.56c-11.568-99.184-133.12-111.056-196.064-47.408
	c-11.888,12.016-28.464,18.176-45.36,18.176c-16.912,0-33.488-6.16-45.376-18.192C150.176,84.08,32,91.472,15.456,186.336
	c-4.56,26.16,0.592,53.696,14.32,76.416c18.976,31.392,47.824,47.76,81.488,47.76c18.256,0,27.568-3.424,71.776-15.04
	c50.192-13.2,64.656-49.2,61.728-81.232c7.392-2.56,15.136-2.56,22.528,0c-2.944,32.016,11.52,68.032,61.728,81.232
	c44.08,11.584,53.504,15.04,71.776,15.04c33.28,0,61.856-16,80.832-46.672C494.688,242.688,500.304,217.248,497.424,192.56z
	 M177.92,275.968c-43.376,11.392-85.776,28.784-120.32-9.328c-21.936-24.208-29.312-62.464-17.952-93.072
	c29.872-80.448,168.128-51.6,184.416,36.304C230.128,242.576,213.296,266.656,177.92,275.968z M454.464,266.64
	c-34.064,37.552-75.136,21.2-120.304,9.328c-35.392-9.312-52.208-33.392-46.16-66.096c7.872-42.448,52.144-83.76,107.936-83.76
	c4.112,0,9.136,0.208,13.36,0.688v0.192c30.4,3.776,53.376,20.32,63.12,46.576C483.76,204.176,476.384,242.432,454.464,266.64z"/>
<circle style="fill:#5A5F63;" cx="350.496" cy="219.184" r="40.672"/>
<path style="fill:#777B7E;" d="M327.936,221.68c-4.224,0.24-6.848-4.928-5.872-11.552c0.976-6.624,5.2-12.192,9.424-12.432
	s6.848,4.928,5.872,11.552C336.384,215.872,332.16,221.424,327.936,221.68z"/>
<circle style="fill:#5A5F63;" cx="161.44" cy="219.184" r="40.672"/>
<path style="fill:#777B7E;" d="M184.064,221.68c4.224,0.24,6.848-4.928,5.872-11.552c-0.976-6.624-5.2-12.192-9.424-12.432
	s-6.848,4.928-5.872,11.552C175.616,215.872,179.84,221.424,184.064,221.68z"/>
<path style="fill:#E24B4B;" d="M256.064,464.128c27.808,0,53.696-7.184,76.512-19.824c-5.488-21.072-23.28-37.728-46.192-40.528
	c-13.552-1.664-26.448,1.76-36.896,8.8c-5.504-2.912-11.664-4.832-18.288-5.648c-25.216-3.088-48.272,11.584-57.264,34.048
	C198.048,455.632,225.872,464.128,256.064,464.128z"/>
<g style="opacity:0.25;">
	
		<ellipse transform="matrix(-0.9947 -0.1031 0.1031 -0.9947 523.5538 861.0399)" style="fill:#FFFFFF;" cx="284.029" cy="416.99" rx="10.864" ry="5.632"/>
</g>
<g>
	<path style="fill:#3E4347;" d="M400.576,73.392c-17.648,1.792-43.104,10.016-60.368,22.944
		c-14.56,10.096-36.288,30.912-53.104,36.224c-0.4-16.96,14.896-41.264,45.712-50.784C360.096,72.416,386.992,70.896,400.576,73.392
		z"/>
	<path style="fill:#3E4347;" d="M111.424,73.392c13.584-2.496,40.464-0.976,67.776,8.4c28.944,8.944,46.144,31.856,45.712,50.784
		c-17.008-5.376-38.4-26.032-53.104-36.224C154.144,83.104,128.416,75.12,111.424,73.392z"/>
</g>
<g>
</g>
<g>
</g>
<g>
</g>
<g>
</g>
<g>
</g>
<g>
</g>
<g>
</g>
<g>
</g>
<g>
</g>
<g>
</g>
<g>
</g>
<g>
</g>
<g>
</g>
<g>
</g>
<g>
</g>
</svg>
