<?xml version="1.0" encoding="iso-8859-1"?>
<!-- Generator: Adobe Illustrator 19.0.0, SVG Export Plug-In . SVG Version: 6.00 Build 0)  -->
<svg version="1.1" id="Capa_1" xmlns="http://www.w3.org/2000/svg" xmlns:xlink="http://www.w3.org/1999/xlink" x="0px" y="0px"
	 viewBox="0 0 512 512" style="enable-background:new 0 0 512 512;" xml:space="preserve">
<circle style="fill:#FFD93B;" cx="256" cy="256" r="256"/>
<path style="fill:#F4C534;" d="M512,256c0,141.44-114.64,256-256,256c-80.48,0-152.32-37.12-199.28-95.28
	c43.92,35.52,99.84,56.72,160.72,56.72c141.36,0,256-114.56,256-256c0-60.88-21.2-116.8-56.72-160.72
	C474.8,103.68,512,175.52,512,256z"/>
<g style="opacity:0.3;">
	<path style="fill:#FFFFFF;" d="M51.136,212.464c-4.832-1.28-7.712-6.256-6.432-11.088c19.472-73.104,76.512-132.304,148.864-154.48
		c4.784-1.456,9.856,1.216,11.328,6.016c1.472,4.784-1.216,9.856-6.016,11.328c-66.4,20.336-118.768,74.688-136.64,141.792
		C60.944,210.896,55.952,213.744,51.136,212.464z"/>
</g>
<circle style="fill:#F4C534;" cx="180.192" cy="227.312" r="84.048"/>
<circle style="fill:#FFFFFF;" cx="180.192" cy="221.552" r="69.632"/>
<ellipse style="fill:#3E4347;" cx="180.219" cy="221.588" rx="32.802" ry="32.802"/>
<ellipse transform="matrix(-0.707 -0.7072 0.7072 -0.707 180.6316 493.3619)" style="fill:#5A5F63;" cx="192.515" cy="209.263" rx="9.6" ry="5.84"/>
<circle style="fill:#F4C534;" cx="347.088" cy="227.312" r="62.72"/>
<circle style="fill:#FFFFFF;" cx="347.088" cy="223.024" r="51.968"/>
<ellipse style="fill:#3E4347;" cx="347.118" cy="223.005" rx="24.481" ry="24.481"/>
<ellipse transform="matrix(-0.707 -0.7072 0.7072 -0.707 456.9104 616.8883)" style="fill:#5A5F63;" cx="356.243" cy="213.796" rx="7.168" ry="4.352"/>
<g>
	<path style="fill:#3E4347;" d="M200.88,109.872c0,0-4.704-22.032-25.84-22.48c-21.136-0.464-57.248,43.712-57.248,43.712
		S178.752,87.696,200.88,109.872z"/>
	<path style="fill:#3E4347;" d="M339.584,135.488c0,0,10.592-17.152,31.392-14.24c20.784,2.896,44.08,44.368,44.08,44.368
		S367.264,120.928,339.584,135.488z"/>
	<circle style="fill:#3E4347;" cx="256" cy="394.352" r="53.84"/>
</g>
<g>
</g>
<g>
</g>
<g>
</g>
<g>
</g>
<g>
</g>
<g>
</g>
<g>
</g>
<g>
</g>
<g>
</g>
<g>
</g>
<g>
</g>
<g>
</g>
<g>
</g>
<g>
</g>
<g>
</g>
</svg>
