<?xml version="1.0" encoding="iso-8859-1"?>
<!-- Generator: Adobe Illustrator 19.0.0, SVG Export Plug-In . SVG Version: 6.00 Build 0)  -->
<svg version="1.1" id="Capa_1" xmlns="http://www.w3.org/2000/svg" xmlns:xlink="http://www.w3.org/1999/xlink" x="0px" y="0px"
	 viewBox="0 0 512 512" style="enable-background:new 0 0 512 512;" xml:space="preserve">
<circle style="fill:#FFD93B;" cx="256" cy="256" r="256"/>
<path style="fill:#F4C534;" d="M512,256c0,141.44-114.64,256-256,256c-80.48,0-152.32-37.12-199.28-95.28
	c43.92,35.52,99.84,56.72,160.72,56.72c141.36,0,256-114.56,256-256c0-60.88-21.2-116.8-56.72-160.72
	C474.8,103.68,512,175.52,512,256z"/>
<g>
	<path style="fill:#3E4347;" d="M166.032,352.496v23.68c0,4.96-4.16,9.12-9.28,9.12h-23.52c-5.12,0-9.28-4.16-9.28-9.12v-23.68
		c0-5.12,4.16-9.12,9.28-9.12h23.52C161.888,343.376,166.032,347.376,166.032,352.496z"/>
	<path style="fill:#3E4347;" d="M203.376,388.496v23.68c0,4.96-4.16,9.12-9.28,9.12h-23.52c-5.12,0-9.28-4.16-9.28-9.12v-23.68
		c0-5.12,4.16-9.12,9.28-9.12h23.52C199.216,379.376,203.376,383.376,203.376,388.496z"/>
	<path style="fill:#3E4347;" d="M240.032,352.496v23.68c0,4.96-4.16,9.12-9.28,9.12h-23.52c-5.12,0-9.28-4.16-9.28-9.12v-23.68
		c0-5.12,4.16-9.12,9.28-9.12h23.52C235.888,343.376,240.032,347.376,240.032,352.496z"/>
	<path style="fill:#3E4347;" d="M277.376,388.496v23.68c0,4.96-4.16,9.12-9.28,9.12h-23.52c-5.12,0-9.28-4.16-9.28-9.12v-23.68
		c0-5.12,4.16-9.12,9.28-9.12h23.52C273.216,379.376,277.376,383.376,277.376,388.496z"/>
	<path style="fill:#3E4347;" d="M314.048,352.496v23.68c0,4.96-4.16,9.12-9.28,9.12h-23.52c-5.12,0-9.28-4.16-9.28-9.12v-23.68
		c0-5.12,4.16-9.12,9.28-9.12h23.52C309.888,343.376,314.048,347.376,314.048,352.496z"/>
	<path style="fill:#3E4347;" d="M351.376,388.496v23.68c0,4.96-4.16,9.12-9.28,9.12h-23.52c-5.12,0-9.28-4.16-9.28-9.12v-23.68
		c0-5.12,4.16-9.12,9.28-9.12h23.52C347.216,379.376,351.376,383.376,351.376,388.496z"/>
	<path style="fill:#3E4347;" d="M388.048,352.496v23.68c0,4.96-4.16,9.12-9.28,9.12h-23.52c-5.12,0-9.28-4.16-9.28-9.12v-23.68
		c0-5.12,4.16-9.12,9.28-9.12h23.52C383.888,343.376,388.048,347.376,388.048,352.496z"/>
	<path style="fill:#3E4347;" d="M379.872,368.496c-13.808,12.864,30.48,83.008,43.344,96.816
		c12.96,13.904,34.704,14.672,48.512,1.808c13.904-12.96,14.688-34.704,1.728-48.608
		C460.608,404.688,393.792,355.536,379.872,368.496z M460.976,455.552c-4.208,3.92-9.376,5.44-13.296,1.232
		c-4.016-4.304-10.352-18.288-6.144-22.208c4.208-3.92,17.696,3.392,21.712,7.696C467.168,446.496,465.28,451.552,460.976,455.552z"
		/>
</g>
<g>
	<path style="fill:#F4C534;" d="M458.896,209.456c0,53.44-43.52,96.96-96.96,96.96c-53.28,0-96.8-43.52-96.8-96.96
		c0-53.6,43.52-97.12,96.8-97.12C415.376,112.352,458.896,155.872,458.896,209.456z"/>
	<path style="fill:#F4C534;" d="M246.896,209.456c0,53.44-43.52,96.96-96.8,96.96c-53.44,0-96.96-43.52-96.96-96.96
		c0-53.6,43.52-97.12,96.96-97.12C203.376,112.352,246.896,155.872,246.896,209.456z"/>
</g>
<circle style="fill:#FFFFFF;" cx="362" cy="209.44" r="73.728"/>
<path style="fill:#3E4347;" d="M399.216,209.472c0,20.48-16.656,37.136-37.312,37.136c-20.48,0-37.136-16.656-37.136-37.136
	s16.656-37.328,37.136-37.328C382.56,172.16,399.216,188.992,399.216,209.472z"/>
<g>
	<path style="fill:#FFFFFF;" d="M383.52,203.84c-2.768,2.768-8.48,1.312-12.88-3.088s-5.872-10.112-3.104-12.88
		c2.608-2.608,8.48-1.312,12.88,3.104C384.832,195.36,386.288,201.232,383.52,203.84z"/>
	<circle style="fill:#FFFFFF;" cx="150.032" cy="209.44" r="73.728"/>
</g>
<path style="fill:#3E4347;" d="M187.264,209.472c0,20.48-16.656,37.136-37.312,37.136c-20.48,0-37.136-16.656-37.136-37.136
	s16.656-37.328,37.136-37.328C170.592,172.16,187.264,188.992,187.264,209.472z"/>
<path style="fill:#FFFFFF;" d="M171.552,203.84c-2.768,2.768-8.48,1.312-12.88-3.088c-4.4-4.4-5.872-10.112-3.104-12.88
	c2.608-2.608,8.48-1.312,12.88,3.104C172.864,195.36,174.336,201.232,171.552,203.84z"/>
<g>
</g>
<g>
</g>
<g>
</g>
<g>
</g>
<g>
</g>
<g>
</g>
<g>
</g>
<g>
</g>
<g>
</g>
<g>
</g>
<g>
</g>
<g>
</g>
<g>
</g>
<g>
</g>
<g>
</g>
</svg>
