<?xml version="1.0" encoding="iso-8859-1"?>
<!-- Generator: Adobe Illustrator 19.0.0, SVG Export Plug-In . SVG Version: 6.00 Build 0)  -->
<svg version="1.1" id="Capa_1" xmlns="http://www.w3.org/2000/svg" xmlns:xlink="http://www.w3.org/1999/xlink" x="0px" y="0px"
	 viewBox="0 0 512.064 512.064" style="enable-background:new 0 0 512.064 512.064;" xml:space="preserve">
<circle style="fill:#FFD93B;" cx="256.008" cy="240.16" r="240.16"/>
<path style="fill:#F4C534;" d="M496.216,240.208c0,132.72-107.568,240.208-240.208,240.208c-75.52,0-142.928-34.832-186.992-89.408
	c41.216,33.328,93.68,53.216,150.8,53.216c132.64,0,240.208-107.488,240.208-240.208c0-57.12-19.888-109.6-53.216-150.8
	C461.304,97.28,496.216,164.688,496.216,240.208z"/>
<ellipse style="fill:#8CC63E;" cx="262.344" cy="480.48" rx="165.456" ry="31.584"/>
<path style="fill:#7FB239;" d="M427.816,480.432c0,17.424-74.16,31.52-165.44,31.52c-62.448,0-116.944-6.608-145.024-16.368
	c29.12,3.6,63.808,5.712,101.184,5.712c102.688,0,185.856-15.776,185.856-35.44c0-0.592,0-1.056-0.304-1.648
	C419.096,468.88,427.816,474.432,427.816,480.432z"/>
<g style="opacity:0.2;">
	<ellipse style="fill:#FFFFFF;" cx="151.48" cy="480.48" rx="31.408" ry="7.808"/>
</g>
<path style="fill:#F4C534;" d="M73.336,199.248c0-46.352,37.488-83.84,83.696-83.84c46.352,0,83.84,37.488,83.84,83.84
	c0,46.208-37.488,83.696-83.84,83.696C110.824,282.944,73.336,245.456,73.336,199.248z"/>
<circle style="fill:#FFFFFF;" cx="157.128" cy="199.136" r="65.216"/>
<path style="fill:#3E4347;" d="M189.88,199.104c0,18.16-14.672,32.832-32.688,32.832c-18.16,0-32.848-14.672-32.848-32.832
	c0-18.016,14.672-32.688,32.848-32.688C175.192,166.4,189.88,181.072,189.88,199.104z"/>
<path style="fill:#FFFFFF;" d="M176.648,193.856c-2.32,2.464-7.552,1.312-11.472-2.608c-4.064-4.08-5.232-9.296-2.768-11.632
	c2.464-2.608,7.696-1.456,11.776,2.624C178.104,186.16,179.272,191.392,176.648,193.856z"/>
<path style="fill:#E84D88;" d="M75.304,217.072c8.224,37.68,41.696,65.856,81.872,65.856c40.048,0,73.504-28.176,81.728-65.856
	H75.304z"/>
<g>
	<path style="fill:#F4C534;" d="M229.992,170.304c-10.96-29.76-39.36-51.04-72.96-51.04c-33.504,0-61.872,21.28-72.816,51.04
		C132.808,157.072,181.4,157.072,229.992,170.304z"/>
	<path style="fill:#F4C534;" d="M271.144,199.248c0-46.352,37.488-83.84,83.696-83.84c46.352,0,83.84,37.488,83.84,83.84
		c0,46.208-37.488,83.696-83.84,83.696C308.632,282.944,271.144,245.456,271.144,199.248z"/>
</g>
<circle style="fill:#FFFFFF;" cx="354.888" cy="199.136" r="65.216"/>
<path style="fill:#3E4347;" d="M387.688,199.104c0,18.16-14.672,32.832-32.688,32.832c-18.16,0-32.848-14.672-32.848-32.832
	c0-18.016,14.672-32.688,32.848-32.688C373,166.4,387.688,181.072,387.688,199.104z"/>
<path style="fill:#FFFFFF;" d="M374.456,193.856c-2.32,2.464-7.552,1.312-11.472-2.608c-4.064-4.08-5.232-9.296-2.768-11.632
	c2.464-2.608,7.696-1.456,11.776,2.624C375.912,186.16,377.064,191.392,374.456,193.856z"/>
<path style="fill:#E84D88;" d="M273.112,217.072c8.224,37.68,41.696,65.856,81.872,65.856c40.048,0,73.504-28.176,81.728-65.856
	H273.112z"/>
<path style="fill:#F4C534;" d="M427.8,170.304c-10.96-29.76-39.344-51.04-72.96-51.04c-33.504,0-61.872,21.28-72.816,51.04
	C330.616,157.072,379.208,157.072,427.8,170.304z"/>
<path style="fill:#3E4347;" d="M338.92,348.672c0,12.736-10.256,23.168-22.992,23.168h-119.68
	c-12.736,0-23.168-10.416-23.168-23.168c0-12.736,10.416-23.168,23.168-23.168h119.68C328.664,325.504,338.92,335.92,338.92,348.672
	z"/>
<path style="fill:#8CC63E;" d="M318.456,370.544v94.88c0,12.304-9.904,22.224-22.224,22.224h-80.464
	c-12.304,0-22.224-9.904-22.224-22.224v-94.88c0-11.264,8.704-20.576,19.968-22.064c28.368-3.456,56.592-3.456,84.976,0
	C309.752,349.968,318.456,359.28,318.456,370.544z"/>
<g>
</g>
<g>
</g>
<g>
</g>
<g>
</g>
<g>
</g>
<g>
</g>
<g>
</g>
<g>
</g>
<g>
</g>
<g>
</g>
<g>
</g>
<g>
</g>
<g>
</g>
<g>
</g>
<g>
</g>
</svg>
