<?xml version="1.0" encoding="iso-8859-1"?>
<!-- Generator: Adobe Illustrator 19.0.0, SVG Export Plug-In . SVG Version: 6.00 Build 0)  -->
<svg version="1.1" id="Capa_1" xmlns="http://www.w3.org/2000/svg" xmlns:xlink="http://www.w3.org/1999/xlink" x="0px" y="0px"
	 viewBox="0 0 512 512" style="enable-background:new 0 0 512 512;" xml:space="preserve">
<circle style="fill:#FFD93B;" cx="256" cy="256" r="256"/>
<g>
	<path style="fill:#F4C534;" d="M510.784,256c0,141.44-114.64,256-256,256c-80.48,0-152.32-37.12-199.28-95.28
		c43.92,35.52,99.84,56.72,160.72,56.72c141.36,0,256-114.56,256-256c0-60.88-21.2-116.8-56.72-160.72
		C473.584,103.68,510.784,175.52,510.784,256z"/>
	<path style="fill:#F4C534;" d="M211.632,196.336H71.664c-4.336,9.568-7.04,20.016-7.04,31.216c0,42.4,34.4,76.96,76.96,76.96
		s77.12-34.56,77.12-76.96C218.704,216.352,215.984,205.904,211.632,196.336z"/>
</g>
<path style="fill:#FFFFFF;" d="M92.544,196.336c-5.952,9.184-9.504,20.112-9.504,31.888c0,32.24,26.16,58.544,58.544,58.544
	s58.704-26.32,58.704-58.544c0-11.776-3.568-22.688-9.552-31.888H92.544z"/>
<path style="fill:#3E4347;" d="M140.048,196.336c-4.112,5.008-6.688,11.328-6.688,18.304c0,16.016,12.992,28.992,28.992,28.992
	s28.992-12.992,28.992-28.992c0-6.992-2.576-13.312-6.688-18.304H140.048z"/>
<g>
	<path style="fill:#F4C534;" d="M243.504,192.832c0,5.6-4.48,10.24-10.24,10.24h-183.2c-5.76,0-10.24-4.64-10.24-10.24
		s4.48-10.24,10.24-10.24h183.2C239.024,182.592,243.504,187.232,243.504,192.832z"/>
	<path style="fill:#F4C534;" d="M440.304,196.336H300.336c-4.336,9.568-7.04,20.016-7.04,31.216c0,42.4,34.4,76.96,76.96,76.96
		s77.12-34.56,77.12-76.96C447.376,216.352,444.656,205.904,440.304,196.336z"/>
</g>
<path style="fill:#FFFFFF;" d="M321.216,196.336c-5.952,9.184-9.504,20.112-9.504,31.888c0,32.24,26.16,58.544,58.544,58.544
	s58.704-26.32,58.704-58.544c0-11.776-3.568-22.688-9.552-31.888H321.216z"/>
<path style="fill:#3E4347;" d="M368.72,196.336c-4.112,5.008-6.688,11.328-6.688,18.304c0,16.016,12.976,28.992,28.992,28.992
	s28.992-12.992,28.992-28.992c0-6.992-2.576-13.312-6.688-18.304H368.72z"/>
<path style="fill:#F4C534;" d="M472.176,192.832c0,5.6-4.48,10.24-10.24,10.24h-183.2c-5.76,0-10.24-4.64-10.24-10.24
	s4.48-10.24,10.24-10.24h183.2C467.696,182.592,472.176,187.232,472.176,192.832z"/>
<g>
	<path style="fill:#3E4347;" d="M362.88,416.192c-4.576-10-14.144-21.456-25.92-28.64c-26.016-16.272-47.776-6.576-75.52,6.56
		c-36.72,15.728-70.352,11.264-95.04-5.44c-12.048-7.744-21.808-18.08-28.48-31.52c9.584,7.68,21.808,14.624,34.56,19.2
		c25.728,9.088,52.688,8.496,79.2-4.16c19.808-8.496,60.608-28.688,93.92,4.64C357.968,389.2,363.648,406.144,362.88,416.192z"/>
	<path style="fill:#3E4347;" d="M281.744,140.352c-1.36-6.48,2.8-12.864,9.28-14.224c0.752-0.16,76.576-16.16,115.216-33.488
		c6.032-2.752,13.136,0,15.856,6.048c2.704,6.048,0,13.136-6.048,15.856c-41.008,18.384-116.896,34.4-120.112,35.072
		C289.52,150.976,283.104,146.896,281.744,140.352z"/>
	<path style="fill:#3E4347;" d="M216.064,149.632c-3.216-0.656-79.104-16.688-120.112-35.072c-6.048-2.72-8.768-9.808-6.048-15.856
		c2.72-6.048,9.808-8.784,15.856-6.048c38.672,17.328,114.464,33.328,115.216,33.488c6.48,1.36,10.64,7.712,9.28,14.224
		C228.896,146.896,222.48,150.976,216.064,149.632z"/>
</g>
<g>
</g>
<g>
</g>
<g>
</g>
<g>
</g>
<g>
</g>
<g>
</g>
<g>
</g>
<g>
</g>
<g>
</g>
<g>
</g>
<g>
</g>
<g>
</g>
<g>
</g>
<g>
</g>
<g>
</g>
</svg>
