<?xml version="1.0" encoding="iso-8859-1"?>
<!-- Generator: Adobe Illustrator 19.0.0, SVG Export Plug-In . SVG Version: 6.00 Build 0)  -->
<svg version="1.1" id="Capa_1" xmlns="http://www.w3.org/2000/svg" xmlns:xlink="http://www.w3.org/1999/xlink" x="0px" y="0px"
	 viewBox="0 0 511.985 511.985" style="enable-background:new 0 0 511.985 511.985;" xml:space="preserve">
<path style="fill:#FFD93B;" d="M470.743,188.643c17.648,141.568-101.408,260.4-242.896,242.576
	c-96.464-12.16-174.352-90.032-186.56-186.48C23.367,103.011,142.663-16.221,284.391,1.811
	C380.887,14.099,458.711,92.115,470.743,188.643z"/>
<path style="fill:#F4C534;" d="M471.031,241.955c-11.296,98.864-91.28,178.64-190.16,189.648
	c-78,8.688-148.912-24.08-193.392-79.184c43.008,34.784,99.632,53.328,160.624,46.608c99.248-10.96,179.456-91.168,190.416-190.416
	c6.736-60.992-11.808-117.616-46.608-160.624C447.079,92.579,479.959,163.731,471.031,241.955z"/>
<path style="fill:#FFD93B;" d="M392.343,362.787c-5.056,40.544-38.672,73.44-75.088,73.44c-36.272,0-61.68-32.896-56.624-73.44
	c5.04-40.4,38.64-73.28,74.928-73.28C371.975,289.507,397.383,322.403,392.343,362.787z"/>
<path style="fill:#3E4347;" d="M370.055,362.787c-3.344,26.864-25.536,48.576-49.696,48.576c-24.016,0-40.784-21.728-37.44-48.576
	c3.328-26.704,25.536-48.576,49.552-48.576C356.632,314.211,373.383,336.083,370.055,362.787z"/>
<g>
	<path style="fill:#E24B4B;" d="M423.255,186.371c-11.504,32.864-74.512,53.312-95.28,59.28c-3.728,1.04-8.064-0.448-10.448-3.584
		c-12.544-17.616-49.136-72.864-37.632-105.728c14.64-41.808,76.464-30.464,75.856,13.296c10-12.992,27.472-18.512,43.6-12.992
		C419.671,143.811,430.423,166.051,423.255,186.371z"/>
	<path style="fill:#E24B4B;" d="M88.728,186.371c11.504,32.864,74.512,53.312,95.28,59.28c3.728,1.04,8.064-0.448,10.448-3.584
		c12.544-17.616,49.136-72.864,37.632-105.728c-14.64-41.808-76.464-30.464-75.856,13.296
		c-10.016-12.992-27.488-18.528-43.616-12.992C92.312,143.811,81.56,166.051,88.728,186.371z"/>
</g>
<path style="fill:#65B1EF;" d="M282.503,375.587c11.008-4.576,22.64-6.336,33.792-2.768s21.824,12.832,28.704,27.376
	c5.024,10.608,7.856,23.536,9.344,36.656c1.488,13.104,1.68,26.496,1.872,39.824c0.032,2.544-0.096,5.488-0.56,7.92
	s-1.872,4.608-3.456,4.352c-2.336-0.384-3.152-5.12-3.488-8.864c-0.336-3.744-1.44-8.464-3.792-8.32
	c-1.696,0.112-2.848,2.848-4.448,3.776c-2.592,1.488-5.296-2.416-6.096-6.64c-0.8-4.224-0.4-8.8-0.816-13.168
	c-0.416-4.368-2.144-9.072-4.896-9.424c-2.336-0.304-4.4,2.848-5.152,6.4c-0.752,3.568-0.48,7.44-0.208,11.168
	c0.368,5.104,3.296,37.952,2.224,42.8c-0.672,3.056-2.512,5.696-4.512,5.264c-1.712-0.368-2.992-2.88-3.424-5.552
	c-2.192-13.664,5.904-25.584-1.2-39.84c-3.168-6.352-8.608-8.192-13.584-9.824c-4.976-1.616-10.416-3.952-13.2-10.752
	c-2.88-7.04-1.28-16.256-1.616-24.656C287.383,406.227,284.583,389.379,282.503,375.587z"/>
<g>
	<path style="fill:#3E4347;" d="M392.503,93.971c0.336,8.928-13.632,10.848-17.872,2.912c-13.856-25.712-39.44-40.8-61.024-44.48
		c-5.472-0.896-6.912-8.352-1.904-10.736C346.615,25.123,391.047,55.939,392.503,93.971z"/>
	<path style="fill:#3E4347;" d="M119.479,93.971c-0.352,8.928,13.632,10.848,17.872,2.912c13.856-25.712,39.44-40.8,61.008-44.48
		c5.472-0.896,6.912-8.352,1.904-10.736C165.368,25.123,120.936,55.939,119.479,93.971z"/>
</g>
<path style="fill:#65B1EF;" d="M338.999,501.107c-5.136,0-1.696-7.072-1.2-11.92c0.304-2.944,0.32-5.888,0.736-8.864
	c-0.144,9.344,1.456,9.088,3.2,15.504C342.567,498.867,340.999,501.107,338.999,501.107z"/>
<g>
</g>
<g>
</g>
<g>
</g>
<g>
</g>
<g>
</g>
<g>
</g>
<g>
</g>
<g>
</g>
<g>
</g>
<g>
</g>
<g>
</g>
<g>
</g>
<g>
</g>
<g>
</g>
<g>
</g>
</svg>
