<?xml version="1.0" encoding="iso-8859-1"?>
<!-- Generator: Adobe Illustrator 19.0.0, SVG Export Plug-In . SVG Version: 6.00 Build 0)  -->
<svg version="1.1" id="Capa_1" xmlns="http://www.w3.org/2000/svg" xmlns:xlink="http://www.w3.org/1999/xlink" x="0px" y="0px"
	 viewBox="0 0 512 512" style="enable-background:new 0 0 512 512;" xml:space="preserve">
<circle style="fill:#FFD93B;" cx="256" cy="256" r="256"/>
<path style="fill:#F4C534;" d="M512,256c0,141.44-114.64,256-256,256c-80.48,0-152.32-37.12-199.28-95.28
	c43.92,35.52,99.84,56.72,160.72,56.72c141.36,0,256-114.56,256-256c0-60.88-21.2-116.8-56.72-160.72
	C474.8,103.68,512,175.52,512,256z"/>
<path style="fill:#3E4347;" d="M395.664,393.232c-20.944,53.936-58.608-25.44-139.664-25.44c-81.184,0-118.736,79.392-139.68,25.44
	c-19.856-51.152,50.816-54.448,139.744-54.448C344.848,338.784,415.536,342.08,395.664,393.232z"/>
<path style="fill:#F4C534;" d="M246.384,211.376c0,50.24-40.64,90.88-90.88,90.88c-50.08,0-90.88-40.64-90.88-90.88
	s40.8-90.88,90.88-90.88C205.744,120.48,246.384,161.136,246.384,211.376z"/>
<path style="fill:#FFFFFF;" d="M227.36,211.376c0,39.728-32.144,71.856-71.872,71.856c-39.6,0-71.856-32.144-71.856-71.856
	c0-39.728,32.256-71.872,71.856-71.872C195.216,139.504,227.36,171.632,227.36,211.376z"/>
<path style="fill:#3E4347;" d="M209.744,219.376c0,20.944-17.28,38.24-38.24,38.24c-21.12,0-38.24-17.12-38.24-38.24
	s17.12-38.24,38.24-38.24S209.744,198.24,209.744,219.376z"/>
<ellipse transform="matrix(-0.7071 -0.7071 0.7071 -0.7071 168.7631 482.8575)" style="fill:#FFFFFF;" cx="184.385" cy="206.477" rx="11.36" ry="7.52"/>
<path style="fill:#F4C534;" d="M447.392,211.376c0,50.24-40.64,90.88-90.88,90.88c-50.08,0-90.88-40.64-90.88-90.88
	s40.8-90.88,90.88-90.88C406.736,120.48,447.392,161.136,447.392,211.376z"/>
<path style="fill:#FFFFFF;" d="M428.368,211.376c0,39.728-32.144,71.856-71.872,71.856c-39.6,0-71.872-32.144-71.872-71.856
	c0-39.728,32.272-71.872,71.872-71.872C396.224,139.504,428.368,171.632,428.368,211.376z"/>
<path style="fill:#3E4347;" d="M302.272,219.376c0,20.944,17.28,38.24,38.24,38.24c21.12,0,38.24-17.12,38.24-38.24
	s-17.12-38.24-38.24-38.24S302.272,198.24,302.272,219.376z"/>
<ellipse transform="matrix(-0.7071 -0.7071 0.7071 -0.7071 413.2691 584.0726)" style="fill:#FFFFFF;" cx="327.6" cy="206.445" rx="7.52" ry="11.36"/>
<g>
</g>
<g>
</g>
<g>
</g>
<g>
</g>
<g>
</g>
<g>
</g>
<g>
</g>
<g>
</g>
<g>
</g>
<g>
</g>
<g>
</g>
<g>
</g>
<g>
</g>
<g>
</g>
<g>
</g>
</svg>
