<?xml version="1.0" encoding="iso-8859-1"?>
<!-- Generator: Adobe Illustrator 19.0.0, SVG Export Plug-In . SVG Version: 6.00 Build 0)  -->
<svg version="1.1" id="Capa_1" xmlns="http://www.w3.org/2000/svg" xmlns:xlink="http://www.w3.org/1999/xlink" x="0px" y="0px"
	 viewBox="0 0 512 512" style="enable-background:new 0 0 512 512;" xml:space="preserve">
<circle style="fill:#FFD93B;" cx="256" cy="256" r="256"/>
<path style="fill:#F4C534;" d="M512,256c0,141.44-114.64,256-256,256c-80.48,0-152.32-37.12-199.28-95.28
	c43.92,35.52,99.84,56.72,160.72,56.72c141.36,0,256-114.56,256-256c0-60.88-21.2-116.8-56.72-160.72
	C474.8,103.68,512,175.52,512,256z"/>
<g>
	<circle style="fill:#FFFFFF;" cx="154.048" cy="195.36" r="77.76"/>
	<circle style="fill:#FFFFFF;" cx="357.952" cy="195.36" r="77.76"/>
</g>
<g>
	<path style="fill:#3E4347;" d="M472.688,182.448h-26.8c-9.968-70.624-94.096-99.824-146.4-54.128
		c-26.72,23.328-63.68,20.24-87.2-0.192c-52.256-45.36-136.208-16.336-146.192,54.32H39.312v25.824h26.656
		c6.272,42.976,43.376,76.096,88.08,76.096c42.816,0,78.64-30.384,87.104-70.72h0.016v-0.064c0.416-1.984,0.672-4.016,0.96-6.032
		c4.608-13.776,23.2-13.296,27.744,0.016c0.272,2.016,0.544,4.048,0.944,6.016c0,0.032,0,0.016,0,0.08h0.032
		c8.464,40.32,44.288,70.704,87.104,70.704c44.688,0,81.792-33.12,88.064-76.096h26.656v-25.824H472.688z M154.048,263.376
		c-37.504,0-68.016-30.512-68.016-68.016s30.512-68.016,68.016-68.016s68.016,30.512,68.016,68.016S191.552,263.376,154.048,263.376
		z M357.952,263.376c-37.52,0-68.016-30.512-68.016-68.016s30.512-68.016,68.016-68.016s68.016,30.512,68.016,68.016
		S395.456,263.376,357.952,263.376z"/>
	<path style="fill:#3E4347;" d="M395.008,382.544c2.48,47.424-45.136,71.504-139.008,70.288
		c-93.872,1.296-141.504-22.864-139.008-70.288c-2.48-47.504,45.152-71.52,139.008-70.288
		C349.872,311.088,397.488,335.072,395.008,382.544z"/>
	<path style="fill:#3E4347;" d="M188.4,195.392c0,18.88-15.36,34.24-34.4,34.24c-18.88,0-34.24-15.36-34.24-34.24
		s15.36-34.4,34.24-34.4C173.04,160.992,188.4,176.512,188.4,195.392z"/>
</g>
<path style="fill:#FFFFFF;" d="M173.936,190.192c-2.56,2.56-7.824,1.2-11.872-2.848c-4.064-4.064-5.408-9.328-2.864-11.872
	c2.4-2.4,7.824-1.2,11.872,2.864C175.136,182.384,176.48,187.792,173.936,190.192z"/>
<path style="fill:#3E4347;" d="M392.272,195.44c0,18.88-15.36,34.24-34.4,34.24c-18.88,0-34.24-15.36-34.24-34.24
	s15.36-34.4,34.24-34.4C376.912,161.04,392.272,176.56,392.272,195.44z"/>
<g>
	<path style="fill:#FFFFFF;" d="M377.792,190.24c-2.56,2.56-7.824,1.2-11.872-2.848c-4.064-4.064-5.408-9.328-2.848-11.872
		c2.4-2.4,7.824-1.2,11.872,2.864C378.992,182.432,380.352,187.84,377.792,190.24z"/>
	<path style="fill:#FFFFFF;" d="M256,347.04c47.52,0,90.944-0.368,124.48-4.336c-20.448-20.864-62.224-31.216-124.48-30.432
		c-62.272-0.816-104.048,9.536-124.496,30.432C165.04,346.672,208.464,347.04,256,347.04z"/>
	<path style="fill:#FFFFFF;" d="M132.064,422.944c20.64,20.528,62.224,30.752,123.936,29.904
		c61.696,0.8,103.264-9.392,123.92-29.904c-33.456-3.92-76.656-4.272-123.92-4.272S165.52,419.024,132.064,422.944z"/>
</g>
<g>
</g>
<g>
</g>
<g>
</g>
<g>
</g>
<g>
</g>
<g>
</g>
<g>
</g>
<g>
</g>
<g>
</g>
<g>
</g>
<g>
</g>
<g>
</g>
<g>
</g>
<g>
</g>
<g>
</g>
</svg>
