<?xml version="1.0" encoding="iso-8859-1"?>
<!-- Generator: Adobe Illustrator 19.0.0, SVG Export Plug-In . SVG Version: 6.00 Build 0)  -->
<svg version="1.1" id="Capa_1" xmlns="http://www.w3.org/2000/svg" xmlns:xlink="http://www.w3.org/1999/xlink" x="0px" y="0px"
	 viewBox="0 0 512.1 512.1" style="enable-background:new 0 0 512.1 512.1;" xml:space="preserve">
<path style="fill:#E84D88;" d="M464.312,243.268c-2.208,0-4-1.792-4-4c-0.016-12.288,6.272-22.832,12.304-33.488
	c12.944-22.576,9.92-31.68,1.008-46.176c-7.28-11.856-8.352-15.568-9.104-28.48c-1.28-21.008-4.272-16.384-18.16-28.032
	c-1.696-1.424-1.92-3.952-0.496-5.648c1.408-1.68,3.936-1.92,5.632-0.496c15.248,12.752,19.536,9.36,21.008,33.68
	c0.672,11.584,1.392,14.112,7.936,24.768c9.856,16,14.096,28.224-0.864,54.32c-5.072,9.088-11.264,19.072-11.248,29.52
	C468.312,241.46,466.536,243.268,464.312,243.268L464.312,243.268z"/>
<path style="fill:#8CC63E;" d="M479.368,96.34c-14.496-10.144-27.488-25.504-36.576-43.232c-4.56-9.28-10.768-23.952-21.184-24.24
	c-1.104-0.144-1.776,0.192-2.272,0.64c-1.568,1.536-4.096,1.488-5.664-0.112c-1.536-1.6-1.472-4.128,0.128-5.664
	c2.048-1.968,4.96-3.056,8.048-2.864c14.624,0.432,21.744,15.712,28.08,28.624c8.48,16.56,20.576,30.88,34.032,40.304
	c1.808,1.264,2.256,3.76,0.992,5.568C483.704,97.124,481.224,97.62,479.368,96.34z"/>
<path style="fill:#9A795F;" d="M480.6,298.5c-1.568-1.552-1.568-4.096,0-5.664c10.592-10.608,14.88-25.248,9.776-43.52
	c-5.536-20.288,0.048-16.928,0.224-32.928c0.016-2.192,1.808-3.968,4-3.968h0.032c2.224,0.016,3.984,1.824,3.968,4.032
	c-0.128,16-5.456,12.64-0.496,30.72c5.856,21.28,0.672,38.752-11.84,51.296C484.68,300.084,482.152,300.036,480.6,298.5z"/>
<g>
	<path style="fill:#45CBEA;" d="M440.168,300.724c-7.84-31.984-5.328-65.424,7.072-94.16c3.76-8.224,8.736-17.696,6.384-26.4
		c-0.576-2.128,0.688-4.336,2.816-4.912c2.224-0.576,4.336,0.672,4.912,2.816c3.024,11.184-2,21.248-6.8,31.728
		c-11.68,27.072-14.064,58.704-6.608,89.008c0.512,2.144-0.8,4.32-2.944,4.832C442.904,304.18,440.712,302.884,440.168,300.724z"/>
	<path style="fill:#45CBEA;" d="M456.84,144.58c-0.512,3.632-1.136,7.216-1.824,10.752c-1.696-3.184-3.456-6.304-5.296-9.36
		c0.528-3.52,0.976-7.072,1.344-10.672C453.064,138.324,454.984,141.412,456.84,144.58z"/>
</g>
<path style="fill:#FFD93B;" d="M487.272,127.54c-2.48,2.336-5.008,4.624-7.536,6.848c0.384-4.016,0.688-8.064,0.88-12.144
	c2.432-2.368,4.816-4.8,7.184-7.28C487.736,119.188,487.56,123.38,487.272,127.54z"/>
<path style="fill:#8CC63E;" d="M430.936,75.796c0.144,1.968,0.272,3.92,0.368,5.856c-2.112-1.904-4.256-3.76-6.432-5.568
	c-0.16-1.936-0.352-3.872-0.576-5.808C426.536,72.068,428.744,73.908,430.936,75.796z"/>
<path style="fill:#E84D88;" d="M465.608,34.964c2.384,4.672,4.576,9.344,6.56,14.016c-5.04-2.496-10.16-4.816-15.328-6.944
	C459.752,39.668,462.664,37.3,465.608,34.964z"/>
<circle style="fill:#FFD93B;" cx="200.456" cy="323.236" r="188.864"/>
<path style="fill:#F4C534;" d="M389.32,323.172c0,104.352-84.576,188.864-188.864,188.864c-59.376,0-112.368-27.392-147.008-70.288
	c32.4,26.208,73.648,41.84,118.576,41.84c104.288,0,188.864-84.512,188.864-188.864c0-44.912-15.648-86.16-41.84-118.576
	C361.88,210.804,389.32,263.812,389.32,323.172z"/>
<path style="fill:#3E4347;" d="M307.064,408.356c-25.28,32.592-63.28,53.296-105.84,53.296c-42.016,0-79.6-20.192-104.88-52.048
	c-3.824-4.848,1.024-11.968,6.352-9.168c64.096,33.328,130.032,33.024,197.744-0.96C305.688,396.82,310.744,403.572,307.064,408.356
	z"/>
<path style="fill:#FFFFFF;" d="M181.48,313.812c0,28.88-23.376,52.256-52.048,52.256c-28.88,0-52.24-23.376-52.24-52.256
	s23.376-52.256,52.24-52.256C158.104,261.572,181.48,284.948,181.48,313.812z"/>
<path style="fill:#3E4347;" d="M155.128,313.716c0,14.368-11.536,25.92-25.696,25.92c-14.368,0-25.904-11.536-25.904-25.92
	c0-14.16,11.536-25.696,25.904-25.696C143.592,288.02,155.128,299.572,155.128,313.716z"/>
<g>
	<path style="fill:#FFFFFF;" d="M144.168,309.604c-2.16,2.16-6,1.392-8.928-1.536c-3.072-3.072-3.84-6.928-1.696-9.088
		c2-2,6-1.392,9.088,1.696C145.56,303.604,146.168,307.604,144.168,309.604z"/>
	<path style="fill:#FFFFFF;" d="M323.736,313.812c0,28.88-23.376,52.256-52.048,52.256c-28.88,0-52.24-23.376-52.24-52.256
		s23.376-52.256,52.24-52.256C300.36,261.572,323.736,284.948,323.736,313.812z"/>
</g>
<path style="fill:#3E4347;" d="M297.4,313.716c0,14.368-11.536,25.92-25.696,25.92c-14.368,0-25.904-11.536-25.904-25.92
	c0-14.16,11.536-25.696,25.904-25.696C285.848,288.02,297.4,299.572,297.4,313.716z"/>
<path style="fill:#FFFFFF;" d="M286.424,309.604c-2.16,2.16-6,1.392-8.928-1.536c-3.072-3.072-3.84-6.928-1.696-9.088
	c2-2,6-1.392,9.088,1.696C287.816,303.604,288.44,307.604,286.424,309.604z"/>
<g>
	<path style="fill:#3E4347;" d="M255.016,246.788c-7.712-0.256-4.48-17.424,5.968-20.16c0,0,52.256-1.744,76.384,53.744
		C337.384,280.388,305.288,244.788,255.016,246.788z"/>
	<path style="fill:#3E4347;" d="M145.896,246.788c7.712-0.256,4.48-17.424-5.968-20.16c0,0-52.256-1.744-76.384,53.744
		C63.544,280.388,95.64,244.788,145.896,246.788z"/>
</g>
<path style="fill:#65B1EF;" d="M398.888,263.54c-38.608-82.688-106.576-129.168-203.872-139.472
	C256.68,78.564,412.072,26.26,412.072,26.26S418.072,183.46,398.888,263.54z"/>
<g>
	
		<ellipse transform="matrix(-0.8254 -0.5646 0.5646 -0.8254 407.2133 379.999)" style="fill:#59A5E0;" cx="262.373" cy="127.025" rx="12.192" ry="9.536"/>
	<path style="fill:#59A5E0;" d="M340.152,69.14c7.136,4.88,16.016,4.32,19.84-1.264s1.136-14.064-6.016-18.944
		c-0.528-0.352-1.072-0.624-1.616-0.928c-6.352,2.448-13.024,5.056-19.888,7.792C332.376,60.5,335.144,65.7,340.152,69.14z"/>
	<path style="fill:#59A5E0;" d="M400.664,165.748c3.2,2.192,6.72,3.216,10,3.264c0.48-8.368,0.88-16.736,1.184-24.992
		c-6.56-3.152-13.84-2.128-17.2,2.784C390.84,152.372,393.528,160.868,400.664,165.748z"/>
	
		<ellipse transform="matrix(-0.8254 -0.5646 0.5646 -0.8254 513.6373 363.9622)" style="fill:#59A5E0;" cx="313.105" cy="102.548" rx="12.192" ry="9.536"/>
	
		<ellipse transform="matrix(-0.8254 -0.5646 0.5646 -0.8254 561.3839 508.1105)" style="fill:#59A5E0;" cx="359.271" cy="167.238" rx="12.192" ry="9.536"/>
	
		<ellipse transform="matrix(-0.8254 -0.5646 0.5646 -0.8254 616.283 414.9338)" style="fill:#59A5E0;" cx="372.31" cy="112.16" rx="20.385" ry="15.952"/>
	<path style="fill:#59A5E0;" d="M402.424,80.34c3.36,2.288,6.992,3.632,10.528,4.096c0.016-13.072-0.112-24.656-0.272-33.984
		c-7.232-1.904-14.432-0.128-18.08,5.2C389.624,62.932,393.128,73.972,402.424,80.34z"/>
</g>
<ellipse transform="matrix(-0.8254 -0.5646 0.5646 -0.8254 735.6329 280.8812)" style="fill:#E24B4B;" cx="411.254" cy="26.676" rx="26.641" ry="26.689"/>
<g style="opacity:0.2;">
	<path style="fill:#FFFFFF;" d="M399.72,32.756c-33.76,18.272-129.344,71.376-174.624,111.856c9.888-0.528,19.232-0.416,28.16,0.304
		c44.784-40.88,118.896-92.016,147.12-111.088C400.168,33.476,399.944,33.124,399.72,32.756z"/>
</g>
<path style="fill:#D03F3F;" d="M424.28,49.908c-8.544,4.784-19.44,4.672-28.096-1.248c-12.08-8.256-15.2-24.912-6.944-36.976
	c5.952-8.704,16.16-12.768,25.92-11.376c-3.456,1.92-6.608,4.72-8.992,8.192c-8.256,12.08-5.184,28.784,6.896,37.04
	C416.568,47.924,420.424,49.412,424.28,49.908z"/>
<path style="fill:#E9EFF4;" d="M387.672,296.676c-0.896-1.616-15.392-35.744-16.464-39.328
	c-3.184-11.328-26.528-38.176-30.304-41.712c-51.296-47.856-121.92-71.552-139.648-73.776c-5.856-0.848-14.592,0.272-17.872-5.28
	c-6.992-11.808,40.864-37.296,82.256-28.528c13.936,2.944,73.664,34.512,112.16,75.712
	C423.864,233.028,404.856,327.812,387.672,296.676z"/>
<g>
</g>
<g>
</g>
<g>
</g>
<g>
</g>
<g>
</g>
<g>
</g>
<g>
</g>
<g>
</g>
<g>
</g>
<g>
</g>
<g>
</g>
<g>
</g>
<g>
</g>
<g>
</g>
<g>
</g>
</svg>
