<?xml version="1.0" encoding="iso-8859-1"?>
<!-- Generator: Adobe Illustrator 19.0.0, SVG Export Plug-In . SVG Version: 6.00 Build 0)  -->
<svg version="1.1" id="Capa_1" xmlns="http://www.w3.org/2000/svg" xmlns:xlink="http://www.w3.org/1999/xlink" x="0px" y="0px"
	 viewBox="0 0 511.991 511.991" style="enable-background:new 0 0 511.991 511.991;" xml:space="preserve">
<circle style="fill:#FFD93B;" cx="319.671" cy="255.995" r="192.32"/>
<g>
	<path style="fill:#F4C534;" d="M511.991,255.995c0,106.256-86.128,192.32-192.32,192.32c-60.464,0-114.432-27.888-149.712-71.584
		c32.992,26.688,75.008,42.608,120.736,42.608c106.192,0,192.32-86.064,192.32-192.32c0-45.728-15.92-87.744-42.608-120.736
		C484.039,141.563,511.991,195.531,511.991,255.995z"/>
	
		<ellipse transform="matrix(-0.9446 -0.3283 0.3283 -0.9446 486.5041 465.7432)" style="fill:#F4C534;" cx="282.566" cy="191.805" rx="43.089" ry="61.074"/>
</g>
<ellipse transform="matrix(-0.9446 -0.3283 0.3283 -0.9446 479.7814 478.0417)" style="fill:#FFFFFF;" cx="280.243" cy="198.521" rx="33.585" ry="47.617"/>
<path style="fill:#3E4347;" d="M292.775,193.019c-5.776,11.232-16.896,17.584-24.768,14.336c-7.952-3.28-9.712-14.944-3.936-26.176
	s16.816-17.616,24.768-14.336C296.711,170.075,298.535,181.787,292.775,193.019z"/>
<path style="fill:#5A5F63;" d="M290.727,179.995c-1.072,2.944-4.032,4.88-6.608,4.336c-2.56-0.544-3.776-3.376-2.688-6.304
	c1.072-2.944,4.032-4.88,6.608-4.336C290.599,174.235,291.799,177.067,290.727,179.995z"/>
<ellipse transform="matrix(-0.9446 -0.3283 0.3283 -0.9446 699.2059 505.243)" style="fill:#F4C534;" cx="392.252" cy="193.6" rx="48.001" ry="68.05"/>
<ellipse transform="matrix(-0.9446 -0.3283 0.3283 -0.9446 691.5223 518.9007)" style="fill:#FFFFFF;" cx="389.563" cy="201.077" rx="37.425" ry="53.041"/>
<path style="fill:#FFD93B;" d="M340.983,249.003c0,0,50.96-26.288,113.424-4.576s-37.328,31.232-37.328,31.232l-89.12-4.56"/>
<path style="fill:#F4C534;" d="M340.983,249.003c9.2-8.416,30.4-17.792,56.016-19.056c18.432-1.152,41.136,3.952,57.408,14.496
	c-12.192-0.304-33.12-3.84-56.912-2.32C386.487,242.267,363.271,244.635,340.983,249.003z"/>
<path style="fill:#FFD93B;" d="M221.031,215.883c0,0,25.664-24.896,83.856,32.832c46.944,46.576-22.832,19.856-22.832,19.856
	l-81.248-36.928"/>
<path style="fill:#F4C534;" d="M221.031,215.883c2.96-11.024,26.928-18.24,51.328-1.616c15.792,10.032,29.2,24.368,36.992,38.944
	c-10.432-5.36-33.2-22.656-43.376-28.576C254.695,216.155,231.847,206.907,221.031,215.883z"/>
<path style="fill:#3E4347;" d="M312.087,391.915c12.848,2.48,26.144,1.872,38.128-3.232c2.048-0.88,4.064-1.84,6.064-2.8
	c1.616-3.904,4.704-7.12,9.648-8.08c6.32-30.832,8.048-54.288,5.392-75.664c-8.928,4.352-19.424,6.928-31.584,6.928
	c-10.528,0-19.68-2.064-27.76-5.392c-0.4,0-0.784,0.064-1.184,0.064c-3.744,0-7.28-0.32-10.72-0.784
	c-13.376-0.064-24.752-3.216-34.192-8.464c16.704,28.432-0.32,53.968-26.096,70.272c16.64,7.456,45.584,15.952,69.44,26.912
	C310.151,391.675,311.095,391.723,312.087,391.915z"/>
<path style="fill:#FFFFFF;" d="M358.071,382.235c6.032-28.16,8.128-54.272,5.28-76.8c-7.04,2.32-14.912,3.616-23.6,3.616
	c-10.528,0-19.68-2.048-27.76-5.392c-0.4,0-0.784,0.064-1.184,0.064c-3.76,0-7.296-0.32-10.736-0.784
	c-7.984-0.048-15.264-1.184-21.856-3.216c6.72,13.616,5.888,29.056,0.144,40.56c18.352,8,37.136,16.608,41.072,17.904
	c-16.368-2.8-32.112-10.624-43.312-14.32c-5.312,8.304-30.576,23.44-30.576,23.44s51.664,17.648,77.584,25.168
	c4.992,0.512,14.48-1.52,14.48-1.52S350.343,383.723,358.071,382.235z"/>
<g>
	<path style="fill:#F4C534;" d="M225.863,358.859c0,0,49.968,19.664,80.576,26.256c24.912,5.376,71.664-9.776,75.584-13.968
		c-20.816,22.192-58.048,26.704-76.128,20.576C272.071,380.267,248.119,370.187,225.863,358.859z"/>
	<path style="fill:#F4C534;" d="M405.847,277.947c-9.872,12.464-42.096,31.84-94.464,24.144c-38.576-5.68-75.6-19.12-75.6-19.12
		c17.232,8.048,50.096,27.024,77.056,29.312C358.999,315.995,395.687,299.915,405.847,277.947z"/>
</g>
<path style="fill:#5A5F63;" d="M237.927,179.963l-66.048,189.072c-2.4,6.848-9.728,10.88-16.4,8.912L52.487,347.611
	c-6.656-1.968-10.08-9.152-7.696-16l66.064-189.056c2.432-6.944,9.76-10.96,16.416-8.992l102.992,30.336
	C236.919,165.835,240.343,173.035,237.927,179.963z"/>
<path style="fill:#3E4347;" d="M179.671,182.539l-8.544,24.464c-2.832,8.096-11.328,12.752-19.104,10.464
	s-11.824-10.64-8.992-18.752l8.544-24.464c2.832-8.096,11.44-12.816,19.216-10.528C178.567,166.027,182.487,174.443,179.671,182.539
	z"/>
<path style="fill:#DAE5EF;" d="M172.231,180.347c-1.312,3.744-5.376,5.968-9.056,4.896c-3.584-1.056-5.488-5.056-4.176-8.784
	c1.328-3.824,5.408-6.064,8.992-5.008C171.671,172.539,173.575,176.523,172.231,180.347z"/>
<path style="fill:#FFD93B;" d="M129.895,307.211c20.032,11.408,0.432,35.008-53.264,35.152c-15.6,0.048-30.8-2.224-43.84-8.432
	c-25.584-12.16-36.32-33.632-31.776-59.552c9.696-55.408,71.072-72.528,119.792-56.688c49.568,16.128,57.6,44.608,32.704,53.76
	C172.039,285.435,167.879,303.595,129.895,307.211z"/>
<g>
	<path style="fill:#F4C534;" d="M162.407,294.011c0,0,0.096-0.432,0.288-1.264c2.448-9.36-7.2-17.328-15.328-22.576
		c-8-4.96-16.016-7.888-25.344-10.752c-13.488-4.592-32.56-6.864-42-6.416c11.04-1.664,28.304-1.136,43.6,2.96
		c5.696,1.232,17.52,5.152,26.528,10.448c15.632,8.88,17.536,20.768,13.008,26.448C162.679,293.611,162.407,294.011,162.407,294.011
		z"/>
	<path style="fill:#F4C534;" d="M165.591,261.819c0,0,0.048-0.432,0.144-1.216c1.792-10.656-11.84-20.32-20.608-26.784
		c-2.352-1.552-4.784-3.088-7.344-4.464c-5.264-2.928-24.576-12.208-40.736-15.904c-2.656-0.672-4.176-1.056-4.176-1.056
		c15.712,0.512,33.936,6.528,47.328,13.296c13.376,6.72,32.24,21.504,25.84,34.976C165.751,261.403,165.591,261.819,165.591,261.819
		z"/>
	<path style="fill:#F4C534;" d="M81.991,298.315c6.208-0.416,16.288-1.024,27.232,0.528c4.88,0.768,10.048,1.776,14.992,3.424
		c4.48,1.712,9.92,4.448,12.64,8.192c4.544,6,2.448,15.12-9.264,21.44c-2.352,1.136-3.712,1.568-3.712,1.568
		s1.296-0.752,3.424-2.208c7.344-5.04,11.296-12.128,6.608-18.32c-4.48-5.696-18.368-9.168-25.936-10.624
		C88.183,298.843,103.559,301.467,81.991,298.315z"/>
</g>
<g>
	<path style="fill:#3E4347;" d="M372.775,105.179c0,0,46.544-8.368,83.6,50.48C443.415,121.979,398.487,55.595,372.775,105.179z"/>
	<path style="fill:#3E4347;" d="M325.255,102.907c0,0-43.12-17.232-86.56,31.344C255.703,104.811,307.671,50.651,325.255,102.907z"
		/>
	<path style="fill:#3E4347;" d="M392.679,199.851c-6.096,11.872-17.856,18.592-26.192,15.152c-8.416-3.472-10.272-15.808-4.16-27.68
		c6.096-11.872,17.776-18.624,26.192-15.152C396.839,175.611,398.775,187.995,392.679,199.851z"/>
</g>
<path style="fill:#5A5F63;" d="M390.519,186.107c-1.136,3.104-4.272,5.152-6.976,4.576c-2.72-0.576-4-3.568-2.848-6.672
	c1.136-3.104,4.272-5.152,6.976-4.576C390.391,180.011,391.655,183.003,390.519,186.107z"/>
<g>
</g>
<g>
</g>
<g>
</g>
<g>
</g>
<g>
</g>
<g>
</g>
<g>
</g>
<g>
</g>
<g>
</g>
<g>
</g>
<g>
</g>
<g>
</g>
<g>
</g>
<g>
</g>
<g>
</g>
</svg>
