<?xml version="1.0" encoding="iso-8859-1"?>
<!-- Generator: Adobe Illustrator 19.0.0, SVG Export Plug-In . SVG Version: 6.00 Build 0)  -->
<svg version="1.1" id="Capa_1" xmlns="http://www.w3.org/2000/svg" xmlns:xlink="http://www.w3.org/1999/xlink" x="0px" y="0px"
	 viewBox="0 0 512.008 512.008" style="enable-background:new 0 0 512.008 512.008;" xml:space="preserve">
<circle style="fill:#FFD93B;" cx="256.004" cy="252.464" r="252.464"/>
<path style="fill:#F4C534;" d="M508.468,252.464c0,139.488-113.056,252.464-252.464,252.464c-79.36,0-150.208-36.608-196.528-93.968
	c43.312,35.024,98.464,55.936,158.496,55.936c139.408,0,252.464-112.976,252.464-252.464c0-60.032-20.912-115.184-55.936-158.496
	C471.78,102.256,508.468,173.104,508.468,252.464z"/>
<path style="fill:#E24B4B;" d="M173.22,360.448c-4.752,7.888-9.056,16.576-12.624,26.208
	c-21.936,58.176-7.024,118.096,21.216,124.608c28.192,6.816,56.528-34.16,73.904-82.912c4.864-13.872,8.32-27.216,10.24-39.696
	c-10.608-1.2-20.672-4.016-30.416-7.728C219.524,379.888,191.332,374.656,173.22,360.448z"/>
<ellipse style="fill:#FFFFFF;" cx="166.127" cy="223.359" rx="65.01" ry="65.01"/>
<ellipse style="fill:#3E4347;" cx="180.572" cy="237.846" rx="33.935" ry="33.935"/>
<ellipse transform="matrix(-0.7366 -0.6763 0.6763 -0.7366 185.9232 525.187)" style="fill:#5A5F63;" cx="195.227" cy="226.39" rx="10.944" ry="7.072"/>
<path style="fill:#3E4347;" d="M200.516,130.736c-9.696,7.184-38.88,3.792-57.072,9.888c-18.288,5.408-36.336,17.408-48.832,31.072
	c0,0,0.624-1.888,1.728-5.168c7.808-19.84,23.664-34.192,40.88-42.016C155.204,116.128,192.98,109.568,200.516,130.736z"/>
<ellipse style="fill:#FFFFFF;" cx="345.894" cy="223.387" rx="65.01" ry="65.01"/>
<ellipse style="fill:#3E4347;" cx="331.402" cy="237.838" rx="33.935" ry="33.935"/>
<ellipse transform="matrix(-0.6763 -0.7366 0.7366 -0.6763 364.2223 612.9389)" style="fill:#5A5F63;" cx="316.782" cy="226.445" rx="7.072" ry="10.944"/>
<g>
	<path style="fill:#3E4347;" d="M311.492,130.736c7.552-21.152,45.36-14.592,63.296-6.224c19.888,9.04,35.04,24.592,42.608,47.184
		c-12.496-13.664-30.544-25.68-48.832-31.072c-6.608-2.208-13.488-3.072-19.84-3.84C333.54,135.136,324.068,140.048,311.492,130.736
		z"/>
	<path style="fill:#3E4347;" d="M145.588,339.984c16.448,8.4,55.072,31.12,97.616,36.144c48.672,4.944,78.24-7.776,101.92-15.712
		c-29.536,23.152-57.488,35.408-103.888,31.584C199.492,385.568,171.78,367.568,145.588,339.984z"/>
</g>
<g>
	<path style="fill:#FFD93B;" d="M381.7,361.024c0,0,1.664-1.872-0.432-8.656c-1.744-4.912-5.856-10.832-11.6-14.688
		c-6.976-5.312-18.464-8.448-26.752-9.376c0,0,15.184-4.288,29.568,5.488c6.416,4.72,10.768,11.984,11.408,17.968
		C384.804,358.128,381.7,361.024,381.7,361.024z"/>
	<path style="fill:#FFD93B;" d="M368.756,363.44c1.968-3.664-4.24-12.464-8.688-15.376c-4.448-3.472-12.448-5.968-17.872-7.024
		c0,0,7.024-2.192,13.344-0.256c2.464,0.704,5.008,1.856,7.344,3.408c4.496,3.376,7.52,8.56,7.776,12.816
		C371.14,361.44,368.612,363.6,368.756,363.44z"/>
	<path style="fill:#FFD93B;" d="M109.62,333.168c0,0-2.448-3.456-0.256-9.52c3.6-11.296,18.384-20.688,35.84-17.472
		c5.648,1.088,8.992,3.008,9.04,2.816c-28.064-2.656-44.576,12.352-44.736,21.648C109.252,332.208,109.716,333.184,109.62,333.168z"
		/>
	<path style="fill:#FFD93B;" d="M121.812,338.16c0.096,0.192-1.92-2.432-0.56-6.688c2.352-8.656,12.976-14.8,24.96-12.208
		c3.904,0.944,6.128,2.496,6.16,2.352c-10.928-0.128-29.6,4.544-30.512,14.8C121.604,337.472,121.812,338.16,121.812,338.16z"/>
</g>
<g>
</g>
<g>
</g>
<g>
</g>
<g>
</g>
<g>
</g>
<g>
</g>
<g>
</g>
<g>
</g>
<g>
</g>
<g>
</g>
<g>
</g>
<g>
</g>
<g>
</g>
<g>
</g>
<g>
</g>
</svg>
