<?xml version="1.0" encoding="iso-8859-1"?>
<!-- Generator: Adobe Illustrator 19.0.0, SVG Export Plug-In . SVG Version: 6.00 Build 0)  -->
<svg version="1.1" id="Capa_1" xmlns="http://www.w3.org/2000/svg" xmlns:xlink="http://www.w3.org/1999/xlink" x="0px" y="0px"
	 viewBox="0 0 512 512" style="enable-background:new 0 0 512 512;" xml:space="preserve">
<circle style="fill:#FFD93B;" cx="256" cy="256" r="256"/>
<path style="fill:#F4C534;" d="M512,256c0,141.44-114.64,256-256,256c-80.48,0-152.32-37.12-199.28-95.28
	c43.92,35.52,99.84,56.72,160.72,56.72c141.36,0,256-114.56,256-256c0-60.88-21.2-116.8-56.72-160.72
	C474.8,103.68,512,175.52,512,256z"/>
<g>
	<path style="fill:#3E4347;" d="M235.2,133.776c-38.448-21.856-89.44-15.68-129.92-4.944c0,0,47.888-30.864,72.928-30.032
		C224,100.304,235.2,133.776,235.2,133.776z"/>
	<path style="fill:#3E4347;" d="M302.048,133.776c38.448-21.856,89.44-15.68,129.936-4.944c0,0-47.888-30.864-72.928-30.032
		C313.248,100.304,302.048,133.776,302.048,133.776z"/>
	<path style="fill:#3E4347;" d="M244.288,259.264c0,0-67.072,21.312-97.184,13.792c-30-7.488-58.32-35.44-49.184-72.032
		c8.4-33.68,46.88-47.616,80.832-39.136C224.512,173.312,244.288,259.264,244.288,259.264z"/>
</g>
<path style="fill:#FFFFFF;" d="M244.592,258.096c0,0-58.16,18.192-84.848,11.536c-26.576-6.64-51.68-31.392-43.584-63.824
	c7.44-29.84,37.6-40.272,67.696-32.768C224.4,183.136,244.592,258.096,244.592,258.096z"/>
<g>
	<path style="fill:#3E4347;" d="M155.712,159.536c-12.192-0.016-23.776,4.32-35.76,6.896c-9.088,1.952-18.304,3.92-27.568,3.296
		s-18.752-4.16-24.512-11.44c-0.384,5.616,1.568,11.36,5.296,15.568c3.728,4.224,9.184,6.848,14.816,7.152
		c-8.512,4.832-18.432,7.168-28.208,6.656c5.648,4.688,13.056,7.216,20.4,6.96C73.2,201.056,64,205.056,54.528,205.744
		c8.096,4.64,18.24,5.536,27.04,2.384c-3.136,8.832-10.48,16.064-19.36,19.072c5.904,0.192,11.856,0.368,17.68-0.608
		c5.824-0.992,11.584-3.232,15.84-7.328c7.824-7.536,9.056-19.424,13.536-29.312c7.184-15.904,24.096-26.896,41.552-27.008"/>
	<ellipse style="fill:#3E4347;" cx="183.849" cy="218.608" rx="30.112" ry="30.112"/>
</g>
<ellipse transform="matrix(-0.7071 -0.7071 0.7071 -0.7071 190.1034 490.2914)" style="fill:#5A5F63;" cx="196.594" cy="205.774" rx="9.648" ry="5.632"/>
<path style="fill:#3E4347;" d="M267.712,259.264c0,0,67.072,21.312,97.184,13.792c30-7.488,58.32-35.44,49.184-72.032
	c-8.4-33.68-46.88-47.616-80.832-39.136C287.488,173.312,267.712,259.264,267.712,259.264z"/>
<path style="fill:#FFFFFF;" d="M267.408,258.096c0,0,58.16,18.192,84.848,11.536c26.576-6.64,51.68-31.392,43.584-63.824
	c-7.44-29.84-37.6-40.272-67.696-32.768C287.616,183.136,267.408,258.096,267.408,258.096z"/>
<g>
	<path style="fill:#3E4347;" d="M356.304,159.536c12.176-0.016,23.776,4.336,35.76,6.912c9.072,1.952,18.304,3.92,27.568,3.296
		s18.752-4.16,24.512-11.44c0.384,5.616-1.568,11.36-5.296,15.568c-3.728,4.224-9.184,6.848-14.816,7.152
		c8.512,4.832,18.432,7.168,28.208,6.656c-5.648,4.688-13.056,7.216-20.4,6.96c6.976,6.432,16.176,10.432,25.648,11.12
		c-8.096,4.64-18.256,5.536-27.04,2.384c3.136,8.832,10.48,16.064,19.36,19.072c-5.904,0.192-11.856,0.368-17.68-0.608
		c-5.824-0.992-11.584-3.232-15.84-7.328c-7.824-7.536-9.056-19.424-13.536-29.312c-7.184-15.904-24.112-26.896-41.552-27.008"/>
	<ellipse style="fill:#3E4347;" cx="328.147" cy="218.534" rx="30.112" ry="30.112"/>
</g>
<ellipse transform="matrix(-0.7071 -0.7071 0.7071 -0.7071 392.9208 574.3356)" style="fill:#5A5F63;" cx="315.409" cy="205.791" rx="5.632" ry="9.648"/>
<path style="fill:#3E4347;" d="M352.448,310.88l0.256,1.168c17.392,77.328-24.928,109.536-83.744,119.872
	c-58.8,10.336-110.88,0.272-127.184-71.6c-2.48-10.96-2.864-21.872-1.248-32.56c27.68,37.648,73.792,41.888,124.272,33.04
	C303.328,354.016,335.696,339.152,352.448,310.88z"/>
<path style="fill:#E9EFF4;" d="M264.8,360.8c-30.336,5.312-59.024,5.728-83.152-2.832c-1.072,8.864-0.672,17.952,1.376,26.976
	c0.432,1.904,1.264,3.616,1.824,5.472c0.16,0.096,0.208,0.144,0.4,0.256c1.584,0.896,3.952,2.128,7.04,3.408
	c6.128,2.544,15.072,5.008,24.496,6.08s19.216,0.832,26.528-0.032c7.328-0.752,12.224-1.728,12.224-1.728s-4.624,1.76-11.872,3.76
	c-7.216,2.096-17.168,4.064-27.408,4.64c-8.912,0.496-17.856-0.192-25.104-1.488c6.352,11.52,15.2,21.504,26.256,29.12
	c15.984,1.904,33.456,0.672,51.568-2.512c58.816-10.336,101.136-42.56,83.744-119.872l-0.256-1.168
	C335.696,339.152,303.328,354.016,264.8,360.8z"/>
<g>
	<path style="fill:#FFFFFF;" d="M377.648,366.688c0,0-8.144,2.224-19.488,2.784c-3.072,0.16-5.552,2.592-5.744,5.664
		c-0.736,11.376-3.072,19.648-3.072,19.648s-2.368-8.416-3.088-19.936c-0.192-2.992-2.544-5.392-5.52-5.648
		c-11.504-0.976-19.84-3.536-19.84-3.536s8.24-2.224,19.664-2.784c3.056-0.16,5.52-2.576,5.744-5.632
		c0.768-10.992,3.056-18.928,3.056-18.928s2.32,8.08,3.056,19.232c0.208,2.976,2.544,5.376,5.52,5.616
		C369.36,364.128,377.648,366.688,377.648,366.688z"/>
	<path style="fill:#FFFFFF;" d="M345.248,344.192c0,0-3.68,1.008-8.816,1.264c-1.392,0.064-2.512,1.168-2.592,2.56
		c-0.336,5.152-1.392,8.896-1.392,8.896s-1.072-3.808-1.392-9.024c-0.08-1.36-1.152-2.448-2.496-2.56
		c-5.216-0.448-8.976-1.6-8.976-1.6s3.728-1.008,8.896-1.264c1.392-0.064,2.496-1.168,2.592-2.544
		c0.352-4.976,1.376-8.576,1.376-8.576s1.04,3.664,1.392,8.704c0.096,1.344,1.152,2.432,2.496,2.544
		C341.488,343.04,345.248,344.192,345.248,344.192z"/>
	<path style="fill:#FFFFFF;" d="M390.496,338.352c0,0-3.68,1.008-8.816,1.264c-1.392,0.064-2.512,1.168-2.592,2.56
		c-0.336,5.152-1.392,8.896-1.392,8.896s-1.072-3.808-1.392-9.024c-0.08-1.344-1.152-2.448-2.496-2.56
		c-5.216-0.448-8.976-1.6-8.976-1.6s3.728-1.008,8.896-1.264c1.392-0.064,2.496-1.168,2.592-2.544
		c0.352-4.976,1.376-8.576,1.376-8.576s1.04,3.664,1.392,8.704c0.096,1.344,1.152,2.432,2.496,2.544
		C386.752,337.2,390.496,338.352,390.496,338.352z"/>
</g>
<g>
</g>
<g>
</g>
<g>
</g>
<g>
</g>
<g>
</g>
<g>
</g>
<g>
</g>
<g>
</g>
<g>
</g>
<g>
</g>
<g>
</g>
<g>
</g>
<g>
</g>
<g>
</g>
<g>
</g>
</svg>
