<?xml version="1.0" encoding="iso-8859-1"?>
<!-- Generator: Adobe Illustrator 19.0.0, SVG Export Plug-In . SVG Version: 6.00 Build 0)  -->
<svg version="1.1" id="Capa_1" xmlns="http://www.w3.org/2000/svg" xmlns:xlink="http://www.w3.org/1999/xlink" x="0px" y="0px"
	 viewBox="0 0 512 512" style="enable-background:new 0 0 512 512;" xml:space="preserve">
<circle style="fill:#FFD93B;" cx="256" cy="256" r="256"/>
<g>
	<path style="fill:#F4C534;" d="M512,256c0,141.44-114.64,256-256,256c-80.48,0-152.32-37.12-199.28-95.28
		c43.92,35.52,99.84,56.72,160.72,56.72c141.36,0,256-114.56,256-256c0-60.88-21.2-116.8-56.72-160.72
		C474.8,103.68,512,175.52,512,256z"/>
	<path style="fill:#F4C534;" d="M268.224,228.672c0,47.632,36.832,86.352,82.656,86.352c45.552,0,82.656-38.72,82.656-86.352
		s-37.104-86.352-82.656-86.352C305.04,142.32,268.224,181.056,268.224,228.672z"/>
</g>
<path style="fill:#FFFFFF;" d="M284.864,223.12c0,37.84,29.456,68.768,66.016,68.768c36.272,0,65.744-30.944,65.744-68.768
	c0-38.064-29.456-68.992-65.744-68.992C314.32,154.128,284.864,185.056,284.864,223.12z"/>
<circle style="fill:#3E4347;" cx="329.808" cy="239.04" r="29.12"/>
<path style="fill:#5A5F63;" d="M322.144,237.136c-2.352,5.104-7.04,7.808-10.544,6.256c-3.664-1.648-4.576-6.96-2.352-12.048
	c2.352-5.12,7.008-7.936,10.672-6.288C323.408,226.608,324.368,232.064,322.144,237.136z"/>
<path style="fill:#3E4347;" d="M335.344,115.216c-5.792-1.216-12.016-0.368-17.248,2.368c43.536-39.904,88.256-5.84,114.528-6.368
	c-19.104-9.84-32.256-19.584-48.032-25.072c-63.072-21.952-80.544,7.392-84.576,25.68C296,130,282.24,145.872,264.496,152.752
	c8.848-2.752,19.52,0.88,28.576-0.08C315.712,150.272,317.312,121.216,335.344,115.216z"/>
<path style="fill:#F4C534;" d="M243.776,228.672c0,47.632-36.832,86.352-82.656,86.352c-45.552,0-82.656-38.72-82.656-86.352
	s37.104-86.352,82.656-86.352C206.96,142.32,243.776,181.056,243.776,228.672z"/>
<path style="fill:#FFFFFF;" d="M227.136,223.12c0,37.84-29.456,68.768-66.016,68.768c-36.288,0-65.744-30.944-65.744-68.768
	c0-38.064,29.456-68.992,65.744-68.992C197.68,154.128,227.136,185.056,227.136,223.12z"/>
<g>
	<path style="fill:#3E4347;" d="M176.672,115.216c5.792-1.216,12.016-0.368,17.248,2.368c-43.552-39.904-88.272-5.856-114.528-6.384
		c19.104-9.84,32.256-19.584,48.032-25.072c63.072-21.952,80.544,7.392,84.576,25.68c4.016,18.176,17.776,34.048,35.52,40.928
		c-8.848-2.752-19.52,0.88-28.576-0.08C196.304,150.272,194.688,121.216,176.672,115.216z"/>
	<circle style="fill:#3E4347;" cx="181.472" cy="239.04" r="29.12"/>
</g>
<g>
	<path style="fill:#5A5F63;" d="M189.152,237.136c2.352,5.104,7.04,7.808,10.544,6.256c3.664-1.648,4.576-6.96,2.352-12.048
		c-2.352-5.12-7.008-7.936-10.672-6.288C187.888,226.608,186.928,232.064,189.152,237.136z"/>
	<path style="fill:#5A5F63;" d="M145.504,346.912c2.512,14.56,55.504,228.112,226.416,8.496
		c-100.304,18.32-147.84,26.208-209.6-0.16C150.512,350.208,145.504,346.912,145.504,346.912z"/>
</g>
<path style="fill:#FFFFFF;" d="M269.856,409.824c12.32-1.792,3.856-0.224,46.144-10.032c8.272-7.792,17.072-16.912,26.368-27.568
	c-68.816,11.392-116.784,20.576-180.08-5.44c2.112,6.32,4.928,13.664,8.4,21.216c15.792,8.448,32.256,15.568,51.936,20.592
	c-12.976,0.128-27.776-1.216-43.424-4.464c12.528,20.672,30.912,38.928,56.768,38.64c15.904-0.176,39.344-7.504,70.752-34.624
	C274.72,410.192,281.488,410,269.856,409.824z"/>
<g>
	<path style="fill:#F4C534;" d="M383.584,321.936c5.008,14.08,12.816,27.552,24.064,37.968c0.976,1.024,1.504,1.712,1.504,1.712
		C391.312,361.056,376.496,337.056,383.584,321.936z"/>
	<path style="fill:#F4C534;" d="M138.592,321.936c6.944,14.816-7.552,39.104-25.568,39.68
		C125.184,345.632,128.672,349.792,138.592,321.936z"/>
</g>
<g>
</g>
<g>
</g>
<g>
</g>
<g>
</g>
<g>
</g>
<g>
</g>
<g>
</g>
<g>
</g>
<g>
</g>
<g>
</g>
<g>
</g>
<g>
</g>
<g>
</g>
<g>
</g>
<g>
</g>
</svg>
