<?xml version="1.0" encoding="iso-8859-1"?>
<!-- Generator: Adobe Illustrator 19.0.0, SVG Export Plug-In . SVG Version: 6.00 Build 0)  -->
<svg version="1.1" id="Capa_1" xmlns="http://www.w3.org/2000/svg" xmlns:xlink="http://www.w3.org/1999/xlink" x="0px" y="0px"
	 viewBox="0 0 511.936 511.936" style="enable-background:new 0 0 511.936 511.936;" xml:space="preserve">
<g>
	<circle style="fill:#FFD93B;" cx="255.968" cy="255.968" r="255.968"/>
	<path style="fill:#FFD93B;" d="M511.936,255.968c0,141.424-114.624,255.968-255.968,255.968
		c-80.464,0-152.304-37.12-199.248-95.264c43.92,35.52,99.824,56.72,160.704,56.72c141.344,0,255.968-114.544,255.968-255.968
		c0-60.88-21.2-116.784-56.72-160.704C474.736,103.664,511.936,175.504,511.936,255.968z"/>
</g>
<path style="fill:#3E4347;" d="M381.056,403.136c6.128,28.16-10.112,50.976-36.304,50.976s-52.384-22.816-58.528-50.976
	c-6.144-28.16,10.112-50.976,36.304-50.976S374.912,374.976,381.056,403.136z"/>
<circle style="fill:#FFFFFF;" cx="169.952" cy="234.048" r="66.112"/>
<g>
	<path style="fill:#3E4347;" d="M80.096,202.096c4-41.024,40.992-77.328,89.744-80.608c28.048-2.064,47.296,9.184,54.944,22.336
		c-7.36,0.528-45.328-2.992-53.888-2.56C130.768,142.816,96.56,168.656,80.096,202.096z"/>
	
		<ellipse transform="matrix(-0.707 -0.7072 0.7072 -0.707 120.042 530.6813)" style="fill:#3E4347;" cx="169.951" cy="240.474" rx="34.528" ry="34.512"/>
</g>
<path style="fill:#5A5F63;" d="M175.808,261.36c-2.8-2.8-1.6-8.416,2.608-12.416c4-4.208,9.6-5.408,12.4-2.592
	c2.608,2.592,1.408,8.208-2.608,12.4C184.016,262.752,178.416,263.952,175.808,261.36z"/>
<circle style="fill:#FFFFFF;" cx="341.984" cy="234.048" r="66.112"/>
<g>
	<path style="fill:#3E4347;" d="M431.84,202.096c-9.44-19.2-26.464-38.272-47.792-49.184c-40.688-20.448-70.64-7.2-96.896-9.088
		c18.384-31.616,74.928-27.024,105.488-4.976C416.256,155.152,429.632,179.504,431.84,202.096z"/>
	<ellipse style="fill:#3E4347;" cx="341.914" cy="240.44" rx="34.528" ry="34.528"/>
</g>
<path style="fill:#5A5F63;" d="M336.128,261.36c2.8-2.8,1.6-8.416-2.608-12.416c-4-4.208-9.616-5.408-12.416-2.592
	c-2.608,2.592-1.408,8.208,2.608,12.4C327.92,262.752,333.52,263.952,336.128,261.36z"/>
<g>
</g>
<g>
</g>
<g>
</g>
<g>
</g>
<g>
</g>
<g>
</g>
<g>
</g>
<g>
</g>
<g>
</g>
<g>
</g>
<g>
</g>
<g>
</g>
<g>
</g>
<g>
</g>
<g>
</g>
</svg>
