<?xml version="1.0" encoding="iso-8859-1"?>
<!-- Generator: Adobe Illustrator 19.0.0, SVG Export Plug-In . SVG Version: 6.00 Build 0)  -->
<svg version="1.1" id="Capa_1" xmlns="http://www.w3.org/2000/svg" xmlns:xlink="http://www.w3.org/1999/xlink" x="0px" y="0px"
	 viewBox="0 0 512 512" style="enable-background:new 0 0 512 512;" xml:space="preserve">
<g>
	<circle style="fill:#FFD93B;" cx="256" cy="256" r="256"/>
	<path style="fill:#FFD93B;" d="M512,256c0,141.44-114.64,256-256,256c-80.48,0-152.32-37.12-199.28-95.28
		c43.92,35.52,99.84,56.72,160.72,56.72c141.36,0,256-114.56,256-256c0-60.88-21.2-116.8-56.72-160.72
		C474.8,103.68,512,175.52,512,256z"/>
</g>
<g>
	<ellipse style="fill:#3E4347;" cx="256" cy="396.352" rx="50.704" ry="49.504"/>
	<path style="fill:#3E4347;" d="M287.776,229.664c1.296-17.648,18.336-41.344,50.528-52.96c23.776-6.576,49.248-5.536,73.184,7.6
		c-24.032,3.504-25.408-1.168-67.856,9.264C322.208,200.752,302.528,212.8,287.776,229.664z"/>
	<path style="fill:#3E4347;" d="M224.224,229.664c-15.888-18.16-29.728-24.24-44.496-31.936
		c-27.984-12.368-60.496-10.688-79.216-13.408c20.864-11.456,46.064-15.104,73.184-7.6
		C206.016,188.368,222.944,212.288,224.224,229.664z"/>
	<path style="fill:#3E4347;" d="M406.848,235.328c-16.832,24.112-47.76,37.76-65.44,37.76c-14.688,1.328-28.208-1.456-34.24-4.48
		c2.56,7.68,6.24,15.36,10.72,22.72c-19.68-13.392-24.112-26.72-29.44-42.72c16.912,2.992,32.544,7.392,51.04,4.64
		C362.624,251.632,379.456,243.04,406.848,235.328z"/>
	<path style="fill:#3E4347;" d="M226.208,248.608c-5.328,16-9.744,29.248-29.28,42.72c4.32-7.36,8.16-15.04,10.56-22.72
		c-13.088,6.56-40.608,7.536-64.48-4c-9.488-3.664-25.664-15.632-35.2-29.28c34,9.568,16.832,7.648,54.4,16
		C183.952,258.032,210.192,251.456,226.208,248.608z"/>
</g>
<g>
	<path style="fill:#E24B4B;" d="M316.768,425.216v-10.832l19.696-22.608c3.232-3.696,5.632-6.32,7.168-7.872
		c-1.616,0.096-3.744,0.16-6.384,0.192l-18.56,0.096v-11.536h43.44v9.84l-20.096,23.152l-7.072,7.664
		c3.856-0.224,6.256-0.352,7.168-0.352h21.52v12.224h-46.88V425.216z"/>
	<path style="fill:#E24B4B;" d="M387.552,393.728V380.48l24.064-27.616c3.952-4.512,6.864-7.712,8.768-9.616
		c-1.968,0.128-4.576,0.208-7.792,0.24L389.92,343.6v-14.08h53.072v12.032l-24.544,28.288l-8.64,9.376
		c4.72-0.288,7.632-0.416,8.768-0.416h26.288v14.928L387.552,393.728L387.552,393.728z"/>
	<path style="fill:#E24B4B;" d="M438.896,305.056v-15.552l28.256-32.448c4.64-5.296,8.064-9.056,10.288-11.28
		c-2.32,0.144-5.376,0.24-9.152,0.288l-26.624,0.144v-16.544H504v14.128l-28.816,33.216l-10.16,11.008
		c5.536-0.336,8.976-0.496,10.288-0.496h30.88v17.536H438.896z"/>
</g>
<g style="opacity:0.3;">
	<path style="fill:#FFFFFF;" d="M51.136,212.464c-4.832-1.28-7.712-6.256-6.432-11.088c19.472-73.104,76.512-132.304,148.864-154.48
		c4.784-1.456,9.872,1.216,11.328,6.016c1.472,4.784-1.216,9.856-6.016,11.328c-66.4,20.336-118.768,74.688-136.64,141.792
		C60.944,210.896,55.968,213.744,51.136,212.464z"/>
</g>
<g>
</g>
<g>
</g>
<g>
</g>
<g>
</g>
<g>
</g>
<g>
</g>
<g>
</g>
<g>
</g>
<g>
</g>
<g>
</g>
<g>
</g>
<g>
</g>
<g>
</g>
<g>
</g>
<g>
</g>
</svg>
