<?xml version="1.0" encoding="iso-8859-1"?>
<!-- Generator: Adobe Illustrator 19.0.0, SVG Export Plug-In . SVG Version: 6.00 Build 0)  -->
<svg version="1.1" id="Capa_1" xmlns="http://www.w3.org/2000/svg" xmlns:xlink="http://www.w3.org/1999/xlink" x="0px" y="0px"
	 viewBox="0 0 512 512" style="enable-background:new 0 0 512 512;" xml:space="preserve">
<g>
	<circle style="fill:#FFD93B;" cx="256" cy="256" r="256"/>
	<path style="fill:#FFD93B;" d="M512,256c0,141.44-114.64,256-256,256c-80.48,0-152.32-37.12-199.28-95.28
		c43.92,35.52,99.84,56.72,160.72,56.72c141.36,0,256-114.56,256-256c0-60.88-21.2-116.8-56.72-160.72
		C474.8,103.68,512,175.52,512,256z"/>
</g>
<g>
	<path style="fill:#3E4347;" d="M383.392,363.472c-9.504,51.808-58.96,95.696-124.4,95.584
		C193.456,459.184,144,415.28,134.496,363.472c-1.136-5.856,4.688-13.472,10.16-10.416c73.104,40.88,147.056,42.56,228.592,0
		C378.784,350.176,384.544,357.616,383.392,363.472z"/>
	<ellipse style="fill:#3E4347;" cx="356.352" cy="228.848" rx="81.216" ry="91.744"/>
</g>
<ellipse style="fill:#FFFFFF;" cx="165.28" cy="223.424" rx="72" ry="81.328"/>
<circle style="fill:#3E4347;" cx="165.28" cy="235.552" r="37.632"/>
<path style="fill:#5A5F63;" d="M188.672,233.312c-3.504,1.632-8.128-1.024-10.576-6c-2.352-4.784-1.456-10.192,1.904-11.872
	c3.504-1.632,8.32,0.928,10.624,5.856C193.072,226.272,192.224,231.536,188.672,233.312z"/>
<g>
	<path style="fill:#3E4347;" d="M178.112,12.16c-1.616-4.416-17.024,1.216-15.392,5.632c32.656,49.76,156.4,222.736,341.68,299.184
		c3.984,0.848,7.344-14.752,3.36-15.616C331.712,227.84,212.608,64.224,178.112,12.16z"/>
	<path style="fill:#3E4347;" d="M115.152,92.368c16-1.632,42.88-1.904,64.4,2.208c32.416,7.072,48.064,27.696,48.608,42.528
		c-14.24-2.976-39.584-20.16-53.792-27.216C155.76,100.032,134.928,96.496,115.152,92.368z"/>
	<path style="fill:#3E4347;" d="M410.688,92.368c-19.552,4.08-40.528,7.616-59.2,17.52c-14.24,7.072-39.52,24.24-53.792,27.216
		c0.544-14.864,16.016-35.424,48.608-42.528C366.416,90.736,392.944,90.56,410.688,92.368z"/>
</g>
<g>
</g>
<g>
</g>
<g>
</g>
<g>
</g>
<g>
</g>
<g>
</g>
<g>
</g>
<g>
</g>
<g>
</g>
<g>
</g>
<g>
</g>
<g>
</g>
<g>
</g>
<g>
</g>
<g>
</g>
</svg>
