<?xml version="1.0" encoding="iso-8859-1"?>
<!-- Generator: Adobe Illustrator 19.0.0, SVG Export Plug-In . SVG Version: 6.00 Build 0)  -->
<svg version="1.1" id="Capa_1" xmlns="http://www.w3.org/2000/svg" xmlns:xlink="http://www.w3.org/1999/xlink" x="0px" y="0px"
	 viewBox="0 0 512.007 512.007" style="enable-background:new 0 0 512.007 512.007;" xml:space="preserve">
<circle style="fill:#FFD93B;" cx="208.808" cy="332.551" r="179.456"/>
<path style="fill:#F4C534;" d="M388.28,332.551c0,99.152-80.368,179.456-179.456,179.456c-56.416,0-106.784-26.016-139.696-66.8
	c30.784,24.896,69.984,39.76,112.672,39.76c99.104,0,179.456-80.304,179.456-179.456c0-42.672-14.864-81.872-39.76-112.672
	C362.2,225.767,388.28,276.119,388.28,332.551z"/>
<path style="fill:#3E4347;" d="M208.824,454.903c-53.424,0-101.504-35.712-116.912-86.848c-1.344-4.448,1.168-9.136,5.616-10.48
	c4.464-1.328,9.152,1.184,10.48,5.632c13.296,44.08,54.752,74.88,100.816,74.88s87.52-30.8,100.816-74.88
	c1.344-4.448,6-6.944,10.48-5.632c4.448,1.344,6.96,6.032,5.616,10.48C310.328,419.175,262.232,454.903,208.824,454.903z"/>
<path style="fill:#E24B4B;" d="M387.688,259.351C385.976,217.847,299.72,0.007,208.824,0.007
	c-90.912,0-177.168,217.84-178.88,259.344C149.16,213.863,268.408,213.895,387.688,259.351z"/>
<path style="fill:#E9EFF4;" d="M7.544,281.255c-7.008-12.048-2.944-27.488,9.104-34.512c127.424-74.272,256.736-74.288,384.32,0
	c12.048,7.008,16.128,22.464,9.12,34.496c-7.008,12.048-22.448,16.128-34.496,9.12c-112.288-65.36-221.376-65.36-333.52,0
	C29.992,297.367,14.584,293.303,7.544,281.255z"/>
<path style="fill:#E24B4B;" d="M208.824,0.455c0,0,95.536-12.096,184.4,88.384c65.248,73.76,85.6,111.232,85.6,111.232
	l-22.512,15.248c0,0-123.968-116.528-138.016-79.056"/>
<circle style="fill:#E9EFF4;" cx="458.456" cy="197.047" r="49.44"/>
<path style="fill:#DEE4E9;" d="M501.864,220.679c-8.4,15.424-24.72,25.808-43.408,25.808c-27.296,0-49.44-22.144-49.44-49.44
	c0-18.688,10.384-35.008,25.808-43.408c-3.76,7.024-5.936,15.024-5.936,23.536c0,27.296,22.144,49.44,49.44,49.44
	C486.84,226.615,494.856,224.439,501.864,220.679z"/>
<circle style="fill:#3E4347;" cx="144.168" cy="311.447" r="32.56"/>
<ellipse transform="matrix(-0.7071 -0.7071 0.7071 -0.7071 56.2925 620.9976)" style="fill:#FFFFFF;" cx="156.759" cy="298.84" rx="8.432" ry="5.008"/>
<circle style="fill:#3E4347;" cx="273.448" cy="311.447" r="32.56"/>
<ellipse transform="matrix(-0.7071 -0.7071 0.7071 -0.7071 276.9581 712.3792)" style="fill:#FFFFFF;" cx="286.018" cy="298.83" rx="8.432" ry="5.008"/>
<g>
</g>
<g>
</g>
<g>
</g>
<g>
</g>
<g>
</g>
<g>
</g>
<g>
</g>
<g>
</g>
<g>
</g>
<g>
</g>
<g>
</g>
<g>
</g>
<g>
</g>
<g>
</g>
<g>
</g>
</svg>
