<?xml version="1.0" encoding="iso-8859-1"?>
<!-- Generator: Adobe Illustrator 19.0.0, SVG Export Plug-In . SVG Version: 6.00 Build 0)  -->
<svg version="1.1" id="Capa_1" xmlns="http://www.w3.org/2000/svg" xmlns:xlink="http://www.w3.org/1999/xlink" x="0px" y="0px"
	 viewBox="0 0 512 512" style="enable-background:new 0 0 512 512;" xml:space="preserve">
<g>
	<circle style="fill:#FFD93B;" cx="256" cy="256" r="256"/>
	<path style="fill:#FFD93B;" d="M512,256c0,141.44-114.64,256-256,256c-80.48,0-152.32-37.12-199.28-95.28
		c43.92,35.52,99.84,56.72,160.72,56.72c141.36,0,256-114.56,256-256c0-60.88-21.2-116.8-56.72-160.72
		C474.8,103.68,512,175.52,512,256z"/>
</g>
<g style="opacity:0.3;">
	<path style="fill:#FFFFFF;" d="M51.136,212.464c-4.832-1.28-7.712-6.256-6.432-11.088c19.472-73.104,76.512-132.304,148.864-154.48
		c4.784-1.456,9.856,1.216,11.328,6.016c1.472,4.784-1.216,9.856-6.016,11.328c-66.4,20.336-118.768,74.688-136.64,141.792
		C60.944,210.896,55.968,213.744,51.136,212.464z"/>
</g>
<path style="fill:#3E4347;" d="M221.792,427.296C130.32,387.536,94.608,283.024,94.608,283.024
	c158.048,85.952,286.608,7.6,302.336-3.872c10.352,44.864,6.64,98.624-41.888,134.4
	C316.832,441.728,265.344,446.224,221.792,427.296z"/>
<path style="fill:#E24B4B;" d="M178.432,394.192c63.968,30.672,125.424,22.176,188.768,0.336c-2.672-3.808-5.76-7.744-9.84-11.968
	c-47.808-49.584-81.904,7.776-81.904,7.776c-56.912-45.472-105.12,0.144-105.12,0.144l0.304,1.328
	C173.168,392.224,175.744,392.912,178.432,394.192z"/>
<g>
	<path style="fill:#FFFFFF;" d="M386.672,378.416c-110.224,51.552-196.56,19.056-234.032-1.312
		c18.176,19.568,41.008,37.952,69.152,50.192c43.552,18.928,95.04,14.448,133.264-13.744
		C369.152,403.152,379.376,391.2,386.672,378.416z"/>
	<path style="fill:#FFFFFF;" d="M400.992,304.48c-0.768-8.624-2.176-17.136-4.064-25.328
		C381.2,290.624,252.64,368.96,94.592,283.024c0,0,4.944,14.4,15.776,34.496C252.288,380,367.536,324.784,400.992,304.48z"/>
</g>
<path style="fill:#3E4347;" d="M407.28,187.664c-50.56,44.816-112.144,33.728-140.32,30.88c36.128-16.608,56.192-24.016,93.92-58.88
	c-8.48,18.08-21.92,33.92-38.08,46.24C339.392,205.904,369.056,201.168,407.28,187.664z"/>
<circle style="fill:#F4C534;" cx="160.8" cy="202.208" r="67.296"/>
<path style="fill:#FFFFFF;" d="M211.312,202.16c0,27.856-22.48,50.512-50.512,50.512c-27.856,0-50.336-22.656-50.336-50.512
	s22.48-50.512,50.336-50.512C188.832,151.648,211.312,174.304,211.312,202.16z"/>
<ellipse style="fill:#3E4347;" cx="160.8" cy="197.968" rx="31.28" ry="31.328"/>
<path style="fill:#5A5F63;" d="M180,187.456c-1.648,2.688-6.304,2.832-10.336,0.448c-4.192-2.4-6.256-6.608-4.608-9.296
	c1.488-2.688,6.128-2.848,10.32-0.448C179.424,180.56,181.488,184.768,180,187.456z"/>
<path style="fill:#FFD93B;" d="M259.808,251.92c-30.768-19.888-64.144-27.648-92.256-23.872
	c-18.624,2.512-38.096,10.864-56.272,23.872C111.28,325.76,259.808,325.76,259.808,251.92z"/>
<path style="fill:#F4C534;" d="M259.808,251.92c-16-4.8-43.168-16.016-74.784-16.72c-25.344-1.28-50.112,6.944-73.744,16.72
	c12.08-16,40.048-33.216,74.24-32.704C216.928,220.768,243.344,234.352,259.808,251.92z"/>
<g>
</g>
<g>
</g>
<g>
</g>
<g>
</g>
<g>
</g>
<g>
</g>
<g>
</g>
<g>
</g>
<g>
</g>
<g>
</g>
<g>
</g>
<g>
</g>
<g>
</g>
<g>
</g>
<g>
</g>
</svg>
