<?xml version="1.0" encoding="iso-8859-1"?>
<!-- Generator: Adobe Illustrator 19.0.0, SVG Export Plug-In . SVG Version: 6.00 Build 0)  -->
<svg version="1.1" id="Capa_1" xmlns="http://www.w3.org/2000/svg" xmlns:xlink="http://www.w3.org/1999/xlink" x="0px" y="0px"
	 viewBox="0 0 512 512" style="enable-background:new 0 0 512 512;" xml:space="preserve">
<circle style="fill:#FFD93B;" cx="256" cy="256" r="256"/>
<g>
	<path style="fill:#F4C534;" d="M512,256c0,141.44-114.64,256-256,256c-80.48,0-152.32-37.12-199.28-95.28
		c43.92,35.52,99.84,56.72,160.72,56.72c141.36,0,256-114.56,256-256c0-60.88-21.2-116.8-56.72-160.72
		C474.8,103.68,512,175.52,512,256z"/>
	<path style="fill:#F4C534;" d="M245.808,252.144c-7.152,37.84-37.536,68.656-75.504,76.112
		c-62.112,12.368-116.768-34.848-116.768-95.024c0-18.768,5.36-36.192,14.592-51.088c2.08-3.424,5.952-5.36,9.984-5.36h144.912
		c4.016,0,7.888,1.936,9.984,5.36C245.36,201.808,250.736,226.224,245.808,252.144z"/>
</g>
<path style="fill:#FFFFFF;" d="M83.856,196.704c-6.176,11.056-10,23.632-10,37.2c0,42.4,34.384,76.64,76.64,76.64
	c42.4,0,76.784-34.24,76.784-76.64c0-13.568-3.824-26.144-10-37.2L83.856,196.704L83.856,196.704z"/>
<ellipse transform="matrix(-0.7071 -0.7072 0.7072 -0.7071 134.3676 540.7652)" style="fill:#3E4347;" cx="179.191" cy="242.551" rx="35.33" ry="35.234"/>
<path style="fill:#FFFFFF;" d="M198.752,252.56c-3.424,0-6.256-4.464-6.256-9.984c0-5.664,2.832-10.128,6.256-10.128
	s6.256,4.464,6.256,10.128C205.008,248.096,202.176,252.56,198.752,252.56z"/>
<path style="fill:#3E4347;" d="M218.112,108.48c0.112,4.912-3.632,9.104-8.544,9.2c-34.176,1.216-66.528,12.928-96.576,34.432
	c-3.936,2.992-9.792,1.952-12.432-1.968c-2.976-4-2.016-9.616,1.968-12.448c32.96-23.776,68.624-36.544,106.384-37.776
	C213.84,99.808,218.016,103.552,218.112,108.48z"/>
<path style="fill:#F4C534;" d="M266.192,252.144c7.152,37.84,37.536,68.656,75.504,76.112
	c62.112,12.368,116.768-34.848,116.768-95.024c0-18.768-5.36-36.192-14.592-51.088c-2.08-3.424-5.952-5.36-9.984-5.36H288.976
	c-4.016,0-7.888,1.936-9.984,5.36C266.64,201.808,261.264,226.224,266.192,252.144z"/>
<path style="fill:#FFFFFF;" d="M428.144,196.704c6.176,11.056,10,23.632,10,37.2c0,42.4-34.384,76.64-76.64,76.64
	c-42.4,0-76.784-34.24-76.784-76.64c0-13.568,3.824-26.144,10-37.2L428.144,196.704L428.144,196.704z"/>
<ellipse transform="matrix(-0.7072 -0.707 0.707 -0.7072 396.8698 649.3329)" style="fill:#3E4347;" cx="332.889" cy="242.488" rx="35.232" ry="35.312"/>
<path style="fill:#FFFFFF;" d="M313.264,252.576c3.424,0,6.256-4.464,6.256-9.984c0-5.664-2.832-10.128-6.256-10.128
	s-6.256,4.464-6.256,10.128C307.008,248.112,309.84,252.576,313.264,252.576z"/>
<g>
	<path style="fill:#3E4347;" d="M293.872,108.48c-0.112,4.912,3.632,9.104,8.56,9.2c34.176,1.216,66.528,12.928,96.576,34.432
		c3.952,2.992,9.792,1.952,12.448-1.968c2.976-3.984,2.016-9.616-1.968-12.448c-32.96-23.776-68.624-36.544-106.384-37.776
		C298.16,99.808,293.984,103.552,293.872,108.48z"/>
	<path style="fill:#3E4347;" d="M332.432,401.488c0,10.24-8.32,18.56-18.56,18.56H198.128c-10.24,0-18.56-8.32-18.56-18.56
		s8.32-18.4,18.56-18.4h115.744C324.112,383.104,332.432,391.248,332.432,401.488z"/>
</g>
<g>
</g>
<g>
</g>
<g>
</g>
<g>
</g>
<g>
</g>
<g>
</g>
<g>
</g>
<g>
</g>
<g>
</g>
<g>
</g>
<g>
</g>
<g>
</g>
<g>
</g>
<g>
</g>
<g>
</g>
</svg>
