<?xml version="1.0" encoding="iso-8859-1"?>
<!-- Generator: Adobe Illustrator 19.0.0, SVG Export Plug-In . SVG Version: 6.00 Build 0)  -->
<svg version="1.1" id="Capa_1" xmlns="http://www.w3.org/2000/svg" xmlns:xlink="http://www.w3.org/1999/xlink" x="0px" y="0px"
	 viewBox="0 0 512.01 512.01" style="enable-background:new 0 0 512.01 512.01;" xml:space="preserve">
<g>
	<path style="fill:#FFD93B;" d="M494.973,291.943c2.304,5.36,3.376,11.136,2.896,17.12c-1.6,19.328-18.464,33.76-37.952,32.144
		c-19.328-1.6-33.584-18.624-31.984-37.936c0.496-5.984,2.496-11.504,5.664-16.4c-8.048-8.752-12.576-20.672-11.504-33.664
		c2.048-24.8,23.888-43.296,48.512-41.264c24.8,2.048,43.312,23.904,41.248,48.688C510.797,273.463,504.365,284.631,494.973,291.943
		z"/>
	<path style="fill:#FFD93B;" d="M17.053,291.943c-2.32,5.36-3.376,11.136-2.896,17.12c1.6,19.328,18.464,33.76,37.952,32.144
		c19.328-1.6,33.584-18.624,31.984-37.936c-0.496-5.984-2.496-11.504-5.664-16.4c8.048-8.752,12.576-20.672,11.504-33.664
		c-2.048-24.8-23.904-43.296-48.528-41.264c-24.8,2.048-43.312,23.904-41.248,48.688C1.229,273.463,7.661,284.631,17.053,291.943z"
		/>
	<path style="fill:#FFD93B;" d="M468.957,268.551c0,117.648-95.424,212.944-212.944,212.944
		c-117.648,0-212.944-95.296-212.944-212.944c0-117.52,95.296-212.944,212.944-212.944
		C373.533,55.607,468.957,151.031,468.957,268.551z"/>
	<path style="fill:#FFD93B;" d="M468.957,268.551c0,117.648-95.424,212.944-212.944,212.944c-67.072,0-126.976-31.008-165.84-79.456
		c36.464,29.28,82.656,46.72,133.088,46.72c117.52,0,212.944-95.296,212.944-212.944c0-50.448-17.44-96.624-46.848-133.088
		C437.949,141.719,468.957,201.479,468.957,268.551z"/>
</g>
<g style="opacity:0.3;">
	<path style="fill:#FFFFFF;" d="M195.245,108.855c0,3.184-1.936,5.952-4.784,7.2c-49.632,21.376-87.04,66.224-97.776,119.76
		c-0.784,3.904-4.528,6.896-9.28,5.952c-3.984-0.928-6.512-5.024-5.712-9.008c11.728-58.464,52.48-107.696,106.688-131.088
		c1.008-0.448,2.048-0.64,3.056-0.64C191.549,101.015,195.245,104.391,195.245,108.855z"/>
</g>
<path style="fill:#F29A2E;" d="M204.557,35.575c26.304-8.064,51.52-6.208,73.408,3.568c27.152,12.32,44.704,36.656,49.376,62.208
	c9.44,50.88-28.08,93.568-72.368,92.64c-27.488-0.16-56.016-18.16-59.808-44.128c-6.672-36.72,35.824-63.52,65.344-34.336
	c-29.488-22.352-62.704,3.264-53.616,31.584c6.176,19.664,29.184,28.144,47.152,25.776c15.888-1.808,25.392-9.984,33.92-21.04
	c0,0,3.776-5.728,6.48-15.616c4.8-23.168-8.048-46.16-22.672-52.208c-0.144-0.432-9.488-4.448-9.488-3.968
	c-13.552-3.824-26.24-2.32-38.896,3.296c-18.464,8.736-32.576,2.368-38.656-10.496C178.173,59.015,183.325,42.391,204.557,35.575z"
	/>
<circle style="fill:#3E4347;" cx="328.109" cy="253.719" r="33.52"/>
<path style="fill:#5A5F63;" d="M347.533,247.127c-2.32,2.128-6.304,1.344-8.848-1.44c-2.688-2.944-2.96-6.96-0.784-8.944
	c2.32-2.128,6.304-1.504,8.848,1.44C349.437,241.111,349.709,245.127,347.533,247.127z"/>
<circle style="fill:#3E4347;" cx="183.917" cy="253.719" r="33.52"/>
<path style="fill:#5A5F63;" d="M203.357,247.127c-2.32,2.128-6.304,1.344-8.848-1.44c-2.688-2.944-2.96-6.96-0.784-8.944
	c2.32-2.128,6.304-1.504,8.848,1.44C205.261,241.111,205.517,245.127,203.357,247.127z"/>
<path style="fill:#59A5E0;" d="M308.813,328.695c-7.328,0-15.776,2.128-24.048,5.872c-18.704,8.496-38.816,8.496-57.52,0
	c-8.256-3.76-16.72-5.872-24.048-5.872c-37.408,0-44.752,23.568-44.752,53.024c0,29.168,7.344,53.024,44.752,53.024
	c7.328,0,15.792-2.128,24.048-5.888c18.704-8.496,38.816-8.496,57.504,0c8.272,3.76,16.72,5.888,24.048,5.888
	c37.408,0,44.752-23.568,44.752-53.024C353.565,352.551,346.237,328.695,308.813,328.695z M190.893,405.847
	c-7.344,0-13.024-9.264-13.024-21.04s5.68-21.328,13.024-21.328C195.389,376.391,196.573,390.423,190.893,405.847z M321.373,399.959
	c-4.736-12.896-5.68-26.928,0-42.368c7.104,0,13.024,9.264,13.024,21.04C334.397,390.423,328.477,399.959,321.373,399.959z"/>
<path style="fill:#65B1EF;" d="M286.925,381.623c0,17.152-13.76,31.12-30.912,31.12s-30.912-13.984-30.912-31.12
	c0-16.944,13.76-30.912,30.912-30.912C273.165,350.711,286.925,364.679,286.925,381.623z"/>
<path style="fill:#FFFFFF;" d="M256.013,463.111c-24.032,0-43.584-19.68-43.584-43.856c0-24.032,19.552-43.6,43.584-43.6
	c24.032,0,43.6,19.552,43.6,43.6C299.613,443.431,280.045,463.111,256.013,463.111z M256.013,387.783
	c-17.344,0-31.456,14.112-31.456,31.456c0,17.488,14.112,31.728,31.456,31.728s31.472-14.24,31.472-31.728
	C287.469,401.911,273.357,387.783,256.013,387.783z"/>
<ellipse style="fill:#4E99D2;" cx="256.013" cy="381.687" rx="17.072" ry="17.136"/>
<g>
</g>
<g>
</g>
<g>
</g>
<g>
</g>
<g>
</g>
<g>
</g>
<g>
</g>
<g>
</g>
<g>
</g>
<g>
</g>
<g>
</g>
<g>
</g>
<g>
</g>
<g>
</g>
<g>
</g>
</svg>
