<?xml version="1.0" encoding="iso-8859-1"?>
<!-- Generator: Adobe Illustrator 19.0.0, SVG Export Plug-In . SVG Version: 6.00 Build 0)  -->
<svg version="1.1" id="Capa_1" xmlns="http://www.w3.org/2000/svg" xmlns:xlink="http://www.w3.org/1999/xlink" x="0px" y="0px"
	 viewBox="0 0 512.011 512.011" style="enable-background:new 0 0 512.011 512.011;" xml:space="preserve">
<circle style="fill:#FFD93B;" cx="256.005" cy="226.4" r="226.4"/>
<path style="fill:#F4C534;" d="M482.357,226.352c0,125.072-101.36,226.368-226.352,226.352c-71.168,0-134.688-32.816-176.208-84.256
	c38.832,31.408,88.288,50.16,142.112,50.16c124.992,0,226.352-101.296,226.352-226.352c0-53.84-18.752-103.28-50.144-142.112
	C449.477,91.68,482.357,155.2,482.357,226.352z"/>
<path style="fill:#3E4347;" d="M360.693,311.232c-14.336,44.144-55.792,75.968-104.656,75.968c-48.944,0-90.32-31.84-104.752-75.968
	c-1.76-5.28,2.96-10.464,8.336-8.88c38.4,11.28,154.448,11.28,192.752,0C357.733,300.784,362.453,305.968,360.693,311.232z"/>
<path style="fill:#E24B4B;" d="M249.525,471.936c-0.832-11.056,10.064-30.88,5.12-42.448c-6.768-16.176-30.544-44.08-39.632-50.192
	c-1.312-8.912,20.144-18.816,31.536-19.472c13.04-0.816,26.256,4.288,35.328,13.536c0.832-8.08,7.264-14.864,15.024-17.504
	c14.384-4.928,34.72,5.008,52.96,20.96c56.32,49.2,17.376,145.072-56.64,134.368C269.429,507.728,250.421,494.144,249.525,471.936z"
	/>
<g>
	<circle style="fill:#F4C534;" cx="164.437" cy="208.96" r="78.064"/>
	<path style="fill:#F4C534;" d="M231.269,208.992c-2.064,37.136-33.632,67.216-70.528,67.216s-65.248-30.096-63.2-67.216
		c2.064-37.136,33.744-67.344,70.656-67.344C205.093,141.664,233.333,171.872,231.269,208.992z"/>
</g>
<path style="fill:#3E4347;" d="M176.037,77.04c0,0-41.248-5.808-84.544,44.336C91.477,121.376,119.477,31.584,176.037,77.04z"/>
<g>
	<circle style="fill:#F4C534;" cx="347.573" cy="208.96" r="78.064"/>
	<path style="fill:#F4C534;" d="M280.741,208.992c2.064,37.136,33.632,67.216,70.528,67.216s65.248-30.096,63.2-67.216
		c-2.064-37.136-33.744-67.344-70.656-67.344C306.917,141.664,278.677,171.872,280.741,208.992z"/>
</g>
<g>
	<path style="fill:#3E4347;" d="M335.989,77.04c0,0,41.248-5.808,84.544,44.336C420.533,121.376,392.533,31.584,335.989,77.04z"/>
	<path style="fill:#3E4347;" d="M425.621,208.944c0,2.4-0.528,4.8-1.472,7.056c-6.8-15.056-38.528-26.528-76.656-26.528
		c-37.984,0-69.712,11.456-76.512,26.528c-0.928-2.272-1.472-4.672-1.472-7.056c0-20.528,34.928-37.328,77.984-37.328
		C390.693,171.632,425.621,188.416,425.621,208.944z"/>
	<path style="fill:#3E4347;" d="M242.453,208.944c0,2.4-0.528,4.8-1.472,7.056c-6.8-15.056-38.528-26.528-76.64-26.528
		c-37.984,0-69.712,11.456-76.512,26.528c-0.928-2.272-1.472-4.672-1.472-7.056c0-20.528,34.928-37.328,77.984-37.328
		C207.525,171.632,242.453,188.416,242.453,208.944z"/>
</g>
<path style="fill:#FFFFFF;" d="M347.941,303.504c-15.36,32.864-55.472,36.816-91.968,36.816c-36.48,0-76.336-4.064-91.968-36.816
	C204.613,313.248,307.317,313.248,347.941,303.504z"/>
<path style="fill:#D03F3F;" d="M293.253,511.168c28.192,4.064,51.232-7.36,65.92-25.728c-47.008,34.512-88.304,1.664-94.016-37.36
	c-2.352-16.112-9.584-31.2-22.48-41.152c-2.768-2.144-4.656-3.392-4.656-3.392l-0.048,0.016
	c7.072,8.992,13.616,18.656,16.672,25.952c4.944,11.568-5.952,31.376-5.12,42.448C250.421,494.144,269.429,507.728,293.253,511.168z
	"/>
<g>
</g>
<g>
</g>
<g>
</g>
<g>
</g>
<g>
</g>
<g>
</g>
<g>
</g>
<g>
</g>
<g>
</g>
<g>
</g>
<g>
</g>
<g>
</g>
<g>
</g>
<g>
</g>
<g>
</g>
</svg>
