<?xml version="1.0" encoding="iso-8859-1"?>
<!-- Generator: Adobe Illustrator 19.0.0, SVG Export Plug-In . SVG Version: 6.00 Build 0)  -->
<svg version="1.1" id="Capa_1" xmlns="http://www.w3.org/2000/svg" xmlns:xlink="http://www.w3.org/1999/xlink" x="0px" y="0px"
	 viewBox="0 0 515.734 515.734" style="enable-background:new 0 0 515.734 515.734;" xml:space="preserve">
<path style="fill:#FFD93B;" d="M513.482,257.867c0,141.44-114.72,256-256,256c-141.44,0-256-114.56-256-256
	c0-141.28,114.56-256,256-256C398.762,1.867,513.482,116.587,513.482,257.867z"/>
<path style="fill:#F4C534;" d="M513.482,257.867c0,141.44-114.72,256-256,256c-80.64,0-152.64-37.28-199.36-95.52
	c43.84,35.2,99.36,56.16,160,56.16c141.28,0,256-114.56,256-256c0-60.64-20.96-116.16-56.32-160
	C476.202,105.387,513.482,177.227,513.482,257.867z"/>
<g>
	<path style="fill:#E9EFF4;" d="M511.434,226.971L373.05,331.419l12.064,15.968l128.016-96.624
		C518.602,245.659,514.17,224.283,511.434,226.971z"/>
	<path style="fill:#E9EFF4;" d="M1.85,250.763l128.016,96.624l12.064-15.968L3.546,226.971
		C0.554,225.051-1.782,247.691,1.85,250.763z"/>
	<path style="fill:#E9EFF4;" d="M494.442,354.571l-174.608,58.208l6.304,18.976l156.608-52.208
		C493.738,375.739,499.674,352.875,494.442,354.571z"/>
	<path style="fill:#E9EFF4;" d="M32.186,379.531l156.64,52.224l6.304-18.976L20.506,354.555
		C14.522,352.779,23.674,377.643,32.186,379.531z"/>
</g>
<path style="fill:#F4C534;" d="M110.026,204.603c-5.296-1.568-8.336-7.136-6.768-12.432c11.856-40.112,51.808-64.24,92.88-56.048
	c5.408,1.072,8.944,6.336,7.856,11.744c-1.072,5.424-6.416,8.96-11.76,7.856c-30.784-6.032-60.88,11.968-69.776,42.096
	C120.874,203.147,115.322,206.155,110.026,204.603z"/>
<path style="fill:#3E4347;" d="M138.698,222.955c0,23.664,17.648,42.672,39.584,42.672c21.808,0,39.456-19.024,39.456-42.672
	c0-23.504-17.648-42.672-39.456-42.672C156.346,180.283,138.698,199.451,138.698,222.955z"/>
<path style="fill:#5A5F63;" d="M156.81,215.179c2.672,1.84,7.328-0.144,10.432-4.368c3.248-4.368,3.664-9.296,1.136-11.28
	c-2.544-1.84-7.184,0-10.432,4.368C154.842,208.139,154.266,213.211,156.81,215.179z"/>
<path style="fill:#3E4347;" d="M292.89,222.955c0,23.664,17.648,42.672,39.6,42.672c21.808,0,39.456-19.024,39.456-42.672
	c0-23.504-17.648-42.672-39.456-42.672C310.538,180.283,292.89,199.451,292.89,222.955z"/>
<path style="fill:#F4C534;" d="M392.522,197.835c-8.912-30.128-39.008-48.192-69.776-42.096c-5.312,1.104-10.672-2.432-11.76-7.856
	c-1.072-5.408,2.448-10.688,7.856-11.744c41.072-8.192,81.024,15.92,92.88,56.048c1.568,5.296-1.472,10.864-6.768,12.432
	C399.658,206.139,394.106,203.163,392.522,197.835z"/>
<path style="fill:#5A5F63;" d="M311.002,215.179c2.672,1.84,7.328-0.144,10.432-4.368c3.248-4.368,3.664-9.296,1.12-11.28
	c-2.544-1.84-7.184,0-10.432,4.368C309.018,208.139,308.458,213.211,311.002,215.179z"/>
<path style="fill:#45CBEA;" d="M117.354,307.691c-13.872-1.808-21.6,12.224-15.312,26.368
	c31.504,77.456,73.68,143.312,155.504,143.76c81.712-0.448,123.904-66.16,155.376-143.456c6.304-14.208-1.456-28.272-15.392-26.336
	C304.522,322.395,219.594,322.763,117.354,307.691z"/>
<g>
</g>
<g>
</g>
<g>
</g>
<g>
</g>
<g>
</g>
<g>
</g>
<g>
</g>
<g>
</g>
<g>
</g>
<g>
</g>
<g>
</g>
<g>
</g>
<g>
</g>
<g>
</g>
<g>
</g>
</svg>
