<?xml version="1.0" encoding="iso-8859-1"?>
<!-- Generator: Adobe Illustrator 19.0.0, SVG Export Plug-In . SVG Version: 6.00 Build 0)  -->
<svg version="1.1" id="Capa_1" xmlns="http://www.w3.org/2000/svg" xmlns:xlink="http://www.w3.org/1999/xlink" x="0px" y="0px"
	 viewBox="0 0 512 512" style="enable-background:new 0 0 512 512;" xml:space="preserve">
<circle style="fill:#FFD93B;" cx="256" cy="256" r="256"/>
<path style="fill:#F4C534;" d="M512,256c0,141.44-114.64,256-256,256c-80.48,0-152.32-37.12-199.28-95.28
	c43.92,35.52,99.84,56.72,160.72,56.72c141.36,0,256-114.56,256-256c0-60.88-21.2-116.8-56.72-160.72
	C474.8,103.68,512,175.52,512,256z"/>
<ellipse style="fill:#FFFFFF;" cx="170.528" cy="173.152" rx="86.88" ry="92.336"/>
<path style="fill:#3E4347;" d="M190.864,249.328c-24.688-0.304-44.736-20.784-44.784-45.744
	c-0.048-24.944,19.92-44.928,44.608-44.608c24.688,0.304,44.736,20.784,44.784,45.744
	C235.52,229.664,215.552,249.648,190.864,249.328z"/>
<path style="fill:#5A5F63;" d="M213.472,218.56c-4.544-0.464-7.664-7.152-6.992-14.928c0.688-7.776,4.912-13.712,9.456-13.232
	c4.544,0.464,7.68,7.152,6.992,14.928C222.256,213.104,218.016,219.024,213.472,218.56z"/>
<ellipse transform="matrix(-0.9786 -0.2058 0.2058 -0.9786 664.9354 383.9367)" style="fill:#FFFFFF;" cx="352.435" cy="157.388" rx="73.36" ry="77.968"/>
<path style="fill:#3E4347;" d="M322.368,216.864c20.448,4.032,40.576-9.408,44.96-30.016s-8.656-40.592-29.104-44.624
	s-40.576,9.408-44.96,30.016C288.88,192.864,301.92,212.832,322.368,216.864z"/>
<path style="fill:#5A5F63;" d="M307.952,180.144c3.504,1.632,8.656-1.872,11.52-7.808c2.864-5.936,2.352-12.064-1.136-13.696
	c-3.504-1.632-8.656,1.872-11.52,7.808C303.952,172.384,304.448,178.512,307.952,180.144z"/>
<path style="fill:#3E4347;" d="M356.416,273.328c-24.368,22.576-57.936,37.008-100.8,37.008c-34.16,0-62.288-9.264-84.688-24.352
	c-27.632,16.528-46.688,52.496-46.688,94.24c0,48.848,26.048,89.696,61.472,100.768c24.784-30.944,62.88-51.968,114.56-51.968
	c24.816,0,46.528,4.816,65.136,13.232c19.248-16.912,32.208-46.88,32.208-81.104C397.616,321.824,380.544,288.016,356.416,273.328z"
	/>
<path style="fill:#E24B4B;" d="M293.424,426.752c22.448,0,41.536,5.168,57.456,13.824c0.88-3.584,1.536-7.248,1.536-11.12
	c0-27.856-22.592-50.448-50.448-50.448c-16.56,0-31.328,7.984-40.512,20.336c-6.32-2.864-13.408-4.512-20.784-4.512
	c-27.872,0-50.464,22.736-50.464,50.608c0,10.592,3.472,20.272,9.088,28.368C218.256,446.096,249.616,426.752,293.424,426.752z"/>
<g>
	<path style="fill:#FFFFFF;" d="M269.52,422.832c-46.368,7.872-85.28,20.24-98.992,51.296c10.432,6.32,22.064,9.952,34.432,9.952
		c16.24,0,31.2-6.16,43.904-16.784c17.856-14.912,42.608-19.936,65.776-12.768c4.832,1.584,9.808,2.288,14.96,2.288
		c16.976,0,32.544-8.944,44.512-23.584C350.256,414.048,312.24,415.584,269.52,422.832z"/>
	<path style="fill:#FFFFFF;" d="M281.712,312.48c34.816-5.904,65.824-14.08,86.848-29.52c-11.072-10.96-24.512-17.456-38.976-17.456
		c-10.928,0-21.232,3.584-30.24,10.048c-20.416,14.208-48.08,13.92-71.888,4.88c-7.072-2.72-14.8-4.16-22.512-4.16
		c-16.944,0-32.592,6.672-45.52,18.016C184.832,322.416,230.16,321.2,281.712,312.48z"/>
	<path style="fill:#FFFFFF;" d="M323.408,397.424c-0.72,3.616-7.408,5.168-15.072,3.728c-7.52-1.584-13.136-5.664-12.416-9.28
		c0.72-3.616,7.552-5.312,15.072-3.728C318.512,389.568,324.128,393.808,323.408,397.424z"/>
</g>
<g>
	<path style="fill:#3E4347;" d="M279.264,91.856c-4.816-17.344,24.192-33.552,40.24-39.616c15.696-6.096,34.368-8.496,56.256-4.896
		c-18.08,5.296-29.92,7.808-50.224,18.4C303.248,77.44,293.616,91.072,279.264,91.856z"/>
	<path style="fill:#3E4347;" d="M247.584,83.856c-16.08-0.752-25.936-10.96-40.368-18.16c-13.712-7.088-28.768-13.184-46.608-17.504
		c-18.768-4.4-25.024-4.64-43.888-6.976c18.896-4.352,29.408-5.392,45.632-4.288c20.672,1.968,39.376,7.328,52.256,13.968
		C228.8,57.776,247.696,68.016,247.584,83.856z"/>
</g>
<g>
</g>
<g>
</g>
<g>
</g>
<g>
</g>
<g>
</g>
<g>
</g>
<g>
</g>
<g>
</g>
<g>
</g>
<g>
</g>
<g>
</g>
<g>
</g>
<g>
</g>
<g>
</g>
<g>
</g>
</svg>
