<?xml version="1.0" encoding="iso-8859-1"?>
<!-- Generator: Adobe Illustrator 19.0.0, SVG Export Plug-In . SVG Version: 6.00 Build 0)  -->
<svg version="1.1" id="Capa_1" xmlns="http://www.w3.org/2000/svg" xmlns:xlink="http://www.w3.org/1999/xlink" x="0px" y="0px"
	 viewBox="0 0 514.492 514.492" style="enable-background:new 0 0 514.492 514.492;" xml:space="preserve">
<path style="fill:#FFD93B;" d="M514.492,258.292c0,141.44-114.72,256-256,256c-141.44,0-256-114.56-256-256
	c0-141.28,114.56-256,256-256C399.772,2.292,514.492,117.012,514.492,258.292z"/>
<path style="fill:#F4C534;" d="M514.492,258.292c0,141.44-114.72,256-256,256c-80.64,0-152.64-37.28-199.36-95.52
	c43.84,35.2,99.36,56.16,160,56.16c141.28,0,256-114.56,256-256c0-60.64-20.96-116.16-56.32-160
	C477.212,105.812,514.492,177.652,514.492,258.292z"/>
<g>
	<path style="fill:#E9B02C;" d="M402.332,214.228c-29.952-60.064-87.216-47.968-87.792-47.84c-6.48,1.44-12.896-2.624-14.336-9.072
		c-1.456-6.464,2.608-12.88,9.072-14.352c26.24-5.888,83.936-0.832,114.544,60.56c2.96,5.936,0.544,13.136-5.392,16.096
		C412.444,222.58,405.26,220.116,402.332,214.228z"/>
	<path style="fill:#E9B02C;" d="M98.556,219.62c-5.936-2.96-8.336-10.16-5.392-16.096c30.624-61.392,88.352-66.432,114.544-60.56
		c6.464,1.456,10.528,7.872,9.072,14.352c-1.456,6.448-7.84,10.432-14.304,9.088c-2.608-0.576-58.192-11.6-87.824,47.824
		C111.692,220.132,104.524,222.58,98.556,219.62z"/>
</g>
<path style="fill:#E9EFF4;" d="M6.236,216.228C89.644,175.924,277.484,94.612,448.268,87.012
	c16.048-2.672-81.568-72.48-102.24-68.992C236.412,36.628,130.396,74.436,51.9,107.588C30.748,115.188-4.996,222.692,6.236,216.228z
	"/>
<path style="fill:#FFFFFF;" d="M326.668,11.844c-148.8,98.56-258.88,264.64-305.28,343.04c-9.136,13.552-29.888-101.456-17.6-121.76
	c46.4-68,112.16-151.68,194.08-223.36C212.428-5.596,344.108-0.636,326.668,11.844z"/>
<path style="fill:#3E4347;" d="M217.628,227.748c0,20.976-16.96,37.936-37.936,37.936c-20.848,0-37.808-16.96-37.808-37.936
	s16.96-37.936,37.808-37.936C200.668,189.812,217.628,206.772,217.628,227.748z"/>
<ellipse transform="matrix(-0.7072 -0.707 0.707 -0.7072 179.3363 499.9796)" style="fill:#5A5F63;" cx="193.197" cy="212.855" rx="8.128" ry="6.656"/>
<path style="fill:#3E4347;" d="M375.1,227.748c0,20.976-16.96,37.936-37.936,37.936c-20.848,0-37.808-16.96-37.808-37.936
	s16.96-37.936,37.808-37.936C358.14,189.812,375.1,206.772,375.1,227.748z"/>
<ellipse transform="matrix(-0.7072 -0.707 0.707 -0.7072 448.1299 611.3096)" style="fill:#5A5F63;" cx="350.646" cy="212.863" rx="8.128" ry="6.656"/>
<path style="fill:#3E4347;" d="M352.188,406.068c-5.68,0-11.168-3.024-14.08-8.368c-26.24-48.336-97.36-45.52-135.296-36.288
	c-8.56,2.128-17.248-3.152-19.328-11.744c-2.096-8.592,3.152-17.248,11.744-19.328c58.112-14.224,137.76-9.088,171.008,52.08
	c4.224,7.76,1.328,17.488-6.416,21.696C357.388,405.444,354.764,406.068,352.188,406.068z"/>
<g>
</g>
<g>
</g>
<g>
</g>
<g>
</g>
<g>
</g>
<g>
</g>
<g>
</g>
<g>
</g>
<g>
</g>
<g>
</g>
<g>
</g>
<g>
</g>
<g>
</g>
<g>
</g>
<g>
</g>
</svg>
