<?xml version="1.0" encoding="iso-8859-1"?>
<!-- Generator: Adobe Illustrator 19.0.0, SVG Export Plug-In . SVG Version: 6.00 Build 0)  -->
<svg version="1.1" id="Capa_1" xmlns="http://www.w3.org/2000/svg" xmlns:xlink="http://www.w3.org/1999/xlink" x="0px" y="0px"
	 viewBox="0 0 512 512" style="enable-background:new 0 0 512 512;" xml:space="preserve">
<circle style="fill:#FFD93B;" cx="256" cy="256" r="256"/>
<path style="fill:#F4C534;" d="M512,256c0,141.44-114.64,256-256,256c-80.48,0-152.32-37.12-199.28-95.28
	c43.92,35.52,99.84,56.72,160.72,56.72c141.36,0,256-114.56,256-256c0-60.88-21.2-116.8-56.72-160.72
	C474.8,103.68,512,175.52,512,256z"/>
<g>
	<path style="fill:#3E4347;" d="M155.152,72.928c0,0-52.016-7.312-106.624,55.904C48.528,128.832,83.84,15.584,155.152,72.928z"/>
	<path style="fill:#3E4347;" d="M356.848,72.928c0,0,52.016-7.312,106.624,55.904C463.472,128.832,428.16,15.584,356.848,72.928z"/>
	<path style="fill:#3E4347;" d="M374.608,401.984c-31.536-5.248-74.816-13.504-118.416-13.264
		c-44.352-0.48-78.432,6.208-118.224,13.264c33.152-19.04,62.096-29.824,118.32-31.488
		C279.184,371.36,320.256,371.856,374.608,401.984z"/>
</g>
<path style="fill:#E24B4B;" d="M388.48,421.264c-4.544-11.248-9.6-21.488-13.872-29.296c-26.96-49.36-70.16-38.672-85.856-24.24
	c-15.152-9.184-36.096,1.808-33.52,21.008c27.904,7.6,32.928,34.096,34.144,58.288c0.928,18.528,10.56,37.376,27.84,44.112
	C360.272,507.936,406.352,465.504,388.48,421.264z"/>
<ellipse style="fill:#F4C534;" cx="159.168" cy="212.784" rx="86.208" ry="86.288"/>
<path style="fill:#3E4347;" d="M172.944,212.784l53.424-53.424c4.272-4.256-9.504-18.064-13.776-13.808l-53.376,53.504
	l-53.472-53.472c-3.6-3.6-17.392,10.208-13.792,13.808l53.392,53.376l-53.392,53.376c-4.112,4.096,9.712,17.92,13.808,13.84
	l53.472-53.328l53.36,53.36c3.072,3.072,16.864-10.752,13.776-13.824L172.944,212.784z"/>
<ellipse style="fill:#F4C534;" cx="352.96" cy="212.784" rx="86.208" ry="86.288"/>
<path style="fill:#3E4347;" d="M366.672,212.784l53.424-53.424c4.272-4.256-9.504-18.064-13.776-13.808l-53.376,53.504
	l-53.472-53.472c-3.6-3.6-17.392,10.208-13.792,13.808l53.392,53.376l-53.392,53.376c-4.096,4.08,9.712,17.904,13.808,13.824
	l53.472-53.328L406.32,280c3.072,3.072,16.864-10.752,13.776-13.824L366.672,212.784z"/>
<path style="fill:#D03F3F;" d="M289.36,447.024c0.928,18.528,10.56,37.376,27.84,44.112c28.864,11.248,58.976-4.144,70.4-28.8
	c-53.088,28.88-79.568,4.16-90.704-40.768c-9.408-37.92-40.704-32.848-40.704-32.848l-0.288,0.272
	C283.136,396.864,288.16,423.04,289.36,447.024z"/>
<path style="opacity:0.2;fill:#FFFFFF;enable-background:new    ;" d="M343.76,370.144c-0.544,3.84-8.176,1.664-18.096,0.992
	c-9.92-0.336-18.624,1.008-18.08-2.832c0.528-3.84,8.848-6.528,19.024-6.016C336.512,362.8,344.016,366.304,343.76,370.144z"/>
<g>
</g>
<g>
</g>
<g>
</g>
<g>
</g>
<g>
</g>
<g>
</g>
<g>
</g>
<g>
</g>
<g>
</g>
<g>
</g>
<g>
</g>
<g>
</g>
<g>
</g>
<g>
</g>
<g>
</g>
</svg>
