<?xml version="1.0" encoding="iso-8859-1"?>
<!-- Generator: Adobe Illustrator 19.0.0, SVG Export Plug-In . SVG Version: 6.00 Build 0)  -->
<svg version="1.1" id="Capa_1" xmlns="http://www.w3.org/2000/svg" xmlns:xlink="http://www.w3.org/1999/xlink" x="0px" y="0px"
	 viewBox="0 0 512 512" style="enable-background:new 0 0 512 512;" xml:space="preserve">
<circle style="fill:#FFD93B;" cx="256" cy="256" r="256"/>
<path style="fill:#3E4347;" d="M425.904,336.752C389.008,408.4,326.64,455.536,256.016,455.536
	c-70.8,0-133.152-47.328-170.224-119.168c-7.024-13.952,4.224-30.544,18.624-26.768c101.36,25.648,202.384,26.208,302.864,0.192
	C421.696,306.208,433.104,322.8,425.904,336.752z"/>
<path style="fill:#F4C534;" d="M512,256c0,141.44-114.64,256-256,256c-80.48,0-152.32-37.12-199.28-95.28
	c43.92,35.52,99.84,56.72,160.72,56.72c141.36,0,256-114.56,256-256c0-60.88-21.2-116.8-56.72-160.72
	C474.8,103.68,512,175.52,512,256z"/>
<path style="fill:#FFFFFF;" d="M231.024,190.928c0,55.664-36.864,94.176-82.272,94.176s-82.128-38.496-82.128-94.176
	c0-55.664,36.72-107.392,82.128-107.392C194.16,83.536,231.024,135.264,231.024,190.928z"/>
<g>
	<path style="fill:#3E4347;" d="M143.136,225.808V191.76c-45.52-13.008-37.392-65.296,0-68.992v-8.048h11.776v8.048
		c17.824,2.128,27.6,12.608,30.304,28.288l-20.56,2.688c-1.248-6.4-4.496-10.72-9.744-13.008v31.776
		c20.56,5.568,33.648,13.792,33.648,35.264c0,18.784-11.552,33.968-33.648,37.136v15.2h-11.776v-14.784
		c-18.016-2.192-30.688-13.184-34.048-35.264l21.216-2.272C132.096,216.736,137.456,223.072,143.136,225.808z M143.136,140.48
		c-12.768,4.336-15.28,21.536,0,28.112V140.48z M154.928,226.944c8.096-1.504,13.728-8.032,13.728-16.256
		c0-8.608-5.568-13.088-13.728-15.44V226.944z"/>
	<path style="fill:#3E4347;" d="M50.624,79.648c0.048-31.776,21.216-55.92,49.2-69.344c29.488-10.816,62.16-7.936,83.904,13.888
		c-16,0.672-37.744-3.504-73.776,10.48C72.896,51.696,66.624,64.832,50.624,79.648z"/>
</g>
<path style="fill:#FFFFFF;" d="M280.976,190.928c0,55.664,36.864,94.176,82.272,94.176s82.128-38.496,82.128-94.176
	c0-55.664-36.72-107.392-82.128-107.392C317.84,83.536,280.976,135.264,280.976,190.928z"/>
<g>
	<path style="fill:#3E4347;" d="M357.488,225.808V191.76c-45.52-13.008-37.392-65.296,0-68.992v-8.048h11.776v8.048
		c17.824,2.128,27.6,12.608,30.304,28.288l-20.56,2.688c-1.248-6.4-4.496-10.72-9.744-13.008v31.776
		c20.56,5.568,33.648,13.792,33.648,35.264c0,18.784-11.552,33.968-33.648,37.136v15.2h-11.776v-14.784
		c-18.016-2.192-30.688-13.184-34.048-35.264l21.216-2.272C346.432,216.736,351.792,223.072,357.488,225.808z M357.488,140.48
		c-12.768,4.336-15.28,21.536,0,28.112V140.48z M369.264,226.944c8.096-1.504,13.728-8.032,13.728-16.256
		c0-8.608-5.568-13.088-13.728-15.44V226.944z"/>
	<path style="fill:#3E4347;" d="M461.376,79.648c-16-14.816-22.144-27.872-59.328-44.976c-35.456-13.76-57.776-9.824-73.776-10.48
		c21.936-22.016,54.096-24.832,83.904-13.888C439.92,23.6,461.344,47.776,461.376,79.648z"/>
</g>
<path style="fill:#FFFFFF;" d="M111.824,311.248c27.68,50.432,48.24,63.376,144.208,63.376c95.872,0,116.4-12.848,144-63.184
	C304.384,334.976,208.272,334.48,111.824,311.248z"/>
<path style="fill:#E24B4B;" d="M256.032,455.536c26.512,0,51.856-6.64,75.136-18.736c-8.064-40.928-36.704-56.24-64.064-46.208
	c-11.536,4.256-24.032,5.712-35.92,4.656c-21.776-2.08-44.08,8.848-50.592,41.392C203.952,448.832,229.392,455.536,256.032,455.536z
	"/>
<g>
</g>
<g>
</g>
<g>
</g>
<g>
</g>
<g>
</g>
<g>
</g>
<g>
</g>
<g>
</g>
<g>
</g>
<g>
</g>
<g>
</g>
<g>
</g>
<g>
</g>
<g>
</g>
<g>
</g>
</svg>
