<?xml version="1.0" encoding="iso-8859-1"?>
<!-- Generator: Adobe Illustrator 19.0.0, SVG Export Plug-In . SVG Version: 6.00 Build 0)  -->
<svg version="1.1" id="Capa_1" xmlns="http://www.w3.org/2000/svg" xmlns:xlink="http://www.w3.org/1999/xlink" x="0px" y="0px"
	 viewBox="0 0 512.008 512.008" style="enable-background:new 0 0 512.008 512.008;" xml:space="preserve">
<path style="fill:#FFD93B;" d="M512.004,256c0,141.44-114.72,256-256,256c-141.44,0-256-114.56-256-256c0-141.28,114.56-256,256-256
	C397.284,0,512.004,114.72,512.004,256z"/>
<path style="fill:#F4C534;" d="M512.004,256c0,141.44-114.72,256-256,256c-80.64,0-152.64-37.28-199.36-95.52
	c43.84,35.2,99.36,56.16,160,56.16c141.28,0,256-114.56,256-256c0-60.64-20.96-116.16-56.32-160
	C474.724,103.52,512.004,175.36,512.004,256z"/>
<g>
	<path style="fill:#3E4347;" d="M256.196,402.528c-20.976-0.528-30.176-12.256-36.912-20.816
		c-5.568-7.072-8.528-10.512-15.248-11.456c-7.424-1.392-11.728,0.944-19.456,5.552c-9.536,5.664-22.592,13.44-42.24,6.896
		c-17.264-6.848-23.168-18.512-27.088-30.128c-2.128-6.272,1.248-13.088,7.536-15.2c6.288-2.112,13.088,1.248,15.2,7.536
		c2.768,8.192,5.248,12.336,12.592,15.264c8.192,2.704,12.848,0.304,21.728-4.976c8.736-5.216,19.648-11.664,35.664-8.592
		c15.968,2.224,24.192,12.672,30.176,20.288c6.224,7.92,9.328,11.424,18.032,11.664c8.096-0.224,11.216-3.744,17.456-11.664
		c6-7.616,14.224-18.048,30.8-20.352c15.472-3.008,26.352,3.52,35.088,8.704c8.896,5.296,13.552,7.664,22.4,4.736
		c6.832-2.704,9.232-6.704,12.096-15.12c2.144-6.272,8.944-9.616,15.232-7.488c6.272,2.144,9.632,8.96,7.488,15.232
		c-2.672,7.84-7.648,22.448-26.608,29.92c-20.256,6.8-33.344-0.976-42.88-6.672c-7.744-4.624-12.112-6.992-18.912-5.664
		c-7.312,1.024-10.288,4.464-15.856,11.536C285.764,390.288,276.532,402,256.196,402.528z"/>
	<path style="fill:#3E4347;" d="M405.924,255.808l-106.512-23.6c-4.72-1.04-8.352-4.816-9.216-9.584
		c-0.864-4.752,1.216-9.568,5.264-12.208l61.232-39.808c5.552-3.616,12.992-2.048,16.608,3.52c3.616,5.552,2.032,12.992-3.52,16.608
		l-37.264,24.224l78.592,17.408c6.48,1.44,10.56,7.84,9.12,14.32C418.836,252.992,412.612,257.232,405.924,255.808z"/>
	<path style="fill:#3E4347;" d="M91.78,246.672c-1.424-6.464,2.64-12.88,9.12-14.32l78.592-17.408l-37.264-24.224
		c-5.552-3.616-7.136-11.04-3.52-16.608c3.632-5.568,11.056-7.136,16.608-3.52l61.232,39.808c4.048,2.624,6.128,7.44,5.264,12.208
		c-0.864,4.752-4.496,8.528-9.216,9.584l-106.512,23.616C99.412,257.232,93.172,252.992,91.78,246.672z"/>
</g>
<g>
	<path style="fill:#E9B02C;" d="M386.164,156.368c-82.64-6.384-109.008-47.824-106.768-76.496
		c0.512-6.624,6.336-11.648,12.896-11.024c6.56,0.512,11.456,6.192,11.04,12.736c-0.08,2.192-0.592,44.256,84.688,50.864
		c6.608,0.512,11.552,6.288,11.024,12.896C398.532,152.176,392.404,156.976,386.164,156.368z"/>
	<path style="fill:#E9B02C;" d="M112.964,145.328c-0.512-6.608,4.432-12.384,11.024-12.88c85.696-6.64,84.768-49.088,84.688-50.88
		c-0.288-6.544,4.72-12.224,11.248-12.624c6.608-0.384,12.192,4.416,12.688,10.944c2.256,28.864-24.192,70.112-106.768,76.496
		C119.604,156.976,113.492,152.176,112.964,145.328z"/>
</g>
<path style="fill:#E9EFF4;" d="M210.772,258.592c-59.76,32.368-162.88,74.256-210.768,55.792c10.512,22.304-2.16,27.104,3.84,51.568
	c5.792,24.944,21.664,18.448,31.072,40.816c10.912,21.904-10.144,31.408,2.896,52.352c16.576,19.968,40.08,7.968,66.128,20.8
	c30.48,10.4,5.568,27.136,46.336,32.064c46.064,0.8,68.976-18.96,120.784-33.424c-8.464-49.552-9.712-137.184-11.312-194.656
	C259.156,263.152,229.508,248.432,210.772,258.592z"/>
<g>
	<path style="fill:#DEE4E9;" d="M3.188,342.08c54.272,12.752,165.968-48.24,220.832-86.736c-4.56,0.064-9.088,0.976-13.248,3.232
		c-26.464,14.336-61.408,30.512-96.32,42.512c-35.536,13.392-73.008,22.544-103.024,16.304c-4.048-0.72-7.92-1.664-11.424-3.008
		C4.948,324.896,4.788,331.952,3.188,342.08z"/>
	<path style="fill:#DEE4E9;" d="M237.06,257.84c-1.072-0.416-2.112-0.928-3.216-1.248C192.004,301.84,98.628,384.224,30.676,399.088
		c5.12,7.312,8.512,17.056,6.848,26.144C113.508,398.576,199.876,306.576,237.06,257.84z"/>
	<path style="fill:#DEE4E9;" d="M113.7,484.592c67.264-60.992,114.736-166.832,133.376-221.76c-0.976-0.64-1.952-1.28-3.024-1.808
		C219.428,315.056,157.972,420.4,79.54,473.408C94.436,475.072,107.588,480.432,113.7,484.592z"/>
	<path style="fill:#DEE4E9;" d="M259.748,284.288c0-0.144,0-0.272-0.016-0.4c-0.144-4.864-1.824-9.36-4.48-13.28
		c-4.528,58.56-18.48,162.976-36.048,226.224c37.056-14.48,32.096-12.112,51.84-18.288
		C262.42,428.304,261.108,332.96,259.748,284.288z"/>
</g>
<g>
</g>
<g>
</g>
<g>
</g>
<g>
</g>
<g>
</g>
<g>
</g>
<g>
</g>
<g>
</g>
<g>
</g>
<g>
</g>
<g>
</g>
<g>
</g>
<g>
</g>
<g>
</g>
<g>
</g>
</svg>
