<?xml version="1.0" encoding="iso-8859-1"?>
<!-- Generator: Adobe Illustrator 19.0.0, SVG Export Plug-In . SVG Version: 6.00 Build 0)  -->
<svg version="1.1" id="Capa_1" xmlns="http://www.w3.org/2000/svg" xmlns:xlink="http://www.w3.org/1999/xlink" x="0px" y="0px"
	 viewBox="0 0 512.016 512.016" style="enable-background:new 0 0 512.016 512.016;" xml:space="preserve">
<circle style="fill:#FFD93B;" cx="256" cy="256.008" r="256"/>
<path style="fill:#F4C534;" d="M512,256.008c0,141.44-114.64,256-256,256c-80.48,0-152.32-37.12-199.28-95.28
	c43.92,35.52,99.84,56.72,160.72,56.72c141.36,0,256-114.56,256-256c0-60.88-21.2-116.8-56.72-160.72
	C474.8,103.688,512,175.528,512,256.008z"/>
<path id="SVGCleanerId_0" style="fill:#3E4347;" d="M158.352,384.552c23.04-51.488,59.52-52.048,99.68-62.864
	c40.32-10.928,76.8,30.08,99.84,51.248c7.136,4.992,0.384,18.544-12.832,24.752c-57.952,22.352-115.904-19.504-173.856,8.576
	C157.968,414.008,151.216,402.264,158.352,384.552z"/>
<g>
	<path id="SVGCleanerId_0_1_" style="fill:#3E4347;" d="M158.352,384.552c23.04-51.488,59.52-52.048,99.68-62.864
		c40.32-10.928,76.8,30.08,99.84,51.248c7.136,4.992,0.384,18.544-12.832,24.752c-57.952,22.352-115.904-19.504-173.856,8.576
		C157.968,414.008,151.216,402.264,158.352,384.552z"/>
</g>
<path style="fill:#E24B4B;" d="M314.496,404.184c-1.232-10.448-6.336-25.712-11.904-32.72c-6.992-8.784-20.064-13.008-31.024-7.712
	c-4.192,2.096-8.736,3.584-13.552,4.304c-4.928,0.688-9.776,0.48-14.416-0.624c-17.312-4.432-34.4,3.52-38.288,22.768
	c-0.464,2.192-0.544,4.464-0.752,6.72C241.2,393.016,277.856,406.664,314.496,404.184z"/>
<g style="opacity:0.2;">
	
		<ellipse transform="matrix(-0.9162 -0.4008 0.4008 -0.9162 398.5494 838.7022)" style="fill:#FFFFFF;" cx="286.986" cy="377.671" rx="9.312" ry="6.112"/>
</g>
<g>
	<path style="fill:#45CBEA;" d="M479.536,483.016c1.968,1.152,3.104,2.384,3.104,3.6c0,2.256-3.472,4.304-9.472,6.048
		c10.704,2,17.264,4.752,17.264,7.904c0,6.304-27.776,11.44-61.936,11.44c-24.4,0-45.504-2.64-55.552-6.496c0,0,0,0-0.096,0
		c-1.968,0.064-4.128,0.064-6.192,0.064c-34.256,0-61.936-5.136-61.936-11.44c0-3.344,7.792-6.368,20.176-8.416
		c-10.976-2.048-17.824-4.88-17.824-8.032c0-6.368,27.68-11.44,61.84-11.44c9.76,0,18.96,0.384,27.12,1.152
		c10.512-3.536,30.784-5.92,54.048-5.92c34.16,0,61.936,5.152,61.936,11.44C512,477.224,498.864,481.016,479.536,483.016z"/>
	<path style="fill:#45CBEA;" d="M445.232,490.84c10.304-1.76,17.632-10.944,16.896-21.376
		c-3.424-48.784-11.296-98.768-29.408-143.552c-15.184-41.168-35.632-80.944-63.632-119.04c-6.576,5.04-14.704,8.544-24.304,9.952
		c18.944,41.392,29.952,81.952,35.68,122.592c5.04,28.496,6.48,70.944-1.376,126.88c-1.264,9.008,3.776,17.904,12.256,21.184
		C405.568,492.952,423.072,494.616,445.232,490.84z"/>
</g>
<g style="opacity:0.2;">
	<path style="fill:#FFFFFF;" d="M394.016,334.552c-6.928-35.728-23.584-83.04-43.056-118.992c-0.224,0.064-0.448,0.128-0.688,0.176
		c18.304,36.672,30.96,80.432,38.992,119.792c10.704,47.536,10.976,96.352,6.672,145.952
		C404.32,412.584,400.496,363.208,394.016,334.552z"/>
</g>
<g style="opacity:0.2;">
	<path style="fill:#FFFFFF;" d="M407.76,332.344c-13.072-49.008-33.376-91.808-49.792-119.136c-0.112,0.048-0.224,0.08-0.336,0.128
		c16.448,28.416,35.872,71.936,47.792,119.616c14.672,51.408,14.8,102.128,12.256,150.256c-0.384,4.912,4.448,5.296,4.832,0.384
		C424.32,434.632,421.888,379.048,407.76,332.344z"/>
</g>
<g style="opacity:0.2;">
	<path style="fill:#FFFFFF;" d="M422.848,329.848c-12.432-40.176-32.288-84.288-56.672-121.008
		c-1.232,0.816-2.528,1.584-3.856,2.288c24.608,35.776,45.104,79.248,58.24,119.488c20.72,56.048,22.64,111.904,23.68,154.704
		C443.776,433.672,441.744,384.776,422.848,329.848z"/>
</g>
<path style="fill:#3E4347;" d="M340.928,225.304c-18.224,0-36.432-7.216-51.296-21.648c-4.224-4.112-4.32-10.848-0.224-15.088
	c4.096-4.224,10.864-4.32,15.088-0.224c21.44,20.832,51.408,20.832,72.864,0c4.224-4.112,10.976-4,15.088,0.224
	s4,10.976-0.224,15.088C377.36,218.088,359.152,225.304,340.928,225.304z"/>
<g>
	<path style="fill:#45CBEA;" d="M32.464,483.016c-1.968,1.152-3.088,2.384-3.088,3.6c0,2.256,3.472,4.304,9.472,6.048
		c-10.688,2-17.264,4.752-17.264,7.904c0,6.288,27.776,11.44,61.936,11.44c24.4,0,45.504-2.64,55.552-6.496c0,0,0,0,0.096,0
		c1.968,0.064,4.128,0.064,6.192,0.064c34.256,0,61.936-5.136,61.936-11.44c0-3.344-7.792-6.368-20.176-8.416
		c10.976-2.048,17.824-4.88,17.824-8.032c0-6.368-27.68-11.44-61.84-11.44c-9.76,0-18.96,0.384-27.12,1.152
		c-10.512-3.536-30.784-5.92-54.048-5.92C27.776,461.464,0,466.616,0,472.92C0,477.224,13.136,481.016,32.464,483.016z"/>
	<path style="fill:#45CBEA;" d="M67.36,486.776c-10.16-1.728-17.376-10.784-16.656-21.072c3.376-48.08,11.136-97.36,28.992-141.504
		c14.96-40.576,35.12-79.792,62.736-117.344c6.48,4.96,14.48,8.416,23.952,9.824c-18.672,40.8-29.52,80.784-35.168,120.848
		c-4.96,28.096-6.384,69.92,1.36,125.056c1.248,8.88-3.728,17.648-12.08,20.88C106.464,488.872,89.216,490.504,67.36,486.776z"/>
</g>
<g style="opacity:0.2;">
	<path style="fill:#FFFFFF;" d="M117.84,332.728c6.816-35.216,23.248-81.856,42.432-117.296c0.224,0.064,0.448,0.128,0.672,0.176
		c-18.032,36.144-30.528,79.28-38.432,118.08c-10.56,46.864-10.816,94.976-6.576,143.872
		C107.696,409.656,111.472,360.984,117.84,332.728z"/>
</g>
<g style="opacity:0.2;">
	<path style="fill:#FFFFFF;" d="M104.304,330.552c12.88-48.304,32.912-90.496,49.088-117.424c0.112,0.048,0.224,0.08,0.336,0.128
		c-16.224,28.016-35.36,70.912-47.104,117.904c-14.464,50.672-14.576,100.672-12.08,148.112c0.288,3.584-4.48,3.952-4.768,0.384
		C87.984,431.384,90.384,376.6,104.304,330.552z"/>
</g>
<g style="opacity:0.2;">
	<path style="fill:#FFFFFF;" d="M89.424,328.088c12.256-39.6,31.824-83.072,55.872-119.28c1.216,0.8,2.48,1.552,3.808,2.256
		c-24.256,35.28-44.448,78.112-57.408,117.792c-20.432,55.232-22.32,110.304-23.344,152.496
		C68.8,430.44,70.8,382.232,89.424,328.088z"/>
</g>
<path style="fill:#3E4347;" d="M171.072,225.304c-18.224,0-36.432-7.216-51.296-21.648c-4.224-4.112-4.32-10.848-0.224-15.088
	c4.096-4.224,10.848-4.32,15.088-0.224c21.44,20.832,51.408,20.832,72.864,0c4.224-4.112,10.976-4,15.088,0.224
	c4.096,4.224,4,10.976-0.224,15.088C207.504,218.088,189.28,225.304,171.072,225.304z"/>
<g>
	<path style="fill:#E9B02C;" d="M296.016,104.52c-2.208-5.456,0.416-11.68,5.888-13.888c5.456-2.208,11.68,0.416,13.888,5.872
		c20.816,51.376,75.392,43.536,77.68,43.184c5.76-0.88,11.264,3.088,12.176,8.912c0.896,5.824-3.088,11.264-8.912,12.176
		C365.168,165.64,315.936,153.688,296.016,104.52z"/>
	<path style="fill:#E9B02C;" d="M115.264,160.776c-5.824-0.896-9.808-6.352-8.912-12.176c0.912-5.808,6.352-9.808,12.16-8.912
		c2.432,0.352,57.056,7.792,77.712-43.184c2.224-5.456,8.432-8.08,13.888-5.872s8.096,8.432,5.872,13.888
		C197.408,150.344,151.072,166.296,115.264,160.776z"/>
</g>
<path style="fill:#45CBEA;" d="M451.072,228.888c7.424,7.36,7.488,19.344,0.128,26.784c-7.36,7.424-19.344,7.488-26.784,0.128
	s-14.112-40.608-14.112-40.608S443.632,221.528,451.072,228.888z"/>
<g style="opacity:0.2;">
	
		<ellipse transform="matrix(-0.1858 -0.9826 0.9826 -0.1858 292.8773 725.6349)" style="fill:#FFFFFF;" cx="447.08" cy="241.474" rx="5.92" ry="3.744"/>
</g>
<path style="fill:#45CBEA;" d="M482.08,301.176c3.248,9.936-2.176,20.64-12.112,23.888c-9.936,3.248-20.64-2.176-23.888-12.112
	c-3.248-9.936,6-42.576,6-42.576S478.816,291.24,482.08,301.176z"/>
<g style="opacity:0.2;">
	
		<ellipse transform="matrix(-0.9591 -0.2832 0.2832 -0.9591 838.3405 742.1682)" style="fill:#FFFFFF;" cx="472.812" cy="310.492" rx="3.744" ry="5.92"/>
</g>
<path style="fill:#45CBEA;" d="M68.88,229.144c-6.608,8.112-5.376,20.032,2.736,26.64s20.032,5.376,26.64-2.736
	s9.68-41.888,9.68-41.888S75.488,221.032,68.88,229.144z"/>
<g style="opacity:0.2;">
	
		<ellipse transform="matrix(-0.9968 -0.0799 0.0799 -0.9968 128.6875 487.595)" style="fill:#FFFFFF;" cx="74.099" cy="241.223" rx="3.728" ry="5.92"/>
</g>
<path style="fill:#45CBEA;" d="M25.616,327.352c-1.2,10.384,6.24,19.792,16.64,20.992c10.384,1.2,19.792-6.24,20.992-16.64
	c1.2-10.384-14.368-40.512-14.368-40.512S26.816,316.952,25.616,327.352z"/>
<g style="opacity:0.2;">
	
		<ellipse transform="matrix(-0.4691 -0.8832 0.8832 -0.4691 -241.835 523.9981)" style="fill:#FFFFFF;" cx="36.587" cy="334.69" rx="5.92" ry="3.744"/>
</g>
<g>
</g>
<g>
</g>
<g>
</g>
<g>
</g>
<g>
</g>
<g>
</g>
<g>
</g>
<g>
</g>
<g>
</g>
<g>
</g>
<g>
</g>
<g>
</g>
<g>
</g>
<g>
</g>
<g>
</g>
</svg>
