<?xml version="1.0" encoding="iso-8859-1"?>
<!-- Generator: Adobe Illustrator 19.0.0, SVG Export Plug-In . SVG Version: 6.00 Build 0)  -->
<svg version="1.1" id="Capa_1" xmlns="http://www.w3.org/2000/svg" xmlns:xlink="http://www.w3.org/1999/xlink" x="0px" y="0px"
	 viewBox="0 0 512 512" style="enable-background:new 0 0 512 512;" xml:space="preserve">
<circle style="fill:#FFD93B;" cx="256" cy="256" r="256"/>
<path style="fill:#F4C534;" d="M512,256c0,141.44-114.64,256-256,256c-80.48,0-152.32-37.12-199.28-95.28
	c43.92,35.52,99.84,56.72,160.72,56.72c141.36,0,256-114.56,256-256c0-60.88-21.2-116.8-56.72-160.72
	C474.8,103.68,512,175.52,512,256z"/>
<path style="fill:#E9B02C;" d="M399.28,168.528l-84.736-38.72c-5.36-2.448-7.712-8.784-5.264-14.144s8.768-7.712,14.128-5.264
	l84.736,38.72c5.36,2.448,7.712,8.784,5.264,14.144C410.944,168.64,404.592,170.96,399.28,168.528z"/>
<ellipse style="fill:#3E4347;" cx="337.92" cy="208.8" rx="42.352" ry="42.4"/>
<ellipse transform="matrix(-0.8713 -0.4907 0.4907 -0.8713 566.6083 528.6615)" style="fill:#5A5F63;" cx="352.619" cy="190.041" rx="11.632" ry="6.544"/>
<path style="fill:#E9B02C;" d="M98.592,163.248c-2.448-5.344-0.096-11.68,5.264-14.128l84.736-38.72
	c5.36-2.448,11.696-0.096,14.144,5.264s0.08,11.696-5.264,14.144l-84.736,38.72C107.408,170.96,101.056,168.64,98.592,163.248z"/>
<ellipse style="fill:#3E4347;" cx="174.032" cy="208.8" rx="42.352" ry="42.4"/>
<ellipse transform="matrix(-0.8713 -0.4907 0.4907 -0.8713 259.7192 448.3772)" style="fill:#5A5F63;" cx="188.648" cy="190.136" rx="11.632" ry="6.544"/>
<path style="fill:#3E4347;" d="M351.872,386.672c-0.24,0.128-0.416,0.336-0.592,0.544c-12.64,13.456-33.664,17.024-48.784,6.4
	s-38.192-9.104-54.448-3.328c-19.04,5.616-31.072,15.504-46.864,18.512c-15.04,2.944-30.208-4.416-38-17.648
	c-0.448-0.8-0.96-1.616-1.392-2.432c-12.384-20.944-1.696-48.112,21.76-54.512c23.84-6.448,45.536-16.16,72.976-20.16
	c29.984-5.152,68.112-2.352,92.976,19.584C365.088,347.504,366.064,371.504,351.872,386.672z"/>
<path style="fill:#E24B4B;" d="M304.976,351.392c-7.376-6.896-18-9.888-27.728-7.184c-7.28,2.032-15.424,2.736-24.432,1.728
	c-0.064,0-0.112-0.016-0.176-0.016c-15.104-1.712-30.624,4.496-37.472,18.064c-2.352,4.656-3.92,9.76-4.512,15.184
	c-0.992,8.864,0.896,17.376,4.64,25.072c9.936-4.272,19.696-10.096,32.752-13.952c16.256-5.776,39.328-7.296,54.448,3.328
	c4.944,3.472,10.528,5.28,16.24,5.872c0.8-2.624,1.52-5.296,1.84-8.112C322.256,376.128,316.048,361.744,304.976,351.392z"/>
<path style="fill:#45CBEA;" d="M424.448,296.032c3.44,12.528-3.936,25.488-16.464,28.928c-12.528,3.44-25.488-3.936-28.928-16.464
	c-3.456-12.544,10-52.496,10-52.496S421.008,283.504,424.448,296.032z"/>
<g style="opacity:0.2;">
	
		<ellipse transform="matrix(-0.9443 -0.3292 0.3292 -0.9443 700.589 732.7254)" style="fill:#FFFFFF;" cx="412.324" cy="307.054" rx="4.64" ry="7.344"/>
</g>
<path style="fill:#45CBEA;" d="M463.008,423.008c0,20.912-16.96,37.872-37.872,37.872c-20.912,0-37.872-16.96-37.872-37.872
	c0-20.912,37.872-77.184,37.872-77.184S463.008,402.096,463.008,423.008z"/>
<g style="opacity:0.2;">
	<path style="fill:#FFFFFF;" d="M445.712,439.28c-3.632,5.36-9.344,7.808-12.816,5.536c-3.344-2.272-3.136-8.512,0.512-14.016
		c3.632-5.36,9.344-7.808,12.816-5.52C449.568,427.536,449.488,433.792,445.712,439.28z"/>
</g>
<path style="fill:#45CBEA;" d="M87.552,296.032c-3.44,12.528,3.936,25.488,16.464,28.928s25.488-3.936,28.928-16.464
	c3.456-12.544-10-52.496-10-52.496S90.992,283.504,87.552,296.032z"/>
<g style="opacity:0.2;">
	
		<ellipse transform="matrix(-0.3292 -0.9443 0.9443 -0.3292 -157.4857 502.1965)" style="fill:#FFFFFF;" cx="99.639" cy="307.038" rx="7.344" ry="4.64"/>
</g>
<path style="fill:#45CBEA;" d="M48.992,423.008c0,20.912,16.96,37.872,37.872,37.872s37.872-16.96,37.872-37.872
	c0-20.912-37.872-77.184-37.872-77.184S48.992,402.096,48.992,423.008z"/>
<g style="opacity:0.2;">
	<path style="fill:#FFFFFF;" d="M66.288,439.28c3.632,5.36,9.328,7.808,12.816,5.536c3.344-2.272,3.136-8.512-0.512-14.016
		c-3.648-5.36-9.344-7.808-12.816-5.52C62.432,427.536,62.512,433.792,66.288,439.28z"/>
</g>
<g>
</g>
<g>
</g>
<g>
</g>
<g>
</g>
<g>
</g>
<g>
</g>
<g>
</g>
<g>
</g>
<g>
</g>
<g>
</g>
<g>
</g>
<g>
</g>
<g>
</g>
<g>
</g>
<g>
</g>
</svg>
