<?xml version="1.0" encoding="iso-8859-1"?>
<!-- Generator: Adobe Illustrator 19.0.0, SVG Export Plug-In . SVG Version: 6.00 Build 0)  -->
<svg version="1.1" id="Capa_1" xmlns="http://www.w3.org/2000/svg" xmlns:xlink="http://www.w3.org/1999/xlink" x="0px" y="0px"
	 viewBox="0 0 512 512" style="enable-background:new 0 0 512 512;" xml:space="preserve">
<circle style="fill:#FFD93B;" cx="256" cy="256" r="256"/>
<path style="fill:#F4C534;" d="M512,256c0,141.44-114.64,256-256,256c-80.48,0-152.32-37.12-199.28-95.28
	c43.92,35.52,99.84,56.72,160.72,56.72c141.36,0,256-114.56,256-256c0-60.88-21.2-116.8-56.72-160.72
	C474.8,103.68,512,175.52,512,256z"/>
<ellipse style="fill:#3E4347;" cx="342.24" cy="183.456" rx="40.8" ry="40.752"/>
<ellipse transform="matrix(-0.7151 -0.699 0.699 -0.7151 496.8509 539.2111)" style="fill:#5A5F63;" cx="358.306" cy="168.357" rx="10.512" ry="7.52"/>
<ellipse style="fill:#3E4347;" cx="169.76" cy="183.456" rx="40.8" ry="40.752"/>
<ellipse transform="matrix(-0.699 -0.7151 0.7151 -0.699 140.7037 395.9938)" style="fill:#5A5F63;" cx="153.688" cy="168.386" rx="7.52" ry="10.512"/>
<g>
	<path style="fill:#3E4347;" d="M372.048,346.848c0,4.912-3.952,8.752-8.752,8.752H148.688c-4.912,0-8.752-3.84-8.752-8.752
		c0-4.8,3.84-8.752,8.752-8.752h214.608C368.112,338.112,372.048,342.048,372.048,346.848z"/>
	<path style="fill:#3E4347;" d="M161.44,310.4L161.44,310.4c-5.808,0-10.512,4.704-10.512,10.512v25.952h21.008v-25.952
		C171.952,315.104,167.248,310.4,161.44,310.4z"/>
	<path style="fill:#3E4347;" d="M192.96,346.848h-21.008V372.8c0,5.808,4.704,10.512,10.512,10.512l0,0
		c5.808,0,10.512-4.704,10.512-10.512v-25.952H192.96z"/>
	<path style="fill:#3E4347;" d="M203.472,310.4L203.472,310.4c-5.808,0-10.512,4.704-10.512,10.512v25.952h21.008v-25.952
		C213.968,315.104,209.28,310.4,203.472,310.4z"/>
	<path style="fill:#3E4347;" d="M234.992,346.848h-21.008V372.8c0,5.808,4.704,10.512,10.512,10.512l0,0
		c5.808,0,10.512-4.704,10.512-10.512v-25.952H234.992z"/>
	<path style="fill:#3E4347;" d="M245.488,310.4L245.488,310.4c-5.808,0-10.512,4.704-10.512,10.512v25.952H256v-25.952
		C256,315.104,251.296,310.4,245.488,310.4z"/>
	<path style="fill:#3E4347;" d="M277.008,346.848H256V372.8c0,5.808,4.704,10.512,10.512,10.512l0,0
		c5.808,0,10.512-4.704,10.512-10.512v-25.952H277.008z"/>
	<path style="fill:#3E4347;" d="M287.52,310.4L287.52,310.4c-5.808,0-10.512,4.704-10.512,10.512v25.952h21.008v-25.952
		C298.032,315.104,293.328,310.4,287.52,310.4z"/>
	<path style="fill:#3E4347;" d="M319.04,346.848h-21.008V372.8c0,5.808,4.704,10.512,10.512,10.512l0,0
		c5.808,0,10.512-4.704,10.512-10.512v-25.952H319.04z"/>
	<path style="fill:#3E4347;" d="M329.552,310.4L329.552,310.4c-5.808,0-10.512,4.704-10.512,10.512v25.952h21.008v-25.952
		C340.048,315.104,335.344,310.4,329.552,310.4z"/>
</g>
<path style="fill:#5A5F63;" d="M392.08,395.424l-22.608-40.688c-4.272-7.616-13.568-11.024-21.84-7.872
	c-8.176,3.12-12.832,11.856-10.944,20.384l10.256,45.408c3.264,14.512,18.64,22.8,32.496,17.504
	c12.848-4.912,18.832-19.168,14.112-31.536C393.12,397.536,392.704,396.432,392.08,395.424z M376.16,421.6
	c-7.872,3.008-16.64-0.832-19.696-8.816l28.496-10.88C388.016,409.872,384.128,418.544,376.16,421.6z"/>
<g>
</g>
<g>
</g>
<g>
</g>
<g>
</g>
<g>
</g>
<g>
</g>
<g>
</g>
<g>
</g>
<g>
</g>
<g>
</g>
<g>
</g>
<g>
</g>
<g>
</g>
<g>
</g>
<g>
</g>
</svg>
