<?xml version="1.0" encoding="iso-8859-1"?>
<!-- Generator: Adobe Illustrator 19.0.0, SVG Export Plug-In . SVG Version: 6.00 Build 0)  -->
<svg version="1.1" id="Capa_1" xmlns="http://www.w3.org/2000/svg" xmlns:xlink="http://www.w3.org/1999/xlink" x="0px" y="0px"
	 viewBox="0 0 512 512" style="enable-background:new 0 0 512 512;" xml:space="preserve">
<circle style="fill:#FFD93B;" cx="256" cy="256" r="256"/>
<path style="fill:#F4C534;" d="M512,256c0,141.44-114.64,256-256,256c-80.48,0-152.32-37.12-199.28-95.28
	c43.92,35.52,99.84,56.72,160.72,56.72c141.36,0,256-114.56,256-256c0-60.88-21.2-116.8-56.72-160.72
	C474.8,103.68,512,175.52,512,256z"/>
<ellipse style="fill:#3E4347;" cx="342.24" cy="191.712" rx="40.8" ry="40.752"/>
<ellipse transform="matrix(-0.7151 -0.699 0.699 -0.7151 491.0445 553.3785)" style="fill:#5A5F63;" cx="358.29" cy="176.624" rx="10.512" ry="7.52"/>
<ellipse style="fill:#3E4347;" cx="169.76" cy="191.712" rx="40.8" ry="40.752"/>
<ellipse transform="matrix(-0.699 -0.7151 0.7151 -0.699 134.8027 409.9898)" style="fill:#5A5F63;" cx="153.683" cy="176.626" rx="7.52" ry="10.512"/>
<ellipse style="fill:#3E4347;" cx="256" cy="374.88" rx="65.584" ry="65.632"/>
<path style="fill:#E24B4B;" d="M256,440.528c17.568,0,33.504-6.96,45.28-18.224c-2.352-5.024-5.504-9.776-9.68-13.92
	c-3.248-3.248-6.832-5.952-10.64-8.112c-3.248-1.856-7.056-2.24-10.704-1.392c-7.296,1.712-14.592,2.112-21.872,1.184
	c-10.064-1.28-20.528,1.024-27.728,8.176c-0.048,0.048-0.096,0.096-0.144,0.144c-4.176,4.16-7.344,8.928-9.712,13.968
	C222.56,433.6,238.464,440.528,256,440.528z"/>
<path style="fill:#FFFFFF;" d="M256,358.432c24.08,0,45.616-2,60.048-9.92c-10.16-23.088-33.2-39.248-60.048-39.248
	s-49.888,16.16-60.032,39.248C210.4,356.448,231.92,358.432,256,358.432z"/>
<g style="opacity:0.25;">
	
		<ellipse transform="matrix(-0.8157 -0.5785 0.5785 -0.8157 268.3923 904.919)" style="fill:#FFFFFF;" cx="278.367" cy="409.699" rx="8.223" ry="5.088"/>
</g>
<g>
</g>
<g>
</g>
<g>
</g>
<g>
</g>
<g>
</g>
<g>
</g>
<g>
</g>
<g>
</g>
<g>
</g>
<g>
</g>
<g>
</g>
<g>
</g>
<g>
</g>
<g>
</g>
<g>
</g>
</svg>
