<?xml version="1.0" encoding="iso-8859-1"?>
<!-- Generator: Adobe Illustrator 19.0.0, SVG Export Plug-In . SVG Version: 6.00 Build 0)  -->
<svg version="1.1" id="Capa_1" xmlns="http://www.w3.org/2000/svg" xmlns:xlink="http://www.w3.org/1999/xlink" x="0px" y="0px"
	 viewBox="0 0 512 512" style="enable-background:new 0 0 512 512;" xml:space="preserve">
<circle style="fill:#FFD93B;" cx="256" cy="256" r="256"/>
<path style="fill:#F4C534;" d="M512,256c0,141.44-114.64,256-256,256c-80.48,0-152.32-37.12-199.28-95.28
	c43.92,35.52,99.84,56.72,160.72,56.72c141.36,0,256-114.56,256-256c0-60.88-21.2-116.8-56.72-160.72
	C474.8,103.68,512,175.52,512,256z"/>
<ellipse style="fill:#3E4347;" cx="342.24" cy="228.88" rx="40.8" ry="40.752"/>
<ellipse transform="matrix(-0.7152 -0.699 0.699 -0.7152 465.1324 617.2161)" style="fill:#5A5F63;" cx="358.33" cy="213.833" rx="10.513" ry="7.52"/>
<g>
	<path style="fill:#3E4347;" d="M305.856,125.952c-1.984-4.912,0.384-10.512,5.296-12.496c4.912-1.968,10.512,0.384,12.496,5.296
		c6.048,14.96,37.808,36.368,77.12,23.936c5.072-1.6,10.448,1.2,12.048,6.256s-1.216,10.448-6.256,12.048
		C359.056,176.016,315.856,150.736,305.856,125.952z"/>
	<ellipse style="fill:#3E4347;" cx="169.76" cy="228.88" rx="40.8" ry="40.752"/>
</g>
<ellipse transform="matrix(-0.699 -0.7151 0.7151 -0.699 108.2425 473.1523)" style="fill:#5A5F63;" cx="153.696" cy="213.797" rx="7.52" ry="10.512"/>
<path style="fill:#3E4347;" d="M105.456,160.992c-5.056-1.6-7.856-6.992-6.256-12.048s6.976-7.856,12.048-6.256
	c39.232,12.4,71.056-8.976,77.104-23.936c1.984-4.912,7.6-7.264,12.496-5.296c4.912,1.984,7.296,7.584,5.296,12.496
	C196.144,150.72,152.976,176.032,105.456,160.992z"/>
<path style="fill:#45CBEA;" d="M444.928,303.168c0,14.4-11.632,26.032-26.032,26.032c-14.4,0-26.032-11.632-26.032-26.032
	c0-14.288,26.032-55.632,26.032-55.632S444.928,288.88,444.928,303.168z"/>
<g style="opacity:0.2;">
	<path style="fill:#FFFFFF;" d="M433.712,315.44c-2.928,3.536-7.024,4.848-9.232,3.088c-2.192-1.856-1.648-6.08,1.184-9.632
		c2.912-3.44,7.008-4.736,9.216-2.992C437.072,307.76,436.528,311.984,433.712,315.44z"/>
</g>
<path style="fill:#45CBEA;" d="M438.992,437.312c0,19.552-15.792,35.344-35.344,35.344s-35.344-15.792-35.344-35.344
	c0-19.408,35.344-75.536,35.344-75.536S438.992,417.904,438.992,437.312z"/>
<g style="opacity:0.2;">
	<path style="fill:#FFFFFF;" d="M424.048,451.888c-3.648,5.056-9.072,7.2-12.224,5.024c-3.136-2.304-2.768-8.096,0.72-13.168
		c3.632-4.912,9.056-7.056,12.208-4.88C427.904,441.184,427.536,446.96,424.048,451.888z"/>
</g>
<path style="fill:#3E4347;" d="M347.376,404.448c-61.088-15.808-125.2-15.808-186.288,0.016c-7.088,1.84-14.272-3.44-13.84-10.704
	c1.632-45.168,45.792-88.784,107.04-88.64c61.104-0.144,105.28,43.456,106.912,88.624
	C361.744,401.024,354.448,406.288,347.376,404.448z"/>
<path style="fill:#E84D88;" d="M302.624,395.76c-0.112-5.344-1.088-10.544-3.04-15.408c-5.632-14.304-22.944-22.144-39.296-18.608
	c-6.288,1.344-13.024,2.208-20.416,2.48c-0.128,0-0.128,0-0.256,0.016c-17.008,0.576-31.856,11.776-33.52,27.168
	c-0.192,1.44-0.224,2.896-0.272,4.368C237.968,391.536,270.496,391.536,302.624,395.76z"/>
<path style="fill:#FFFFFF;" d="M343.328,346.592c-18.128-24.208-51.168-41.536-89.04-41.456
	c-37.712-0.08-70.608,17.008-88.816,40.976c20.832,2.688,51.712-1.984,90.016-1.856
	C291.216,344.288,321.968,348.704,343.328,346.592z"/>
<g>
</g>
<g>
</g>
<g>
</g>
<g>
</g>
<g>
</g>
<g>
</g>
<g>
</g>
<g>
</g>
<g>
</g>
<g>
</g>
<g>
</g>
<g>
</g>
<g>
</g>
<g>
</g>
<g>
</g>
</svg>
