<?xml version="1.0" encoding="iso-8859-1"?>
<!-- Generator: Adobe Illustrator 19.0.0, SVG Export Plug-In . SVG Version: 6.00 Build 0)  -->
<svg version="1.1" id="Capa_1" xmlns="http://www.w3.org/2000/svg" xmlns:xlink="http://www.w3.org/1999/xlink" x="0px" y="0px"
	 viewBox="0 0 512 512" style="enable-background:new 0 0 512 512;" xml:space="preserve">
<circle style="fill:#FFD93B;" cx="256" cy="256" r="256"/>
<path style="fill:#3E4347;" d="M351.952,401.056c-16.208,4.272-50.768-28.688-96-28.688c-44.688,0-79.68,32.96-95.888,28.688
	c-20.592-2.128,4.16-104.96,95.888-106.032C347.696,296.096,372.544,398.928,351.952,401.056z"/>
<path style="fill:#F4C534;" d="M512,256c0,141.44-114.64,256-256,256c-80.48,0-152.32-37.12-199.28-95.28
	c43.92,35.52,99.84,56.72,160.72,56.72c141.36,0,256-114.56,256-256c0-60.88-21.2-116.8-56.72-160.72
	C474.8,103.68,512,175.52,512,256z"/>
<g>
	<path style="fill:#3E4347;" d="M371.792,246.032c-7.296-7.472-34.64-31.072-80.432-21.136c-4.72,1.056-9.632-0.88-12.4-4.864
		c-2.768-3.968-2.88-9.216-0.272-13.312c24.88-39.04,71.808-59.424,125.52-54.576c6.608,0.608,11.472,6.432,10.864,13.04
		c-0.592,6.608-6.528,11.472-13.024,10.864c-33.2-3.024-63.056,5.232-84.384,22.592c27.488,1.104,52.864,11.744,71.312,30.608
		c4.624,4.736,4.544,12.336-0.192,16.976C384.032,250.864,376.448,250.784,371.792,246.032z"/>
	<path style="fill:#3E4347;" d="M123.216,246.224c-4.736-4.64-4.816-12.24-0.176-16.976c18.448-18.864,43.84-29.504,71.312-30.608
		c-21.328-17.36-51.136-25.616-84.4-22.592c-6.496,0.576-12.432-4.272-13.024-10.864c-0.608-6.608,4.256-12.432,10.864-13.04
		c53.744-4.848,100.656,15.52,125.536,54.576c2.608,4.096,2.496,9.344-0.288,13.312c-2.768,3.968-7.696,5.888-12.4,4.864
		c-45.712-9.968-73.136,13.664-80.464,21.136C135.616,250.736,128.016,250.896,123.216,246.224z"/>
</g>
<path style="fill:#FFFFFF;" d="M255.952,295.04c-34.384,0.4-59.344,15.088-76.048,33.424c0,0.016,0,0.032,0,0.048
	c0.192,7.504,2.528,12.752,6.224,13.472c12.08,4.224,36.08-19.92,71.952-19.92c36.16,0,59.872,24.16,71.952,19.92
	c2.88-0.56,4.896-3.936,5.76-8.944C319.152,312.672,293.12,295.472,255.952,295.04z"/>
<path style="fill:#E24B4B;" d="M255.952,372.368c23.072,0,43.36,8.576,59.856,16.416c-2.352-15.056-9.328-28.544-19.84-38.16
	c-8.88-8.016-21.024-10.32-31.712-5.984c-6.864,2.672-14.496,4.192-23.04,4.192c-2.368,0-4.608-0.128-6.864-0.384
	c-12.368-1.28-24.288,6.112-30.912,17.824c-3.904,6.848-6.416,14.592-7.616,22.752C212.48,381.12,232.912,372.368,255.952,372.368z"
	/>
<g style="opacity:0.2;">
	<path style="fill:#FFFFFF;" d="M290.304,360.224c-1.248,2.64-5.904,2.64-10.576,0.304c-4.512-2.176-7.152-6.224-5.904-8.704
		c1.248-2.64,6.064-2.64,10.576-0.464C288.896,353.712,291.552,357.744,290.304,360.224z"/>
</g>
<g>
</g>
<g>
</g>
<g>
</g>
<g>
</g>
<g>
</g>
<g>
</g>
<g>
</g>
<g>
</g>
<g>
</g>
<g>
</g>
<g>
</g>
<g>
</g>
<g>
</g>
<g>
</g>
<g>
</g>
</svg>
