<?xml version="1.0" encoding="iso-8859-1"?>
<!-- Generator: Adobe Illustrator 19.0.0, SVG Export Plug-In . SVG Version: 6.00 Build 0)  -->
<svg version="1.1" id="Capa_1" xmlns="http://www.w3.org/2000/svg" xmlns:xlink="http://www.w3.org/1999/xlink" x="0px" y="0px"
	 viewBox="0 0 512.016 512.016" style="enable-background:new 0 0 512.016 512.016;" xml:space="preserve">
<circle style="fill:#FFD93B;" cx="256.008" cy="239.888" r="239.888"/>
<path style="fill:#F4C534;" d="M495.848,239.856c0,55.28-18.704,106.304-50.032,146.656v110.24
	c0,11.488-12.304,18.864-22.304,13.456l-85.136-44.944c-25.584,9.52-53.472,14.592-82.352,14.592
	c-75.456,0-142.72-34.784-186.688-89.408c41.008,33.296,93.504,53.152,150.592,53.152c132.384,0,239.824-107.28,239.824-239.824
	c0-57.088-19.856-109.408-53.152-150.592C461.08,97.136,495.848,164.384,495.848,239.856z"/>
<path style="fill:#FFFFFF;" d="M235.24,192.272c0,39.648-32.096,71.6-71.76,71.6c-39.504,0-71.616-31.952-71.616-71.6
	c0-39.504,32.096-71.6,71.616-71.6C203.144,120.672,235.24,152.784,235.24,192.272z"/>
<path style="fill:#3E4347;" d="M198.424,192.272c0,19.296-15.632,34.784-34.944,34.784c-19.152,0-34.784-15.472-34.784-34.784
	c0-19.136,15.632-34.784,34.784-34.784C182.792,157.504,198.424,173.136,198.424,192.272z"/>
<g>
	<path style="fill:#FFFFFF;" d="M183.592,186.624c-2.464,2.464-7.808,1.232-11.776-2.736c-3.84-3.84-5.072-9.168-2.608-11.632
		s7.808-1.232,11.632,2.608C184.824,178.816,186.056,184.16,183.592,186.624z"/>
	<path style="fill:#FFFFFF;" d="M420.136,192.272c0,39.648-32.096,71.6-71.76,71.6c-39.504,0-71.616-31.952-71.616-71.6
		c0-39.504,32.096-71.6,71.616-71.6C388.024,120.672,420.136,152.784,420.136,192.272z"/>
</g>
<path style="fill:#3E4347;" d="M383.304,192.272c0,19.296-15.632,34.784-34.944,34.784c-19.152,0-34.784-15.472-34.784-34.784
	c0-19.136,15.632-34.784,34.784-34.784C367.672,157.504,383.304,173.136,383.304,192.272z"/>
<path style="fill:#FFFFFF;" d="M368.472,186.624c-2.464,2.464-7.808,1.232-11.776-2.736c-3.84-3.84-5.072-9.168-2.608-11.632
	s7.808-1.232,11.632,2.608C369.704,178.816,370.936,184.16,368.472,186.624z"/>
<path style="fill:#3E4347;" d="M374.76,330.928c-26.08,37.888-69.552,62.656-119.088,62.656c-49.04,0-92.192-24.272-118.432-61.68
	c-4.272-6.064,2.624-13.776,9.184-10.176c71.68,39.2,144.688,38.544,219.328-1.152C372.296,317.136,379.032,324.688,374.76,330.928z
	"/>
<g>
</g>
<g>
</g>
<g>
</g>
<g>
</g>
<g>
</g>
<g>
</g>
<g>
</g>
<g>
</g>
<g>
</g>
<g>
</g>
<g>
</g>
<g>
</g>
<g>
</g>
<g>
</g>
<g>
</g>
</svg>
