<?xml version="1.0" encoding="iso-8859-1"?>
<!-- Generator: Adobe Illustrator 19.0.0, SVG Export Plug-In . SVG Version: 6.00 Build 0)  -->
<svg version="1.1" id="Capa_1" xmlns="http://www.w3.org/2000/svg" xmlns:xlink="http://www.w3.org/1999/xlink" x="0px" y="0px"
	 viewBox="0 0 512 512" style="enable-background:new 0 0 512 512;" xml:space="preserve">
<circle style="fill:#FFD93B;" cx="256" cy="256" r="256"/>
<path style="fill:#F4C534;" d="M512,256c0,141.44-114.64,256-256,256c-80.48,0-152.32-37.12-199.28-95.28
	c43.92,35.52,99.84,56.72,160.72,56.72c141.36,0,256-114.56,256-256c0-60.88-21.2-116.8-56.72-160.72
	C474.8,103.68,512,175.52,512,256z"/>
<ellipse style="fill:#5A5F63;" cx="168.224" cy="203.6" rx="40" ry="62.448"/>
<path style="fill:#3E4347;" d="M199.248,243.248c-7.504,13.92-18.528,22.768-30.992,22.768c-22.144,0-40.032-27.92-40.032-62.432
	c0-14.464,3.168-27.824,8.496-38.4c-1.36,5.968-1.984,12.288-1.984,18.88c0,36.048,20.336,65.328,45.36,65.328
	C186.96,249.392,193.456,247.232,199.248,243.248z"/>
<ellipse transform="matrix(-0.3437 -0.9391 0.9391 -0.3437 84.0564 408.2642)" style="fill:#777B7E;" cx="184.692" cy="174.759" rx="12.4" ry="7.12"/>
<ellipse style="fill:#5A5F63;" cx="343.792" cy="203.6" rx="40" ry="62.448"/>
<path style="fill:#3E4347;" d="M374.8,243.248c-7.504,13.92-18.528,22.768-30.992,22.768c-22.144,0-40.032-27.92-40.032-62.432
	c0-14.464,3.168-27.824,8.496-38.4c-1.36,5.968-1.984,12.288-1.984,18.88c0,36.048,20.336,65.328,45.36,65.328
	C362.512,249.392,369.008,247.232,374.8,243.248z"/>
<ellipse transform="matrix(-0.3437 -0.9391 0.9391 -0.3437 319.9668 573.1241)" style="fill:#777B7E;" cx="360.256" cy="174.753" rx="12.4" ry="7.12"/>
<g>
</g>
<g>
</g>
<g>
</g>
<g>
</g>
<g>
</g>
<g>
</g>
<g>
</g>
<g>
</g>
<g>
</g>
<g>
</g>
<g>
</g>
<g>
</g>
<g>
</g>
<g>
</g>
<g>
</g>
</svg>
