<?xml version="1.0" encoding="iso-8859-1"?>
<!-- Generator: Adobe Illustrator 19.0.0, SVG Export Plug-In . SVG Version: 6.00 Build 0)  -->
<svg version="1.1" id="Capa_1" xmlns="http://www.w3.org/2000/svg" xmlns:xlink="http://www.w3.org/1999/xlink" x="0px" y="0px"
	 viewBox="0 0 512 512" style="enable-background:new 0 0 512 512;" xml:space="preserve">
<circle style="fill:#FFD93B;" cx="256" cy="256" r="256"/>
<path style="fill:#F4C534;" d="M512,256c0,141.44-114.64,256-256,256c-80.48,0-152.32-37.12-199.28-95.28
	c43.92,35.52,99.84,56.72,160.72,56.72c141.36,0,256-114.56,256-256c0-60.88-21.2-116.8-56.72-160.72
	C474.8,103.68,512,175.52,512,256z"/>
<path style="fill:#3E4347;" d="M348.816,349.952c-71.968-63.904-148.208-18.08-151.408-16.096
	c-4.976,3.088-11.568,1.552-14.672-3.44c-3.104-5.008-1.584-11.552,3.408-14.672c0.912-0.576,92.736-56.4,176.848,18.256
	c4.4,3.92,4.816,10.656,0.896,15.056S353.216,353.856,348.816,349.952z"/>
<path style="fill:#FFFFFF;" d="M122,336.128c0,0,0.448-42.256,29.248-46.896c30.208-4.88,14.976,66.528,14.976,66.528
	s63.504-85.04,89.776-74.656c15.664,6.192,7.152,37.872-36.144,75.536c13.2-5.28,41.6,1.264,33.2,26.88
	c0,0,34.624-2.24,20.944,25.104c0,0,20.448-1.264,12.416,20.336c-8.032,21.584-75.904,68.672-132.752,65.072
	S88.896,437.904,98.976,408.4C109.056,378.912,116.256,388.672,122,336.128z"/>
<g>
	
		<ellipse transform="matrix(-0.9178 -0.397 0.397 -0.9178 556.1833 495.875)" style="fill:#3E4347;" cx="329.417" cy="190.37" rx="41.135" ry="55.103"/>
	<path style="fill:#3E4347;" d="M374.912,130.368c-2.304-3.312-5.248-6.336-8.768-8.752c-21.392-15.216-54.304-5.664-73.296,21.2
		c-4.704,6.72-8.128,13.92-10.288,21.088c-0.88-12.96,3.232-27.712,12.512-40.832c17.616-24.8,46.896-34.304,65.392-21.248
		C369.344,108.096,374.192,118.48,374.912,130.368z"/>
</g>
<ellipse transform="matrix(-0.3396 -0.9406 0.9406 -0.3396 299.2784 523.9907)" style="fill:#5A5F63;" cx="333.595" cy="156.928" rx="7.712" ry="12.016"/>
<circle style="fill:#3E4347;" cx="174.096" cy="223.104" r="33.328"/>
<path style="fill:#5A5F63;" d="M187.232,217.456c-4,0-7.696-3.552-8.224-7.616c-0.528-3.696,1.888-6.496,5.28-6.496
	s6.944,2.784,8,6.496C193.424,213.84,191.232,217.392,187.232,217.456z"/>
<path style="fill:#3E4347;" d="M226.944,205.136c0,5.84-1.184,11.408-3.472,16.608c-0.64-27.088-28-48.896-61.584-48.896
	c-13.952,0-26.736,3.744-37.04,10.128c9.12-14.96,27.184-25.184,47.888-25.184C202.672,157.792,226.944,179.04,226.944,205.136z"/>
<path style="fill:#E9EFF4;" d="M256,448.976c-21.888,10.624-124,60.672-160.688-16.848c0.08,27.808,14.88,59.168,58.352,61.92
	c56.848,3.6,124.72-43.488,132.752-65.072c2.704-7.296,2.144-11.936,0.24-14.944C286.656,414.224,290.336,432.304,256,448.976z"/>
<g>
</g>
<g>
</g>
<g>
</g>
<g>
</g>
<g>
</g>
<g>
</g>
<g>
</g>
<g>
</g>
<g>
</g>
<g>
</g>
<g>
</g>
<g>
</g>
<g>
</g>
<g>
</g>
<g>
</g>
</svg>
