<?xml version="1.0" encoding="iso-8859-1"?>
<!-- Generator: Adobe Illustrator 19.0.0, SVG Export Plug-In . SVG Version: 6.00 Build 0)  -->
<svg version="1.1" id="Capa_1" xmlns="http://www.w3.org/2000/svg" xmlns:xlink="http://www.w3.org/1999/xlink" x="0px" y="0px"
	 viewBox="0 0 512 512" style="enable-background:new 0 0 512 512;" xml:space="preserve">
<circle style="fill:#FFD93B;" cx="256" cy="256" r="256"/>
<path style="fill:#E9B02C;" d="M512,256c0,141.44-114.64,256-256,256c-80.48,0-152.32-37.12-199.28-95.28
	c43.92,35.52,99.84,56.72,160.72,56.72c141.36,0,256-114.56,256-256c0-60.88-21.2-116.8-56.72-160.72
	C474.8,103.68,512,175.52,512,256z"/>
<path style="fill:#E24B4B;" d="M262.464,414.16c-12.352-45.12-41.808-79.168-67.008-76.704s-36.416,40.464-25.888,85.776
	L262.464,414.16z"/>
<g>
	<path style="fill:#FFFFFF;" d="M234.72,205.472c0,45.328-36.656,82.144-82.144,82.144c-45.328,0-82.144-36.816-82.144-82.144
		c0-45.472,36.816-82.288,82.144-82.288C198.064,123.184,234.72,160,234.72,205.472z"/>
	<path style="fill:#FFFFFF;" d="M441.616,205.472c0,45.328-36.656,82.144-82.144,82.144c-45.328,0-82.144-36.816-82.144-82.144
		c0-45.472,36.816-82.288,82.144-82.288C404.96,123.184,441.616,160,441.616,205.472z"/>
</g>
<g>
	<path style="fill:#3E4347;" d="M485.52,192.976h-33.168c-6.128-45.872-45.424-81.392-92.88-81.392
		c-35.12,0-65.76,19.472-81.792,48.176c-4.352,7.792-12.576,12.336-21.504,12.272c-0.048,0-0.112,0-0.16,0
		c-0.08,0-0.16,0-0.24,0.016c-8.896,0.064-17.088-4.496-21.408-12.256c-16.032-28.736-46.656-48.208-81.792-48.208
		c-47.456,0-86.656,35.52-92.8,81.392H26.48v24.832h33.584c5.76,42.848,40.592,77.328,84.448,81.04
		c55.504,4.704,102.896-39.552,101.712-95.36c0.944-4.672,4.88-8.24,9.808-8.24c5.024,0,9.712,3.632,9.712,10.224
		c0,54.096,46.096,97.664,101.104,93.44c44.016-3.376,79.504-37.792,85.232-81.104h33.456v-24.832H485.52z M152.592,276
		c-38.896,0-70.544-31.648-70.544-70.528c0-38.976,31.648-70.688,70.544-70.688s70.528,31.712,70.528,70.688
		C223.12,244.352,191.488,276,152.592,276z M359.488,276c-38.896,0-70.544-31.648-70.544-70.528
		c0-38.976,31.648-70.688,70.544-70.688s70.528,31.712,70.528,70.688C430.016,244.352,398.368,276,359.488,276z"/>
	<path style="fill:#3E4347;" d="M307.424,223.632c0-17.264,13.904-31.472,31.376-31.472c17.264,0,31.376,14.224,31.376,31.488
		c0,17.376-14.112,31.584-31.376,31.584C321.328,255.216,307.424,240.992,307.424,223.632z"/>
</g>
<ellipse transform="matrix(-0.7071 -0.7071 0.7071 -0.7071 393.8781 632.3398)" style="fill:#FFFFFF;" cx="327.901" cy="234.595" rx="10.352" ry="7.152"/>
<path style="fill:#3E4347;" d="M151.024,245.856c-12.208-12.208-12.432-32.096-0.08-44.464c12.208-12.208,32.256-12.128,44.464,0.08
	c12.288,12.288,12.368,32.336,0.16,44.544C183.2,258.368,163.312,258.128,151.024,245.856z"/>
<ellipse style="fill:#FFFFFF;" cx="173.248" cy="239.12" rx="10.352" ry="7.152"/>
<g>
	<path style="fill:#3E4347;" d="M381.6,399.072c-3.648,1.6-70.656,30.944-164.096,30.944c-26.576,0-55.184-2.48-84.96-8.464
		c-5.408-1.024-8.912-6.288-7.744-11.536c1.024-5.408,6.128-8.912,11.536-7.728c129.2,25.984,236.064-20.736,237.088-21.168
		c5.104-2.336,10.8,0,13.136,4.96C388.768,391.04,386.576,396.88,381.6,399.072z"/>
	<path style="fill:#3E4347;" d="M403.04,100.832c-35.008-27.28-73.552-35.344-95.136-37.632c-6.592-0.688-8.864-9.328-3.52-13.296
		c48.768-35.92,87.632,16.592,104.464,46.144C410.88,99.696,406.336,103.44,403.04,100.832z"/>
	<path style="fill:#3E4347;" d="M108.96,100.832c35.008-27.28,73.536-35.344,95.136-37.632c6.592-0.688,8.864-9.328,3.52-13.296
		c-48.752-35.92-87.632,16.592-104.448,46.16C101.12,99.696,105.664,103.44,108.96,100.832z"/>
</g>
<g>
</g>
<g>
</g>
<g>
</g>
<g>
</g>
<g>
</g>
<g>
</g>
<g>
</g>
<g>
</g>
<g>
</g>
<g>
</g>
<g>
</g>
<g>
</g>
<g>
</g>
<g>
</g>
<g>
</g>
</svg>
