<?xml version="1.0" encoding="iso-8859-1"?>
<!-- Generator: Adobe Illustrator 19.0.0, SVG Export Plug-In . SVG Version: 6.00 Build 0)  -->
<svg version="1.1" id="Capa_1" xmlns="http://www.w3.org/2000/svg" xmlns:xlink="http://www.w3.org/1999/xlink" x="0px" y="0px"
	 viewBox="0 0 511.998 511.998" style="enable-background:new 0 0 511.998 511.998;" xml:space="preserve">
<path style="fill:#FFD93B;" d="M417.982,279.803c16.368,131.344-94.096,241.616-225.376,225.072
	c-89.504-11.28-161.776-83.536-173.104-173.024C2.878,200.363,113.566,89.723,245.07,106.459
	C334.606,117.851,406.814,190.251,417.982,279.803z"/>
<path style="fill:#F4C534;" d="M418.238,329.275c-10.48,91.728-84.688,165.744-176.448,175.968
	c-72.368,8.064-138.16-22.352-179.44-73.472c39.904,32.272,92.448,49.488,149.04,43.232c92.08-10.16,166.512-84.592,176.672-176.672
	c6.256-56.592-10.96-109.12-43.232-149.04C396.014,190.667,426.542,256.683,418.238,329.275z"/>
<path style="fill:#FFD93B;" d="M20.702,292.907c-12.896-2.656-23.888,9.392-19.856,21.92
	c26.576,82.816,99.936,145.936,188.128,157.04c114.608,14.448,215.2-55.968,247.6-156.992c4.032-12.56-6.928-24.64-19.84-21.968
	C284.718,320.171,152.718,320.171,20.702,292.907z"/>
<path id="SVGCleanerId_0" style="fill:#3E4347;" d="M406.206,339.451c-35.152,70.192-106.96,115.504-187.44,115.504
	c-9.168,0-18.336-0.624-27.488-1.76c-69.056-8.656-128.928-52.096-160.064-113.744c-5.776-11.424,3.888-24.48,16.576-22.208
	c56.752,9.92,114.24,14.944,170.992,14.944c56.624,0,114.128-5.024,170.992-14.944C402.446,314.971,411.982,328.027,406.206,339.451
	z"/>
<g>
	<path id="SVGCleanerId_0_1_" style="fill:#3E4347;" d="M406.206,339.451c-35.152,70.192-106.96,115.504-187.44,115.504
		c-9.168,0-18.336-0.624-27.488-1.76c-69.056-8.656-128.928-52.096-160.064-113.744c-5.776-11.424,3.888-24.48,16.576-22.208
		c56.752,9.92,114.24,14.944,170.992,14.944c56.624,0,114.128-5.024,170.992-14.944
		C402.446,314.971,411.982,328.027,406.206,339.451z"/>
</g>
<g>
	<ellipse style="fill:#FFFFFF;" cx="148.558" cy="227.115" rx="61.104" ry="61.152"/>
	<ellipse style="fill:#FFFFFF;" cx="288.958" cy="227.115" rx="61.104" ry="61.152"/>
</g>
<ellipse style="fill:#3E4347;" cx="307.038" cy="209.115" rx="19.536" ry="19.584"/>
<ellipse transform="matrix(-0.7072 -0.707 0.707 -0.7072 393.8962 566.626)" style="fill:#FFFFFF;" cx="314.277" cy="201.751" rx="5.472" ry="3.568"/>
<ellipse style="fill:#3E4347;" cx="168.094" cy="209.115" rx="19.536" ry="19.584"/>
<ellipse transform="matrix(-0.7072 -0.707 0.707 -0.7072 156.8116 468.4258)" style="fill:#FFFFFF;" cx="175.401" cy="201.743" rx="5.472" ry="3.568"/>
<g>
	<path style="fill:#3E4347;" d="M341.854,165.547c-20.288-33.648-49.296-44.64-70.064-47.92c-4.272-0.672-7.2-4.688-6.528-8.976
		c0.672-4.272,4.736-7.264,8.976-6.528c24.064,3.808,57.648,16.496,81.056,55.328C360.654,166.331,347.198,174.443,341.854,165.547z
		"/>
	<path style="fill:#3E4347;" d="M95.582,165.547c20.288-33.648,49.296-44.64,70.064-47.92c4.272-0.672,7.2-4.688,6.528-8.976
		c-0.672-4.272-4.736-7.264-8.976-6.528c-24.064,3.808-57.648,16.496-81.056,55.344C76.782,166.331,90.254,174.443,95.582,165.547z"
		/>
</g>
<g>
	<path style="fill:#FFFFFF;" d="M218.766,332.171c-47.792,0-96.112-3.776-144.08-10.832l4.448,27.664
		c1.184,7.52,7.264,13.008,14.896,14c85.968,11.264,168.992,12.08,248.64-0.144c6.16-0.944,11.504-4.864,13.712-10.768l7.056-30.864
		C315.198,328.363,266.686,332.171,218.766,332.171z"/>
	<path style="fill:#FFFFFF;" d="M329.678,423.387c-30.56-4.192-69.04-5.376-110.96-5.376c-41.904,0-80.368,1.184-110.912,5.36
		c25.008,15.632,53.376,26.032,83.488,29.808c9.168,1.136,18.336,1.76,27.488,1.76C259.086,454.955,297.23,443.563,329.678,423.387z
		"/>
</g>
<g>
	<path style="fill:#E9EFF4;" d="M511.998,75.691c0,23.552-12.752,44.304-32.528,57.056c-13.456,8.832-29.44,12.192-45.424,11.36
		c-2.672,13.168-14.16,22.992-28.032,22.992c-21.424,0-34.832-22.944-25.52-40.928c-0.272-0.144-0.416-0.272-0.704-0.432v-0.144
		c-14.304-12.752-23.264-30.416-23.264-49.904c0-38.832,34.912-70.224,77.664-70.224C477.23,5.467,511.998,36.859,511.998,75.691z"
		/>
	<path style="fill:#E9EFF4;" d="M385.55,204.107c-19.376,0-19.184-29.152,0-29.152C404.638,174.939,404.942,204.107,385.55,204.107z
		"/>
</g>
<path style="fill:#E24B4B;" d="M477.646,63.915c-0.272,19.92-30.624,42.496-40.768,49.456c-1.824,1.28-4.48,1.28-6.304,0
	c-9.968-7.216-39.856-30.432-39.664-50.368c0.272-25.312,35.824-30.432,43.504-6.672c3.008-8.864,11.52-14.992,21.2-14.992
	C467.95,41.515,477.822,51.659,477.646,63.915z"/>
<g>
</g>
<g>
</g>
<g>
</g>
<g>
</g>
<g>
</g>
<g>
</g>
<g>
</g>
<g>
</g>
<g>
</g>
<g>
</g>
<g>
</g>
<g>
</g>
<g>
</g>
<g>
</g>
<g>
</g>
</svg>
