<?xml version="1.0" encoding="iso-8859-1"?>
<!-- Generator: Adobe Illustrator 19.0.0, SVG Export Plug-In . SVG Version: 6.00 Build 0)  -->
<svg version="1.1" id="Capa_1" xmlns="http://www.w3.org/2000/svg" xmlns:xlink="http://www.w3.org/1999/xlink" x="0px" y="0px"
	 viewBox="0 0 512 512" style="enable-background:new 0 0 512 512;" xml:space="preserve">
<path style="fill:#FFD93B;" d="M512,256c0,141.44-114.72,256-256,256C114.56,512,0,397.44,0,256C0,114.72,114.56,0,256,0
	C397.28,0,512,114.72,512,256z"/>
<g>
	<path style="fill:#F4C534;" d="M512,256c0,141.44-114.72,256-256,256c-80.64,0-152.64-37.28-199.36-95.52
		c43.84,35.2,99.36,56.16,160,56.16c141.28,0,256-114.56,256-256c0-60.64-20.96-116.16-56.32-160C474.72,103.52,512,175.36,512,256z
		"/>
	<path style="fill:#F4C534;" d="M102.56,170.576c-5.312-3.6-6.672-10.816-3.088-16.128c26.16-38.432,78.688-48.448,117.104-22.336
		c5.296,3.6,6.672,10.816,3.072,16.112c-3.616,5.296-10.848,6.672-16.112,3.088c-27.808-18.912-65.92-11.664-84.88,16.192
		C115.024,172.832,107.792,174.144,102.56,170.576z"/>
	<path style="fill:#F4C534;" d="M392.384,169.072c-8.64-13.84-22.16-23.488-38.064-27.168c-15.904-3.664-32.288-0.928-46.112,7.712
		c-5.408,3.392-12.592,1.744-15.984-3.696s-1.744-12.592,3.696-15.984c19.072-11.904,41.664-15.712,63.632-10.64
		c21.936,5.072,40.576,18.384,52.512,37.488c3.392,5.424,1.744,12.592-3.696,15.984C402.88,176.192,395.76,174.464,392.384,169.072z
		"/>
</g>
<path style="fill:#3E4347;" d="M380.096,364.416c6.272-15.216-4.864-33.28-23.776-35.952c-0.128-0.016-0.272-0.032-0.416-0.048
	c-24.96-3.072-26.24,9.616-50.736,7.728c-24.448-1.376-24.048-14.112-49.152-14.368c-25.104,0.256-24.704,12.992-49.232,14.352
	c-24.512,1.872-25.776-10.8-50.752-7.744c-0.16,0.032-0.32,0.048-0.48,0.064c-18.912,2.704-30.048,20.72-23.76,35.952
	c21.424,50.16,71.344,81.968,124.144,82.224C308.784,446.384,358.672,414.592,380.096,364.416z"/>
<path style="fill:#E24B4B;" d="M318.72,430.72c-19.2,10.08-40.64,15.68-62.72,15.84c-22.08-0.16-43.52-5.76-62.72-15.84
	c0.32-14.08,5.44-27.04,13.76-37.28c8.64-10.56,22.4-15.04,36-14.08c5.824,0.736,16.016-0.16,24.48-3.36
	c5.12-1.92,10.56-2.08,15.36,0.16C303.52,386.08,318.08,406.72,318.72,430.72z"/>
<g>
	<path style="fill:#3E4347;" d="M137.2,285.424c-18.064-8.448-30.784-25.968-34.032-46.848c-6.32-40.48,22.448-67.392,54.144-73.024
		c34.528-6.208,76.448,11.04,86.912,63.328c0.64,3.248-1.472,6.416-4.72,7.056c-3.232,0.656-6.4-1.456-7.056-4.704
		c-8.864-44.368-44.016-58.992-73.008-53.872c-25.152,4.48-49.776,24.96-44.4,59.36c2.64,16.928,12.848,31.072,27.28,37.824
		c14.704,6.88,31.536,5.44,47.328-4.032c16.56-11.04,23.36-26.8,18.416-43.072c-5.056-16.752-21.472-29.392-38.144-29.392
		c-12.896,0-25.392,10.512-29.712,24.992c-4.096,13.632,3.904,24.24,11.984,29.168c7.856,4.8,20.576,6.992,30.528-2.592
		c6.304-6.08,5.088-13.328,4.304-16.16c-1.568-5.472-5.536-9.648-10.096-10.624c-4.912-1.104-10.512,1.744-15.712,7.92
		c-2.144,2.544-5.92,2.848-8.464,0.72c-2.528-2.128-2.848-5.92-0.72-8.448c11.04-13.104,21.936-13.104,27.424-11.92
		c8.848,1.904,16.336,9.376,19.104,19.072c2.928,10.24,0.112,20.752-7.52,28.096c-12.24,11.776-29.92,13.424-45.088,4.192
		c-12.656-7.728-22.896-23.984-17.232-42.864c5.808-19.44,23.136-33.552,41.216-33.552c22.112,0,42.992,15.952,49.632,37.92
		c6.48,21.376-2.304,42.576-23.488,56.688C177.664,291.696,156.272,294.336,137.2,285.424z"/>
	<path style="fill:#3E4347;" d="M302.608,285.44c-18.064-8.448-30.8-25.968-34.048-46.848c-6.336-40.496,22.448-67.392,54.16-73.04
		c34.544-6.128,76.432,11.056,86.896,63.328c0.64,3.248-1.472,6.416-4.72,7.056c-3.216,0.656-6.4-1.456-7.056-4.704
		c-8.88-44.368-44.112-58.992-73.008-53.872c-25.152,4.48-49.776,24.96-44.416,59.36c2.656,16.928,12.864,31.072,27.296,37.824
		c14.72,6.864,31.52,5.424,47.312-4.048c16.56-11.04,23.36-26.8,18.416-43.072c-5.056-16.752-21.472-29.392-38.144-29.392
		c-12.88,0-25.376,10.512-29.728,25.008c-4.096,13.632,3.904,24.24,12,29.168c7.872,4.784,20.544,7.008,30.512-2.592
		c6.304-6.08,5.104-13.328,4.288-16.16c-1.568-5.472-5.52-9.648-10.08-10.624c-4.88-1.104-10.528,1.744-15.712,7.92
		c-2.144,2.544-5.904,2.848-8.464,0.72c-2.528-2.128-2.848-5.92-0.72-8.448c11.056-13.104,21.92-13.104,27.44-11.92
		c8.832,1.904,16.336,9.376,19.088,19.072c2.928,10.256,0.112,20.752-7.536,28.096c-12.24,11.808-29.984,13.424-45.072,4.192
		c-12.672-7.728-22.912-23.968-17.248-42.864c5.824-19.44,23.168-33.552,41.216-33.552c22.112,0,42.992,15.952,49.616,37.92
		c6.48,21.376-2.288,42.576-23.488,56.688C343.216,291.6,321.76,294.4,302.608,285.44z"/>
</g>
<g>
</g>
<g>
</g>
<g>
</g>
<g>
</g>
<g>
</g>
<g>
</g>
<g>
</g>
<g>
</g>
<g>
</g>
<g>
</g>
<g>
</g>
<g>
</g>
<g>
</g>
<g>
</g>
<g>
</g>
</svg>
