<?xml version="1.0" encoding="iso-8859-1"?>
<!-- Generator: Adobe Illustrator 19.0.0, SVG Export Plug-In . SVG Version: 6.00 Build 0)  -->
<svg version="1.1" id="Capa_1" xmlns="http://www.w3.org/2000/svg" xmlns:xlink="http://www.w3.org/1999/xlink" x="0px" y="0px"
	 viewBox="0 0 512 512" style="enable-background:new 0 0 512 512;" xml:space="preserve">
<circle style="fill:#FFD93B;" cx="256" cy="256" r="256"/>
<path style="fill:#F4C534;" d="M510.784,256c0,141.44-114.64,256-256,256c-80.48,0-152.32-37.12-199.28-95.28
	c43.92,35.52,99.84,56.72,160.72,56.72c141.36,0,256-114.56,256-256c0-60.88-21.2-116.8-56.72-160.72
	C473.584,103.68,510.784,175.52,510.784,256z"/>
<path style="fill:#4E99D2;" d="M235.408,208.528c0,43.808-35.424,79.376-79.376,79.376c-43.792,0-79.376-35.584-79.376-79.376
	c0-43.952,35.584-79.52,79.376-79.52C199.984,129.008,235.408,164.576,235.408,208.528z"/>
<g>
	<path style="fill:#65B1EF;" d="M189.312,136.528L84.144,241.696c5.28,11.408,13.248,21.216,23.008,28.912l111.04-111.04
		C210.512,149.792,200.736,141.824,189.312,136.528z"/>
	<path style="fill:#65B1EF;" d="M167.424,130.16l-89.632,89.616c0.704,4.96,1.872,9.728,3.456,14.352l100.496-100.496
		C177.152,132.048,172.384,130.88,167.424,130.16z"/>
</g>
<path style="fill:#4E99D2;" d="M435.344,208.528c0,43.808-35.424,79.376-79.376,79.376c-43.792,0-79.376-35.584-79.376-79.376
	c0-43.952,35.584-79.52,79.376-79.52C399.92,129.008,435.344,164.576,435.344,208.528z"/>
<g>
	<path style="fill:#65B1EF;" d="M387.392,135.52l-104.32,104.336c4.992,11.6,12.88,21.52,22.448,29.472l111.312-111.312
		C408.896,148.416,398.992,140.528,387.392,135.52z"/>
	<path style="fill:#65B1EF;" d="M364.768,129.888l-87.296,87.296c0.56,5.088,1.568,10,3.056,14.752l98.992-98.992
		C374.752,131.472,369.856,130.464,364.768,129.888z"/>
</g>
<g>
	<path style="fill:#3E4347;" d="M485.232,196.448h-39.504c-5.92-44.336-43.888-78.64-89.76-78.64
		c-33.952,0-63.552,18.816-79.04,46.56c-4.208,7.536-12.16,11.92-20.784,11.872c-0.048,0-0.096,0-0.16,0c-0.08,0-0.144,0-0.224,0
		c-8.592,0.064-16.512-4.336-20.688-11.84c-15.488-27.76-45.088-46.592-79.04-46.592c-45.856,0-83.744,34.336-89.68,78.64H26.72v24
		h39.904c5.568,41.408,39.216,74.736,81.6,78.32c53.632,4.544,99.44-38.224,98.288-92.144c0.912-4.512,4.72-7.968,9.472-7.968
		c4.864,0,9.376,3.504,9.376,9.872c0,52.288,44.56,94.384,97.696,90.304c42.528-3.264,76.832-36.528,82.368-78.384H485.2v-24
		H485.232z M156.048,276.688c-37.584,0-68.176-30.592-68.176-68.16c0-37.664,30.576-68.304,68.176-68.304
		c37.584,0,68.16,30.64,68.16,68.304C224.192,246.112,193.616,276.688,156.048,276.688z M355.968,276.688
		c-37.584,0-68.176-30.592-68.176-68.16c0-37.664,30.576-68.304,68.176-68.304c37.584,0,68.16,30.64,68.16,68.304
		C424.128,246.112,393.552,276.688,355.968,276.688z"/>
	<path style="fill:#3E4347;" d="M358.176,396.8c0.24,2.32-0.608,4.576-2.432,6.096c-25.856,22.032-67.808,46.528-123.888,44.048
		C127.04,441.68,93.76,336.08,124.144,326.624c26.88-12.608,67.68,42.592,130.528,66.56c37.04,10.56,69.344,7.168,93.888-2.192
		C352.96,389.264,357.696,392.144,358.176,396.8z"/>
	<path style="fill:#3E4347;" d="M362.08,77.024c-17.008-26.416-48.208-30.912-65.296-31.216c-5.952-0.112-10.704-5.04-10.592-11.008
		c0.112-5.888,4.928-10.592,10.8-10.592c0.064,0,0.128,0,0.208,0c21.376,0.384,60.608,6.272,83.056,41.12
		c3.232,5.008,1.776,11.696-3.232,14.928C372.08,83.44,365.344,82.08,362.08,77.024z"/>
	<path style="fill:#3E4347;" d="M201.344,103.072c-25.008-19.04-55.856-12.592-72.032-7.088c-5.664,1.92-11.792-1.056-13.712-6.736
		c-1.936-5.632,1.088-11.776,6.72-13.696c20.24-6.928,59.12-14.752,92.096,10.352c4.752,3.616,5.664,10.384,2.048,15.136
		C212.848,105.76,206.08,106.672,201.344,103.072z"/>
</g>
<g>
</g>
<g>
</g>
<g>
</g>
<g>
</g>
<g>
</g>
<g>
</g>
<g>
</g>
<g>
</g>
<g>
</g>
<g>
</g>
<g>
</g>
<g>
</g>
<g>
</g>
<g>
</g>
<g>
</g>
</svg>
