<?xml version="1.0" encoding="iso-8859-1"?>
<!-- Generator: Adobe Illustrator 19.0.0, SVG Export Plug-In . SVG Version: 6.00 Build 0)  -->
<svg version="1.1" id="Capa_1" xmlns="http://www.w3.org/2000/svg" xmlns:xlink="http://www.w3.org/1999/xlink" x="0px" y="0px"
	 viewBox="0 0 512 512" style="enable-background:new 0 0 512 512;" xml:space="preserve">
<circle style="fill:#FFD93B;" cx="256" cy="256" r="256"/>
<path style="fill:#F4C534;" d="M512,256c0,141.44-114.64,256-256,256c-80.48,0-152.32-37.12-199.28-95.28
	c43.92,35.52,99.84,56.72,160.72,56.72c141.36,0,256-114.56,256-256c0-60.88-21.2-116.8-56.72-160.72
	C474.8,103.68,512,175.52,512,256z"/>
<path style="fill:#3E4347;" d="M208.56,205.776c0,29.536-16.8,53.344-37.552,53.344c-20.848,0-37.648-23.808-37.648-53.344
	c0-29.392,16.8-53.2,37.648-53.2C191.76,152.576,208.56,176.368,208.56,205.776z"/>
<ellipse transform="matrix(-0.6776 -0.7355 0.7355 -0.6776 172.3439 436.34)" style="fill:#5A5F63;" cx="181.82" cy="180.391" rx="8.688" ry="6.608"/>
<path style="fill:#3E4347;" d="M378.64,205.776c0,29.536-16.8,53.344-37.552,53.344c-20.848,0-37.648-23.808-37.648-53.344
	c0-29.392,16.8-53.2,37.648-53.2C361.84,152.576,378.64,176.368,378.64,205.776z"/>
<ellipse transform="matrix(-0.6776 -0.7354 0.7354 -0.6776 457.6678 561.4101)" style="fill:#5A5F63;" cx="351.887" cy="180.391" rx="8.672" ry="6.608"/>
<path style="fill:#3E4347;" d="M128.304,398.912c0.752-58.08,50.368-114.72,127.632-114.56
	c77.392-0.176,127.008,56.48,127.744,114.56c0.144,6.048-6.24,11.584-12.064,10.688c-75.856-11.536-155.392-11.536-231.248,0
	C134.544,410.496,128.16,404.96,128.304,398.912z"/>
<path style="fill:#FFFFFF;" d="M255.952,308.832c55.968-0.16,98.912,36.192,108.112,81.504c-71.12-9.808-145.008-9.808-216.112,0
	C157.12,345.024,200.032,308.672,255.952,308.832z"/>
<g>
	<path style="fill:#3E4347;" d="M185.92,323.328l12.768,71.552l-1.664,0.192c-1.76,0.096-3.6,0.288-5.44,0.464l-1.472,0.096
		l-14.096-71.328l1.68-0.112c2.272-0.224,4.448-0.432,6.64-0.656L185.92,323.328z"/>
	<path style="fill:#3E4347;" d="M285.504,305.04h1.728l-6.352,87.952l-8.64-0.192l4.64-88.096l1.728,0.112
		C280.944,304.8,283.168,304.928,285.504,305.04z"/>
	<path style="fill:#3E4347;" d="M336.4,321.696l-14.592,73.936l-1.568-0.096c-1.744-0.192-3.6-0.384-5.344-0.464l-1.664-0.192
		l13.248-74.16l1.6,0.112c2.176,0.224,4.368,0.432,6.656,0.656L336.4,321.696z"/>
	<path style="fill:#3E4347;" d="M235.024,304.688l4.656,88.096l-8.64,0.192l-6.448-87.952h1.824c2.336-0.112,4.56-0.224,6.896-0.224
		L235.024,304.688z"/>
	<path style="fill:#3E4347;" d="M359.072,349.856l-2.768,10.032l-1.536-0.096c-65.92-8.592-133.568-8.48-199.456,0.208l-1.52,0.208
		l-2.784-10.032l1.712-0.304c67.52-8.976,136.96-9.072,204.512-0.208L359.072,349.856z"/>
</g>
<g>
</g>
<g>
</g>
<g>
</g>
<g>
</g>
<g>
</g>
<g>
</g>
<g>
</g>
<g>
</g>
<g>
</g>
<g>
</g>
<g>
</g>
<g>
</g>
<g>
</g>
<g>
</g>
<g>
</g>
</svg>
