<?xml version="1.0" encoding="iso-8859-1"?>
<!-- Generator: Adobe Illustrator 19.0.0, SVG Export Plug-In . SVG Version: 6.00 Build 0)  -->
<svg version="1.1" id="Capa_1" xmlns="http://www.w3.org/2000/svg" xmlns:xlink="http://www.w3.org/1999/xlink" x="0px" y="0px"
	 viewBox="0 0 512.032 512.032" style="enable-background:new 0 0 512.032 512.032;" xml:space="preserve">
<path style="fill:#E9EFF4;" d="M453.312,314.768C453.312,423.696,365.008,512,256.08,512S58.848,423.696,58.848,314.768
	C58.848,184.512,171.856,0,256.08,0C345.84,0,453.312,184.512,453.312,314.768z"/>
<path style="fill:#D3D9DD;" d="M453.248,314.752c0,108.96-88.32,197.28-197.12,197.28c-17.92,0-35.2-2.4-51.68-6.88
	c2.08,0.16,4,0.16,6.08,0.16c118.08,0,213.76-95.52,213.76-213.6c0-80.48-37.92-180-88.48-250.72
	C399.328,102.752,453.248,222.432,453.248,314.752z"/>
<path style="fill:#3E4347;" d="M376.384,372.416c-23.856,52.432-68.88,87.936-120.256,87.936c-51.52,0-96.416-35.488-120.4-87.936
	c-3.808-8.384,2.112-18.192,9.6-16.592c73.824,16.224,147.648,16.224,221.616,0C374.4,354.224,380.192,364.032,376.384,372.416z"/>
<path style="fill:#D3D9DD;" d="M241.312,254.656c0,40.128-27.84,72.592-62.24,72.592c-34.24,0-62.24-32.464-62.24-72.592
	c0-40.112,28-72.592,62.24-72.592C213.472,182.08,241.312,214.544,241.312,254.656z"/>
<path style="fill:#FFFFFF;" d="M226.288,254.656c-1.744,32.672-24.288,59.104-50.384,59.104c-25.984,0-45.808-26.432-44.048-59.104
	c1.744-32.656,24.416-59.104,50.384-59.104C208.336,195.568,228.048,222,226.288,254.656z"/>
<path style="fill:#3E4347;" d="M208.64,265.856c0,15.344-12.512,27.84-27.84,27.84c-15.488,0-27.984-12.512-27.984-27.84
	c0-15.488,12.512-27.84,27.984-27.84C196.128,238.016,208.64,250.368,208.64,265.856z"/>
<ellipse transform="matrix(-0.7071 -0.7071 0.7071 -0.7071 146.9487 570.5507)" style="fill:#FFFFFF;" cx="191.639" cy="254.841" rx="7.632" ry="4.976"/>
<path style="fill:#D3D9DD;" d="M270.832,254.656c0,40.128,27.84,72.592,62.24,72.592c34.24,0,62.24-32.464,62.24-72.592
	c0-40.112-28-72.592-62.24-72.592C298.672,182.08,270.832,214.544,270.832,254.656z"/>
<path style="fill:#FFFFFF;" d="M285.856,254.656c1.744,32.672,24.288,59.104,50.384,59.104c25.984,0,45.808-26.432,44.048-59.104
	c-1.744-32.656-24.416-59.104-50.384-59.104C303.808,195.568,284.112,222,285.856,254.656z"/>
<path style="fill:#3E4347;" d="M362.64,265.856c0,15.344-12.512,27.84-27.84,27.84c-15.488,0-27.984-12.512-27.984-27.84
	c0-15.488,12.512-27.84,27.984-27.84C350.128,238.016,362.64,250.368,362.64,265.856z"/>
<ellipse transform="matrix(-0.7071 -0.7071 0.7071 -0.7071 409.7802 679.5843)" style="fill:#FFFFFF;" cx="345.637" cy="254.924" rx="7.632" ry="4.976"/>
<g>
	<path style="fill:#E24B4B;" d="M256.112,460.352c24.08,0,46.672-8.048,66.432-21.728c-0.384-1.728-0.576-3.424-1.104-5.152
		c-7.568-22.992-33.712-33.904-56.128-24.672c-9.808,3.936-20.608,4.928-30.48,3.68c-24.112-2.896-38.768,9.44-44.24,26.784
		C210.128,452.528,232.352,460.352,256.112,460.352z"/>
	<path style="fill:#E24B4B;" d="M98.096,26.224c-4.608,2.368-4.832,2.832-2.016,6.256c4.048,4.976,7.792,10.128,11.248,15.392
		c2.016,3.12,2.464,3.12,6.192,2.032c0.192,0.352,0.4,0.72,0.592,1.072c-3.952,1.456-7.808,3.12-11.536,5.008
		c-0.24-0.32-0.512-0.64-0.752-0.976c3.36-1.984,3.616-2.304,1.44-5.328c-1.776-2.416-3.616-4.8-5.536-7.136
		c-5.536,2.688-10.832,5.792-15.872,9.248c2.4,1.92,4.72,3.904,6.976,5.936c2.768,2.528,3.232,2.48,6.672,0.736
		c0.272,0.304,0.56,0.608,0.848,0.912c-3.52,2.064-6.896,4.32-10.128,6.768c-0.336-0.256-0.656-0.512-0.992-0.784
		c2.688-2.352,2.832-2.688-0.096-5.088c-5.008-4.032-10.352-7.808-15.984-11.248c-3.936-2.352-4.608-2.24-8.88,1.04
		c-0.528-0.256-1.04-0.496-1.552-0.752c4.32-3.856,8.848-7.44,13.584-10.736c0.464,0.32,0.912,0.656,1.36,0.976
		c-3.712,3.04-3.792,3.488-0.064,6.064c2.224,1.568,4.4,3.168,6.512,4.8c5.152-3.584,10.56-6.768,16.208-9.552
		c-1.68-2.016-3.424-4-5.216-5.968c-3.024-3.248-3.712-3.264-8.368-1.04c-0.4-0.368-0.816-0.752-1.216-1.12
		c5.024-2.928,10.224-5.536,15.6-7.808C97.44,25.36,97.776,25.792,98.096,26.224z"/>
	<path style="fill:#E24B4B;" d="M130.432,46.88c-1.552,0.304-3.024-0.176-4.24-1.76c-1.456,1.488-3.024,3.472-4.224,3.824
		c-3.232,0.912-6.496-0.608-7.792-3.024c-2.704-4.944,5.072-5.664,8.288-10.048c-2.336-5.856-7.392-5.712-8.592-2.928
		c-0.976,1.952,1.008,4.208-1.168,4.944c-7.808,2.8-0.032-11.712,9.088-9.056c4.72,1.648,6,8.608,7.344,12.752
		c0.592,1.84,1.6,2.304,2.432,2.128c0.544-0.096,1.12-0.4,1.552-0.752c0.256,0.336,0.512,0.688,0.752,1.024
		C132.704,44.944,131.552,45.904,130.432,46.88z M123.072,37.36c-2.496,2.016-6.08,4.048-4.864,6.544
		c1.488,3.04,5.568,2.832,7.344-0.064C124.768,41.68,123.936,39.52,123.072,37.36z"/>
	<path style="fill:#E24B4B;" d="M145.296,44.896c-1.408,0.064-2.688-0.208-3.392-0.416c0.272,1.792,0.512,3.568,0.752,5.36
		c0.368,2.88,0.688,3.056,3.968,3.104c0.016,0.352,0.048,0.704,0.064,1.072c-3.392,0.192-6.736,0.56-10.048,1.072
		c-0.064-0.336-0.144-0.688-0.208-1.04c2.608-0.64,2.96-0.928,2.496-3.456c-1.136-6.4-2.496-12.768-4.08-19.12
		c-0.72-2.88-1.072-2.992-4.528-2.8c-0.128-0.384-0.24-0.752-0.352-1.136c2.288-0.752,5.488-2.096,8.256-3.328
		c0.272,1.264,0.528,2.512,0.8,3.76C161.104,15.552,163.392,41.792,145.296,44.896z M141.456,41.472
		c13.312,9.984,15.968-25.168-2.128-11.904C140.112,33.536,140.832,37.504,141.456,41.472z"/>
	<path style="fill:#E24B4B;" d="M166.992,44.816c-0.288,1.776-0.576,3.568-0.88,5.344c-0.496,2.88-0.208,3.12,3.088,3.856
		c-0.08,0.352-0.16,0.688-0.24,1.04c-3.488-0.528-6.976-0.896-10.448-1.072c0.032-0.352,0.064-0.704,0.096-1.072
		c2.816-0.08,3.232-0.272,3.536-2.832c0.768-6.448,1.424-12.912,1.952-19.408c0.24-2.944-0.08-3.136-3.552-3.744
		c0.016-0.4,0.032-0.784,0.032-1.184c2.512-0.192,6.096-0.752,9.312-1.296c-0.16,1.264-0.336,2.528-0.496,3.808
		C203.504,20.096,181.248,54.32,166.992,44.816z M167.456,41.808c10,12.256,24.272-20.448,1.728-11.936
		C168.656,33.856,168.08,37.84,167.456,41.808z"/>
	<path style="fill:#E24B4B;" d="M218.288,42.56c-3.28-1.312-4.032-1.248-7.152,0.272c-3.264,0.992-21.152,12.768-24,16.384
		c-1.728,1.968-6.096-2.24-1.744-3.216c10.096-1.248,9.456-10.336,8.352-20.256c-0.272-2.656-0.656-3.472-3.712-4.768
		c0.144-0.4,0.288-0.816,0.448-1.216c4.24,1.216,8.464,2.64,12.64,4.288c-0.176,0.384-0.368,0.768-0.544,1.168
		c-2.896-0.704-3.44-0.416-3.472,1.408c-0.032,3.936-0.192,7.856-0.496,11.728c2.768-1.888,7.936-5.488,10.608-7.328
		c1.712-1.12,1.584-1.84-1.456-3.632c0.224-0.368,0.464-0.736,0.688-1.104c3.584,1.584,7.136,3.344,10.656,5.264
		C218.832,41.872,218.56,42.224,218.288,42.56z"/>
</g>
<g>
	<path style="fill:#45CBEA;" d="M283.36,153.408c-8.24-0.704-11.936-11.536-7.232-16.896c-3.504,5.84,0.128,15.088,7.392,15.088
		c15.088,0,37.136-49.248-109.2-9.2c-33.248,8.656-64.24,20.976-75.408,9.808c-0.144,0.144-0.144,0.144-0.144,0
		c-0.784-0.528-2.144-2.048-2.56-3.312c0-5.6-13.76-48.928-15.84-53.088c0,0-4.304-2.256-5.136-3.92
		c0-0.144-0.144-0.144-0.144-0.304c-0.704-1.76,1.488-3.856,3.152-4.688h0.144c1.504-0.752,3.312-1.504,5.424-2.256
		c0.144-0.144,0.144-0.144,0.304-0.144c0.96-0.576,38.976-20.816,39.968-20.816c0.32-0.16,0.624-0.304,0.912-0.304
		c10.752-4.528,12.272,4.048,7.088,6.64c-2.96,0-37.088,16.272-39.664,18.848c-1.504,1.36-1.952,3.312-1.2,5.424
		c1.712,4.72,2,13.936,4.224,18.4c1.424,0,30.64-16.912,32.128-17.488c9.92-3.632,9.856,4.08,4.976,6.784
		c-3.104,1.792-32.624,16.288-33.488,19.76c-0.944,2.192,3.44,15.936,4.528,18.096c0.144,0.144,0.144,0.304,0.304,0.448
		c0.752,1.36,2.256,1.664,4.224,1.056c0,0,31.664-18.368,33.328-19.008c0.896-0.304,2.112-0.304,3.472,0
		c4.528,1.52,5.808,5.92-9.056,12.224c-10.112,4.176-18.768,10.416-27.296,15.536c18.032,2.256,51.968-14.592,109.792-25.344
		C315.2,107.232,301.792,156.288,283.36,153.408z"/>
	<path style="fill:#45CBEA;" d="M315.408,112.896c4.48,12.272,20.208,12.928,32.576,8.208c15.84-6.064,14.768-13.632,8.496-10.736
		c-15.424,7.936-35.776,8.8-32.864-5.488c0.272-1.344,1.392-2.272,3.36-2.752c82.896-21.072,3.568-57.472-14.624,2.736
		c-6.624,23.12,2.24,35.584,17.136,38.928c19.424,4.304,45.344-4.464,62.832,8.24C369.648,124.48,313.504,157.76,315.408,112.896z
		 M353.632,82.4c-1.264,4.784-10.816,8.704-27.36,13.536C335.328,77.904,355.728,75.008,353.632,82.4z"/>
	<path style="fill:#45CBEA;" d="M276.4,73.952c0.08-1.264-5.808-0.672-7.152-0.64c-9.04-0.32-8.688-7.952-3.648-7.824
		c11.728,0.336,13.52,2.192,17.056-6.208c2.528-5.904,4.304-15.12,10.08-14.576c9.584,0.912,1.856,11.84-2.144,21.008
		c3.92,0.112,22.112,0.016,25.184,2.464c2.272,1.888,0.976,6.384-6.256,5.712c-27.328-2.544-23.472,1.008-26.848,11.008
		c-6.816,20.336-4.96,29.968,14.432,18.32c5.392-3.456,7.264-1.6,6.96,0.576c-0.56,3.856-12.496,12.832-22.96,12.016
		c-14.736-1.136-12.512-15.648-8.08-29.616"/>
	<path style="fill:#45CBEA;" d="M192.88,100.528c-6.272,11.232-19.184,28.96-30.08,22.24c-21.776-13.472,16.768-72.624,31.008-53.12
		c0.64,0.928,1.504,1.312,2.56,1.152c5.024-0.784,5.296,1.52,4.96,6.4c-0.608,9.008-1.808,30.496,6.752,33.328
		c5.44,1.904,1.376,7.2-3.04,7.872C197.984,119.472,194.144,107.6,192.88,100.528z M184.736,74.496
		c-23.216,4.336-27.328,69.184-0.368,27.072c5.328-8.336,7.824-15.344,6.816-21.248C190.4,75.808,188.24,73.84,184.736,74.496z"/>
	<path style="fill:#45CBEA;" d="M247.152,101.648c-0.032-2.064-2.848-4.416-8.608-6.832c-6.4-2.624-19.008-6.72-19.664-13.328
		c-1.904-19.28,37.44-32,37.376-17.904c-0.016,1.984-2.576,3.616-3.888,3.616c-1.008,0.016-3.824-1.36-4.864-1.328
		c-1.888,0.048-5.76,1.28-11.408,3.904c-14.784,6.864-7.824,12.704,6,17.936c40.464,15.648-23.936,40.704-25.76,24.864
		c-0.272-2.544,2.752-3.888,5.184-4.128c1.424-0.144,4.48,0.56,5.728,0.448C232.064,108.496,244.816,105.888,247.152,101.648z"/>
	<path style="fill:#45CBEA;" d="M382.032,117.072c13.84-10.272,26.992-23.744,43.312-15.776c3.072,1.52,5.216,3.552,6.352,6.032
		c3.984,8.656-5.808,12.288-8.88,4.464c-5.52-13.216-36.288,6.672-44.256,20.8c-2.016,3.632-3.888,5.056-7.76,3.616
		c-7.152-2.672,11.024-47.008,18.496-48.688c4.416-1.024,8.288,2.064,7.024,5.184c-0.464,1.152-1.456,2.656-3.024,4.496
		C387.568,103.792,384.704,110.144,382.032,117.072z"/>
</g>
<g>
</g>
<g>
</g>
<g>
</g>
<g>
</g>
<g>
</g>
<g>
</g>
<g>
</g>
<g>
</g>
<g>
</g>
<g>
</g>
<g>
</g>
<g>
</g>
<g>
</g>
<g>
</g>
<g>
</g>
</svg>
