<?xml version="1.0" encoding="iso-8859-1"?>
<!-- Generator: Adobe Illustrator 19.0.0, SVG Export Plug-In . SVG Version: 6.00 Build 0)  -->
<svg version="1.1" id="Capa_1" xmlns="http://www.w3.org/2000/svg" xmlns:xlink="http://www.w3.org/1999/xlink" x="0px" y="0px"
	 viewBox="0 0 512 512" style="enable-background:new 0 0 512 512;" xml:space="preserve">
<circle style="fill:#FFD93B;" cx="256" cy="256" r="256"/>
<path style="fill:#F4C534;" d="M512,256c0,141.44-114.64,256-256,256c-80.48,0-152.32-37.12-199.28-95.28
	c43.92,35.52,99.84,56.72,160.72,56.72c141.36,0,256-114.56,256-256c0-60.88-21.2-116.8-56.72-160.72
	C474.8,103.68,512,175.52,512,256z"/>
<path style="fill:#3E4347;" d="M368.816,372.368c-15.04,13.28-29.92,26.56-44.8,39.68c-1.92,1.76-4.16,3.04-6.4,4
	c-43.536,12.208-87.664,11.904-132.32,0c-2.24-0.96-4.48-2.24-6.4-4c-14.88-13.12-29.76-26.4-44.8-39.68
	c-6.24-5.28-3.04-14.56,7.36-19.36c69.6-32.64,150.08-32.64,219.68-0.16C371.856,357.808,375.056,367.104,368.816,372.368z"/>
<circle style="fill:#FFFFFF;" cx="176" cy="236.96" r="53.776"/>
<circle style="fill:#3E4347;" cx="176" cy="236.96" r="27.984"/>
<path style="fill:#5A5F63;" d="M160.656,229.952c1.568,1.776,5.248,1.088,8.336-1.536s4.384-6.16,2.816-8.064
	c-1.568-1.776-5.376-1.088-8.336,1.536C160.384,224.528,159.088,228.064,160.656,229.952z"/>
<path style="fill:#E9B02C;" d="M96.144,219.76c-5.952-0.464-10.384-5.664-9.92-11.616c3.136-39.856,31.248-73.6,69.92-83.968
	c5.28-1.408,10.688-2.336,16.576-2.816c5.824-0.448,11.168,3.92,11.664,9.872c0.496,5.952-3.936,11.168-9.872,11.664
	c-4.608,0.384-8.784,1.088-12.784,2.16c-29.84,8-51.536,34.048-53.968,64.8C107.28,215.872,101.984,220.24,96.144,219.76z"/>
<circle style="fill:#FFFFFF;" cx="335.968" cy="236.96" r="53.776"/>
<circle style="fill:#3E4347;" cx="335.984" cy="236.96" r="27.984"/>
<path style="fill:#5A5F63;" d="M351.344,229.952c-1.568,1.776-5.248,1.088-8.336-1.536s-4.384-6.16-2.8-8.064
	c1.568-1.776,5.376-1.088,8.336,1.536C351.616,224.528,352.912,228.064,351.344,229.952z"/>
<path style="fill:#E9B02C;" d="M404.24,209.856c-2.432-30.752-24.128-56.8-54-64.816c-4-1.056-8.176-1.76-12.768-2.144
	c-5.952-0.496-10.352-5.728-9.872-11.664c0.496-5.952,5.808-10.336,11.664-9.872c5.888,0.496,11.296,1.408,16.544,2.816
	c38.688,10.368,66.784,44.112,69.952,83.984c0.464,5.952-3.968,11.152-9.92,11.616C410.016,220.24,404.72,215.872,404.24,209.856z"
	/>
<path style="fill:#FFFFFF;" d="M252.88,356.88c29.472-1.088,58.048,7.808,74.864,5.376c4.544-0.464,9.44-7.488,12.56-17.76
	c-56.56-20.64-118.464-21.088-175.184-1.024c3.104,10.864,8.192,18.304,12.896,18.784
	C194.832,364.688,223.408,355.792,252.88,356.88z"/>
<path style="fill:#E24B4B;" d="M305.776,418.928c-33.92,7.68-68.16,8-102.88,1.12c0.96-9.92,4.8-19.2,10.72-26.72
	c5.28-6.72,13.44-10.4,21.92-9.92c1.6,0,3.36,0.16,5.28,0.16c8.16,0,15.84-0.96,22.88-2.56c9.44-2.24,19.68,0,26.72,6.88
	C298.736,395.888,304.336,406.768,305.776,418.928z"/>
<g style="opacity:0.2;">
	<path style="fill:#FFFFFF;" d="M287.44,398.608c-1.28,2.4-6.08,2.72-10.88,0.32c-4.8-2.24-7.68-6.08-6.56-8.64
		c1.28-2.4,6.08-2.72,10.88-0.32C285.68,392.224,288.56,396.048,287.44,398.608z"/>
</g>
<g>
</g>
<g>
</g>
<g>
</g>
<g>
</g>
<g>
</g>
<g>
</g>
<g>
</g>
<g>
</g>
<g>
</g>
<g>
</g>
<g>
</g>
<g>
</g>
<g>
</g>
<g>
</g>
<g>
</g>
</svg>
