<?xml version="1.0" encoding="iso-8859-1"?>
<!-- Generator: Adobe Illustrator 19.0.0, SVG Export Plug-In . SVG Version: 6.00 Build 0)  -->
<svg version="1.1" id="Capa_1" xmlns="http://www.w3.org/2000/svg" xmlns:xlink="http://www.w3.org/1999/xlink" x="0px" y="0px"
	 viewBox="0 0 512 512" style="enable-background:new 0 0 512 512;" xml:space="preserve">
<circle style="fill:#FFD93B;" cx="256" cy="256" r="256"/>
<path style="fill:#F4C534;" d="M512,256c0,141.44-114.64,256-256,256c-80.48,0-152.32-37.12-199.28-95.28
	c43.92,35.52,99.84,56.72,160.72,56.72c141.36,0,256-114.56,256-256c0-60.88-21.2-116.8-56.72-160.72
	C474.8,103.68,512,175.52,512,256z"/>
<path style="fill:#3E4347;" d="M347.728,411.392c-61.12-26.768-122.352-26.768-183.472,0c-7.888,3.392-16-4.32-14.288-13.44
	C160.32,344.064,203.84,303.616,256,303.616s95.68,40.448,106.032,94.336C363.728,407.072,355.616,414.784,347.728,411.392z"/>
<path style="fill:#FFFFFF;" d="M255.984,303.632c-29.664,0-56.496,13.104-76.064,34.288c1.056,7.632,8.24,13.728,12.944,11.072
	c40.16-23.312,86.08-23.312,126.24,0c4.688,2.656,11.888-3.44,12.944-11.072C312.48,316.72,285.648,303.632,255.984,303.632z"/>
<ellipse style="fill:#3E4347;" cx="335.408" cy="205.008" rx="39.792" ry="50.992"/>
<ellipse transform="matrix(-0.4535 -0.8913 0.8913 -0.4535 344.596 579.67)" style="fill:#5A5F63;" cx="350.023" cy="184.183" rx="11.968" ry="7.728"/>
<path style="fill:#E9B02C;" d="M397.184,197.232c-8.16-42.464-32.976-71.008-61.76-71.008c-7.68,0-15.152,1.936-22.224,5.76
	c-4.656,2.544-10.48,0.784-13.008-3.872c-2.528-4.672-0.8-10.496,3.872-13.008c9.904-5.36,20.464-8.08,31.36-8.08
	c38.288,0,70.688,34.784,80.624,86.576c1.008,5.2-2.416,10.24-7.616,11.232C403.296,205.856,398.192,202.512,397.184,197.232z"/>
<ellipse style="fill:#3E4347;" cx="176.64" cy="205.008" rx="39.792" ry="50.992"/>
<ellipse transform="matrix(-0.8912 -0.4536 0.4536 -0.8912 222.8345 421.8301)" style="fill:#5A5F63;" cx="162.005" cy="184.192" rx="7.728" ry="11.968"/>
<path style="fill:#E9B02C;" d="M103.584,204.864c-5.2-1.008-8.608-6.032-7.616-11.248c9.936-51.792,42.336-86.576,80.624-86.576
	c10.896,0,21.456,2.72,31.36,8.08c4.656,2.528,6.4,8.352,3.872,13.008c-2.528,4.672-8.336,6.416-13.008,3.872
	c-7.072-3.824-14.544-5.76-22.224-5.76c-28.8,0-53.616,28.528-61.776,71.008C113.824,202.464,108.752,205.872,103.584,204.864z"/>
<path style="fill:#E24B4B;" d="M300.944,396.192c1.312-3.648,2.224-7.424,2.224-11.44c0-11.248-5.632-21.344-14.72-28.56
	c-5.776-4.608-13.264-6.064-20.336-3.744c-8.08,2.592-17.312,4.032-27.264,4.032c-2.592,0-5.056-0.144-7.504-0.432
	c-6.928-0.576-13.552,2.736-17.6,8.224c-4.336,6.064-6.928,12.976-6.928,20.48c0,4,0.912,7.792,2.224,11.44
	C241.008,389.76,270.976,389.76,300.944,396.192z"/>
<g>
</g>
<g>
</g>
<g>
</g>
<g>
</g>
<g>
</g>
<g>
</g>
<g>
</g>
<g>
</g>
<g>
</g>
<g>
</g>
<g>
</g>
<g>
</g>
<g>
</g>
<g>
</g>
<g>
</g>
</svg>
