<?xml version="1.0" encoding="iso-8859-1"?>
<!-- Generator: Adobe Illustrator 19.0.0, SVG Export Plug-In . SVG Version: 6.00 Build 0)  -->
<svg version="1.1" id="Capa_1" xmlns="http://www.w3.org/2000/svg" xmlns:xlink="http://www.w3.org/1999/xlink" x="0px" y="0px"
	 viewBox="0 0 512 512" style="enable-background:new 0 0 512 512;" xml:space="preserve">
<circle style="fill:#FFD93B;" cx="256" cy="256" r="256"/>
<path style="fill:#F4C534;" d="M512,256c0,141.44-114.64,256-256,256c-80.48,0-152.32-37.12-199.28-95.28
	c43.92,35.52,99.84,56.72,160.72,56.72c141.36,0,256-114.56,256-256c0-60.88-21.2-116.8-56.72-160.72
	C474.8,103.68,512,175.52,512,256z"/>
<path style="fill:#3E4347;" d="M374.848,407.104c-78.72-27.296-159.024-27.28-237.792,0c-6.192,2.144-11.856-6.288-10.672-12.624
	c10.048-55.184,58.848-102.256,129.568-102.256s119.632,47.088,129.68,102.256C386.8,400.832,381.04,409.264,374.848,407.104z"/>
<path style="fill:#E24B4B;" d="M311.872,391.2c0.208-11.936-3.248-23.104-9.584-32.288c-8.784-12.752-25.184-17.008-39.792-11.904
	c-1.888,0.656-3.792,1.248-5.728,1.776c-0.288,0.08-0.592,0.16-0.88,0.24c-3.808,1.024-7.664,1.536-11.536,1.6
	c-23.296,0.416-43.696,17.472-43.664,40.496C237.696,385.2,274.864,385.232,311.872,391.2z"/>
<path style="fill:#FFFFFF;" d="M338.192,318.576c-21.68-16.24-49.584-26.352-82.24-26.352c-32.64,0-60.528,10.112-82.176,26.336
	C196.224,327.2,222.928,330,256,330C289.056,330,315.744,327.2,338.192,318.576z"/>
<circle style="fill:#3E4347;" cx="335.552" cy="200.672" r="38.528"/>
<path style="fill:#5A5F63;" d="M357.36,191.744c-2.368,2.48-6.992,1.776-10.064-1.424c-3.312-3.2-4.032-7.824-1.536-10.192
	c2.368-2.368,6.864-1.664,10.064,1.536C359.024,184.88,359.728,189.376,357.36,191.744z"/>
<path style="fill:#E9B02C;" d="M393.008,183.424c-5.136-26.384-28.4-45.552-55.328-45.552c-5.6,0-11.136,0.832-16.496,2.464
	c-5.04,1.52-10.432-1.296-11.984-6.384c-1.552-5.072,1.312-10.432,6.384-11.984c7.168-2.192,14.592-3.296,22.096-3.296
	c36.08,0,67.28,25.68,74.16,61.072c1.024,5.2-2.384,10.24-7.584,11.248C398.96,192.032,394,188.56,393.008,183.424z"/>
<circle style="fill:#3E4347;" cx="176.48" cy="200.672" r="38.528"/>
<path style="fill:#5A5F63;" d="M198.272,191.744c-2.368,2.48-6.992,1.776-10.064-1.424c-3.312-3.2-4.032-7.824-1.536-10.192
	c2.368-2.368,6.864-1.664,10.064,1.536C199.92,184.88,200.64,189.376,198.272,191.744z"/>
<path style="fill:#E9B02C;" d="M107.744,191.024c-5.2-1.008-8.608-6.048-7.584-11.248c6.88-35.392,38.08-61.072,74.16-61.072
	c7.488,0,14.928,1.104,22.096,3.296c5.072,1.552,7.92,6.912,6.384,11.984c-1.552,5.072-6.944,7.936-11.984,6.384
	c-5.344-1.632-10.896-2.464-16.496-2.464c-26.912,0-50.176,19.152-55.312,45.552C118,188.56,113.04,192.032,107.744,191.024z"/>
<g>
</g>
<g>
</g>
<g>
</g>
<g>
</g>
<g>
</g>
<g>
</g>
<g>
</g>
<g>
</g>
<g>
</g>
<g>
</g>
<g>
</g>
<g>
</g>
<g>
</g>
<g>
</g>
<g>
</g>
</svg>
