<?xml version="1.0" encoding="iso-8859-1"?>
<!-- Generator: Adobe Illustrator 19.0.0, SVG Export Plug-In . SVG Version: 6.00 Build 0)  -->
<svg version="1.1" id="Capa_1" xmlns="http://www.w3.org/2000/svg" xmlns:xlink="http://www.w3.org/1999/xlink" x="0px" y="0px"
	 viewBox="0 0 512 512" style="enable-background:new 0 0 512 512;" xml:space="preserve">
<circle style="fill:#FFD93B;" cx="256" cy="256" r="256"/>
<path style="fill:#F4C534;" d="M512,256c0,141.44-114.672,256-256,256c-80.528,0-152.32-37.12-199.248-95.248
	c43.84,35.52,99.84,56.752,160.64,56.752c141.44,0,256-114.56,256-256c0-60.912-21.12-116.8-56.64-160.752
	C474.768,103.68,512,175.568,512,256z"/>
<g>
	<ellipse style="fill:#3E4347;" cx="158.912" cy="234.624" rx="40.8" ry="40.752"/>
	<ellipse style="fill:#3E4347;" cx="353.12" cy="234.624" rx="40.8" ry="40.752"/>
</g>
<g>
	
		<ellipse transform="matrix(-0.7147 -0.6995 0.6995 -0.7147 479.642 634.732)" style="fill:#5A5F63;" cx="369.285" cy="219.535" rx="10.529" ry="7.504"/>
	
		<ellipse transform="matrix(-0.7107 -0.7035 0.7035 -0.7107 144.9049 498.7004)" style="fill:#5A5F63;" cx="174.994" cy="219.555" rx="10.528" ry="7.504"/>
</g>
<path style="fill:#3E4347;" d="M344.976,387.52c-59.52-23.792-116.48-24.208-170.992-1.392c-10.352,4.368-19.84-7.472-13.76-16.96
	c18.992-29.968,56.112-50.24,98.992-50.24c43.84,0,81.712,21.328,100.272,52.368C365.136,380.688,355.104,391.456,344.976,387.52z"
	/>
<path style="fill:#FFFFFF;" d="M447.92,426.784c-30.72-3.296-60.112,1.248-85.264,11.04c-1.184-46.208-22.656-94.432-66.032-131.072
	l0,0C375.056,323.12,427.248,372,447.92,426.784z"/>
<g>
	<path style="fill:#E9EFF4;" d="M299.568,308.08c0,0,13.6,7.216,28.8,22.624c14.064,14.8,19.584,26.464,19.584,26.464
		c-5.648-7.024-15.36-18.16-22.736-25.408C316.08,322.256,299.568,308.08,299.568,308.08z"/>
	<path style="fill:#E9EFF4;" d="M328.624,324.048c0,0,21.04,11.296,40.08,33.424c17.744,20.928,23.92,39.792,23.92,39.792
		S382.304,376.8,366,358.384C349.84,339.328,328.624,324.048,328.624,324.048z"/>
	<path style="fill:#E9EFF4;" d="M299.936,308.24c0,0,21.136,4.096,45.424,16.912c22.832,12.32,34.976,25.152,34.976,25.152
		s-17.84-13.616-37.392-23.648C323.312,316.064,299.936,308.24,299.936,308.24z"/>
</g>
<g>
	
		<ellipse transform="matrix(-0.3019 -0.9533 0.9533 -0.3019 161.9588 975.6885)" style="fill:#FFFFFF;" cx="438.208" cy="428.546" rx="36.463" ry="36.447"/>
	<ellipse style="fill:#FFFFFF;" cx="404.594" cy="452.978" rx="47.998" ry="47.998"/>
	
		<ellipse transform="matrix(-0.3019 -0.9533 0.9533 -0.3019 43.3703 938.3236)" style="fill:#FFFFFF;" cx="365.233" cy="453.283" rx="36.463" ry="36.447"/>
</g>
<g>
	<path style="fill:#E9EFF4;" d="M375.232,482.176c-15.744,0.272-30.496-9.552-35.472-25.296
		c-4.096-12.832-0.672-26.256,7.888-35.536c-14.896,8.224-22.528,26.048-17.168,42.864c6.064,19.2,26.592,29.92,45.808,23.856
		c1.056-0.336,2.064-0.784,3.072-1.216C377.872,485.36,376.496,483.792,375.232,482.176z"/>
	<path style="fill:#E9EFF4;" d="M449.648,458.592c-5.168,12.816-15.712,23.344-29.92,27.84c-25.344,8.048-52.4-6.016-60.352-31.312
		c-1.072-3.52-1.792-7.072-2.048-10.592c-1.344,7.456-0.912,15.248,1.472,22.896c8.048,25.344,35.088,39.408,60.304,31.408
		c18.944-6.048,31.536-22.688,33.328-41.264C451.504,457.92,450.576,458.272,449.648,458.592z"/>
	<path style="fill:#E9EFF4;" d="M449.232,463.312c-10.272,3.28-20.944,1.68-29.536-3.456c6.064,1.344,12.672,1.136,19.04-0.816
		c19.2-6.064,29.872-26.512,23.728-45.76c-2.832-8.848-8.624-15.824-15.92-20.208c12.08,2.768,22.432,11.84,26.496,24.528
		C479.104,436.8,468.432,457.248,449.232,463.312z"/>
</g>
<path style="fill:#FFFFFF;" d="M64.08,426.784c30.704-3.296,60.112,1.248,85.264,11.04c1.184-46.208,22.656-94.432,66.032-131.072
	l0,0C136.944,323.12,84.752,372,64.08,426.784z"/>
<g>
	<path style="fill:#E9EFF4;" d="M212.432,308.08c0,0-13.6,7.216-28.8,22.624c-14.064,14.8-19.584,26.464-19.584,26.464
		c5.648-7.024,15.36-18.16,22.736-25.408C195.92,322.256,212.432,308.08,212.432,308.08z"/>
	<path style="fill:#E9EFF4;" d="M183.376,324.048c0,0-21.04,11.296-40.08,33.424c-17.744,20.928-23.92,39.808-23.92,39.808
		s10.32-20.464,26.64-38.88C162.16,339.328,183.376,324.048,183.376,324.048z"/>
	<path style="fill:#E9EFF4;" d="M212.064,308.24c0,0-21.136,4.096-45.424,16.912c-22.832,12.32-34.976,25.152-34.976,25.152
		s17.84-13.616,37.392-23.648C188.688,316.064,212.064,308.24,212.064,308.24z"/>
</g>
<g>
	
		<ellipse transform="matrix(-0.9533 -0.3019 0.3019 -0.9533 14.6755 859.2723)" style="fill:#FFFFFF;" cx="73.743" cy="428.502" rx="36.447" ry="36.463"/>
	<ellipse style="fill:#FFFFFF;" cx="107.359" cy="452.952" rx="47.998" ry="47.998"/>
	
		<ellipse transform="matrix(-0.9533 -0.3019 0.3019 -0.9533 149.757 929.752)" style="fill:#FFFFFF;" cx="146.731" cy="453.303" rx="36.447" ry="36.463"/>
</g>
<g>
	<path style="fill:#E9EFF4;" d="M136.752,482.176c15.744,0.272,30.496-9.552,35.472-25.296c4.096-12.832,0.672-26.256-7.888-35.536
		c14.896,8.224,22.528,26.048,17.168,42.864c-6.064,19.2-26.592,29.92-45.808,23.856c-1.056-0.336-2.064-0.784-3.072-1.216
		C134.128,485.36,135.504,483.792,136.752,482.176z"/>
	<path style="fill:#E9EFF4;" d="M62.352,458.592c5.168,12.816,15.712,23.344,29.92,27.84c25.344,8.048,52.4-6.016,60.352-31.312
		c1.072-3.52,1.776-7.072,2.048-10.592c1.344,7.456,0.912,15.248-1.472,22.896c-8.048,25.344-35.088,39.408-60.304,31.408
		c-18.944-6.048-31.536-22.688-33.328-41.264C60.496,457.92,61.424,458.272,62.352,458.592z"/>
	<path style="fill:#E9EFF4;" d="M62.768,463.312c10.272,3.28,20.944,1.68,29.536-3.456c-6.064,1.344-12.672,1.136-19.04-0.816
		c-19.2-6.064-29.872-26.512-23.728-45.76c2.832-8.848,8.624-15.824,15.92-20.208c-12.08,2.768-22.432,11.84-26.496,24.528
		C32.896,436.8,43.568,457.248,62.768,463.312z"/>
</g>
<g>
	<path style="fill:#E9B02C;" d="M295.168,198.848c-5.664-1.344-9.216-6.848-7.984-12.528c0.4-1.872,10.88-46.064,91.952-58.944
		c5.936-0.928,11.28,3.04,12.208,8.864s-3.04,11.28-8.848,12.208c-65.456,10.4-74.16,41.28-74.512,42.592
		C306.544,196.624,300.864,200.208,295.168,198.848z"/>
	<path style="fill:#E9B02C;" d="M214.176,191.024c-0.432-1.664-9.456-32.24-74.496-42.576c-5.808-0.928-9.776-6.384-8.848-12.208
		c0.928-5.824,6.304-9.792,12.208-8.864c81.056,12.88,91.536,57.072,91.952,58.944c1.248,5.76-2.4,11.44-8.16,12.688
		C221.024,200.24,215.472,196.592,214.176,191.024z"/>
</g>
<g>
</g>
<g>
</g>
<g>
</g>
<g>
</g>
<g>
</g>
<g>
</g>
<g>
</g>
<g>
</g>
<g>
</g>
<g>
</g>
<g>
</g>
<g>
</g>
<g>
</g>
<g>
</g>
<g>
</g>
</svg>
