<?xml version="1.0" encoding="iso-8859-1"?>
<!-- Generator: Adobe Illustrator 19.0.0, SVG Export Plug-In . SVG Version: 6.00 Build 0)  -->
<svg version="1.1" id="Capa_1" xmlns="http://www.w3.org/2000/svg" xmlns:xlink="http://www.w3.org/1999/xlink" x="0px" y="0px"
	 viewBox="0 0 512 512" style="enable-background:new 0 0 512 512;" xml:space="preserve">
<circle style="fill:#FFD93B;" cx="256" cy="256" r="256"/>
<path style="fill:#F4C534;" d="M512,256c0,141.44-114.672,256-256,256c-80.528,0-152.32-37.12-199.248-95.248
	c43.84,35.52,99.84,56.752,160.64,56.752c141.44,0,256-114.56,256-256c0-60.912-21.12-116.8-56.64-160.752
	C474.768,103.68,512,175.568,512,256z"/>
<g>
	<path style="fill:#E9B02C;" d="M219.952,155.632c4.368,2.992,5.44,8.848,2.448,13.232c-2.88,4.368-8.848,5.44-13.232,2.56
		c-32.112-21.872-75.952-13.552-97.808,18.448c-2.96,4.272-8.656,5.488-13.328,2.56c-4.272-2.992-5.44-8.96-2.448-13.232
		C123.312,138.448,179.088,127.888,219.952,155.632z"/>
	<path style="fill:#E9B02C;" d="M413.872,192.432c-4.224,2.816-10.128,1.904-13.232-2.56c-21.872-32-65.712-40.32-97.808-18.448
		c-4.368,2.88-10.352,1.808-13.232-2.56c-2.992-4.368-1.92-10.24,2.448-13.232c40.752-27.728,96.64-17.168,124.368,23.568
		C419.408,183.472,418.24,189.44,413.872,192.432z"/>
</g>
<g>
	<ellipse style="fill:#3E4347;" cx="158.912" cy="234.624" rx="40.8" ry="40.752"/>
	<ellipse style="fill:#3E4347;" cx="353.12" cy="234.624" rx="40.8" ry="40.752"/>
</g>
<g>
	
		<ellipse transform="matrix(-0.7147 -0.6994 0.6994 -0.7147 479.6399 634.6992)" style="fill:#5A5F63;" cx="369.264" cy="219.529" rx="10.528" ry="7.504"/>
	
		<ellipse transform="matrix(-0.7106 -0.7036 0.7036 -0.7106 144.8687 498.7444)" style="fill:#5A5F63;" cx="175.005" cy="219.579" rx="10.528" ry="7.504"/>
</g>
<path style="fill:#3E4347;" d="M344.976,387.52c-59.52-23.792-116.48-24.208-170.992-1.392c-10.352,4.368-19.84-7.472-13.76-16.96
	c18.992-29.968,56.112-50.24,98.992-50.24c43.84,0,81.712,21.328,100.272,52.368C365.136,380.688,355.104,391.456,344.976,387.52z"
	/>
<g>
</g>
<g>
</g>
<g>
</g>
<g>
</g>
<g>
</g>
<g>
</g>
<g>
</g>
<g>
</g>
<g>
</g>
<g>
</g>
<g>
</g>
<g>
</g>
<g>
</g>
<g>
</g>
<g>
</g>
</svg>
