<?xml version="1.0" encoding="iso-8859-1"?>
<!-- Generator: Adobe Illustrator 19.0.0, SVG Export Plug-In . SVG Version: 6.00 Build 0)  -->
<svg version="1.1" id="Capa_1" xmlns="http://www.w3.org/2000/svg" xmlns:xlink="http://www.w3.org/1999/xlink" x="0px" y="0px"
	 viewBox="0 0 512 512" style="enable-background:new 0 0 512 512;" xml:space="preserve">
<circle style="fill:#FFD93B;" cx="256" cy="256" r="256"/>
<path style="fill:#F4C534;" d="M512,256c0,141.44-114.64,256-256,256c-80.48,0-152.32-37.12-199.28-95.28
	c43.92,35.52,99.84,56.72,160.72,56.72c141.36,0,256-114.56,256-256c0-60.88-21.2-116.8-56.72-160.72
	C474.8,103.68,512,175.52,512,256z"/>
<g>
	<path style="fill:#3E4347;" d="M221.024,248.56c0,27.312-25.872,49.392-57.728,49.392s-57.728-22.08-57.728-49.392
		c0-5.44,0.976-10.672,3.04-15.568c7.552,21.12,29.216,28.336,54.688,28.336c25.488,0,47.152-7.216,54.688-28.336
		C220.032,237.904,221.024,243.12,221.024,248.56z"/>
	<path style="fill:#3E4347;" d="M290.976,248.56c0,27.312,25.872,49.392,57.728,49.392s57.728-22.08,57.728-49.392
		c0-5.44-0.976-10.672-3.04-15.568c-7.552,21.12-29.216,28.336-54.688,28.336c-25.488,0-47.152-7.216-54.688-28.336
		C291.968,237.904,290.976,243.12,290.976,248.56z"/>
</g>
<g>
	<path style="fill:#E9B02C;" d="M373.36,217.744c-40.608-8.352-64.432-25.456-74.976-53.856c-2.048-5.52,0.768-11.664,6.288-13.712
		s11.664,0.768,13.712,6.288c5.264,14.208,16.768,31.632,59.264,40.368c5.776,1.184,9.488,6.832,8.304,12.592
		C384.752,215.312,379.008,218.928,373.36,217.744z"/>
	<path style="fill:#E9B02C;" d="M125.904,208.592c-0.704-5.856,3.456-11.168,9.296-11.872c29.36-3.568,50.096-17.856,58.4-40.224
		c2.048-5.52,8.192-8.352,13.712-6.288c5.52,2.048,8.352,8.192,6.288,13.712c-11.056,29.792-38.688,49.472-75.808,53.984
		C131.856,218.592,126.624,214.384,125.904,208.592z"/>
</g>
<path style="fill:#3E4347;" d="M339.568,405.76c-56.88-21.872-110.112-21.872-167.008,0c-8.672,3.152-15.712-8.656-9.744-16.368
	c26.416-34.624,59.6-54.304,93.184-54.304s66.912,19.68,93.184,54.304C355.136,397.104,348.096,408.896,339.568,405.76z"/>
<g>
</g>
<g>
</g>
<g>
</g>
<g>
</g>
<g>
</g>
<g>
</g>
<g>
</g>
<g>
</g>
<g>
</g>
<g>
</g>
<g>
</g>
<g>
</g>
<g>
</g>
<g>
</g>
<g>
</g>
</svg>
