<?xml version="1.0" encoding="iso-8859-1"?>
<!-- Generator: Adobe Illustrator 19.0.0, SVG Export Plug-In . SVG Version: 6.00 Build 0)  -->
<svg version="1.1" id="Capa_1" xmlns="http://www.w3.org/2000/svg" xmlns:xlink="http://www.w3.org/1999/xlink" x="0px" y="0px"
	 viewBox="0 0 512 512" style="enable-background:new 0 0 512 512;" xml:space="preserve">
<circle style="fill:#FFD93B;" cx="256" cy="256" r="256"/>
<path style="fill:#F4C534;" d="M512,256c0,141.44-114.64,256-256,256c-80.48,0-152.32-37.12-199.28-95.28
	c43.92,35.52,99.84,56.72,160.72,56.72c141.36,0,256-114.56,256-256c0-60.88-21.2-116.8-56.72-160.72
	C474.8,103.68,512,175.52,512,256z"/>
<circle style="fill:#3E4347;" cx="256" cy="382.144" r="63.856"/>
<path style="fill:#E24B4B;" d="M256,446c16.848,0,32.128-6.576,43.536-17.232c-0.256-6.912-2.08-13.424-5.168-19.104
	c-6.016-10.96-19.232-15.808-30.848-11.392c-6.768,2.48-14.4,3.984-23.008,3.984c-0.112,0-0.112,0-0.224,0
	c-12.896-0.112-25.04,7.952-27.296,20.64c-0.336,1.904-0.496,3.872-0.576,5.856C223.856,439.424,239.136,446,256,446z"/>
<path style="fill:#FFFFFF;" d="M309.056,346.64C297.6,329.552,278.112,318.288,256,318.288s-41.6,11.248-53.056,28.336
	C213.2,356,233.104,357.12,256,357.12S298.8,356,309.056,346.64z"/>
<g style="opacity:0.2;">
	
		<ellipse transform="matrix(-0.9317 -0.3632 0.3632 -0.9317 387.3987 892.644)" style="fill:#FFFFFF;" cx="277.618" cy="409.902" rx="8.816" ry="5.04"/>
</g>
<g>
	<path style="fill:#E9B02C;" d="M280.064,159.152c-2.256-5.44,0.352-11.68,5.792-13.92l78.016-32.16
		c5.44-2.272,11.68,0.352,13.92,5.792c2.256,5.44-0.352,11.68-5.792,13.92l-78.016,32.16
		C288.528,167.2,282.288,164.576,280.064,159.152z"/>
	<path style="fill:#E9B02C;" d="M218.016,164.944L140,132.784c-5.44-2.24-8.048-8.48-5.792-13.92c2.24-5.44,8.48-8.064,13.92-5.792
		l78.016,32.16c5.44,2.24,8.048,8.48,5.792,13.92C229.712,164.576,223.472,167.2,218.016,164.944z"/>
</g>
<ellipse style="fill:#FFFFFF;" cx="177.6" cy="232.608" rx="58" ry="58.048"/>
<circle style="fill:#3E4347;" cx="177.6" cy="232.608" r="32"/>
<ellipse transform="matrix(-0.6912 -0.7227 0.7227 -0.6912 163.8109 510.0115)" style="fill:#5A5F63;" cx="190.875" cy="220.006" rx="7.392" ry="5.456"/>
<ellipse style="fill:#FFFFFF;" cx="334.432" cy="232.608" rx="58" ry="58.048"/>
<circle style="fill:#3E4347;" cx="334.416" cy="232.608" r="32"/>
<ellipse transform="matrix(-0.6912 -0.7227 0.7227 -0.6912 428.994 623.274)" style="fill:#5A5F63;" cx="347.667" cy="219.978" rx="7.392" ry="5.456"/>
<g>
</g>
<g>
</g>
<g>
</g>
<g>
</g>
<g>
</g>
<g>
</g>
<g>
</g>
<g>
</g>
<g>
</g>
<g>
</g>
<g>
</g>
<g>
</g>
<g>
</g>
<g>
</g>
<g>
</g>
</svg>
