<?xml version="1.0" encoding="iso-8859-1"?>
<!-- Generator: Adobe Illustrator 19.0.0, SVG Export Plug-In . SVG Version: 6.00 Build 0)  -->
<svg version="1.1" id="Capa_1" xmlns="http://www.w3.org/2000/svg" xmlns:xlink="http://www.w3.org/1999/xlink" x="0px" y="0px"
	 viewBox="0 0 511.987 511.987" style="enable-background:new 0 0 511.987 511.987;" xml:space="preserve">
<circle style="fill:#FFD93B;" cx="255.994" cy="248.032" r="248.032"/>
<path style="fill:#3E4347;" d="M389.69,316.224c-28.112,44.128-77.456,73.488-133.696,73.488s-105.584-29.36-133.616-73.488
	c-3.808-5.92,0.528-13.616,7.52-13.616h252.176C389.066,302.608,393.402,310.304,389.69,316.224z"/>
<path style="fill:#F4C534;" d="M504.026,248.032c0,137.04-111.072,248.032-248.032,248.032c-77.968,0-147.584-35.968-193.072-92.32
	c42.56,34.416,96.736,54.96,155.712,54.96c136.96,0,248.032-110.992,248.032-248.032c0-58.992-20.544-113.168-54.96-155.712
	C467.978,100.448,504.026,170.048,504.026,248.032z"/>
<g>
	<path style="fill:#3E4347;" d="M170.106,212.608V183.2c-9.168-2.624-15.888-6.576-20.176-11.888
		c-4.272-5.312-6.416-11.744-6.416-19.328c0-7.664,2.416-14.112,7.264-19.328c4.848-5.216,11.28-8.224,19.328-9.008v-6.96h10.176
		v6.944c7.44,0.896,13.36,3.424,17.744,7.616c4.4,4.192,7.2,9.792,8.416,16.8l-17.744,2.32c-1.072-5.52-3.888-9.264-8.416-11.232
		v27.44c11.232,3.04,18.88,6.976,22.944,11.824c4.064,4.832,6.112,11.056,6.112,18.624c0,8.464-2.56,15.6-7.68,21.392
		c-5.12,5.808-12.24,9.36-21.36,10.672v13.12h-10.176V229.44c-8.096-0.976-14.672-4-19.712-9.056
		c-5.056-5.056-8.272-12.192-9.68-21.408l18.32-1.968c0.752,3.744,2.16,6.976,4.208,9.68
		C165.29,209.424,167.578,211.392,170.106,212.608z M170.106,138.928c-2.768,0.944-4.96,2.528-6.592,4.768
		c-1.632,2.24-2.464,4.72-2.464,7.44c0,2.48,0.752,4.784,2.24,6.912s3.76,3.84,6.8,5.152v-24.272H170.106z M180.282,213.584
		c3.504-0.656,6.368-2.272,8.56-4.88c2.208-2.592,3.296-5.648,3.296-9.152c0-3.136-0.928-5.84-2.768-8.112
		c-1.84-2.272-4.88-4.016-9.088-5.232V213.584z"/>
	<path style="fill:#3E4347;" d="M332.058,212.608V183.2c-9.168-2.624-15.888-6.576-20.176-11.888s-6.416-11.744-6.416-19.328
		c0-7.664,2.416-14.112,7.264-19.328c4.848-5.216,11.28-8.224,19.328-9.008v-6.96h10.176v6.944c7.44,0.896,13.36,3.424,17.744,7.616
		c4.4,4.192,7.2,9.792,8.416,16.8l-17.744,2.32c-1.072-5.52-3.888-9.264-8.416-11.232v27.44c11.232,3.04,18.88,6.976,22.944,11.824
		c4.064,4.832,6.096,11.056,6.096,18.624c0,8.464-2.56,15.6-7.68,21.392c-5.12,5.808-12.24,9.36-21.36,10.672v13.12h-10.176V229.44
		c-8.096-0.976-14.672-4-19.712-9.056c-5.056-5.056-8.288-12.192-9.68-21.408l18.32-1.968c0.752,3.744,2.144,6.976,4.208,9.68
		C327.242,209.424,329.53,211.392,332.058,212.608z M332.058,138.928c-2.768,0.944-4.96,2.528-6.592,4.768
		c-1.632,2.24-2.464,4.72-2.464,7.44c0,2.48,0.752,4.784,2.24,6.912c1.504,2.128,3.76,3.84,6.8,5.152v-24.272H332.058z
		 M342.234,213.584c3.504-0.656,6.368-2.272,8.56-4.88c2.192-2.592,3.296-5.648,3.296-9.152c0-3.136-0.928-5.84-2.768-8.112
		c-1.856-2.272-4.88-4.016-9.088-5.232L342.234,213.584L342.234,213.584z"/>
</g>
<path style="fill:#E24B4B;" d="M320.378,378.96c-2.416-16.064-17.072-25.344-31.472-28.72c-9.376-2.192-19.28-0.4-28.592,2.72
	c-7.952,2.8-17.76,3.808-28.64,1.728c-0.032-0.016-0.08-0.016-0.128-0.016c-8.528-1.632-17.488-1.776-24.192,2.464
	c-7.6,4.864-13.648,12.272-15.04,21.808c-0.72,4.896-1.072,10.112-1.008,15.648c12.368,96.208,37.488,117.68,65.024,117.392
	c27.536,0.304,52.656-21.168,65.024-117.392C321.434,389.088,321.098,383.856,320.378,378.96z"/>
<path style="fill:#FFFFFF;" d="M252.298,449.872c-0.064-7.216-0.128-14.368-0.176-21.392c-7.92-1.952-13.888-5.008-17.824-8.992
	s-6.064-8.736-6.176-14.048c-0.112-5.392,2.096-9.6,6.512-12.784c4.4-3.168,10.208-4.736,17.36-5.12
	c0-1.504,0.016-3.008,0.016-4.496c3.008,0.048,6,0.048,9.008-0.016c0,1.488,0.016,2.992,0.016,4.496
	c6.608,0.464,11.936,1.76,15.936,4.272c3.984,2.512,6.576,6.096,7.6,10.896c-5.408,0.976-10.736,1.824-16.032,2.544
	c-0.928-3.776-3.44-6.176-7.488-7.44c0,6.144-0.032,12.448-0.064,18.864c9.856,2.016,16.56,4.448,20.016,7.776
	c3.456,3.312,4.992,7.776,4.64,13.376c-0.384,6.272-2.96,11.696-7.408,16.112c-4.464,4.416-10.304,7.152-17.648,8.16
	c-0.032,3.264-0.064,6.528-0.08,9.808c-2.672,0-5.344,0-8.016,0c-0.032-3.184-0.048-6.368-0.08-9.536
	c-6.512-0.752-11.872-3.072-16.208-6.912c-4.32-3.84-7.392-9.28-9.04-16.16c5.248-0.272,10.448-0.576,15.632-0.944
	c0.72,2.736,1.968,5.136,3.728,7.152C248.282,447.504,250.186,448.96,252.298,449.872z M251.962,397.68
	c-2.464,0.592-4.432,1.6-5.888,3.088c-1.456,1.472-2.176,3.136-2.16,5.008c0.016,1.696,0.704,3.328,2.048,4.848
	c1.344,1.52,3.36,2.768,6.048,3.712C251.994,408.672,251.978,403.104,251.962,397.68z M260.698,450.592
	c2.896-0.496,5.28-1.728,7.168-3.664s2.88-4.208,2.96-6.768c0.064-2.304-0.656-4.24-2.208-5.856s-4.128-2.816-7.744-3.664
	C260.826,437.216,260.762,443.872,260.698,450.592z"/>
<g style="opacity:0.2;">
	
		<ellipse transform="matrix(-0.8727 -0.4883 0.4883 -0.8727 370.5039 836.376)" style="fill:#FFFFFF;" cx="294.292" cy="369.885" rx="11.424" ry="5.92"/>
</g>
<g>
</g>
<g>
</g>
<g>
</g>
<g>
</g>
<g>
</g>
<g>
</g>
<g>
</g>
<g>
</g>
<g>
</g>
<g>
</g>
<g>
</g>
<g>
</g>
<g>
</g>
<g>
</g>
<g>
</g>
</svg>
