<?xml version="1.0" encoding="iso-8859-1"?>
<!-- Generator: Adobe Illustrator 19.0.0, SVG Export Plug-In . SVG Version: 6.00 Build 0)  -->
<svg version="1.1" id="Capa_1" xmlns="http://www.w3.org/2000/svg" xmlns:xlink="http://www.w3.org/1999/xlink" x="0px" y="0px"
	 viewBox="0 0 512 512" style="enable-background:new 0 0 512 512;" xml:space="preserve">
<circle style="fill:#FFD93B;" cx="256" cy="256" r="256"/>
<path style="fill:#F4C534;" d="M512,256c0,141.44-114.64,256-256,256c-80.48,0-152.32-37.12-199.28-95.28
	c43.92,35.52,99.84,56.72,160.72,56.72c141.36,0,256-114.56,256-256c0-60.88-21.2-116.8-56.72-160.72
	C474.8,103.68,512,175.52,512,256z"/>
<g>
	<path style="fill:#3E4347;" d="M396.912,221.36c-70.384,0-108.384-42.208-109.968-44c-3.664-4.144-3.248-10.464,0.896-14.112
		s10.416-3.264,14.096,0.864l0,0c0.336,0.368,33.968,37.248,94.992,37.248c5.52,0,10,4.48,10,10S402.432,221.36,396.912,221.36z"/>
	<path style="fill:#3E4347;" d="M211.056,288.544c-36.368,22.72-84.464,32.24-121.28,28c19.184-7.968,60.288-20.688,98.24-40.64
		c-14.048-7.52-34.944-23.632-34.56-39.36C171.984,262.32,256.736,259.984,211.056,288.544z"/>
	<path style="fill:#3E4347;" d="M414.096,316.544c-60.112,6.928-147.632-27.712-131.04-48.64c2.704-3.616,32.4-11.856,38.08-13.92
		c9.088-3.584,23.6-9.536,29.28-17.44c0.384,15.76-20.496,31.824-34.56,39.36C345.696,292.48,398.096,309.904,414.096,316.544z"/>
	<path style="fill:#3E4347;" d="M106.928,221.36c-5.52,0-10-4.48-10-10s4.48-10,10-10c61.008,0,94.656-36.88,94.992-37.248
		c3.68-4.128,9.984-4.496,14.112-0.832s4.512,9.952,0.88,14.08C215.328,179.136,177.328,221.36,106.928,221.36z"/>
	<path style="fill:#3E4347;" d="M329.024,389.248c0,10.288-8.224,18.512-18.512,18.512H201.296c-10.096,0-18.32-8.224-18.32-18.512
		c0-10.096,8.224-18.32,18.32-18.32h109.216C320.8,370.928,329.024,379.152,329.024,389.248z"/>
</g>
<g>
</g>
<g>
</g>
<g>
</g>
<g>
</g>
<g>
</g>
<g>
</g>
<g>
</g>
<g>
</g>
<g>
</g>
<g>
</g>
<g>
</g>
<g>
</g>
<g>
</g>
<g>
</g>
<g>
</g>
</svg>
