<?xml version="1.0" encoding="iso-8859-1"?>
<!-- Generator: Adobe Illustrator 19.0.0, SVG Export Plug-In . SVG Version: 6.00 Build 0)  -->
<svg version="1.1" id="Capa_1" xmlns="http://www.w3.org/2000/svg" xmlns:xlink="http://www.w3.org/1999/xlink" x="0px" y="0px"
	 viewBox="0 0 512 512" style="enable-background:new 0 0 512 512;" xml:space="preserve">
<circle style="fill:#FFD93B;" cx="256" cy="256" r="256"/>
<path style="fill:#F4C534;" d="M512,256c0,141.44-114.64,256-256,256c-80.48,0-152.32-37.12-199.28-95.28
	c43.92,35.52,99.84,56.72,160.72,56.72c141.36,0,256-114.56,256-256c0-60.88-21.2-116.8-56.72-160.72
	C474.8,103.68,512,175.52,512,256z"/>
<circle style="fill:#3E4347;" cx="348.8" cy="296.128" r="41.056"/>
<path style="fill:#5A5F63;" d="M325.584,288.992c2.848,2.688,8.224,1.712,11.664-2.112c3.552-3.808,4.16-9.216,1.168-11.824
	c-2.96-2.72-8.208-1.824-11.76,1.984C323.088,280.976,322.624,286.288,325.584,288.992z"/>
<circle style="fill:#3E4347;" cx="163.136" cy="296.128" r="41.056"/>
<path style="fill:#5A5F63;" d="M139.92,288.992c2.848,2.688,8.224,1.712,11.664-2.112c3.552-3.808,4.16-9.216,1.168-11.824
	c-2.96-2.72-8.208-1.824-11.76,1.984C137.424,280.976,136.96,286.288,139.92,288.992z"/>
<path style="fill:#3E4347;" d="M108.64,191.168c9.28-62.464,67.728-116.816,147.312-116.656
	c79.712-0.16,138.144,54.208,147.424,116.656c1.104,6.944-5.472,13.376-12.416,12.336c-89.104-13.296-180.816-13.296-269.92,0
	C114.112,204.56,107.536,198.128,108.64,191.168z"/>
<path style="fill:#FFFFFF;" d="M255.952,97.296c59.008-0.16,108.032,35.696,123.648,84.208c-81.776-10.896-165.424-10.896-247.184,0
	C148.016,132.992,197.008,97.136,255.952,97.296z"/>
<g>
	<path style="fill:#3E4347;" d="M181.088,111.28l9.072,75.312l-1.92,0.208c-2.032,0.112-4.16,0.32-6.288,0.528l-1.712,0.112
		l-9.808-75.2l1.808-0.112c2.448-0.208,4.8-0.432,7.152-0.64L181.088,111.28z"/>
	<path style="fill:#3E4347;" d="M287.008,93.68h1.808l-4.272,90.768l-9.92-0.208l3.312-90.88l1.808,0.112
		C282.208,93.472,284.544,93.584,287.008,93.68z"/>
	<path style="fill:#3E4347;" d="M341.824,109.68l-10.128,77.76l-1.808-0.112c-2.032-0.208-4.16-0.432-6.192-0.528l-1.92-0.208
		l9.392-77.872l1.712,0.112c2.352,0.208,4.688,0.432,7.152,0.64L341.824,109.68z"/>
	<path style="fill:#3E4347;" d="M233.984,93.36l3.312,90.88l-9.92,0.208l-4.368-90.768h1.92c2.448-0.112,4.8-0.208,7.248-0.208
		L233.984,93.36z"/>
	<path style="fill:#3E4347;" d="M369.136,137.952l-1.92,10.448l-1.712-0.112c-73.392-8.96-147.728-8.848-221.12,0.208l-1.696,0.224
		l-1.92-10.448l1.92-0.32c74.448-9.168,149.968-9.28,224.432-0.208L369.136,137.952z"/>
</g>
<g>
</g>
<g>
</g>
<g>
</g>
<g>
</g>
<g>
</g>
<g>
</g>
<g>
</g>
<g>
</g>
<g>
</g>
<g>
</g>
<g>
</g>
<g>
</g>
<g>
</g>
<g>
</g>
<g>
</g>
</svg>
