<?xml version="1.0" encoding="iso-8859-1"?>
<!-- Generator: Adobe Illustrator 19.0.0, SVG Export Plug-In . SVG Version: 6.00 Build 0)  -->
<svg version="1.1" id="Capa_1" xmlns="http://www.w3.org/2000/svg" xmlns:xlink="http://www.w3.org/1999/xlink" x="0px" y="0px"
	 viewBox="0 0 512 512" style="enable-background:new 0 0 512 512;" xml:space="preserve">
<circle style="fill:#FFD93B;" cx="256" cy="256" r="256"/>
<path style="fill:#F4C534;" d="M512,256c0,141.44-114.64,256-256,256c-80.48,0-152.32-37.12-199.28-95.28
	c43.92,35.52,99.84,56.72,160.72,56.72c141.36,0,256-114.56,256-256c0-60.88-21.2-116.8-56.72-160.72
	C474.8,103.68,512,175.52,512,256z"/>
<g>
	<path style="fill:#3E4347;" d="M370.704,325.712c10.592,7.264-18.512,87.088-114.704,86.672
		c-96.192,0.4-125.296-79.408-114.704-86.672c8.16-8.72,46.08,32.848,114.704,31.216
		C324.624,358.56,362.544,316.992,370.704,325.712z"/>
	<path style="fill:#3E4347;" d="M395.28,195.728c-6.064-13.408-21.232-24.368-39.152-24c-29.088,0.512-39.472,33.6-34.16,22.928
		c-4.224,8.496-14.56,11.968-23.056,7.744c-8.512-4.224-11.968-14.56-7.744-23.056c7.952-16,36-36.608,66.896-31.6
		c27.184,4.544,45.2,24,50.112,42.672c1.472,3.568-0.224,7.648-3.792,9.104C400.832,200.992,396.752,199.296,395.28,195.728z"/>
	<path style="fill:#3E4347;" d="M103.824,190.416c0.08-0.08,0.352-1.504,1.872-5.28c12.256-29.392,44.432-44.064,74.96-35.84
		c16.832,4.512,28.304,13.968,38.448,27.264c5.76,7.552,4.304,18.352-3.248,24.112s-18.336,4.304-24.112-3.248
		c-3.728-4.864-2.496-7.312-9.104-13.888c-19.744-21.36-55.84-11.168-65.936,12.176c-1.472,3.568-5.552,5.264-9.104,3.792
		C104.048,198.048,102.352,193.968,103.824,190.416z"/>
</g>
<g>
	<path style="fill:#E24B4B;" d="M418.448,296.64c-9.296,15.376-26.432,21.968-38.4,14.736c-11.856-7.216-14.08-25.408-4.8-40.784
		c9.184-15.28,26.336-21.872,38.288-14.64C425.52,263.072,427.632,281.344,418.448,296.64z"/>
	<path style="fill:#E24B4B;" d="M93.552,296.64c9.296,15.376,26.432,21.968,38.4,14.736c11.856-7.216,14.08-25.408,4.8-40.784
		c-9.184-15.28-26.336-21.872-38.288-14.64C86.48,263.072,84.368,281.344,93.552,296.64z"/>
</g>
<g>
</g>
<g>
</g>
<g>
</g>
<g>
</g>
<g>
</g>
<g>
</g>
<g>
</g>
<g>
</g>
<g>
</g>
<g>
</g>
<g>
</g>
<g>
</g>
<g>
</g>
<g>
</g>
<g>
</g>
</svg>
