<?xml version="1.0" encoding="iso-8859-1"?>
<!-- Generator: Adobe Illustrator 19.0.0, SVG Export Plug-In . SVG Version: 6.00 Build 0)  -->
<svg version="1.1" id="Capa_1" xmlns="http://www.w3.org/2000/svg" xmlns:xlink="http://www.w3.org/1999/xlink" x="0px" y="0px"
	 viewBox="0 0 512 512" style="enable-background:new 0 0 512 512;" xml:space="preserve">
<circle style="fill:#FFD93B;" cx="256" cy="256" r="256"/>
<path style="fill:#F4C534;" d="M512,256c0,141.44-114.64,256-256,256c-80.48,0-152.32-37.12-199.28-95.28
	c43.92,35.52,99.84,56.72,160.72,56.72c141.36,0,256-114.56,256-256c0-60.88-21.2-116.8-56.72-160.72
	C474.8,103.68,512,175.52,512,256z"/>
<ellipse style="fill:#3E4347;" cx="171.696" cy="198.496" rx="39.872" ry="49.952"/>
<ellipse transform="matrix(-0.5948 -0.8038 0.8038 -0.5948 156.1232 432.6251)" style="fill:#5A5F63;" cx="187.09" cy="176.967" rx="10.655" ry="6.816"/>
<ellipse style="fill:#3E4347;" cx="340.256" cy="198.496" rx="39.872" ry="49.952"/>
<ellipse transform="matrix(-0.5948 -0.8038 0.8038 -0.5948 424.9676 568.1371)" style="fill:#5A5F63;" cx="355.663" cy="176.97" rx="10.655" ry="6.816"/>
<path style="fill:#3E4347;" d="M263.92,422.544c-4.192-1.408-6.448-5.936-5.04-10.128c1.424-4.176,5.952-6.448,10.128-5.04
	c12.4,4.144,42.912,3.088,42.912-8.608c0-7.04-9.632-13.488-22.896-15.36c-3.952-0.56-6.88-3.936-6.88-7.92s2.944-7.36,6.88-7.92
	c13.056-1.84,22.896-8.416,22.896-15.28c0-0.64,0-2.56-2.72-4.976c-6.368-5.648-23.072-9.36-40.192-3.632
	c-4.176,1.424-8.72-0.848-10.128-5.04s0.848-8.72,5.04-10.128c29.664-9.968,64,0.976,64,23.776c0,9.264-5.248,17.456-14.128,23.216
	c8.88,5.776,14.128,13.984,14.128,23.28C327.92,422.448,292.016,432,263.92,422.544z"/>
<g>
</g>
<g>
</g>
<g>
</g>
<g>
</g>
<g>
</g>
<g>
</g>
<g>
</g>
<g>
</g>
<g>
</g>
<g>
</g>
<g>
</g>
<g>
</g>
<g>
</g>
<g>
</g>
<g>
</g>
</svg>
