<?xml version="1.0" encoding="iso-8859-1"?>
<!-- Generator: Adobe Illustrator 19.0.0, SVG Export Plug-In . SVG Version: 6.00 Build 0)  -->
<svg version="1.1" id="Capa_1" xmlns="http://www.w3.org/2000/svg" xmlns:xlink="http://www.w3.org/1999/xlink" x="0px" y="0px"
	 viewBox="0 0 512 512" style="enable-background:new 0 0 512 512;" xml:space="preserve">
<circle style="fill:#FFD93B;" cx="256" cy="256" r="256"/>
<path style="fill:#3E4347;" d="M425.52,336.176c-28,66-93.36,112.32-169.52,112.32c-76.24,0-141.52-46.32-169.52-112.32
	c-4.48-10.56,3.2-22.4,14.72-22.4h309.6C422.24,313.776,430,325.616,425.52,336.176z"/>
<path style="fill:#F4C534;" d="M512,256c0,141.44-114.64,256-256,256c-80.48,0-152.32-37.12-199.28-95.28
	c43.92,35.52,99.84,56.72,160.72,56.72c141.36,0,256-114.56,256-256c0-60.88-21.2-116.8-56.72-160.72
	C474.8,103.68,512,175.52,512,256z"/>
<path style="fill:#FFFFFF;" d="M124.64,333.76c-1.008,10.976,8.464,21.28,22.16,23.44c72.32,11.44,146.16,11.44,218.48,0
	c13.616-2.144,23.088-12.448,22.08-23.44H124.64z"/>
<path style="fill:#E24B4B;" d="M319.632,414.336c-20.048,9.184-41.552,14.16-63.632,14.16c-22.16,0-43.584-4.992-63.632-14.16
	c4.064-9.92,10.016-18.768,17.488-25.856c8.752-8.464,20.848-10.352,32.368-7.808c3.216,0.752,6.688,1.136,10.32,1.136
	c5.28,0,9.984-0.752,14.368-2.272c10.448-3.408,21.68-2.464,30.432,4.624C306.96,391.952,314.672,402.304,319.632,414.336z"/>
<g style="opacity:0.2;">
	<path style="fill:#FFFFFF;" d="M292.96,394.736c-0.896,3.056-5.408,4.448-10.192,2.96c-4.8-1.472-8.016-5.2-7.232-8.368
		c0.784-3.184,5.328-4.496,10.144-3.088C290.496,387.744,293.776,391.568,292.96,394.736z"/>
</g>
<g>
	<path style="fill:#3E4347;" d="M383.632,167.84c-15.872-20.368-40.72-31.424-66.576-29.52c-6.56,0.432-12.352-4.48-12.832-11.104
		c-0.48-6.608,4.48-12.368,11.104-12.832c33.792-2.432,66.432,12,87.248,38.704c4.08,5.232,3.136,12.768-2.08,16.848
		C395.264,174,387.728,173.088,383.632,167.84z"/>
	<path style="fill:#3E4347;" d="M111.52,169.936c-5.232-4.08-6.16-11.616-2.08-16.848c20.816-26.688,53.456-41.168,87.248-38.704
		c6.608,0.48,11.584,6.224,11.104,12.832s-6.16,11.536-12.848,11.104c-25.84-1.904-50.704,9.152-66.576,29.52
		C124.288,173.072,116.752,174,111.52,169.936z"/>
</g>
<g>
	<path style="fill:#E24B4B;" d="M391.824,214.416c-5.664,29.232-64.64,53.648-64.64,53.648s-45.616-44.672-39.952-73.888
		c2.944-15.248,17.616-25.024,32.72-22.096c11.04,2.144,19.424,10.576,21.776,20.896c6.032-8.704,16.96-13.408,28-11.264
		C384.816,184.64,394.768,199.184,391.824,214.416z"/>
	<path style="fill:#E24B4B;" d="M120.192,214.416c5.664,29.232,64.64,53.648,64.64,53.648s45.616-44.672,39.952-73.888
		c-2.96-15.248-17.616-25.024-32.72-22.096c-11.04,2.144-19.424,10.576-21.776,20.896c-6.032-8.704-16.96-13.408-28-11.264
		C127.184,184.64,117.232,199.184,120.192,214.416z"/>
</g>
<g>
</g>
<g>
</g>
<g>
</g>
<g>
</g>
<g>
</g>
<g>
</g>
<g>
</g>
<g>
</g>
<g>
</g>
<g>
</g>
<g>
</g>
<g>
</g>
<g>
</g>
<g>
</g>
<g>
</g>
</svg>
