<?xml version="1.0" encoding="iso-8859-1"?>
<!-- Generator: Adobe Illustrator 19.0.0, SVG Export Plug-In . SVG Version: 6.00 Build 0)  -->
<svg version="1.1" id="Capa_1" xmlns="http://www.w3.org/2000/svg" xmlns:xlink="http://www.w3.org/1999/xlink" x="0px" y="0px"
	 viewBox="0 0 512 512" style="enable-background:new 0 0 512 512;" xml:space="preserve">
<circle style="fill:#FFD93B;" cx="256" cy="256" r="256"/>
<path style="fill:#F4C534;" d="M512,256c0,141.44-114.64,256-256,256c-80.48,0-152.32-37.12-199.28-95.28
	c43.92,35.52,99.84,56.72,160.72,56.72c141.36,0,256-114.56,256-256c0-60.88-21.2-116.8-56.72-160.72
	C474.8,103.68,512,175.52,512,256z"/>
<g>
	<path style="fill:#3E4347;" d="M315.952,404.816v0.08c-0.112,0.224-0.32,0.72-0.32,0.96c-0.08,0.08-0.08,0.16-0.16,0.24
		c-0.256,0.784-1.904,4.016-2.32,4.8c-15.04,23.488-33.776,7.296-45.76-0.96c-9.904-6.864-0.752-1.312-24.96-15.84
		c12.8,3.424,34.336,12.512,38.4,13.44c13.584,3.072,18.432-0.592,22.64-6.88c4.88-9.632-15.152-25.392-26.16-29.36
		c-7.52-2.8-14.72-5.04-21.68-6.96c6.96-1.92,14.16-4.16,21.68-6.96c20.768-7.696,28.56-23.904,26.32-28.4c0-0.32,0-0.32,0-0.32
		c-0.24-0.72-0.56-1.44-0.8-2.24c-9.36-9.36-18.368-7.376-34.56-0.96c-8.4,3.36-16.88,6.8-25.84,9.04c8-4.64,16.72-9.6,24.96-15.84
		c8-5.504,32.192-28.192,47.6,2.64c0,0.08,0.08,0.24,0.16,0.32c0,0.08,0.08,0.08,0.08,0.16c0.16,0.4,0.32,0.8,0.48,1.12
		c0,0.08,0,0.16,0,0.16c0.16,0.4,0.24,0.8,0.4,1.12c3.12,15.664-0.912,29.024-18.56,40.16
		C312.24,373.392,321.184,389.136,315.952,404.816z"/>
	<path style="fill:#3E4347;" d="M303.552,400.336c0,0.08-0.08,0.24-0.08,0.32C303.472,400.544,303.424,400.336,303.552,400.336z"/>
	<path style="fill:#3E4347;" d="M303.632,399.856c0,0,0,0.16-0.08,0.24C303.552,399.936,303.536,399.952,303.632,399.856z"/>
	<circle style="fill:#3E4347;" cx="162.688" cy="200.592" r="42.64"/>
</g>
<ellipse transform="matrix(-0.7071 -0.7071 0.7071 -0.7071 178.9714 439.5909)" style="fill:#5A5F63;" cx="180.528" cy="182.729" rx="8.256" ry="7.216"/>
<path style="fill:#3E4347;" d="M391.968,215.088c0,5.856-1.216,11.488-3.424,16.624c-7.072-16.992-24.688-28.976-45.312-28.976
	c-20.624,0-38.256,11.984-45.312,28.976c-2.208-5.136-3.424-10.784-3.424-16.624c0-25.2,21.84-45.6,48.752-45.6
	C370.128,169.488,391.968,189.888,391.968,215.088z"/>
<g>
	<path style="fill:#E24B4B;" d="M366.896,364.24c0,12.336-16.112,17.536-22.08,29.168c-5.968-11.632-22.08-16.832-22.08-29.168
		c0-6.432,5.2-11.568,11.568-11.568c4.656,0,8.736,2.768,10.512,6.784c1.776-4.016,5.84-6.784,10.512-6.784
		C361.696,352.656,366.896,357.792,366.896,364.24z"/>
	<path style="fill:#E24B4B;" d="M435.2,346.944c0,16.032-20.928,22.768-28.672,37.888c-7.744-15.104-28.672-21.856-28.672-37.888
		c0-8.352,6.752-15.024,15.024-15.024c6.064,0,11.344,3.6,13.648,8.816c2.304-5.216,7.584-8.816,13.648-8.816
		C428.464,331.92,435.2,338.592,435.2,346.944z"/>
	<path style="fill:#E24B4B;" d="M506.24,282.192c0,26.192-34.208,37.216-46.864,61.888c-12.656-24.688-46.864-35.712-46.864-61.888
		c0-13.664,11.024-24.56,24.56-24.56c9.904,0,18.544,5.888,22.304,14.4c3.76-8.512,12.4-14.4,22.304-14.4
		C495.216,257.648,506.24,268.544,506.24,282.192z"/>
</g>
<g>
</g>
<g>
</g>
<g>
</g>
<g>
</g>
<g>
</g>
<g>
</g>
<g>
</g>
<g>
</g>
<g>
</g>
<g>
</g>
<g>
</g>
<g>
</g>
<g>
</g>
<g>
</g>
<g>
</g>
</svg>
